<svg width="24" height="24" viewBox="0 0 24 24" fill="none" xmlns="http://www.w3.org/2000/svg">
<path d="M12.036 12.278L21.294 4.488C20.9354 4.17501 20.476 4.00176 20 4H4C3.49469 4.00097 3.00873 4.19442 2.641 4.541L12.036 12.278Z" fill="#FEC223"/>
<path d="M13.241 13.817C12.8804 14.0923 12.4397 14.2422 11.986 14.244C11.5579 14.2449 11.1412 14.1062 10.799 13.849L2 6.6V18C2 18.5304 2.21071 19.0391 2.58579 19.4142C2.96086 19.7893 3.46957 20 4 20H20C20.5304 20 21.0391 19.7893 21.4142 19.4142C21.7893 19.0391 22 18.5304 22 18V6.5L13.241 13.817Z" fill="#FEC223"/>
</svg>
