<svg width="24" height="24" viewBox="0 0 24 24" fill="none" xmlns="http://www.w3.org/2000/svg">
<path d="M12 2C10.5415 1.99858 9.11046 2.39629 7.86185 3.15004C6.61325 3.9038 5.59471 4.98486 4.91659 6.2761C4.23847 7.56735 3.92662 9.01954 4.01482 10.4754C4.10303 11.9312 4.58794 13.3351 5.417 14.535C5.45019 14.6002 5.49043 14.6616 5.537 14.718L5.657 14.864C5.769 15.009 5.884 15.149 5.983 15.264L11.228 21.638C11.322 21.7515 11.44 21.8428 11.5735 21.9054C11.7069 21.968 11.8526 22.0003 12 22C12.1478 22.0001 12.2938 21.9674 12.4275 21.9043C12.5611 21.8411 12.6791 21.7492 12.773 21.635L17.865 15.43C18.0713 15.2082 18.2643 14.9745 18.443 14.73L18.57 14.575C18.6184 14.5162 18.6594 14.4518 18.692 14.383C19.4823 13.1763 19.9316 11.7785 19.9924 10.3374C20.0532 8.89624 19.7233 7.46548 19.0375 6.19653C18.3518 4.92757 17.3357 3.86763 16.0968 3.12889C14.8579 2.39014 13.4424 2.00009 12 2ZM12 13C11.4067 13 10.8266 12.8241 10.3333 12.4944C9.83994 12.1648 9.45542 11.6962 9.22836 11.1481C9.0013 10.5999 8.94189 9.99667 9.05764 9.41473C9.1734 8.83279 9.45912 8.29824 9.87868 7.87868C10.2982 7.45912 10.8328 7.1734 11.4147 7.05764C11.9967 6.94189 12.5999 7.0013 13.1481 7.22836C13.6962 7.45542 14.1648 7.83994 14.4944 8.33329C14.8241 8.82664 15 9.40666 15 10C15 10.7956 14.6839 11.5587 14.1213 12.1213C13.5587 12.6839 12.7956 13 12 13Z" fill="#FEC223"/>
</svg>
