<svg width="24" height="24" viewBox="0 0 24 24" fill="none" xmlns="http://www.w3.org/2000/svg">
<path d="M21 16.446C20.9453 15.689 20.6076 14.9803 20.054 14.461L18.654 13.061C18.0859 12.5185 17.3305 12.2159 16.545 12.2159C15.7595 12.2159 15.0041 12.5185 14.436 13.061L13.736 13.761C13.5517 13.9453 13.3017 14.0488 13.041 14.0488C12.7803 14.0488 12.5303 13.9453 12.346 13.761L10.246 11.661C10.062 11.4767 9.95867 11.2269 9.95867 10.9665C9.95867 10.7061 10.062 10.4563 10.246 10.272L10.946 9.572C11.2231 9.29523 11.443 8.96655 11.5929 8.60476C11.7429 8.24297 11.8201 7.85515 11.8201 7.4635C11.8201 7.07185 11.7429 6.68403 11.5929 6.32224C11.443 5.96045 11.2231 5.63177 10.946 5.355L9.546 3.955C9.28107 3.65749 8.95619 3.4194 8.59271 3.25637C8.22923 3.09334 7.83537 3.00906 7.437 3.00906C7.03863 3.00906 6.64477 3.09334 6.28129 3.25637C5.9178 3.4194 5.59293 3.65749 5.328 3.955C1.709 7.574 2.328 12.184 7.08 16.934C9.785 19.639 12.45 21 14.912 21C15.8812 20.9797 16.8363 20.7633 17.7195 20.3637C18.6028 19.9641 19.3959 19.3896 20.051 18.675C20.3605 18.3938 20.6056 18.0491 20.7694 17.6643C20.9332 17.2796 21.0119 16.864 21 16.446Z" fill="#FEC223"/>
</svg>
