<?xml version='1.0' encoding='utf-8'?>
<svg xmlns="http://www.w3.org/2000/svg" width="1637px" height="1169px" version="1.1" viewBox="-279 463 1637 1169"> <g> <g fill="#b7e5f5"> <path d="m-279 462.27c-0.19324 0-0.37858 0.07675-0.5152 0.21338-0.13663 0.13662-0.21338 0.32196-0.21338 0.5152l1e-3 1169c0 0.4023 0.32621 0.7286 0.72858 0.7286l1637 1e-3c0.1932 0 0.3785-0.0769 0.5151-0.2135s0.2135-0.3219 0.2135-0.5151l-1e-3 -1169c0-0.40237-0.3263-0.72858-0.7286-0.72858l-1637-1e-3z"/> </g> <g fill="#052637" fill-opacity=".44706"> <path d="m1112.9 1453.3-5.1524 0.6799q-8.14 0.4563-23.248 0.8728-43.867 1.0052-61.002 1.1573-51.12 0.7102-130.11 1.2582-17.923 0.1818-126.37 0.6586-88.954 0.3302-190.46 0.3719-131.83-0.0032-154.94-0.1193-118.86-0.3122-137.14-0.449-84.56-0.3924-150.81-1.0321-68.467-0.6623-106.1-1.4571-14.389-0.1805-37.483-1.2481-21.319-1.4204 39.251-2.6526 37.184-0.7918 102.24-1.4205 87.759-0.7551 112.58-0.8441 82.677-0.4754 177.91-0.6609 121.79-0.1694 149.91-0.1165 108.24 0.0481 197.11 0.3905 44.568 0.1643 84.56 0.3919 95.974 0.6214 109.68 0.8199 67.149 0.6479 105.23 1.4478 41.983 0.8345 44.354 1.9514"/> </g> <g fill="#004b70"> <path d="m257.43 721.95 528.89 0.9693q-0.6687 365.88-1.3358 731.76-264.45-0.4846-528.89-0.9659 0.66926-365.88 1.3381-731.76"/> </g> <g fill="#fff"> <path d="m314.14 1386.4c-19.818-0.0374-35.866-16.143-35.829-35.97l1.0501-574.44c0.03673-19.825 16.143-35.865 35.961-35.828l412.89 0.75255c19.826 0.03905 35.864 16.136 35.828 35.962l-0.80995 444.08-173.36 165.94-275.73-0.5057z"/> </g> <g fill="#00141e"> <path d="m365.75 685.51 312.38 0.5727q-0.06115 33.409-0.12231 66.816-156.19-0.28474-312.38-0.57034 0.06128-33.409 0.12232-66.819"/> </g> <g fill="#3c464f"> <path d="m329.46 804.63v0.00171l64.925-0.39614c1.743-0.0106 3.1647 1.3941 3.1754 3.137v0.00145l0.36142 59.223c0.01068 1.7428-1.3937 3.1645-3.1367 3.1752v0.00171l-64.925 0.39624c-0.83716 5e-3 -1.6419-0.32275-2.2375-0.9111-0.59547-0.58816-0.9328-1.3887-0.93787-2.2256v0.0017l-0.3616-59.229c-0.00506-0.83665 0.3224-1.6416 0.9109-2.2373 0.58825-0.59544 1.3888-0.93264 2.2259-0.93811v0.00171m0.03833 6.3107 3.1369-3.1754 0.36157 59.227-3.1754-3.1367 64.925-0.39786-3.1367 3.1756-0.36142-59.224 3.1751 3.1367-64.925 0.3944z"/> <path d="m330.08 905.74v0.00174l64.925-0.39627c1.743-0.01073 3.1645 1.3939 3.1751 3.1369v0.0017l0.36152 59.222c0.01043 1.7424-1.3937 3.1644-3.1367 3.1753v0.00146l-64.925 0.396c-0.83697 0.0055-1.6417-0.32226-2.2372-0.9109-0.59558-0.5879-0.93304-1.3889-0.93817-2.2256v0.0015l-0.36133-59.229c-0.00525-0.83667 0.32238-1.6415 0.91065-2.2373 0.58831-0.5954 1.389-0.9326 2.2262-0.93784v0.00174m0.03827 6.3104 3.1369-3.1754 0.36142 59.227-3.1752-3.1364 64.925-0.39794-3.1367 3.1753-0.36152-59.224 3.1752 3.137-64.925 0.3944z"/> <path d="m330.69 1006.9v0.0015l64.925-0.396c1.7428-0.0105 3.1644 1.3939 3.1751 3.1371v0.00144l0.36143 59.222c0.01044 1.7425-1.3937 3.1646-3.1367 3.1756v0.0012l-64.925 0.3961c-0.8371 0.0049-1.6418-0.3225-2.2374-0.9109-0.5954-0.5881-0.9328-1.389-0.93793-2.2257v0.0015l-0.36154-59.229c-0.00513-0.8369 0.3225-1.642 0.91077-2.2372 0.5883-0.59594 1.389-0.93324 2.226-0.93824v0.0015m0.03846 6.3104 3.1368-3.1754 0.36142 59.227-3.1752-3.1365 64.925-0.3984-3.1367 3.1753-0.36148-59.224 3.1751 3.1365-64.925 0.39466z"/> <path d="m331.31 1108v0.0015l64.925-0.3967c1.743-0.0102 3.1644 1.3938 3.1751 3.137v0.0015l0.36144 59.222c0.0107 1.7432-1.3937 3.1648-3.1367 3.1755v0.0017l-64.925 0.3962c-0.83697 0.0053-1.6417-0.3223-2.2372-0.9104-0.59546-0.5884-0.93293-1.3889-0.93799-2.2263v0.0014l-0.36154-59.229c-0.00513-0.8372 0.3225-1.6416 0.91083-2.2376 0.58825-0.5952 1.389-0.9323 2.226-0.9372v0.0015m0.03857 6.3102 3.1366-3.1752 0.3616 59.227-3.1753-3.1369 64.924-0.3979-3.1367 3.1756-0.36121-59.224 3.1751 3.1369-64.925 0.3944z"/> <path d="m331.93 1209.1v0.0015l64.925-0.3965c1.743-0.0103 3.1645 1.3943 3.1752 3.1369v0.0015l0.36144 59.222c0.01068 1.7429-1.3937 3.1648-3.1367 3.1753v0.0017l-64.925 0.3963c-0.83704 0.0049-1.6418-0.3227-2.2374-0.9111-0.59546-0.5881-0.93293-1.3882-0.93786-2.2258v0.0014l-0.36151-59.229c-0.00506-0.8369 0.32251-1.6414 0.91076-2.2373 0.58826-0.5952 1.389-0.9324 2.226-0.9373v0.0015m0.0384 6.3103 3.1368-3.1753 0.3614 59.227-3.1754-3.1375 64.925-0.3978-3.1368 3.1755-0.36142-59.223 3.1754 3.1367-64.925 0.3943z"/> </g> <g fill="#c9d6de"> <path d="m416.84 823.9 284.99-1.7513q0.1261 20.476 0.25207 40.952-142.49 0.8764-284.99 1.753-0.12592-20.477-0.25182-40.954"/> <path d="m417.44 922.7 284.99-1.752 0.25194 40.953-284.99 1.7524-0.2519-40.953"/> <path d="m418.04 1021.5 284.99-1.7511q0.126 20.476 0.2519 40.953-142.49 0.8759-284.99 1.7525-0.12567-20.477-0.25164-40.954"/> <path d="m418.64 1120.3 284.99-1.7513 0.25227 40.953-284.99 1.7524-0.2519-40.954"/> <path d="m419.25 1219.1 142.49-0.8766 142.49-0.8753q0.12584 20.477 0.25214 40.952-142.49 0.8772-284.99 1.7535-0.1257-20.477-0.25162-40.954"/> </g> <g fill="#e1e1e1"> <path d="m763.23 1221-137.16-0.2538c-19.827-0.0337-35.925 16.005-35.962 35.83l-0.2376 130.37 173.36-165.94z"/> </g> <g fill="#535d66"> <path d="m358.19 798.3h-1.2e-4l-11.973 64.545q70.54-40.481 141.08-80.962-60.573 27.043-121.15 54.086l-7.9602-37.669"/> <path d="m358.81 898.5-11.973 64.545 141.08-80.963-121.15 54.086-7.9603-37.669"/> <path d="m359.42 998.69-5.9865 32.273-5.9868 32.273q70.54-40.481 141.08-80.963-60.573 27.043-121.15 54.086l-7.9604-37.669"/> <path d="m360.03 1098.9-11.973 64.546 141.08-80.962-121.15 54.085-7.9603-37.669"/> <path d="m360.64 1199.1-5.9868 32.273-5.9868 32.272q70.54-40.482 141.08-80.963-60.573 27.043-121.15 54.086-3.9804-18.834-7.9604-37.669"/> </g> <g fill="#70614e"> <path d="m643.5 813.62 0.85486 10.705 85.914-0.41852 10.814-0.05017v9.8e-4l-1.5534-10.705-10.813 0.05285-85.216 0.41529z"/> <path d="m643.5 813.62-10.738 0.05236 2.3e-4 0.00403 0.85437 10.7 10.738-0.05165-0.85486-10.705v0.00122z"/> <path d="m632.76 813.67v5e-4l9.7e-4 0.00403-2.3e-4 -0.00403-7.4e-4 -5e-4z"/> <path d="m632.76 813.67v5e-4 -5e-4z"/> <path d="m739.25 885.85v7.6e-4l9.7e-4 0.00184-4.8e-4 0.0012 4.8e-4 -0.0012-4.8e-4 0.0012-4.9e-4 -0.0038z"/> <path d="m750.07 885.79-10.812 0.0553-4.8e-4 0.0012 1.5519 10.7 10.813-0.05057-1.5517-10.705z"/> <path d="m649.3 886.28-10.738 0.05406-5e-4 0.00244 0.8541 10.703 10.739-0.05077-0.85388-10.709z"/> <path d="m649.3 886.28 0.85434 10.707 90.65-0.44077-1.5514-10.701-4.8e-4 0.0012-4.9e-4 -0.0012v-0.00184-7.6e-4l-89.952 0.4373z"/> <path d="m638.56 886.34v0.00156l-5e-4 0.00244 5e-4 -0.00244v-0.00156z"/> <path d="m760.61 958.44v9.7e-4 0.0023-0.0023 0.0023-0.00327z"/> <path d="m760.61 958.44 0.7766 5.35 0.77676 5.3473-1.5534-10.697z"/> <path d="m655.11 958.95 0.85474 10.706 95.389-0.4658 10.812-0.0525-1.5534-10.699v0.0023-0.0023-9.7e-4l-10.813 0.05371-3.4e-4 -0.00234-94.69 0.4606z"/> <path d="m655.11 958.95-10.738 0.0549v2e-3l0.85496 10.701 10.738-0.0505-0.85474-10.707z"/> <path d="m644.37 959.01v0.00205 2e-3 -2e-3 -0.00205z"/> <path d="m660.91 1031.6 0.8546 10.706 100.13-0.4878 10.812-0.0497-1.5518-10.702-3.5e-4 0.0015v-0.0015l1e-4 -0.0028-10.814 0.0531-99.427 0.4829z"/> <path d="m781.69 1103.7v0.0017 2e-3 -2e-3 2e-3 -0.0037z"/> <path d="m781.69 1103.7 0.77674 5.3511 0.63854 4.3999-1.4153-9.751z"/> <path d="m666.72 1104.3 0.85556 10.704 104.86-0.5113 10.813-0.0502-1.5531-10.7v2e-3 -2e-3 -0.0017l-114.98 0.5584z"/> <path d="m792.24 1176.4 4.9e-4 0.0017v0.0024-0.0024 0.0024l-4.9e-4 -0.0041z"/> <path d="m792.24 1176.4 0.77649 5.3506 0.578 3.9836-1.3545-9.3342z"/> <path d="m781.42 1176.4 1.5521 10.701 10.813-0.0505-1.5526-10.702v0.0024l-4.9e-4 -0.0024v-0.0017l-10.812 0.0527z"/> <path d="m802.83 1249.4 0.72743 5.0175 0.5184 3.5682-1.2458-8.5857z"/> <path d="m678.33 1249.6 0.85546 10.704 114.34-0.5555 10.814-0.0508-1.5532-10.701v0.0024-0.0024-3e-4l-10.814 0.0545v-0.0015l-113.64 0.5509z"/> <path d="m667.59 1249.7 0.85585 10.703 10.738-0.0487-0.85546-10.706-10.739 0.0509z"/> <path d="m802.78 1249v3e-4 0.0024-0.0024 0.0024-0.0027z"/> <path d="m813.32 1321.7v2e-3 -2e-3 2e-3 -2e-3 2e-3z"/> <path d="m684.13 1322.3 0.05053 0.6289 0.8053 10.075 119.07-0.5777 10.813-0.0488-1.0704-7.3794-0.4823-3.323-2.3e-4 0.0029-10.812 0.0513-118.38 0.5711z"/> <path d="m684.13 1322.3-10.738 0.0528v0.0024l0.85492 10.701 10.739-0.0503-0.85583-10.706z"/> <path d="m673.39 1322.4v0.0017l2.4e-4 0.0024v-0.0024l-2.4e-4 -0.0017z"/> <path d="m823.86 1394.3 3.7e-4 0.0024v0.0025-0.0025 0.0025l-3.7e-4 -0.0049z"/> <path d="m689.94 1395 0.8551 10.706 123.81-0.6003 9.8034-0.0457c0.33495-0.0037 0.66344-0.0354 0.98156-0.0967l-1.5243-10.61v0.0025l-3.7e-4 -0.0025v-0.0024l-10.814 0.0547v-2e-3l-123.11 0.5959z"/> <path d="m689.94 1395-10.738 0.0549v0.0019l0.85403 10.7 10.739-0.0493-0.85535-10.708z"/> <path d="m823.86 1394.3 0.02723 0.1888 1.5124 10.417-1.5397-10.606z"/> <path d="m679.2 1395 4.7e-4 0.0027 2.7e-4 0.0019v-0.0019l-7.4e-4 -0.0027z"/> </g> <g fill="#ad9e7f"> <path d="m732.69 766.39v0.00305 0.00269l-0.05564-0.74671 99.694 686.97c0.4241 2.9268-1.6039 5.6436-4.5304 6.0684-2.9264 0.4241-5.6432-1.6048-6.0675-4.5325v2e-3l-99.693-686.97c-0.03626-0.24545-0.05406-0.49328-0.05516-0.74255v0.00134-0.00304c-0.0144-2.9568 2.3699-5.3646 5.3273-5.3798 2.9569-0.01303 5.3663 2.3716 5.381 5.3262z"/> </g> <g fill="#929fa8"> <path d="m652.41 904.37v0.0016 0.0017-0.0033 0.0016-0.0016 0.0016q0-0.0016 0-0.0016z"/> </g> <g fill="#962c07" fill-opacity=".05098"> <path d="m657.01 855.37q-0.0437 0.02956-0.0876 0.05906l0.00755 0.0391v0.0017q-2.502 4.6581-3.0858 6.9858-0.00708 0.02917-0.01443 0.05297v2.5e-4q-0.0528 0.38929-0.081 0.77698-0.1316 0.71552-0.3114 1.1356l7e-4 0.00146q-0.05175 0.34534-0.088 0.69504l-0.2312 4.0137v0.00256q0.0713 0.09434 0.1466 0.19348v9.6e-4q0.0078 1.2382-0.1155 2.4382-0.0802 1.0468-0.6328 3.6327-0.0818 0.51111-0.0055 0.79066 0.03956 0.2318 0.3599 0.4963 1.5393 0.8233 1.6538 1.0257 0.3894 0.36644 0.5797 0.89319 0.16015 0.41685 0.20386 1.1896-0.06116 4.295 0.11074 4.854 0.21506 1.6029 0.9521 2.6609 0.66006 0.95485 1.9676 1.8478l5.1698 3.0128q0.84949 0.6873 1.0636 1.4575v0.00147q0.22695 0.1791 0.44725 0.36536 0.3494 0.30578 0.70717 0.68274v0.0012l1.5338 6.8405q4.105 3.8191 6.2318 7.2235l-7.5e-4 0.0028q-1.1734 0.8337-2.4328 2.6788v2.7e-4q3.8792-0.46267 6.6557-2.572 2.7665-2.2269 1.8188-5.4016-0.54894-1.9891-2.3719-4.5845-1.3701-2.0387-5.7733-7.0637l-14.378-36.433z"/> </g> <g fill="#70614e"> <path d="m650.17 1031.7 0.85437 10.707 10.739-0.0503-0.8546-10.709-10.738 0.0522z"/> <path d="m655.98 1104.3 0.85497 10.705 10.739-0.0505-0.85556-10.706-10.738 0.051z"/> <path d="m661.78 1177 0.85437 10.706 10.738-0.05-0.85474-10.707-10.738 0.0517z"/> <path d="m672.52 1177 0.85474 10.705 109.6-0.532-1.5526-10.701-108.9 0.5286z"/> </g> <g fill="#ad9e7f"> <path d="m639.37 762.57v0.0011l-5e-4 0.0027-0.0077-0.7468 55.28 691.96c0.23573 2.9463-1.9636 5.5274-4.9113 5.7634-2.948 0.2344-5.5273-1.9648-5.7635-4.9145v0.0034l-55.279-691.96c-0.02004-0.24644-0.0227-0.4945-0.0071-0.7435l-2.5e-4 7e-4 2.5e-4 -3e-3c0.17566-2.9529 2.7113-5.2032 5.663-5.027 2.9524 0.1758 5.2018 2.7129 5.0262 5.6638z"/> </g> <g> <path d="m742.26 1150.3-13.48 17.256q-2.5997 2.5425-5.0363 3.991-0.75304 0.6309-7.9408 3.8604-1.4197 0.7255-2.1822 1.3269-2.0773 1.5525-0.4346 3.0866 2.4065 1.9954 7.1724 2.3223 4.4255 0.2344 8.6553-1.4453 7.0563-2.49 21.49-15.566-2.7032-7.1472-4.2602-9.907-1.4804-2.7334-3.9815-4.9242"/> <path d="m706.98 1169.7-13.16 4.0063-6.0919 0.9075q-4.9566-0.7922-6.9861-0.8818-2.5731-0.1436-4.0699 0.2429-3.6765 1.1622-2.5971 3.974 1.3018 3.0697 11.642 4.5489 6.3464 0.9041 13.24 1.0611 4.9354 0.1157 8.8874-0.6892 2.0206-3.5918 1.7976-6.0103-0.06641-2.2546-2.6618-7.158"/> </g> <g fill="#efa685"> <path d="m693.09 1159.1q-1.5788 7.5332-3.7426 10.302-0.93274 1.2976-2.3212 2.3169-0.7506 0.5544-1.6728 1.0894l-3.4199 1.8754q-0.74416 0.4756-0.78589 0.802-0.10547 0.7056 2.1452 1.3194 2.2823 0.5906 5.5946 0.7092 6.3659 0.1758 12.53-1.6289 5.4836-1.6931 5.9064-4.0317 0.19154-0.8843-0.13036-1.9607-0.0376-0.4512-1.7903-4.0777-0.29575-0.7038-0.55845-1.4929-0.7117-2.1357-1.1112-4.8772l-10.636-0.3457"/> <path d="m734.99 1139.2-13.142 4.8372q6.567 11.83 6.4123 16.835 0.05542 2.4822-1.0827 4.8838-0.57094 1.23-1.4818 2.5603l-3.0458 4.0476q-0.4645 0.738-0.2443 1.0718 0.7743 0.8234 4.0236-0.6143 3.0276-1.4075 6.2037-4.1047 3.7305-3.168 7.3529-7.3872 3.5852-4.2298 4.409-6.408 0.55813-1.47-0.11207-2.4973l-0.5431-0.7228q-1.6655-1.7493-1.9933-2.1828-0.7136-0.8707-1.5008-1.9905-1.6947-2.3738-5.2371-8.2991"/> </g> <g> <path d="m674.28 847.51q-5.8591 0.10107-17.364 7.9289l10.338 46.09q6.0736 5.6512 7.8168 10.398 0.84935 2.0553 1.3982 4.9662 1.9787 15.541 2.8258 17.329 1.3561 4.9273 5.2458 10.657l13.388 19.003q2.5702 3.4994 4.2503 4.9774 2.8327 3.527 12.24 2.6998 9.4788-0.1949 8.6946-9.424-0.245-1.846-1.1236-3.5359l-4.4518-5.7227q-0.9987-1.61-1.8218-4.7926-0.7915-3.2642-0.8502-5.6246-0.0054-0.88413 0.1101-1.1901 0.55175-0.95607 0.56506-1.4994 0.07994-0.4788-0.02866-1.8887-0.2514-2.72-1.3107-8.0367-8.7661-41.041-13.499-57.803-2.0926-7.4066-8.0911-12.624-12.045-10.587-11.647-9.8034-3.2634-2.1863-6.6804-2.1056"/> <path d="m714.44 989.25-23.412 6.823-10.523-3.5662-10.252 3.3177-1.7606-3.0219-3.0091 8.3277c-0.6067-5.3433-1.2494-6.1471-1.9616-2.4138-0.50034 2.6277-0.7395 4.8157-0.58604 6.5617 0.11914 1.3595 1.0022 0.0055 2.5553-4.0571 0.23024 3.4636 0.14319 5.882-0.36646 7.2181-0.2632 0.68542-0.6775 0.99106-1.1407 0.95471l-2.6747-0.75659 2.6811 17.047c2.7 21.091 4.4063 33.65 5.0184 37.69 1.1489 7.5752 2.2764 14.67 3.4291 21.273 2.8371 16.255 8.1789 42.173 16.083 77.73l18.047-2.0657-4.5924-49.602 21.69 43.937 13.533-15.479c-20.738-39.908-28.324-52.617-31.889-55.508 2.1986-2.6485-0.86694-9.2662 0.81214-14.263 0.73291-2.1823 4.0144-13.544 9.4275-34.239l1.583-4.8672 3.214-8.0882c0.70008-2.1811 1.0827-4.1664 1.4305-5.9093 1.4191-7.1035-0.8998-16.035-7.2283-26.852z"/> </g> <g fill="#64b2e1"> <path d="m711.84 970.93-20.436 0.82544q4.6931 6.3958 5.5931 9.1201 1.2599 3.3349-0.20715 5.4381-1.3839 2.0666-6.1864 3.7646-3.9454 1.4544-14.339 3.4605 5.4258 3.391 8.9234 4.4728 3.8157 1.2406 7.7626 0.92463 6.8846-0.25927 24.267-8.6888l-5.3715-19.3"/> <path d="m675.51 908.06q-3.2995-0.19004-7.3687 8.7266-5.6077 13.036-6.4222 21.271-0.29247 3.6134 1.0194 5.8787 0.4176 0.73767 1.293 1.4829 5.0277 3.1945 5.6826 4.3014 1.619 1.8804 2.1157 4.8861 0.4874 2.7329-0.15785 7.6039-0.04945 1.4147-2.9591 16.56-0.5365 3.2296-0.63854 5.0386-0.3462 4.752 1.7104 4.7046 1.4417-0.0022 4.23-1.8801l10.009-7.5158 3.7533-2.5618q3.1671-1.9614 5.3944-2.4837 2.6886-0.6853 5.4266 0.16882 1.5778 0.21414 7.6768 4.5571 1.2652 0.6295 2.1727 0.21654 3.0401-1.6516 3.8153-8.6421 0.3173-4.1596-1.36-6.6676-0.72654-1.6448-6.1588-5.1824-0.6606-0.61636-0.9869-1.3458-0.21986-0.44835-0.37574-1.2852-0.32446-4.1086-0.92859-5.9439-0.86087-3.0059-2.2394-5.0711-1.0271-1.5058-2.1912-1.9274-0.3911-0.31265-3.626-0.48095-0.50415-0.07703-0.98875-0.3334-0.84035-0.4614-1.522-1.787-0.7115-1.3515-1.4622-4.1512l-3.7099-14.878q-1.5515-2.8527-2.4796-4.427-5.3756-9.1114-8.6271-8.8312"/> </g> <g fill="#5b3b30" fill-opacity=".094118"> <path d="m679.76 925.78 7.3159 34.569 0.1935 15.158 8.6679-4.1196q-2.4065-4.5459-3.743-8.3845-0.52429-1.4691-1.141-3.499l-3.1564-10.844q-0.92371-3.0916-1.8102-5.7338-1.9057-5.771-6.305-17.088"/> </g> <g fill="#64b2e1"> <path d="m712.37 974.15q-5.1803 7.8431-9.7638 11.392-2.2624 1.7593-5.1994 3.1677-2.2607 1.1302-7.6966 3.0346 2.026 2.9564 3.6742 3.8336 1.8836 1.0658 4.3286 0.7295 4.2959-0.35964 17.66-7.8522l-3.0022-14.299"/> </g> <g fill="#887f7c" fill-opacity=".38824"> <path d="m701.83 1024.4-7.1401 57.449q2.3343 54.452 4.6948 68.298 1.6467 11.121 4.5276 11.395 0.0959 0.0259 0.19576 0.0383-0.10266-0.4795-0.19122-0.9805v3e-3l2.4558-0.2854 0.0011 0.0036q0.0903-0.0947 0.18224-0.1948l0.00109 0.0022-4.5777-49.435v0.0015l0.2971 18.565q-0.40503-16.795-0.62745-21.059 0.38819-16.657-0.53335-26.775v0.0029q0-0.0029 0-0.0029v0.0014q-0.0526-0.5766-0.10056-1.1369-0.0581-0.6692-0.10814-1.3152-0.9319-11.742-0.2245-20.849 0.5067-7.997 3.28-19.974l-2.124-13.7-0.00831-0.0521v1e-3z"/> </g> <g fill="#efa685"> <path d="m607.11 833.13q-1.9522 0.15236-0.9574 1.9749 0.41124 0.65537 1.1787 1.4481l4.7006 4.7119q1.2099 1.3745 1.413 2.3564 0.16026 0.74085-0.4755 1.506l-3.2569 2.4967q-0.55496 0.47583-0.75086 1.219-0.3419 1.5902 2.5606 4.7987 1.2025 1.354 3.947 3.9966 3.785-0.3059 5.0274-0.5522 0.40516-0.02286 0.7334 0.2772l15.896 16.927q5.575 5.665 9.8059 9.2224 3.4956 2.9392 6.4631 4.6257 1.6471 1.1087 9.0546 4.1579 1.3852 0.67954 2.5666 1.6996 1.5305 1.3265 3.2256 4.1139l5.04 9.5565q0.7303 1.1805 1.4701 1.2283 1.1026 0.0957 2.2122-4.2326l-4.3566-7.1591q-2.6413-2.4048-4.2905-5.0212-1.6669-2.5944-2.9066-5.6597-1.005-2.4111-2.0792-6.4028-3.8664-15.833-6.3813-24.99-2.5236 4.6892-3.1095 7.0281-0.35373 1.3141-0.49413 2.6623l-0.24415 4.214q-19.09-12.48-27.885-17.122-0.6915-0.5144-1.1312-1.2925l-1.3911-3.7616q-0.4197-0.90415-1.2583-1.7842l-4.7456-4.3632q-5.2656-6.0261-5.6878-6.1517-1.8385-1.6404-3.8661-1.7268"/> <path d="m694.29 972.18q-22.87 10.796-30.554 19.184-7.4622 8.2576-3.17 17.583 3.3905 6.0371 6.9385 4.4802 1.5577-0.92432 2.0381-3.0069 0.20459-0.9547 0.04858-1.9112 0.06887-0.17932-1.0603-3.7178-0.1887-0.8273-0.1306-1.5076 0.12-1.6602 1.9107-3.0691 1.791-1.4499 6.0238-3.3293-0.1654-0.09265 16.079-6.3794 3.8909-1.6106 9.0556-4.122l-7.1571-14.159"/> </g> </g> </svg>