<?xml version='1.0' encoding='utf-8'?>
<svg xmlns="http://www.w3.org/2000/svg" width="1526px" height="1090px" version="1.1" viewBox="-224 500 1526 1090"> <g fill="#e4d6ae"> <path d="m-224 499.29c-0.18739 0-0.36707 0.07444-0.49956 0.20692-0.1325 0.13248-0.20693 0.31218-0.20693 0.49958l0.00101 1090c0 0.3901 0.3163 0.7064 0.70648 0.7064l1526 1e-3c0.1874 0 0.367-0.0745 0.4995-0.2069 0.1324-0.1325 0.2069-0.3121 0.2069-0.4995l-1e-3 -1090c0-0.39017-0.3163-0.70648-0.7064-0.70648l-1526-0.00102z"/> </g> <g fill="#3f4644"> <path d="m387.38 535.58 833.29-4.1801q2.2104 440.52 4.4207 881.04-416.64 2.0911-833.29 4.182l-4.4207-881.04"/> <path d="m361.11 1385.5 893.87-3.4516q0.1753 45.358 0.3505 90.716-446.94 1.7267-893.87 3.4535-0.1752-45.359-0.3504-90.718"/> </g> <g fill="#968f6f"> <path d="m419.99 561.05 776.9 9.6e-4q0 398.3 0 796.59-388.45 5e-4 -776.9 1e-3 0-398.3 0-796.59"/> </g> <g fill="#373a17"> <path d="m436.37 1170.3-2.0808 0.03q-8.3102 0.2392-16.414 2.3935l-0.05308 185.73 92.106 0.0222-0.03409-20.401-7.9229 0.0106-0.01436-8.6631-16.093 0.024q6.3251-4.8127-12.509-3.1971l-0.62124-60.816-12.232-0.4419-0.15173-90.867q-9.529-3.3778-23.98-3.8266z"/> <path d="m1108.7 1038-0.7518 0.9027q-9.0932 9.3888-6.132 28.327-4.4543-0.9904-2.9678 1.9857l-5.571 7e-3 0.017 10.031-10.399 0.0143-0.712 18.446-9.1608 0.0132 0.0175 10.649q-8.1372-0.1062-9.0335 0.7567l0.3329 199.19-2.2286 0.0016 0.0717 43.083q-4.7744-0.4389-2.9706 3.0998l-12.872 0.0187q4.6605-7.0401-9.2923-4.6853l-0.0699-41.967-9.2869-1.223-0.012-7.3016-26.616 0.0427-0.0491-29.34-17.217-6.0373-0.00666-3.9644q-0.77984 0.8704-17.344-7.2725l-18.941 0.029 0.0205 12.137-14.237 0.0206 0.00974 5.9453-10.027 0.0147 0.02785 16.589q-8.2684 0.4875-12.871 2.618l-0.16839-100.89-35.061-17.273-56.694 2.6938 0.1384 82.944q-8.9632-1.5714-25.504-1.0714l0.0115 6.6846q-15.814-0.4089-19.926 3.1285-4.1942-2.7748-6.081-9.1506l-12.63 0.0205 0.0267 15.97q6.1929-0.8199 4.2226 6.6805-12.574-0.9865-8.412 1.9919-12.644-0.0843-14.855 0.6436 2.0488 6.1345-4.0784 4.0921l0.1472-111.52-1.529-4.5672q-2.5443-1.7551-9.3379-2.1223 1.8298-7.4952-7.0676-6.6755l-1.2944-44.656q-1.561 0.0873-1.6336 0.6808l0.0847 47.942q-4.8604-0.5032-21.897 4.7411l0.9049 101.26q-20.285-2.5745-30.581-2.2995l0.02443 14.609-9.1604 0.1363-1.4746 68.289q0.0735-2.2592-6.2107 0.1854l-0.73605 3.9651-7.6755 0.0105-0.02423-14.603-3.4662 0.0037 0.01675 9.9057-6.4376 0.0086-0.10305-61.772-7.7995-0.2367-0.2052-122.93q-5.2456 1.3764-5.3431-11.876-3.4397-1.0236-4.2167-4.6946-0.6821 3.6259-1.9046 2.4681l-2.3088-4.1593q-3.6231-8.3093-2.4691-19.33-5.5673 0.5226-7.7199-4.2116l-0.61365 3.2193q-9.576-1.3084-8.9118 0.7584l-3.0585-0.73-4.1806-9.1775q-9.9603 4.0232-8.9214-3.1155-1.9978 0.0413-0.3201 3.7629-11.238 1.5593-16.949 0.0313l0.797 20.578-1.5132 1.9515q-2.2232-2.7119-6.7212 0.7896l-6.8718 13.965 0.27118 162.79-7.3041 0.0105 0.06426 38.403 683.06 0.1649-2.2797-132.55q-31.984 0.0729-53.847 2.3157l-0.8727-113.37q-0.1569-3.3549-6.995-1.9935l0.6031-9.2814q-3.3016 1.2803-9.0568-10.756l-4.2093 0.0047-0.1605-8.1844q-5.0524-2.7801-4.077-8.8896l-4.3317 0.6235-0.6334-8.6653-7.053 0.6308q-0.8967-22.41-9.2141-30.438z"/> </g> <g fill="#efe9d2"> <path d="m806.37 734.59 0.07345 18.54q-4.852 56.392-45.29 92.876-40.736 36.478-99.615 34.328-56.392-4.852-92.876-45.29-36.478-40.736-34.328-99.615 4.8519-56.392 45.29-92.876 40.736-36.478 99.615-34.328 56.392 4.852 92.876 45.29 11.698 13.078 19.797 28.907l7.0244 16.365q6.0375 16.978 7.4331 35.803"/> </g> <g fill="#303021"> <path d="m769.04 559.91 69.995-0.06427q0.37174 399.18 0.74354 798.36-34.997 0.0332-69.995 0.0661-0.3717-399.18-0.7435-798.36"/> </g> <g fill="#6d6e5d"> <path d="m837.81 556.05-1.5316 1.2125-0.19159 401.15-0.1275 401.09 1.5316 1.787 1.5316 1.7865 120.23 0.4473c66.05 0.192 121.31 0.447 122.72 0.447 1.404-1e-4 27.824-0.1911 58.775-0.4468 60.434-0.5107 57.434-0.2557 58.902-3.8289 0.5105-1.2763 0.6379-108.23 0.5743-401.66l-0.1915-399.87-1.5315-1.6593-1.5317-1.6591-178.88-3.3e-4c-175.11-7e-5 -178.81-7e-5 -180.28 1.2124zm118.76 59.03-1.2e-4 49.394-2.0423 0.3191c-1.1487 0.1276-7.8493 0.31907-14.869 0.38297-7.0198 0.06383-30.504 0.38269-52.202 0.76553-21.698 0.3192-39.694 0.44657-40.013 0.25516-0.38286-0.25531-0.63796-18.762-0.63796-50.479v-50.032l54.882 6e-5 54.882 9.8e-4 6e-5 49.393zm117.55-13.21c0.0637 19.974 0.1277 41.864 0.1275 48.692l0.0639 12.444-22.016 0.38287c-12.125 0.25533-36.184 0.63813-53.414 0.89337l-31.461 0.44666 1e-4 -49.522 1e-4 -49.522 53.286-6e-5 53.287 2.5e-4 0.1275 36.184zm115.38 11.615-1e-4 47.735-13.848 0.38297c-7.658 0.25533-31.078 0.63793-52.01 0.82928l-38.098 0.44672-0.1916-6.3178c-0.1276-3.4462-0.3189-25.335-0.3826-48.628l-0.1915-42.247 52.393 1.2e-4 52.329 9.7e-4v47.797zm3e-4 143.65c-1e-4 67.39-0.1918 84.94-0.766 85.195-0.9573 0.2552-79.324 1.9144-93.363 1.9145l-9.5726-1e-4 -0.1915-85.067c-0.1277-67.709 0-85.067 0.6382-85.323 0.702-0.1913 47.224-0.95735 93.555-1.4677l9.6998-0.12774 4e-4 84.876zm-114.87 2.2335-1e-4 85.195-1.404 0.2553c-2.5526 0.5104-105.11 2.4249-105.81 1.9781-0.44666-0.2553-0.5106-26.931-0.25526-85.706 0.25531-46.905 0.44666-85.386 0.5105-85.45 0.06386-0.064 16.337-0.31906 36.12-0.5744 19.847-0.2552 36.184-0.51047 36.311-0.6382 0.1277-0.1275 7.9771-0.2554 17.422-0.2554l17.103 3e-4 1e-4 85.195zm-118.38-30.632c0 29.1-0.1278 67.773-0.31927 85.833l-0.31903 32.866-20.102 0.38269c-37.396 0.76575-58.328 1.2126-73.516 1.5956l-15.188 0.44656-6e-5 -86.28-6e-5 -86.216 3.7013-0.06385c51.372-0.89335 100.64-1.659 102.87-1.5952l2.8717 0.0638 1.8e-4 52.968zm233.25 221.38c0 53.159-0.1914 96.809-0.4465 96.937-0.3192 0.1914-15.444 0.4466-33.695 0.7017-18.251 0.1919-41.098 0.5745-50.798 0.7661-10.848 0.2554-17.805 0.1914-17.996-0.1914-0.1915-0.3192-0.4466-43.778-0.5107-96.618l-0.0638-95.98 2.4251-0.1912c3.5737-0.3192 72.878-1.851 88.194-1.9784l12.891-0.06394-2e-4 96.618zm-114.61-93.683c0.1913 0.5743 0.3831 44.033 0.383 96.554l-3e-4 95.597-17.039 0.4466c-9.4447 0.1912-33.822 0.5747-54.307 0.7658l-37.141 0.4468 0.1275-95.98 0.1915-95.98 13.721-0.51055c7.5302-0.25525 31.078-0.89331 52.329-1.3402 21.251-0.4468 39.247-0.8931 39.949-0.957 0.7658 0 1.5954 0.38285 1.7868 0.9572zm-119.27 97.958v95.98l-28.717 0.3831c-15.763 0.1911-40.204 0.5106-54.244 0.6377l-25.526 0.2556-0.19155-95.597-0.12754-95.533 4.5948 9.6e-4c2.5526-9.6e-4 15.444-0.31986 28.59-0.63909 13.146-0.31922 35.163-0.76551 48.819-1.0208 13.72-0.25525 25.016-0.51055 25.144-0.70208 1.5316-1.34 1.6592 4.8501 1.6591 96.235zm233.89 209.83-3e-4 105.87-17.996 0.3829c-37.333 0.7659-83.982 1.0848-84.301 0.574-0.5106-0.7653-0.7658-210.72-0.2553-211.17 0.319-0.3831 42.884-1.085 85.195-1.4038l17.358-0.1917 2e-4 105.94zm-114.04-103.7c0.1914 0.5105 0.4466 48.118 0.5106 105.81l0.0638 104.85-10.402 0.3826c-5.7433 0.1917-30.376 0.5108-54.754 0.6385l-44.352 0.2546 0.1914-105.62c0.06384-58.073 0.25538-105.68 0.31924-105.74 0.06376-0.0639 19.209-0.3189 42.502-0.5739 23.357-0.2556 42.565-0.5108 42.693-0.6382 0.1275-0.1276 5.3606-0.2554 11.615-0.2556 9.2533 2e-4 11.359 0.1915 11.614 0.8935zm-119.85 95.15c0 51.947-0.0639 99.49-0.1915 105.68l-0.1914 11.296-9.0619 0.3833c-4.9777 0.1911-29.356 0.5103-54.18 0.7652l-45.182 0.383-6e-5 -105.68c0-58.137 0.0639-105.74 0.19153-105.74 0.19143-0.1277 105.17-1.6592 107.02-1.5953l1.5953 0.0639 1.6e-4 94.448zm233.76 161.26 0.1274 35.61-51.053-2e-4 -51.053 3e-4 -0.0637-31.781c-0.064-17.422-0.1916-32.866-0.2555-34.27-0.1276-1.4039 0-2.9354 0.2555-3.382 0.3828-0.6381 9.5084-0.9571 42.246-1.2765 22.974-0.3186 45.756-0.5102 50.67-0.5102l8.934 0.0635 0.1917 35.546zm-112.95 0.7021 0.1276 34.907-55.01-0.1272-55.073-0.192-0.19147-34.014c-0.12768-26.866-3e-5 -34.078 0.63807-34.269 0.95727-0.3828 80.09-1.4671 97.83-1.34l11.487 0.0641 0.1915 34.971zm-121.12 0.4463v34.461l-108.49-8e-4v-33.503c-1e-4 -26.229 0.1914-33.632 0.82955-33.823 0.38295-0.1911 21.187-0.5736 46.075-0.8287 24.952-0.3192 48.947-0.5746 53.478-0.6386l8.1046-0.1274v34.461z"/> <path d="m808.52 961.03 1e-4 403 11.487 1e-3 11.487-1e-3 -6e-5 -403 1.2e-4 -403-11.487-6e-5 -11.487 6e-5 -2e-4 403z"/> </g> <g fill="#6d6e5d"> <path d="m774.91 556.05 1.5316 1.2124 0.1913 401.15 0.1277 401.09-1.5316 1.7867-1.5316 1.7869-120.23 0.4465c-66.05 0.1914-121.31 0.4464-122.72 0.4464-1.404 0-27.824-0.1914-58.775-0.4469-60.434-0.5105-57.435-0.2553-58.902-3.8291-0.51056-1.276-0.63826-108.23-0.5745-401.66l0.19138-399.87 1.5316-1.6592 1.5316-1.6591 178.88 4e-5c175.11 3e-4 178.81 3e-4 180.28 1.2127zm-118.76 59.03-5e-5 49.394 2.0422 0.3191c1.1487 0.12765 7.8493 0.31891 14.869 0.38281 7.0198 0.06404 30.504 0.38314 52.202 0.76581 21.698 0.31923 39.694 0.44708 40.013 0.25563 0.38286-0.25527 0.63826-18.762 0.63826-50.479v-50.032l-109.76-1.3e-4 5e-5 49.394zm-117.55-13.21c-0.0638 19.975-0.12764 41.864-0.1277 48.692l-0.0638 12.444 22.017 0.383c12.125 0.25524 36.184 0.6382 53.414 0.89355l31.461 0.44671v-49.521-49.522l-53.287-3e-5 -53.287-3e-4 -0.1276 36.184zm-115.38 11.615-3e-5 47.735 13.848 0.3829c7.658 0.25523 31.079 0.6382 52.01 0.8296l38.098 0.44693 0.1915-6.3179c0.1276-3.4462 0.3191-25.335 0.38287-48.628l0.19143-42.247-52.393 1e-3 -52.329-1e-3 6e-5 47.798zm0 143.65c4e-5 67.39 0.19147 84.94 0.76578 85.195 0.95728 0.2553 79.324 1.9144 93.363 1.9144l9.5725 5e-5 0.19145-85.067c0.12765-67.709-5e-5 -85.067-0.63819-85.323-0.70196-0.19159-47.224-0.9574-93.555-1.4679l-9.7001-0.12765 6e-5 84.876zm114.87 2.2336v85.195l1.4039 0.25527c2.5526 0.51053 105.11 2.4252 105.81 1.9784 0.44675-0.2552 0.5106-26.93 0.25534-85.705-0.25534-46.905-0.44678-85.386-0.51054-85.45-0.06386-0.0639-16.337-0.3192-36.12-0.5745-19.847-0.2552-36.184-0.51054-36.312-0.6383-0.1276-0.12755-7.9771-0.2553-17.422-0.2553l-17.103-1e-4 1e-4 85.195zm118.38-30.632c0 29.1 0.12756 67.773 0.31903 85.833l0.31909 32.865 20.102 0.383c37.396 0.76575 58.328 1.2126 73.516 1.5955l15.188 0.44674 1.4e-4 -86.28-1.4e-4 -86.216-3.7013-0.06372c-51.372-0.8935-100.64-1.6594-102.87-1.5956l-2.8717 0.06378v52.968zm-233.25 221.38c7e-5 53.159 0.19153 96.81 0.44677 96.937 0.3191 0.1915 15.444 0.4468 33.695 0.7019 18.251 0.1913 41.098 0.574 50.798 0.7657 10.849 0.2555 17.805 0.1916 17.996-0.1915 0.19153-0.3188 0.44672-43.778 0.51057-96.618l0.0638-95.98-2.4251-0.19141c-3.5737-0.31926-72.878-1.8508-88.194-1.9784l-12.891-0.06377v96.618zm114.61-93.683c-0.1914 0.5743-0.3829 44.033-0.3829 96.554l6e-5 95.597 17.039 0.4473c9.4448 0.1912 33.823 0.5742 54.308 0.7659l37.141 0.4467-0.1276-95.98-0.1915-95.98-13.72-0.5107c-7.5303-0.25525-31.078-0.8934-52.329-1.3401-21.251-0.44664-39.247-0.89354-39.949-0.95744-0.76574 0-1.5953 0.38284-1.7868 0.95724zm119.27 97.958 4e-5 95.98 28.717 0.3827c15.763 0.1914 40.204 0.5109 54.244 0.6382l25.526 0.2553 0.19141-95.597 0.12762-95.533-4.5947-1e-4c-2.5526 1e-4 -15.444-0.3192-28.59-0.63806-13.146-0.31939-35.163-0.76584-48.819-1.021-13.72-0.2555-25.016-0.5105-25.144-0.7021-1.5316-1.34-1.6592 4.8501-1.6592 96.235zm-233.89 209.83 5e-5 105.87 17.996 0.3832c37.333 0.7655 83.982 1.0848 84.301 0.5744 0.51057-0.7658 0.7658-210.72 0.25526-211.17-0.31909-0.3832-42.884-1.0848-85.195-1.4039l-17.358-0.1917v105.94zm114.04-103.7c-0.1914 0.5107-0.4467 48.118-0.5105 105.81l-0.06384 104.85 10.402 0.3828c5.7435 0.1917 30.376 0.5108 54.754 0.6381l44.352 0.256-0.1915-105.62c-0.0639-58.072-0.2553-105.68-0.3191-105.74-0.0639-0.064-19.209-0.3194-42.502-0.5747-23.357-0.2553-42.565-0.5107-42.693-0.6383-0.1276-0.1273-5.3606-0.2552-11.615-0.2552-9.2534 0-11.359 0.1912-11.615 0.8933zm119.85 95.151c1e-4 51.947 0.0638 99.49 0.1915 105.68l0.1914 11.296 9.0619 0.3824c4.9776 0.1913 29.355 0.5104 54.18 0.7654l45.182 0.3836v-105.68c-1e-4 -58.137-0.0638-105.74-0.1915-105.74-0.19145-0.1278-105.17-1.6593-107.02-1.5958l-1.5954 0.064v94.448zm-233.76 161.26-0.1276 35.609 51.053 1e-3 51.053-8e-4 0.06385-31.78c0.06375-17.422 0.1914-32.865 0.25518-34.269 0.12763-1.4041 0-2.9356-0.25523-3.3825-0.38295-0.6381-9.5087-0.9574-42.246-1.2764-22.974-0.3192-45.756-0.5106-50.67-0.5106l-8.9343 0.0636-0.19147 35.546zm112.95 0.7024-0.12764 34.907 55.01-0.1271 55.073-0.1917 0.19143-34.014c0.12763-26.866-3e-5 -34.078-0.63818-34.27-0.95721-0.3827-80.089-1.468-97.83-1.3403l-11.487 0.0641-0.19145 34.972zm121.12 0.4466v34.461l54.244-1e-4 54.244 1e-4v-33.503c0-26.228-0.1914-33.632-0.8296-33.823-0.3829-0.1918-21.187-0.5746-46.076-0.8299-24.952-0.3196-48.947-0.5746-53.478-0.6384l-8.1047-0.1273 1e-4 34.461z"/> <path d="m804.2 961.03v403l-22.974 5e-4 -4e-5 -403 1e-4 -403 11.487-1.4e-4 11.487 1.4e-4 -1e-4 403z"/> </g> <g fill="#4d4e41"> <path d="m553.1 1117.9-0.28131 0.2395-0.24194 0.2285-0.20264 0.2176-0.16336 0.2066-0.12393 0.1958-0.08472 0.1846-0.04529 0.1738-0.00606 0.1628 0.03334 0.1529 0.16106-0.1313q0.31306-0.2785 0.5531-0.6861 0.12-0.2038 0.2219-0.4401l0.0972-0.2443 0.08814-0.2603-0.00549 9e-4z"/> <path d="m116.26 1355.9-0.15393 0.1311-0.13254 0.1253-0.11118 0.1197-0.089804 0.1139-0.06844 0.1081-0.04705 0.1024-0.02567 0.0967-0.00432 0.0907 0.01706 0.0862 0.09121-0.0742 0.08555-0.0827 0.07988-0.0912 0.07422-0.0997 0.06856-0.1083 0.06289-0.1165 0.05724-0.1255 0.05157-0.1337 0.04591-0.1423-0.00116 9e-4z"/> </g> <g fill="#72705c"> <path d="m557.76 1238.9 1.6627 2.0506q8.5413 13.687 31.976 17.997 15.523 3.3034 76.719-0.2884l-144.63 120.89-123.06 88.996-97.134-32.983 254.46-196.66"/> </g> <g fill="#0b151f"> <path d="m271.4 852.14c-0.29718 0.2231-1.8572 0.446-3.4913 0.3717-2.1544-0.07436-2.9716 0.1484-2.9716 0.9657 0 0.9658-0.37132 0.9658-2.8971-0.07436-3.8629-1.4856-12.926-1.04-13.297 0.66846-0.14856 0.81726-1.5599 1.3374-4.4571 1.7086-2.3029 0.2229-5.72 1.0402-7.5772 1.7828-1.8572 0.66855-5.2 1.7088-7.4285 2.2286-10.697 2.3771-19.017 6.2402-26.52 12.406-1.7086 1.4115-3.9372 2.7486-4.9028 3.0459-2.3772 0.6685-14.114 13.223-16.194 17.383-0.89139 1.7828-2.6 4.3085-3.7143 5.6456-1.1886 1.3372-2.1542 2.7486-2.1542 3.1198 0 0.3717-1.6343 2.8974-3.7144 5.6458-2.0057 2.7485-3.7885 5.3486-3.8628 5.7944-0.22284 1.8569-0.44574 2.4512-1.8571 5.6456-0.81717 1.8569-1.7085 4.2343-2.0058 5.4227-1.0399 4.1599-8.6171 15.229-15.674 22.806-2.1542 2.2284-7.7999 8.3938-12.629 13.742-4.9029 5.2743-9.2857 9.7314-9.8058 9.88-0.51999 0.14844-0.96566 0.59447-0.96566 1.0402 0 0.44555-1.04 1.9314-2.3028 3.3428-1.4114 1.7085-2.1543 3.1942-1.9314 4.0112 0.29706 1.04-0.22293 1.783-1.7086 2.5258-1.1885 0.59425-2.8229 2.1543-3.7142 3.3428-1.56 2.1543-1.7086 2.2284-3.0457 1.0402-0.81714-0.7427-2.0057-1.0402-3.0457-0.81715-1.4114 0.29685-2.08-0.22305-3.9371-3.0459-1.4116-2.2284-3.4915-4.0858-5.72-5.2742l-3.5657-1.8572-2.4514 2.3771c-1.3371 1.3371-3.1199 2.3772-4.0114 2.3772-0.81714 0-1.9314 0.52024-2.4514 1.1145-2.0799 2.4514-12.629 9.9541-16.194 11.514-4.7544 2.0803-6.2401 3.64-6.3143 7.0573-0.074375 2.0799-0.5943 3.0456-2.1543 4.1597-4.16 3.0459-19.909 9.1375-41.08 16.046-30.606 9.9544-45.834 15.451-49.548 17.828-1.56 0.9656-2.9715 1.7087-3.2686 1.7087-1.04 0-13 8.2458-17.457 12.034-22.137 18.794-52.074 57.497-69.011 89.366-3.12 5.9425-8.5429 18.646-11.143 26.371-5.0514 14.783-11.886 41.749-14.486 57.051-0.59428 3.4171-1.8572 10.548-2.8971 15.971-2.2286 12.034-4.0115 23.846-4.5314 30.234-0.22285 2.6742-0.51999 6.9828-0.74284 9.6569-0.22292 2.6745-0.74284 13.372-1.04 23.771-0.37142 10.4-1.04 19.909-1.4114 21.172-0.44571 1.1886-1.3372 5.4228-2.0057 9.2858-0.66861 3.8627-1.9315 10.4-2.7486 14.486-1.8571 8.7657-2.3771 30.754-0.81711 33.503 0.44571 0.817 1.7086 4.9769 2.8229 9.2855 1.04 4.2342 2.2285 8.3943 2.6 9.2113 1.4857 3.4915 2.9714 9.36 2.9714 11.663 0 1.3369-0.74278 5.274-1.56 8.7655-2.8228 11.514-3.7143 20.354-3.7143 34.394 0 8.6914-0.22284 10.623-1.4114 12.628-3.5657 6.0171-4.6057 8.4685-6.9829 16.268-2.4514 8.2458-2.6 9.4344-4.4571 31.794-0.2229 2.2286-1.04 8.9142-1.8572 14.857-0.89148 5.9428-1.9315 13.594-2.3029 17.086-0.44571 3.4913-1.1143 7.2799-1.4858 8.5429-0.37142 1.1886-1.04 4.5313-1.4857 7.4283-1.04 6.5372-2.6743 16.492-3.64 22.286-0.44576 2.4515-0.81713 4.68-0.81713 4.9773 0 0.3712 246.55 0.5939 547.86 0.5936l547.85-8e-4v-29.566-29.565l-85.577 0.2971c-49.623 0.1486-85.948 0.5945-86.394 0.966-0.96556 0.8913-492.66 0.8917-493.26 2e-4 -0.2229-0.4457-7.8742-0.594-19.24-0.4456l-18.794 0.297-0.14856-6.0914c-0.07422-3.3428 0.7428-12.108 1.7829-19.388 1.04-7.28 1.8571-13.372 1.8571-13.446 0-0.1486 2.2286-0.5942 5.0514-1.1144 8.7658-1.5597 19.611-4.9768 43.606-13.743 39.594-14.485 46.651-17.086 54.971-20.503 4.9028-2.0798 9.5828-4.0116 10.4-4.3828 5.1999-2.4514 5.2741-2.4514 9.137 1.8572 2.0057 2.1542 5.943 6.9083 8.7658 10.549 2.7487 3.5657 5.2744 6.6855 5.4973 6.9086 0.22277 0.2229 1.2628 1.56 2.3028 2.9714 1.04 1.4113 6.5371 8.8397 12.183 16.491l10.4 13.966 3.4171 1e-3c2.6743-1e-3 4.6802-0.6696 8.2458-2.6752 4.9772-2.8229 72.874-39.891 84.165-45.983 3.7142-2.0059 7.7258-4.1599 8.9142-4.8286 4.8287-2.6742 18.869-10.326 24.514-13.371 11.366-6.0171 15.6-8.3943 18.571-10.029 1.6342-0.8915 6.1656-3.3428 10.028-5.4231 3.863-2.0056 10.326-5.5711 14.411-7.8738 4.0114-2.303 7.4286-4.1601 7.5772-4.1601 0.8171 0 17.383-10.994 29.268-19.537 1.857-1.337 7.5028-5.3485 12.629-8.9885 12.331-8.8398 38.405-28.377 38.926-29.343 0.29705-0.3714-3.9373-6.4628-9.2857-13.446-8.0971-10.548-9.5828-12.926-8.7657-13.743 0.5944-0.4455 5.8685-4.1603 11.811-8.1715 25.703-17.457 46.428-31.497 56.68-38.48l6.4628-4.457-1.2629-2.08c-0.74298-1.1886-4.457-6.4629-8.3197-11.811l-6.9087-9.6571-5.1999 1e-3c-2.8229-0.0011-11.217 0.5933-18.646 1.2621-8.7658 0.817-20.503 1.2627-33.206 1.337-17.903-1e-4 -20.206-0.1486-25.703-1.6344-11.44-3.0455-15.08-5.2-23.549-13.966-4.1598-4.3829-8.1712-8.2457-8.8399-8.6172-1.9314-1.0399-20.057 10.474-38.48 24.514-8.84 6.6856-12.703 9.8798-26.446 21.988-3.2685 2.8229-7.1315 6.1657-8.5428 7.4284-1.4857 1.1888-5.4971 4.7542-8.9142 7.8744-3.4172 3.1199-8.2457 7.4285-10.697 9.5825-2.4515 2.2286-7.0572 6.5373-10.251 9.5829-3.1943 3.1201-6.2401 5.7199-6.7601 5.8687-0.51988 0.1483-2.8971-0.6687-5.2742-1.7087-4.7543-2.0801-8.4684-2.3028-12.703-0.8169-4.7542 1.6341-14.337 2.7485-22.954 2.5257-6.017-0.0743-8.84 0.1483-10.771 1.0401-1.4858 0.5939-6.0171 4.3826-10.029 8.3941-10.549 10.251-19.166 17.754-23.251 20.131-1.9314 1.0401-5.9427 3.7887-8.9143 6.0172-3.8628 2.8968-6.3142 4.16-8.4685 4.3828-3.8629 0.4455-6.76 2.5256-8.0229 5.5713l-1.04 2.3771-1.7085-2.0799c-2.1543-2.5257-3.0458-2.3773-15.451 2.2284-12.926 4.7543-32.834 11.217-39.52 12.926-3.1942 0.7427-8.9885 1.6341-12.851 1.857-3.8628 0.223-10.4 1.263-14.486 2.3028-10.771 2.6745-10.92 2.2287-0.37145-1.4113 13.446-4.6057 18.051-6.4629 19.24-7.5028 0.89137-0.8172 0.8171-1.7086-0.14854-5.7198-0.96582-3.7889-5.0514-21.692-6.0172-26.743-0.37146-1.6344 0.59424-2.3028 4.6057-3.4915 4.2343-1.1886 7.8-1.1886 13.149 1e-4 6.2401 1.4115 25.851 1.1886 33.206-0.3716 3.1199-0.6684 8.6914-1.1886 12.257-1.1886 7.6515 0 12.183-1.7084 16.714-6.1655 2.0058-2.0801 3.2686-2.7485 5.2001-2.7485 4.8286 0 10.846-4.5315 12.554-9.5084 0.5943-1.8573 0.5943-3.1202-0.29712-5.5716l-1.0401-3.12 4.2344 0.2229c3.8627 0.2228 4.5312 0.0741 6.6855-1.8574 2.08-1.8569 2.5256-2.8227 2.8228-6.3142 0.22284-2.8227-0.0741-4.7543-0.8913-6.3884l-1.263-2.3772 2.9716-1e-4c4.0858 1e-4 7.8741-2.377 9.657-6.2399 2.4515-5.0515 1.8572-9.2857-2.0057-13.297l-1.9315-2.0055 4.0858-0.0744c12.703-0.1488 16.64-1.7829 19.686-8.3201 2.1543-4.7542 2.2286-7.2798 0.2229-11.44-1.263-2.6-2.303-3.5658-5.9429-5.1999-2.4514-1.1145-4.3086-2.3771-4.1599-2.8232 0.29723-0.9653 18.274-19.834 20.057-21.022 1.0398-0.7432 2.1542-0.6688 5.497 0.2969 12.851 3.7143 32.091-3.1942 53.337-19.24 33.874-25.554 56.977-60.617 55.937-84.76-0.22285-5.7195-0.3715-6.2397-3.4171-10.474-4.4572-6.314-10.771-12.48-15.229-14.931-3.5659-2.0054-4.4572-2.1539-11.291-2.1539-8.9886 0.0741-16.789 2.2284-28.229 7.9482-15.526 7.8002-28.228 17.234-42.714 31.72-18.126 18.126-29.343 34.84-34.097 50.737-2.7485 9.137-2.6742 19.017 0.2229 23.028 0.66865 0.9657 1.6344 2.3771 2.2285 3.1941 1.0401 1.4116 0.59442 2.0057-5.8686 8.8402-6.9827 7.2799-7.0569 7.3542-8.8399 6.0912-2.0059-1.2627-6.3884-1.6342-7.5772-0.5199-0.3714 0.2972-2.1542 1.04-4.0114 1.4856-13.966 3.7889-18.72 4.383-32.314 4.5316-10.549 0-15.451 0.9657-20.874 4.0115-1.9315 1.04-6.1656 3.1197-9.5085 4.6054-10.771 4.8287-17.011 9.0629-23.846 15.972-6.1656 6.3141-13.52 11.663-26.52 19.537-6.0171 3.5654-7.8001 4.0111-10.177 2.5254-1.1885-0.7429-2.3772-0.52-6.5371 1.1886-2.7485 1.1145-6.2399 2.526-7.6514 3.0459-1.4114 0.5202-3.9371 1.486-5.5715 2.0799-1.6343 0.6686-8.32 2.9714-14.857 5.2001-6.537 2.3028-12.851 4.4568-13.966 4.9028-4.0856 1.5599-4.0115 1.7086-4.5314-10.549-0.29712-6.1655-0.59437-16.045-0.74287-21.84-0.14849-6.8344-0.52007-10.92-1.1143-11.663-0.52002-0.5946-1.2629-4.1601-1.6343-8.0232-1.3371-12.48-2.8971-29.788-3.6398-39.965-0.37146-5.4975-1.0401-13.223-1.4116-17.086-0.44571-3.8626-0.96564-9.6569-1.2628-12.777-0.29715-3.4915-0.89139-6.0916-1.4857-6.6113-1.4858-1.2631-1.2629-6.0916 0.81708-15.823l1.7829-8.5426-3.0456-8.3944c-1.6344-4.6059-4.16-11.588-5.5715-15.451-4.6799-12.703-4.6057-12.183-0.89138-15.6 1.7828-1.5601 3.417-2.8971 3.64-2.9713 0.22278 0 3.3428 5.1255 7.0572 11.365 5.2742 8.9888 7.7999 12.48 12.331 17.012 14.857 14.708 25.777 14.857 33.057 0.3714l2.5256-4.9771 3.64 1e-3c2.0057-1e-3 4.5316 0.4448 5.6457 1.0388 1.783 0.9658 2.3771 0.9658 4.0857 0.0745 2.3772-1.1884 4.2344-3.7887 4.6057-6.3882 0.22296-1.8576 1.0402-2.0061 5.2001-0.9658 3.6401 0.8913 5.6457-0.2232 7.6514-4.1602 1.9315-3.863 5.9429-7.4285 8.2457-7.4285 0.8172 0 3.7143 2.0054 6.4628 4.4569 7.0572 6.24 11.96 6.9086 15.6 2.0058 1.04-1.2628 3.1942-6.9087 4.9771-12.406 4.0857-13.149 7.0572-21.989 8.4686-25.406 0.66852-1.4855 1.4857-4.3084 1.9314-6.2399 0.44574-2.0058 1.1885-4.0112 1.6343-4.6055 1.4114-1.7084 5.9429-3.1942 8.2456-2.6745 1.1143 0.2229 2.9715 0.0745 4.0858-0.2971 1.1141-0.4456 2.897-0.9657 4.0857-1.1886 3.2686-0.7426 11.291-9.1367 12.48-13.074 1.337-4.4571 4.6056-10.623 8.2457-15.451 3.1199-4.1602 7.1313-12.777 9.2114-19.686 1.1884-3.9369 1.3371-4.1598 2.5258-3.1199 0.66846 0.5945 1.4113 0.8914 1.7084 0.6687 0.52002-0.5201 3.7885 4.5313 4.6057 7.1314 0.29723 1.04 1.1885 2.9715 2.0058 4.2342 1.2627 2.1541 1.6342 2.3028 3.0455 1.6343l1.56-0.8916-1.7086-1.337c-0.96576-0.74266-1.5599-1.7827-1.4114-2.3028 0.22278-0.59434 1.1885-0.0742 2.6002 1.4857 2.1542 2.3771 2.2284 2.3771 3.4913 0.96546 0.89143-0.96546 1.2629-2.2285 1.04-3.3428-0.29713-1.6343-0.2228-1.7826 0.96575-1.1885 0.7428 0.44581 1.5599 1.1143 1.7828 1.4857 0.2971 0.44568 0.89147 0.52014 1.3371 0.2229 0.52013-0.29736 1.1143-0.59436 1.3372-0.59436 0.81714 0 4.3828-4.6058 4.3828-5.6454 0-0.5201-0.44574-1.486-1.0399-2.0802-2.0802-2.3028-1.783-5.3487 0.51984-5.0515 1.1144 0.0742 1.56-0.2228 1.4856-0.9658-0.14843-0.66835 0.8172-1.7827 2.0058-2.4514 2.1542-1.3369 2.2285-1.4113 1.1142-3.5656-0.66857-1.1886-1.4858-2.1543-1.9314-2.1543-0.5943 0-0.52-0.3712 0.07435-1.1142 1.04-1.2628 0.51995-2.2287-3.4915-6.0913-3.0456-2.9716-3.4915-5.4972-0.59418-3.4172 0.9657 0.74293 1.8571 1.5601 1.8571 1.8574 0 1.3369 1.4858 0.44556 1.4858-0.81751 0-0.81689-0.29725-1.7085-0.743-1.9313-0.37132-0.22276-0.74278-1.1145-0.74278-1.8572 0-0.81704-1.1885-2.5258-2.6-3.8628-4.6056-4.1599-8.0972-8.8402-7.1315-9.4342 0.6686-0.4457 0.5201-1.5601-0.51983-4.383l-1.4858-3.8628 2.08 1.4857c1.1144 0.817 2.2286 1.2628 2.4515 0.9657 0.89137-0.8173-0.89148-2.9713-4.3086-5.0515-1.8571-1.2627-3.0458-2.3028-2.5999-2.4514 0.44574-0.14868 1.6343 0.22302 2.5999 0.89146 2.6 1.7086 2.3772 0.07424-0.44561-2.6743-1.7086-1.7826-2.2286-2.8226-2.0059-4.7542 0.07434-1.56-0.29712-2.9716-1.1884-3.9372l-1.4115-1.5599 3.4171 1.0398c2.8229 0.81736 3.4914 0.89146 3.4914 0.07444 0-0.52004-0.81708-1.4857-1.7828-2.1543-2.5257-1.56-9.36-4.1599-11.291-4.1599-2.08 0-2.6743-0.74303-1.7086-2.0058 0.66857-0.74307 0-1.7088-2.9713-4.3827-2.0801-1.8573-3.7887-3.8632-3.7887-4.4574 0-0.5199-0.44567-2.4514-1.04-4.1598-0.5943-1.7828-1.2628-4.1602-1.4857-5.3488-0.29718-1.1885-2.6-4.3827-5.2001-7.0569-2.5256-2.6745-4.977-5.7943-5.497-6.9831-0.44575-1.1142-1.1886-2.0056-1.6343-2.0056-0.3715 0-0.74285-0.6688-0.74285-1.4114 0-1.1885-1.6342-2.8971-6.4629-6.76-0.51996-0.44566-1.7827-1.1142-2.8228-1.4857-1.04-0.37133-1.9315-1.114-1.9315-1.6342-0.0741-0.5199-0.14843-1.3373-0.22278-1.7828-0.1485-1.4115-4.0114-5.4972-5.1999-5.4972-0.66852 0-3.1943-2.0058-5.7199-4.457-2.5258-2.4516-4.8287-4.4572-5.1258-4.4572-0.37159 0-0.89154-0.66843-1.1144-1.4859-0.51984-1.6344-1.8571-1.9313-3.1199-0.66824-0.66852 0.66824-2.4514 0.07397-7.0571-2.3031-3.4171-1.7085-6.6857-3.5657-7.28-4.0857-2.5257-2.0056-9.7314-4.8285-22.954-8.84-4.16-1.2628-6.9085-1.4856-7.7256-0.6688zm247.96 257.25c2.9715 2.4513-0.8913 17.011-7.4285 28.451-3.7142 6.4628-11.366 17.977-14.04 21.172-4.5314 5.4968-10.92 12.331-16.64 17.829-22.88 21.914-53.709 37.44-63.663 32.091-5.3485-2.8975-4.3086-12.629 2.9714-27.114 15.897-31.646 54.674-64.703 85.428-72.874 4.2341-1.1145 11.811-0.8917 13.371 0.4458zm34.32 136.76c-0.14846 1.7829-7.5029 8.3943-15.377 13.743-5.0515 3.4172-10.846 7.9487-22.137 17.383-8.617 7.206-21.617 17.532-30.234 24.143-14.337 10.92-17.903 13.743-21.097 16.64-3.0457 2.8972-5.2743 3.8629-5.2743 2.3771 0-0.8914 6.3143-6.1658 15.6-13.074 4.3085-3.12 8.0972-6.2399 8.3942-6.8344 0.3714-0.5942 4.0858-3.64 8.2457-6.7597 15.451-11.589 29.417-22.509 32.537-25.48 1.7828-1.7086 5.0514-4.6056 7.2801-6.5371 2.2284-1.8571 4.2342-3.5654 4.4571-3.7884 0.22275-0.223 2.5257-2.0057 5.1999-3.8629 2.6743-1.9313 6.3143-4.8285 8.1714-6.4628 3.863-3.4913 4.3828-3.6398 4.2343-1.4857zm5.7942 1.4113c0.22295 0.3716 0.14868 0.743-0.29705 0.743-0.37146 0-0.9657-0.3714-1.1886-0.743-0.2229-0.4456-0.14856-0.7427 0.29724-0.7427 0.37121 0 0.96566 0.2971 1.1884 0.7427zm9.8058 8.4687c2.5257 0.2971 8.6914 1.857 13.743 3.5657l9.1372 3.0456 60.245 0.1485-2.5999 2.0802c-1.4858 1.1883-3.5656 2.5997-4.6057 3.1198-2.3771 1.2628-11.663 7.7998-19.983 14.114-3.4914 2.6745-7.7999 5.8686-9.6569 7.2058-2.8973 2.0801-5.3487 4.0857-14.114 11.588-1.04 0.8171-4.6802 3.9371-8.1716 6.8344-3.4913 2.897-9.0628 7.5771-12.406 10.474-5.2743 4.4574-14.931 11.069-18.794 12.777-0.5941 0.2972-2.0055 1.1142-3.1198 1.857-1.04 0.6688-3.5657 2.2287-5.5714 3.4171-3.2685 2.0059-15.154 10.549-24.663 17.828-2.1542 1.7085-6.3884 4.903-9.4341 7.1315-14.486 10.846-21.691 16.269-25.851 19.537-2.5258 1.9313-8.0229 5.9428-12.257 8.9142-4.2341 2.897-8.6171 6.0171-9.7314 6.8341-3.7884 2.823-11.663 8.1714-22.731 15.526-33.131 21.914-46.429 31.497-50.44 36.177-2.9714 3.6399-13.743 10.4-15.6 9.9544-0.8172-0.2228-2.6742-0.7429-4.0857-1.0398-2.6-0.6688-16.937-4.457-24.143-6.4629-8.0971-2.1544-15.154-4.2341-21.543-6.3143-3.64-1.1886-6.9828-2.1543-7.3543-2.1543-0.37134 0-2.6743-0.7427-5.1257-1.6342l-4.4571-1.6344 1.8571-1.4856c15.823-13.223 40.708-32.314 58.091-44.646 19.76-14.04 23.994-17.16 26.891-19.834 1.5599-1.5599 3.2686-2.8227 3.64-2.8227 0.44568 0 1.6342-0.9656 2.6-2.08 1.0399-1.1886 3.4171-3.2685 5.3486-4.6798 1.8572-1.4116 9.2114-7.7257 16.268-14.189 10.028-9.1372 13.149-11.514 14.337-11.217 3.7886 0.9654 8.0971 0.9654 16.64 0 11.069-1.2629 12.777-2.3774 12.777-8.023 0-3.7142-1.3372-5.2742-5.4972-6.3143-4.16-1.0399-6.6114 1.1144 37.069-32.983 11.811-9.2111 25.331-19.908 30.011-23.771 19.314-15.897 17.754-15.006 23.846-13 2.6742 0.8914 6.9084 1.8569 9.4341 2.1541zm89.291 7.5768c-0.96574 1.0403-2.8971 2.6002-4.383 3.4915-1.4113 0.8171-4.4569 3.12-6.6856 4.9773-2.2284 1.9313-9.4342 6.9826-15.971 11.366-6.5371 4.3087-14.708 10.177-18.2 12.926-3.4914 2.8227-7.5771 5.8681-9.0629 6.8338-1.56 0.8915-2.7486 2.0058-2.5999 2.3771 0.2971 1.4859-27.931 23.772-34.023 26.817-7.28 3.6401-20.651 12.703-32.091 21.617-0.51993 0.3715-0.9657 0.52-0.9657 0.2971s3.2686-2.823 7.28-5.8684c3.9372-2.9715 7.3544-5.5714 7.5771-5.7942 0.74293-0.743 5.72-4.1601 14.114-9.6573 4.6802-3.1201 9.2858-6.0914 10.177-6.6857 0.8171-0.5942 4.0113-3.1201 7.0572-5.5714 2.9714-2.5259 7.3544-5.8686 9.6571-7.4286 2.3028-1.6341 4.3086-3.3429 4.4571-3.7886 0.29704-1.1141 21.766-18.274 29.268-23.325 7.5027-5.1259 18.497-13.074 26.817-19.463 3.64-2.6744 7.2056-4.9772 7.9485-4.9772 1.3372-0.0743 1.263 0.0744-0.37135 1.8571zm-242.47 92.114c-6.0173 5.4969-8.6913 7.4282-8.097 5.9426 0.22278-0.6686 0.66844-1.1886 0.96557-1.1886 0.22284 0 2.8228-2.0056 5.6458-4.4572 6.5371-5.5711 7.4284-5.7199 1.4856-0.2968zm117.74-0.8176c0 0.2232-2.4515 2.2288-5.3486 4.4572-2.9714 2.2285-10.103 7.5773-15.748 11.886-5.7199 4.3085-10.474 7.8001-10.623 7.8001-0.81708 0 0.6687-1.263 8.5429-7.1315 4.7542-3.5656 9.5086-7.2798 10.548-8.2454 1.5601-1.4116 11.812-8.9886 12.48-9.0631 0.07428-0.0741 0.14865 0.0745 0.14865 0.2971zm-127.33 8.4689c-0.297 0.3712-2.2286 2.0797-4.3828 3.7884l-3.8629 3.1199 4.0115-3.7885c3.9373-3.7144 5.0515-4.5315 4.2343-3.1198zm-10.177 8.6913c-0.9657 1.1141-4.3085 3.8627-7.3543 6.1657-5.8685 4.5313-9.5829 6.8342-5.2 3.2685 1.4113-1.1144 5.0515-4.1599 8.1714-6.6857 6.1656-5.0515 7.0571-5.5712 4.3828-2.7485zm104.82 7.2798c0 0.1487-0.59436 0.7429-1.2629 1.2628-1.1885 0.9659-1.2628 0.8916-0.29725-0.297 0.96577-1.1886 1.5601-1.5601 1.5601-0.9658zm-2.9714 2.2287c0 0.1489-0.59425 0.7428-1.2629 1.263-1.1885 0.9656-1.2628 0.8912-0.2971-0.2971 0.96575-1.1888 1.56-1.5601 1.56-0.9659zm-119.23 3.8628c-1.1886 0.9657-3.863 2.9714-5.9428 4.3829-2.0057 1.4857-4.5314 3.1943-5.5714 3.9372-15.749 10.994-44.423 33.503-51.926 40.782-1.783 1.7831-3.4915 2.9717-3.8627 2.7488-0.37158-0.2229 0.89137-1.8573 2.8227-3.5658 4.3829-3.9372 24.217-19.686 30.531-24.217 2.5257-1.8571 8.0229-5.9426 12.257-9.2112 4.16-3.1942 8.3943-6.3887 9.4343-7.0571 1.04-0.6686 4.5314-3.12 7.7999-5.4229 6.24-4.4571 8.2457-5.5714 4.4572-2.3772z"/> </g> <g fill="#72705c"> <path d="m413.61 1454.7 34.304-25.093q113.14-82.846 156.94-113.18 43.045-29.738 68.302-43.796l-259.55 182.06"/> <path d="m416.92 1473.9 10.195-6.2631q67.159-41.16 103.91-64.807 33.365-21.366 80.961-54.575l-195.07 125.65"/> </g> <g> <path d="m353.32 1074.8 1.2e-4 3e-4 1.3e-4 5e-4 -1.3e-4 -5e-4 -1.2e-4 -3e-4 1.2e-4 3e-4 1.3e-4 5e-4q-1.3e-4 -5e-4 -2.5e-4 -8e-4"/> <path d="m478.09 1184.9 1.5e-4 5e-4 1.5e-4 4e-4 -1.5e-4 -4e-4 -1.5e-4 -5e-4 1.5e-4 5e-4 1.5e-4 4e-4q-1.5e-4 -4e-4 -3e-4 -9e-4"/> <path d="m478.09 1184.9 1.5e-4 5e-4 1.5e-4 4e-4 -1.5e-4 -4e-4 -1.5e-4 -5e-4 1.5e-4 5e-4 1.5e-4 4e-4q-1.5e-4 -4e-4 -3e-4 -9e-4"/> <path d="m478.09 1184.9 1.5e-4 5e-4 1.5e-4 4e-4 -1.5e-4 -4e-4 -1.5e-4 -5e-4 1.5e-4 5e-4 1.5e-4 4e-4q-1.5e-4 -4e-4 -3e-4 -9e-4"/> <path d="m541.03 1270v1e-3l-1.0546-1.3817 65.344 17.867c0.76312 0.2086 1.2125 0.9964 1.0039 1.7595-0.20864 0.763-0.9964 1.2125-1.7595 1.0039l-65.344-17.867c-0.62274-0.1703-1.0546-0.7361-1.0546-1.3817v-1e-3c0-0.7911 0.64134-1.4324 1.4324-1.4324 0.7911 0 1.4324 0.6413 1.4324 1.4324z"/> <path d="m530.84 1280.4v1e-3l-1.0546-1.3817 65.344 17.867c0.76312 0.2086 1.2125 0.9964 1.0039 1.7595-0.20864 0.7631-0.9964 1.2125-1.7595 1.0039l-65.344-17.867c-0.62277-0.1703-1.0546-0.7361-1.0546-1.3817v-1e-3c0-0.7911 0.64136-1.4324 1.4325-1.4324 0.79105 0 1.4324 0.6413 1.4324 1.4324z"/> <path d="m516.74 1294.2v1e-3l-1.0546-1.3817 65.344 17.867c0.76314 0.2086 1.2126 0.9964 1.0039 1.7595-0.20866 0.7631-0.9964 1.2125-1.7595 1.0039l-65.344-17.867c-0.6227-0.1703-1.0546-0.7361-1.0546-1.3817v-1e-3c0-0.7911 0.64135-1.4324 1.4324-1.4324 0.79107 0 1.4324 0.6413 1.4324 1.4324z"/> <path d="m500.6 1306v1e-3l-1.0546-1.3817 65.344 17.867c0.7631 0.2086 1.2126 0.9965 1.0039 1.7595-0.20866 0.7631-0.99644 1.2126-1.7595 1.0039l-65.344-17.867c-0.62275-0.1703-1.0546-0.7361-1.0546-1.3817v-1e-3c0-0.7911 0.64133-1.4324 1.4324-1.4324 0.79111 0 1.4324 0.6413 1.4324 1.4324z"/> <path d="m486.26 1316.8v1e-3l-1.0547-1.3817 65.344 17.867c0.76315 0.2086 1.2126 0.9964 1.0039 1.7595-0.20863 0.763-0.9964 1.2125-1.7595 1.0039l-65.344-17.867c-0.62274-0.1703-1.0546-0.7361-1.0546-1.3817v-1e-3c0-0.7911 0.64133-1.4324 1.4324-1.4324s1.4324 0.6413 1.4324 1.4324z"/> <path d="m473.89 1325.6v1e-3l-1.0546-1.3817 65.344 17.867c0.76314 0.2086 1.2126 0.9965 1.0039 1.7595-0.20866 0.7631-0.9964 1.2125-1.7595 1.0039l-65.344-17.867c-0.62274-0.1703-1.0546-0.7361-1.0546-1.3817v-1e-3c0-0.7911 0.64134-1.4324 1.4324-1.4324s1.4324 0.6413 1.4324 1.4324z"/> <path d="m460 1337.6v1e-3l-1.0546-1.3817 65.344 17.867c0.7631 0.2086 1.2126 0.9964 1.0039 1.7595-0.2087 0.7631-0.9964 1.2125-1.7596 1.0039l-65.344-17.867c-0.62274-0.1703-1.0546-0.7361-1.0546-1.3817v-1e-3c0-0.7911 0.64133-1.4324 1.4324-1.4324s1.4324 0.6413 1.4324 1.4324z"/> <path d="m442.53 1348.7v9e-4l-1.0546-1.3817 65.344 17.867c0.76309 0.2086 1.2126 0.9964 1.0039 1.7595-0.20864 0.763-0.99644 1.2125-1.7595 1.0039l-65.344-17.867c-0.62274-0.1703-1.0546-0.7361-1.0546-1.3818v-9e-4c0-0.7911 0.64133-1.4324 1.4324-1.4324s1.4324 0.6413 1.4324 1.4324z"/> <path d="m429.6 1357.8v1e-3l-1.0546-1.3817 65.344 17.867c0.76308 0.2086 1.2126 0.9964 1.0039 1.7595-0.20865 0.763-0.99642 1.2125-1.7595 1.0039l-65.344-17.867c-0.62274-0.1703-1.0546-0.7361-1.0546-1.3817v-1e-3c0-0.7911 0.64132-1.4323 1.4324-1.4323 0.7911 0 1.4324 0.6412 1.4324 1.4323z"/> <path d="m415.39 1369.6v1e-3l-1.0546-1.3818 65.344 17.867c0.76309 0.2086 1.2126 0.9964 1.0039 1.7595s-0.99643 1.2125-1.7595 1.0039l-65.344-17.867c-0.62276-0.1703-1.0546-0.7361-1.0546-1.3817v-1e-3c0-0.7912 0.64133-1.4324 1.4324-1.4324 0.79111 0 1.4324 0.6412 1.4324 1.4324z"/> <path d="m402.59 1380.1v1e-3l-1.0546-1.3817 65.344 17.867c0.7631 0.2086 1.2126 0.9964 1.0039 1.7595-0.20864 0.7631-0.9964 1.2125-1.7595 1.0039l-65.344-17.867c-0.62275-0.1703-1.0547-0.7361-1.0547-1.3817v-1e-3c0-0.7911 0.64133-1.4324 1.4324-1.4324 0.79111 0 1.4324 0.6413 1.4324 1.4324z"/> </g> </svg>