<?xml version='1.0' encoding='utf-8'?>
<svg xmlns="http://www.w3.org/2000/svg" width="1526px" height="1090px" version="1.1" viewBox="-224 500 1526 1090"> <g fill="#c8e4f9"> <path d="m-224 499.2c-0.21241 0-0.41611 0.08441-0.56629 0.23462-0.15018 0.15016-0.23456 0.35388-0.23456 0.56628l0.00101 1090c0 0.4423 0.35855 0.8008 0.80084 0.8008l1526 1e-3c0.2124 0 0.4161-0.0844 0.5663-0.2345 0.1501-0.1502 0.2345-0.3539 0.2345-0.5663l-1e-3 -1090c0-0.44226-0.3585-0.80084-0.8008-0.80084l-1526-0.00104z"/> </g> <g fill="#7baacd"> <path d="m881.73 566.92v4e-4l-568.86 4.358c-0.72672 0.0056-1.3206-0.5795-1.3263-1.3058-0.00543-0.7271 0.57919-1.3208 1.3062-1.3265v3.7e-4l568.86-4.3583c0.72694-0.0061 1.3207 0.57874 1.3262 1.3057 0.00561 0.7268-0.5791 1.3203-1.3063 1.3261z"/> <path d="m882.63 683.56v5e-4l-568.86 4.3584c-0.72699 0.00576-1.3208-0.5791-1.3262-1.3058-0.00567-0.7268 0.57905-1.3205 1.306-1.3263v5.4e-4l568.86-4.3594c0.7269-0.0058 1.3205 0.5793 1.3262 1.3056 0.00562 0.7271-0.57895 1.3209-1.306 1.3265z"/> <path d="m883.52 800.2v4.9e-4l-568.86 4.3589c-0.7268 0.0055-1.3207-0.5788-1.326-1.3059-0.00582-0.7269 0.57895-1.3203 1.3058-1.326v6.5e-4l568.86-4.3603c0.72705-0.00586 1.3203 0.57898 1.326 1.3057 0.00575 0.72704-0.57925 1.3207-1.3059 1.3265z"/> <path d="m884.41 916.84v7e-4l-568.86 4.3596c-0.72706 0.00584-1.321-0.57946-1.3265-1.3062-0.00554-0.7268 0.5793-1.3203 1.3061-1.326v3.4e-4l568.86-4.3609c0.72704-0.00536 1.3207 0.57898 1.3264 1.3056 0.00534 0.72714-0.57925 1.3214-1.3062 1.3269z"/> <path d="m885.31 1033.5 1.4e-4 9e-4 -568.86 4.3609c-0.72669 0.0053-1.3205-0.5791-1.3261-1.306-0.0054-0.7271 0.5791-1.3207 1.3062-1.3261v4e-4l568.86-4.3617c0.7268-0.0057 1.3207 0.5795 1.3261 1.306 0.0057 0.7268-0.5789 1.3202-1.3059 1.3256z"/> <path d="m481.57 517.51v4.4e-4l4.3597 568.86c0.00557 0.7271-0.57891 1.3215-1.3057 1.3266-0.72705 0.0052-1.3209-0.5788-1.3265-1.3063l5e-5 0.0011-4.3598-568.87c-0.00572-0.72686 0.57924-1.3207 1.3059-1.3265 0.72688-0.00531 1.3207 0.57934 1.3262 1.3061z"/> <path d="m598.21 516.62v6.1e-4l4.3598 568.86c0.00534 0.7268-0.57923 1.3203-1.3059 1.3259-0.7273 0.0057-1.3208-0.5792-1.3266-1.3064v8e-4l-4.3596-568.86c-0.00555-0.72668 0.57935-1.3206 1.3061-1.326 0.72686-6e-3 1.3204 0.5789 1.3262 1.3059z"/> <path d="m714.85 515.72v5.5e-4l4.36 568.86c0.0053 0.7267-0.57916 1.3203-1.3063 1.3263-0.72654 0.0055-1.3204-0.5791-1.326-1.3064v6e-4l-4.3592-568.86c-0.00575-0.727 0.57885-1.3207 1.3058-1.3266 0.72681-0.0053 1.3206 0.57914 1.3257 1.3062z"/> <path d="m831.49 514.83v4e-4l4.359 568.86c0.00595 0.7262-0.5791 1.3201-1.3057 1.3257-0.7269 0.0059-1.3207-0.579-1.3264-1.3057v7e-4l-4.3592-568.86c-0.0053-0.72687 0.57894-1.3203 1.306-1.3258 0.72674-0.00563 1.3207 0.57887 1.3262 1.306z"/> <path d="m364.93 518.4v3.4e-4l4.3599 568.87c0.00536 0.727-0.57904 1.3206-1.3061 1.3265-0.72681 0.0053-1.3205-0.5794-1.326-1.3062v5e-4l-4.36-568.87c-0.00538-0.7269 0.57919-1.3206 1.306-1.3263 0.72682-0.00543 1.3206 0.57917 1.3262 1.306z"/> <path d="m338.29 686.6 5.9794-0.0456 5.9791-0.0455q0.2731 35.618 0.54617 71.235-5.9793 0.04627-11.958 0.09296-0.2731-35.618-0.54626-71.237"/> <path d="m345.04 676.26-0.86014 0.00675-0.86008 0.0072q0.36328 47.423 0.72678 94.846 0.8602-0.0062 1.7203-0.01314-0.36356-47.423-0.72686-94.847"/> <path d="m353.67 703.16 11.959-0.09106q0.27302 35.618 0.54599 71.235-5.9793 0.04587-11.958 0.09213-0.27313-35.618-0.54611-71.236"/> <path d="m360.42 692.81-0.86023 0.00738-0.86005 0.00586q0.3634 47.423 0.72685 94.847 0.86016-0.00629 1.7203-0.01305-0.36342-47.424-0.72689-94.847"/> <path d="m369.14 730.71 11.958-0.09114q0.27327 35.618 0.54627 71.235-5.9793 0.04606-11.959 0.09192-0.27284-35.618-0.54602-71.236"/> <path d="m375.89 720.36-0.86004 0.0074-0.8601 0.0059q0.36345 47.424 0.72698 94.847 0.8601-0.00672 1.7203-0.013-0.36345-47.424-0.72716-94.847"/> <path d="m384.59 755.35 11.959-0.0912q0.27277 35.617 0.54599 71.235-5.9796 0.04609-11.959 0.0918-0.273-35.618-0.546-71.236"/> <path d="m391.34 745.01-0.86005 0.00659-0.86029 0.00702q0.36349 47.424 0.72677 94.847 0.86024-0.00635 1.7205-0.01306-0.36347-47.423-0.72696-94.847"/> <path d="m399.98 771.53 5.9792-0.04574 5.9792-0.0454q0.27319 35.617 0.54597 71.235-5.9793 0.0456-11.958 0.0919-0.27286-35.618-0.54593-71.236"/> <path d="m406.73 761.19-0.85994 0.00624-0.8603 0.00656q0.3636 47.424 0.72713 94.846 0.86023-0.00585 1.7204-0.01255-0.3634-47.424-0.72729-94.847"/> <path d="m415.95 811.14 5.9793-0.04637 5.9791-0.04573q-0.27283-35.618-0.54593-71.235-5.9794 0.04546-11.958 0.09116 0.27307 35.618 0.54599 71.236"/> <path d="m422.85 821.38-0.86023 0.0059-0.86017 0.0074q-0.3634-47.424-0.7269-94.848 0.86032-0.00684 1.7204-0.01344 0.36353 47.424 0.72687 94.848"/> <path d="m431.08 794.34 11.958-0.0923q-0.273-35.618-0.54595-71.235-5.9795 0.0451-11.959 0.0903 0.27292 35.619 0.54617 71.237"/> <path d="m437.99 804.58-0.86017 0.0061-0.85998 0.00673q-0.36352-47.424-0.72712-94.847 0.86018-0.00653 1.7203-0.01327 0.36352 47.424 0.72699 94.848"/> <path d="m446.13 766.56 5.9791-0.04608 5.9794-0.04602q-0.2732-35.617-0.54596-71.235-5.9792 0.04547-11.959 0.09057 0.27301 35.619 0.54626 71.236"/> <path d="m453.03 776.8-0.86011 0.0066-0.8601 0.0064q-0.36385-47.424-0.72718-94.847 0.86023-0.0066 1.7205-0.0132 0.3634 47.424 0.72693 94.847"/> <path d="m461.19 741.68 5.9792-0.04626 5.9793-0.0461q-0.27306-35.617-0.54592-71.235-5.9792 0.0455-11.958 0.09086 0.27308 35.619 0.5459 71.237"/> <path d="m468.1 751.92-0.86017 0.00654-0.8601 0.00665q-0.36335-47.423-0.72675-94.847 0.86018-0.0066 1.7203-0.01294 0.36346 47.423 0.72674 94.847"/> <path d="m476.33 725.27 11.958-0.09235q-0.27295-35.617-0.54559-71.235-5.9792 0.04578-11.959 0.09094 0.27294 35.618 0.54571 71.236"/> <path d="m483.23 735.51-0.86028 0.00674-0.86006 0.00696q-0.36346-47.424-0.72668-94.847 0.85968-0.0067 1.7201-0.0131 0.3633 47.423 0.72688 94.847"/> <path d="m490.23 715.55 5.9795-0.04522 5.9792-0.04574q0.27314 35.618 0.54614 71.236-5.9793 0.04577-11.959 0.09174-0.27296-35.618-0.5461-71.236"/> <path d="m496.98 705.21-0.86022 0.00724-0.8603 0.00606q0.36365 47.424 0.72712 94.847 0.8601-0.00683 1.7204-0.0134-0.36352-47.423-0.72699-94.847"/> <path d="m505.61 732.11 5.9793-0.04546 5.9793-0.04536q0.27305 35.618 0.54615 71.235-5.9794 0.04613-11.959 0.09228-0.27306-35.618-0.54607-71.236"/> <path d="m512.36 721.77-1.7206 0.0128q0.36366 47.424 0.72686 94.847 0.86005-0.00628 1.7202-0.01274-0.3632-47.424-0.7265-94.847"/> <path d="m521.09 759.66 5.9791-0.04554 5.9795-0.0454q0.27289 35.618 0.54572 71.235-5.9796 0.04556-11.959 0.09195-0.2727-35.618-0.54553-71.236"/> <path d="m527.83 749.31-0.86036 0.0067-0.85994 7e-3q0.3638 47.424 0.72676 94.847 0.86004-0.0066 1.7201-0.01331-0.36276-47.423-0.72656-94.847"/> <path d="m536.53 784.31 11.958-0.0916q0.27296 35.618 0.54602 71.236-5.9791 0.04615-11.958 0.09228-0.2736-35.618-0.5462-71.236"/> <path d="m543.28 773.96-0.8604 0.00747-0.8601 0.00627q0.36326 47.423 0.7267 94.846 0.8604-0.00646 1.7202-0.01306-0.36306-47.423-0.7264-94.847"/> <path d="m551.92 800.48 5.9789-0.04534 5.9792-0.0462q0.273 35.618 0.54584 71.235-5.9794 0.0465-11.958 0.09253-0.273-35.618-0.5456-71.236"/> <path d="m558.67 790.14-0.86023 0.00745-0.8599 0.00598q0.3632 47.424 0.72697 94.847 0.86017-0.00708 1.7202-0.01343-0.3636-47.423-0.72707-94.847"/> <path d="m569.41 821.61 5.9792-0.04559 5.9793-0.0459q0.27288 35.618 0.54613 71.236-5.9794 0.04556-11.959 0.09192-0.2728-35.618-0.546-71.236"/> <path d="m576.16 811.26-0.8603 7e-3 -0.8602 0.00646q0.3636 47.423 0.7267 94.846 0.8605-0.00674 1.7204-0.01333-0.36344-47.423-0.7266-94.846"/> <path d="m584.8 838.16 5.9794-0.0459 5.9792-0.0456q0.2726 35.617 0.5455 71.235-5.9791 0.046-11.958 0.09226-0.27276-35.618-0.54576-71.235"/> <path d="m591.54 827.82-0.86015 0.00705-0.8602 0.00641q0.3632 47.423 0.7265 94.846 0.8603-0.00647 1.7202-0.01303-0.36297-47.423-0.72632-94.847"/> <path d="m600.27 865.71 5.9792-0.04617 5.9791-0.04543q0.27274 35.618 0.54575 71.235-5.979 0.04625-11.958 0.09255-0.2729-35.618-0.54604-71.236"/> <path d="m607.01 855.37-0.85994 0.0073-0.86056 0.0059q0.3637 47.423 0.7271 94.846 0.8602-0.0059 1.7205-0.0122-0.36365-47.424-0.7271-94.847"/> <path d="m615.71 890.36 11.958-0.0911q0.27289 35.618 0.5459 71.235-5.9792 0.04638-11.959 0.09265-0.27307-35.618-0.54559-71.236"/> <path d="m622.46 880.01-0.86006 0.00684-0.8605 0.00596q0.36345 47.424 0.7267 94.848 0.8603-0.00696 1.7205-0.01366-0.3635-47.423-0.72664-94.847"/> <path d="m631.1 906.54 5.9792-0.04541 5.9795-0.0459q0.27286 35.618 0.54557 71.235-5.9791 0.0468-11.958 0.0923-0.27293-35.618-0.54583-71.236"/> <path d="m637.85 896.19-0.86011 0.00696-0.86033 0.0061q0.36326 47.423 0.7271 94.847 0.86-0.00707 1.7203-0.0129-0.36389-47.424-0.72699-94.847"/> <path d="m647.35 913.96 5.9788-0.0453 5.9793-0.0458q0.2729 35.618 0.5457 71.236-5.9791 0.0457-11.958 0.0917-0.273-35.618-0.54584-71.236"/> <path d="m654.1 903.62-0.85984 0.00708-0.8604 0.00672q0.36355 47.423 0.7271 94.847 0.86-0.00694 1.7202-0.01331-0.36328-47.424-0.72711-94.847"/> <path d="m662.74 930.52 5.979-0.04494 5.9793-0.0459q0.27294 35.618 0.54594 71.235-5.9794 0.04651-11.958 0.09215-0.2729-35.618-0.54575-71.237"/> <path d="m669.48 920.17-0.86 0.00673-0.8603 0.00747q0.36363 47.423 0.7271 94.846 0.8603-7e-3 1.7204-0.01296-0.36383-47.423-0.7272-94.848"/> <path d="m678.21 958.07 5.979-0.0447 5.9794-0.04626q0.27294 35.618 0.54626 71.236-5.9795 0.046-11.959 0.0919-0.27286-35.618-0.54586-71.237"/> <path d="m684.96 947.72-0.86016 0.00734-0.86024 0.0072q0.36359 47.423 0.72718 94.846 0.86023-0.0071 1.7205-0.0134-0.36371-47.423-0.7273-94.847"/> <path d="m693.65 982.71 5.979-0.04577 5.9796-0.04553q0.2729 35.617 0.54614 71.235-5.9794 0.0462-11.958 0.0926-0.2733-35.619-0.54626-71.236"/> <path d="m700.4 972.37-0.8603 0.0066-0.86034 0.00635q0.36394 47.423 0.72734 94.846 0.8602-0.0063 1.7205-0.013-0.364-47.424-0.7272-94.846"/> <path d="m709.04 998.89 5.979-0.0458 5.9792-0.04576q0.27317 35.617 0.54605 71.235-5.979 0.047-11.958 0.0927-0.27304-35.618-0.5459-71.236"/> <path d="m715.79 988.55-0.85998 0.0072-0.86006 0.00693q0.36323 47.422 0.7269 94.846 0.85984-0.0067 1.7202-0.0129-0.3633-47.423-0.72706-94.847"/> <path d="m728.43 1043.9 5.979-0.0464 5.9795-0.0459q-0.27332-35.618-0.54607-71.236-5.9795 0.0459-11.958 0.09106 0.27285 35.618 0.54608 71.237"/> <path d="m735.33 1054.1-0.8601 0.0074-0.8603 0.0059q-0.3636-47.424-0.7267-94.847 0.8603-0.0067 1.7202-0.0134 0.36336 47.424 0.72686 94.847"/> <path d="m743.56 1027.1 11.958-0.0926q-0.27295-35.617-0.546-71.235-5.9793 0.04494-11.959 0.09058 0.2732 35.619 0.54645 71.237"/> <path d="m750.47 1037.3-0.8602 7e-3 -0.86045 0.0063q-0.36335-47.423-0.72685-94.847 0.85966-0.00696 1.7203-0.01331 0.3636 47.424 0.7272 94.847"/> <path d="m758.6 999.33 11.959-0.0924q-0.2736-35.618-0.5465-71.235-5.9791 0.0463-11.958 0.0917 0.2728 35.617 0.546 71.236"/> <path d="m765.51 1009.6-0.86003 0.0072-0.86007 0.00584q-0.3639-47.424-0.72715-94.847 0.86015-0.00624 1.7202-0.0137 0.3635 47.424 0.727 94.847"/> <path d="m773.67 974.45 5.9793-0.0459 5.9789-0.04677q-0.2728-35.617-0.54583-71.235-5.9791 0.04556-11.959 0.0907 0.27324 35.618 0.54625 71.237"/> <path d="m780.58 984.69-0.86023 0.0072-0.86023 0.00635q-0.36354-47.424-0.72684-94.847 0.86026-0.0066 1.7203-0.0136 0.3636 47.424 0.727 94.847"/> <path d="m788.81 958.03 5.9791-0.04624 5.9794-0.0459q-0.27289-35.617-0.54573-71.235-5.9797 0.045-11.959 0.09104 0.2731 35.618 0.5459 71.236"/> <path d="m795.71 968.27-0.86036 0.00745-0.8601 0.0051q-0.36354-47.423-0.72704-94.847 0.8601-0.00635 1.7203-0.0138 0.36359 47.424 0.72724 94.848"/> <path d="m804.58 895.94 11.958-0.09194q-0.27286-35.617-0.54636-71.234-5.9786 0.04505-11.958 0.09035 0.27301 35.618 0.54595 71.236"/> <path d="m811.49 906.18-0.86 0.0068-0.8602 0.0071q-0.3632-47.424-0.7269-94.847 0.86003-0.0062 1.7203-0.01274 0.3637 47.423 0.7268 94.846"/> <path d="m819.71 879.15 5.9788-0.046 5.979-0.04665q-0.2729-35.617-0.5447-71.234-5.9801 0.04567-11.959 0.09162 0.2731 35.617 0.54566 71.235"/> <path d="m826.62 889.39-0.86043 0.00634-0.85997 0.00686q-0.36324-47.424-0.7268-94.846 0.85984-0.00674 1.7201-0.01374 0.3639 47.424 0.7271 94.847"/> <path d="m834.76 851.37 5.9797-0.04555 5.9792-0.04685q-0.27305-35.618-0.5465-71.235-5.9787 0.04565-11.958 0.09106 0.27325 35.618 0.54535 71.236"/> <path d="m841.67 861.61-0.8603 0.00721-0.86 0.00586q-0.36335-47.423-0.7268-94.846 0.85984-0.0067 1.7201-0.0135 0.36357 47.423 0.72697 94.847"/> <path d="m849.83 826.49 5.979-0.04639 5.9791-0.04635q-0.2731-35.617-0.5457-71.235-5.9795 0.04575-11.959 0.09105 0.273 35.618 0.54635 71.236"/> <path d="m856.74 836.73-0.86 0.00781-0.8604 0.00564q-0.36326-47.423-0.72696-94.847 0.86036-0.00696 1.7206-0.01386 0.3634 47.424 0.7268 94.847"/> <path d="m864.96 810.08 5.9793-0.04566 5.9798-0.0461q-0.27319-35.618-0.54608-71.235-5.9794 0.04524-11.959 0.0911 0.27314 35.618 0.5457 71.236"/> <path d="m871.87 820.32-0.85981 0.00794-0.86014 0.0055q-0.36355-47.423-0.7272-94.846 0.86023-0.0072 1.7202-0.0136 0.36354 47.423 0.72695 94.846"/> <path d="m363.85 662.89v4.5e-4 8.5e-4l-3.9761-1.9692c7.617-5.7152 16.344-12.414 23.948-12.472v6.3e-4c5.7205-0.0445 10.197 3.4969 13.191 10.911v6e-4c3.9761 9.8449 5.9249 27.903 7.4708 42.053v5.4e-4c1.1012 10.079 1.9761 17.827 3.0333 20.445v3.6e-4c0.0827 0.2047 0.13563 0.2927 0.14393 0.3056l1e-4 8e-4c0.02223 0.03345-0.09234-0.16485-0.4035-0.351l-2.4e-4 8.5e-4c-0.25598-0.1546-0.60034-0.27065-0.99542-0.26785v5e-4c-0.81409 0.0058-1.1937 0.48646-1.1116 0.3971v5.6e-4c1.1821-1.281 3.2094-8.4436 5.8231-18.116v4e-4c2.8618-10.591 6.2961-23.46 9.965-28.73v4e-4c1.6658-2.3935 3.7064-3.7434 6.1503-3.7621v3.7e-4c2.7225-0.02117 5.2606 1.7311 6.9491 2.8266v3.6e-4c2.229 1.4458 3.6848 2.2944 5.0189 2.2837v7e-4c0.84558-0.00727 2.2401-0.4043 4.1498-3.2158l5e-5 8.6e-4c2.6566-3.9117 5.5896-11.403 8.9174-19.955v2.6e-4c3.7535-9.6469 7.9581-20.493 12.606-27.335v3.1e-4c2.6927-3.9645 6.1527-7.5337 10.482-7.567v8.7e-4c1.0671-0.00891 2.121 0.20349 3.1451 0.62623v6e-4c8.536 3.523 17.133 24.181 25.452 43.638v3.5e-4c6.8792 16.09 13.907 32.492 20.998 42.327v5.7e-4c9.247 12.825 18.523 14.302 26.564 15.603v4.7e-4c5.4272 0.87738 11.281 1.7142 15.231 6.9612l3e-5 7.5e-4c3.8564 5.1222 5.6885 14.354 7.6003 23.666v4e-4c2.5689 12.516 5.3945 26.048 12.343 35.278v6e-4c0.2709 0.3593 0.5488 0.71374 0.83176 1.0585v4.3e-4c5.0821 6.2012 12.355 10.317 21.389 15.384v6.5e-4c12.275 6.8844 27.141 15.21 41.445 32.664l7e-5 6.1e-4c2.1372 2.6072 4.2592 5.4152 6.3581 8.4512v4e-4c14.111 20.406 27.187 51.147 37.808 76.095v7e-4c7.4874 17.586 13.663 32.055 18.192 38.605l5e-5 0.0011c1.0348 1.4962 1.8423 2.3619 2.4071 2.7707v1e-3c0.26874 0.1935 0.3999 0.2223 0.40074 0.2225l-3e-4 9e-4c-0.00145-0.0011-0.0171-0.0043-0.0451-0.0038v6e-4c-0.07543 0-0.1324 0.0222-0.1444 0.0282l1.1496 2.203v7.4e-4 -7.4e-4 7.4e-4l-1.1492-2.2037c3.1463-1.6423 4.7435-19.557 6.0852-39.292v7.6e-4c0.7042-10.361 1.3784-20.397 2.6522-25.999v3.6e-4c0.7044-3.099 1.7457-5.6367 3.6536-6.8812v4.7e-4c0.77948-0.50867 1.6394-0.75707 2.5188-0.76392v6.1e-4c0.11854-0.00136 0.23555 0.00144 0.3509 0.00914l-2e-4 0.00136c2.7808 0.17764 5.453 2.9017 7.0578 4.4161v2.4e-4c2.5434 2.4 3.9527 3.4955 4.8054 3.4898v2.3e-4c0.03373-6.3e-4 0.30363 0.03957 0.8284-0.64223v2.6e-4c2.3975-3.1154 4.5416-13.096 7.1127-25.497 2.8065-13.54 6.0521-29.385 11.103-37.611v1.2e-4c4.0129-6.5359 9.2456-8.5474 14.3-8.5865v8e-4c3.4078-0.0264 6.6743 0.84506 9.1398 1.493v3.5e-4c1.9967 0.5239 3.2371 0.8282 4.0553 0.82185v3.5e-4c0.19356-0.0016 0.2746-0.0234 0.28054-0.0251v3e-4c-0.00324 5e-4 -0.07084 0.02195-0.15844 0.0908v-4e-4c-0.08247 0.0656-0.118 0.1225-0.11994 0.1252l4e-5 4e-4c0.33974-0.5683 0.3653-2.3724 0.13136-6.9018v5.5e-4c-0.40646-7.8555-1.0726-20.466 5.0596-35.052v7.4e-4c9.6475-22.944 36.156-50.623 62.083-77.751 0.948-0.9923 2.5207-1.0277 3.5132-0.07994 0.99193 0.9481 1.0277 2.5213 0.07943 3.5137v3.4e-4c-26.236 27.452-51.891 54.356-61.094 76.243v3.4e-4c-5.6668 13.477-5.0792 25.11-4.6783 32.868v5.5e-4c0.1823 3.5247 0.50524 7.4782-0.8294 9.7093l3e-4 -4e-4c-0.2669 0.4457-0.6169 0.87124-1.0706 1.2286v7.3e-4c-0.47644 0.37433-0.99614 0.61823-1.5085 0.76957v1.5e-4c-0.5672 0.16735-1.132 0.22435-1.6502 0.22821v6.1e-4c-1.6374 0.0119-3.6333-0.53333-5.3556-0.98603v3.6e-4c-2.557-0.672-5.1962-1.3508-7.8396-1.3303v2.3e-4c-3.4681 0.02612-7.0519 1.2468-10.103 6.2157v6.4e-4c-4.4783 7.2941-7.5719 22.029-10.472 36.019l3e-5 7.4e-4c-2.3962 11.559-4.7405 23.231-8.0403 27.519v7e-4c-1.229 1.5962-2.8269 2.565-4.7288 2.5797v0.0011c-3.3419 0.02456-6.4447-3.1376-8.2544-4.8458l7e-5 7.3e-4c-2.3154-2.1858-3.4335-3.0391-3.9657-3.0731l-3e-4 8.7e-4c0-8.7e-4 0.00274-8.7e-4 0.00646-8.7e-4v7.4e-4c0.06024-7.4e-4 0.13141-0.02661 0.15784-0.04344v7e-4c-0.11096 0.07155-0.8305 0.7754-1.5222 3.8186v9e-4c-1.1647 5.1213-1.8208 14.649-2.5401 25.232v7.6e-4c-1.1545 16.98-2.3417 40.021-8.7445 43.362l-1.1498-2.2032v7.4e-4 -7.4e-4 7.4e-4l1.1502 2.2025c-0.6396 0.3335-1.354 0.52895-2.1176 0.53505l5e-5 0.0011c-0.3433 0.0013-0.68084-0.0349-1.0113-0.1038l-3.5e-4 4e-4c-0.85225-0.1793-1.6176-0.572-2.2945-1.0615-1.2569-0.91006-2.4486-2.3329-3.5817-3.9713v7.4e-4c-4.8974-7.0838-11.318-22.2-18.677-39.487v4.9e-4c-10.689-25.108-23.562-55.316-37.322-75.216v6.1e-4c-2.0231-2.9267-4.0635-5.6259-6.1142-8.1283v6.3e-4c-13.671-16.682-27.823-24.632-40.032-31.481v6.6e-4c-8.8331-4.9551-17.013-9.5068-22.802-16.57l3.1e-4 9e-4c-0.32787-0.40034-0.64687-0.80684-0.95807-1.2206v4.5e-4c-7.7545-10.301-10.736-25.062-13.241-37.269v3e-4c-2.0265-9.8731-3.6903-17.676-6.703-21.677v1e-4c-2.5579-3.3985-6.2422-4.1045-12.054-5.0449v6e-4c-8.4736-1.3713-19.388-3.1609-29.802-17.604v3.4e-4c-7.4897-10.388-14.75-27.408-21.536-43.281v8e-4c-8.9828-21.012-16.687-38.485-22.778-40.999v6e-4c-0.44483-0.1841-0.84247-0.25465-1.211-0.2517v6e-4c-1.5738 0.0114-3.7362 1.4542-6.4087 5.3887v4.5e-4c-4.2573 6.2674-8.2484 16.483-12.085 26.344v5.3e-4c-3.2188 8.2707-6.3821 16.446-9.4379 20.944v5.7e-4c-2.4178 3.559-5.1306 5.3682-8.2229 5.3921v3.4e-4c-3.1184 0.02364-5.8985-1.8766-7.762-3.0854v4.7e-4c-2.1351-1.3861-3.2955-2.0338-4.206-2.0268v6e-4c-0.33881 0.0019-1.0427 0.09824-2.1099 1.631l6e-5 6.7e-4c-3.0351 4.359-6.2349 16.043-9.2457 27.186v2.6e-4c-2.3262 8.6072-4.7 17.732-6.969 20.19v4e-4c-0.40032 0.4335-1.2437 1.1912-2.5022 1.201v5e-4c-0.59992 4e-3 -1.1439-0.1689-1.5962-0.4398v9.6e-4c-0.58557-0.35199-0.96661-0.83416-1.2028-1.1953l2.6e-4 7e-4c-0.24378-0.37386-0.43604-0.77804-0.59236-1.1644v4.9e-4c-1.3924-3.4482-2.3229-12.227-3.3655-21.768l6e-5 5.5e-4c-1.5845-14.502-3.4863-31.689-7.139-40.733v3e-4c-2.5311-6.2678-5.5632-7.8268-8.5449-7.8039v5e-4c-5.5594 0.042-12.727 5.2675-21.003 11.477-0.75006 0.56273-1.7532 0.65544-2.5936 0.2395-0.84053-0.4164-1.3752-1.2703-1.3823-2.2081v6.3e-4 -9.3e-4c-0.01056-1.3725 1.0934-2.4934 2.4658-2.5038 1.3723-0.01063 2.4934 1.0933 2.504 2.4654z"/> <path d="m676.7 925.54v8.5e-4 6e-4 -0.00145"/> <path d="m377.05 950.5v-8.6e-4 -7.4e-4 0.0016"/> </g> <g fill="#3c464f"> <path d="m1075.6 1594.1-13.424-130.99 47.783-6.0708-39.112-196.64q44.523-22.855 49.689-56.267 0.983-2.5872 2.8631-21.633 2.2301-65.593 9.627-148.78 2.1268-45.472-0.7093-58.694-4.5222-28.266-18.913-37.962-1.9991-2.4392-15.021-8.0474-44.426-11.278-78.756-27.575l-13.901-11.157q-5.7032-13.038-11.876-17.272-5.5802-4.6419-23.384-9.357l-107.11 55.905-34.291 12.477-31.747 6.7527q-9.3505 3.8076-20.723 33.988-29.951 88.703-42.344 213.08-2.2374 48.289 9.2959 66.146 8.8037 16.658 34.115 25.69l-34.707 167.9 48.57 16.491 8.3492 140.28 275.73-8.2489"/> </g> <g fill="#ffb172"> <path d="m622.52 1198.8 32.088-5.2884q3.9977-11.031 14.444-16.734 11.333-5.681 24.54-5.3584 12.574 0.8195 19.685 7.0641 3.1065 2.6175 5.7042 6.1685 1.6235 1.4313 6.6263 11.956 3.3355 6.7756 5.7482 21.819 1.3112 12.354-1.912 18.237-0.31727 1.2958-3.7631 5.0375-2.114 2.1766-8.2863 5.4308-9.477 9.2918-15.312 13.173-7.0381 4.918-15.006 6.3826-11.283 2.1652-34.946-3.0658l-23.835 12.031-5.7761-76.852"/> </g> <g> <path d="m826.87 764.75-3.1368-1.8741q-9.8723-5.5589-15.586-11.696-3.6164-4.1182-3.0741-8.8148 0.33854-2.3576 2.0248-4.9027 0.15485-1.1768 7.6292-7.9927 4.3922-4.0767 21.187-14.499 33.875-20.31 58.613-25.582 22.609-4.4466 39.706 6.0676 29.924 19.23 41.386 52.083 3.8244 9.0936 3.0831 28.853-1.008 14.041-8.9811 38.386l-38.405 17.672-104.45-67.7"/> </g> <g fill="#ffb172"> <path d="m374.79 854.67 2.49 1.2365q16.125 8.2692 25.789 10.851 7.6289 2.1394 13.381-1.1042 7.2274-2.6321 21.061-33.281l7.5498-0.6997 0.54973-5.9412 6.5396-3.9867-2.2575-9.2574q10.468-0.6409 12.08-4.6749 4.0704-4.9142-3.9594-33.847 2.4878-7.2393 11.585-30.109l-0.68362-38.881q-18.169-5.4273-24.144 0.2489-1.8255 1.306-4.0776 6.215-0.50281-0.38496-5.8025 19.905-0.27163 1.4043-2.4726 5.6825-3.8389 5.8235-8.883 7.7587-1.2296 0.58507-2.4718 1.1296-4.5571-13.272-7.248-15.04-2.1854-2.5372-6.1223-2.6088-10.326 0.7981-22.733 18.133-4.3375 7.5323-4.5402 15.062-0.41089 6.2731 1.6935 17.555l-13.017 8.9832-29.449 44.109 35.142 22.56"/> </g> <g> <path d="m361.83 826.44-92.366-14.775q-8.2032-71.145-6.4025-106.42 1.3757-30.497 11.881-47.918 11.932-21.164 42.879-33.847 28.111-13.116 56.652-9.0903 34.153 5.428 77.138 36.725 24.669 19.901 28.009 27.327 6.3154 9.9288 5.0622 17.666 0.21909 6.1388-9.9922 17.359l-10.158 9.2101-102.7 103.77"/> </g> <g fill="#fff"> <path d="m273.41 833.11 9.0375-22.589q3.2203-2.9679 10.77-2.1663 7.1786 0.6885 21.058 4.771 31.737 9.6736 48.262 21.331 12.429 9.2217 15.025 19.911 2.738 8.8202 0.89994 25.7l-105.05-46.957"/> </g> <g> <path d="m292.48 815.84q-6.8059 0-12.717 1.374l-2.7e-4 7e-4 -0.0028 1e-3q-8.1366 1.8909-14.577 6.3866l-23.927 37.199q-87.831 36.665-115.85 69.375-3.119 2.8064-11.404 18.729-17.717 51.339-26.08 65.841-58.374 92.35-60.745 99.892-15.379 29.504-20.571 57.869-7.3184 38.176 14.795 64.699 14.38 20.63 84.759 52.447l-51.011 245.84 58.666 31.593-1.1032 23.721 303.72 1e-4 -7.5206-38.134 68.12-11.046-32.097-313.31 0.00446 1e-3q36.755 72.805 71.435 81.757 11.161 4.609 29.279 4.609 35.771 0 98.659-17.965l-1.5364-28.347-3.915-72.233-0.5175-9.547-63.686 0.5265q-77.505-250.29-96.023-259.11-4.9455-6.6639-14.414-12.099l-83.595-43.127q-0.7197-1.5492-1.4564-3.0504l-0.00378 9.5e-4q-5.612-11.444-12.215-20.086l-27.307-17.532v9.5e-4l27.304 17.527q-11.07-14.486-24.915-21.1l-0.00343 9.7e-4 -2.3849 3.5711 2.3849-3.5721q-1.1348-0.5437-2.2917-1.0342-13.267-5.6419-24.757-8.5551l-18.838-3.0138q-1.8646-0.09664-3.6691-0.09664zm-98.869 234.87 0.00194 1e-3 -0.00194-1e-3q3e-5 0.0029 8e-5 0.0058l-0.00194 9e-4q-4e-5 -0.0038-8e-5 -0.0067zm0.91291 293.22q9.7e-4 0 0.00195 0l-0.00194 1e-3 0.49054 37.201-0.49249-37.202z"/> <path d="m197.19 1343.9 0.48993 37.156v1e-3l-0.4919-37.156z"/> <path d="m196.28 1050.7 0.00197 9e-4 -0.00197-9e-4q3.7e-4 0.0285 7.4e-4 0.057l-0.00196 1e-3q-3.6e-4 -0.0295-7.4e-4 -0.058z"/> <path d="m296.15 815.93 18.832 3.0124q-10.102-2.561-18.829-3.0124z"/> </g> <g fill="#ffb172"> <path d="m390.92 798.43-1.9817-3.7501q-8.9958-16.88-10.589-26.081-0.7507-3.6865-0.79787-7.3366l0.16777-3.639 0.59765-3.6167q0.71495-3.0831 2.0395-6.0543 6.0057-12.652 16.105-17.38 4.851-2.019 8.6896-0.37023l2.5723 1.6907 2.0243 2.2329 1.8425 2.8736q3.4668 6.5163 5.9153 16.621 1.9365 7.2261 5.4851 27.505l-32.07 17.305"/> <path d="m418.92 787.29 0.74781-36.688q7.7259-8.5448 11.14-12.909 4.6083-6.0349 5.5206-8.1576 3.4718-6.1139 1.8868-14.621 11.913-7.5885 15.06-8.3578 7.4939-2.8298 10.272 2.1618 1.8497 3.42 2.3992 9.6171 0.54943 6.1972 0.37652 13.937 0.00193 1.8386-0.34964 11.803l-47.054 43.214"/> </g> <g fill="#e99056"> <path d="m474.27 676.46-3e-5 1.5e-4 -5e-5 1.2e-4 8e-5 -2.7e-4"/> </g> <g fill="#fff"> <path d="m975.78 866.92 2.2806 1.5997q10.391 7.0207 10.57 18.495-0.33475 12.169-1.8916 16.62-1.5832 6.8296-4.6646 15.688-14.557 40.796-62.27 135.85l-40.878 106.81-2.8075-170.14-0.18635-71.326 35.443-12.95 64.404-40.647"/> </g> <g fill="#ffb172"> <path d="m910.01 945.54-13.832-26.364q-20.631 8.3639-27.326 0.3794-4.864-3.5586-13.511-21.781-14.024-18.499-20.148-28.075-5.0263-7.714-8.2995-14.69-2.954-5.4423-4.6854-15.969-1.2444-6.1223 1.3523-21.825-5.0182-21.663-5.5528-31.718-0.88686-10.193 1.2883-29.025l23.575-4.9774q31.933-10.724 39.901-12.146 13.759-3.0683 19.425-1.7007 7.5732 1.3517 7.6957 10.72 0.22947 7.2825-5.899 25.653l22.265 16.582 5.893 18.354 12.212-6.8996q3.1572-16.675 10.721-20.655 4.0665-2.4858 13.508 0.5818 6.4008 2.5168 10.085 8.0365 3.6727 5.4175 1.0373 14.923-0.87816 5.7242-13.127 26.724l10.144 51.922-66.721 61.951"/> </g> <g> <path d="m910.67 945.42-14.368 16.426 6.7276 22.479 19.162-0.6524 11.78-29.157-23.301-9.0959"/> <path d="m879.89 1162-0.41746-8.8881q-2.5209-49.134-0.79248-76.684 0.47204-7.8959 1.3395-15.351l0.97821-7.3312q2.208-14.382 5.71-27.32 4.2607-16.304 14.144-43.18l22.755-1.1412 1.9367 67.698-45.653 112.2"/> <path d="m137.6 1244.3 25.305-1.6596 50.45-8.2395 26.736-54.746-25.394-47.86q-26.736 2.2081-38.444 5.2292-14.63 3.2941-21.018 11.289-2.0144 2.7307-3.1095 5.9856-0.98421 1.3784-1.6769 10.682 0.18447 11.744 2.8508 24.904l-15.699 54.415"/> </g> <g fill="#ffb172"> <path d="m135.08 1240.8 1.219 0.7513q8.5958 5.2464 19.139 6.1617 17.961 1.7731 29.933-0.463 9.3592-1.4395 18.146-5.4675 8.6481-3.9593 15.651-11.754 17.187-21.211 18.528-48.627 0.48413-15.443-3.6206-27.155-0.47492-2.324-4.5425-10.047-3.506-5.761-7.222-8.0534-8.159-5.0113-21.558 3.7558-3.8143-10.048-6.3392-11.542-3.7877-3.0445-7.979-2.2753-11.194 1.7938-22.102 13.178-3.2505 3.0488-7.2954 12-1.7557 3.8235-3.9546 13.719l-1.6359 8.6092 1.5681 17.723-9.9621 3.7473-7.9729 45.74"/> <path d="m816.91 1053.1v2e-4l7e-5 1e-4 -7e-5 -3e-4"/> </g> <g fill="#399365"> <path d="m640.28 921.84 31.87-2.2026q10.112 146.26 20.224 292.51-15.935 1.1021-31.869 2.204-10.112-146.26-20.224-292.51"/> <path d="m651.97 888.82 1.3266-0.11404 1.3266-0.114q1.8614 21.567 3.7228 43.134-1.3266 0.115-2.653 0.23-1.8614-21.568-3.723-43.136"/> <path d="m676.46 1207.1 2.653-0.2283 3.7228 43.134-2.6529 0.23-3.7229-43.136"/> </g> <g fill="#ffb172"> <path d="m232.85 1253.2 6e-5 3e-4 -6e-5 -3e-4"/> </g> <g fill="#ff0001"> <path d="m179.13 1050.6 31.945 0.1231q-0.56128 146.6-1.1226 293.21-15.973-0.0608-31.945-0.1216 0.56134-146.61 1.1226-293.21"/> <path d="m193.19 1018.6 1.3314-0.01716 1.3314-0.01714q0.28656 21.645 0.57312 43.29-1.3314 0.018-2.6627 0.0362-0.28656-21.646-0.57312-43.292"/> <path d="m194.44 1337.8 2.6627-0.0344 0.57312 43.29-2.6627 0.0362-0.57312-43.292"/> </g> <g fill="#ffb172"> <path d="m645.25 1200.8 59.839-14.824 13.214 47.696-20.044 29.891-39.24-10.639-13.769-52.124"/> <path d="m921.08 1101.2v2e-4l6e-5 2e-4 -6e-5 -4e-4"/> <path d="m686.51 1261.8 0.0565 4e-3q0.1691 0.012 0.3334 0.021 0.05473 0.0031 0.10893 0.0057l0.24227 0.0106 0.2368 0.0073 0.23126 4e-3 0.22584 7e-4 0.2203-0.0024 0.21493-0.0057 0.20937-0.0091-2.0728-0.0361h-0.0068"/> <path d="m902.58 1071 4e-5 2e-4v4e-4l-4e-5 -6e-4"/> <path d="m1035.2 1168.6-30.834 18.578-57.137-5.9817q13.143-18.4 25.818-33.507 10.403-11.467 12.324-12.639 4.0071-3.5016 7.8409-5.7844 7.3505-4.4762 15.094-3.5318 8.0582 1.3567 14.024 6.8785 7.7274 6.9085 11.321 16.695 2.7017 7.9919 1.549 19.292"/> <path d="m796.02 1153.9 16.851 25.868 46.335 16.748q-3.2635-19.115-7.3968-35.514-3.741-12.74-4.7857-14.363-1.7834-4.2012-3.8887-7.3964-3.9996-6.2033-10.329-8.3698-6.7266-1.9663-13.396 0.0642-8.5472 2.4426-14.98 8.6526-5.0736 5.1576-8.4095 14.31"/> </g> <g fill="#fff"> <path d="m885.78 1268.2-9.4786 34.752-9.4786 34.752q20.868-1.5747 41.737-3.1495l-22.78-66.354"/> </g> <g fill-opacity=".47059"> <path d="m895.57 1455.5-0.21035 10.775q-0.82785 37.266-0.37245 67.978 0.55995 27.651 2.4198 46.396 0.39784 4.1775 0.90956 8.6191l0.0116 1e-3 9.389-1e-3 -12.147-133.77z"/> </g> <g> <path d="m312.72 860.28-1.8e-4 6.5e-4 -1.7e-4 6.5e-4 3.5e-4 -0.0013"/> </g> <g fill="#ffb172"> <path d="m215.31 1137.6-0.5725-0.5156q-7.2914-6.878-10.202-1.9291-1.5358 1.9454-2.9236 6.4491-1.195 3.1971-2.9734 14.867-1.9701 14.225-2.8596 32.358-0.42236 8.838-0.44032 17.28l0.10553 8.1149q0.21782 7.9017 0.9743 14.035l0.91352 5.463q1.3467 5.8222 3.2425 7.1731 1.7169 1.286 3.5101 0.6073l1.944-0.9805q2.0289-1.3768 4.3359-4.0512 4.2586-3.6908 21.05-33.505l-16.105-65.368"/> </g> <g fill="#ff7c50" fill-opacity=".69412"> <path d="m889.75 882.89-1.0015-1.3946q-6.1664-8.6859-9.2287-11.026-2.5295-2.031-5.4034-1.599l-4.1779 0.9894q-4.6663 0.3149-4.911 0.5327-1.5012 0.4254-2.6277 1.5816-1.7667 2.0607-2.6474 4.1693-1.4806 3.1221-3.9574 10.592 8.6854 10.038 11.898 12.232 2.0222 1.6091 4.2523 2.5289 1.283 0.57653 3.2697 0.55463l1.5058-0.3702 1.3401-0.6626q1.8303-1.1273 3.7713-3.6612 3.9148-5.5019 7.9184-14.467"/> </g> <g> <path d="m885.16 883.17-0.73446-1.0223q-4.0611-5.7385-6.3066-7.6839-2.0508-1.9291-4.4213-1.5726l-3.063 0.72537q-3.1682 0.21789-3.3899 0.34167-0.95193 0.18996-1.844 0.9234-1.3281 1.1984-2.4957 3.9303-0.9821 2.187-2.6398 7.1775 5.5727 6.5132 8.4651 8.7642 1.1618 0.9324 2.2758 1.5447l1.0994 0.51333 1.0696 0.31266q1.3672 0.15234 1.4134 0.0675l1.0181-0.24512 0.98257-0.48574 0.95-0.7052q0.9334-0.815 1.8149-1.9792 2.2168-2.8249 5.8058-10.606"/> </g> <g fill="#f00" fill-opacity=".29804"> <path d="m881.93 842.15-11.37 11.491-12.148-10.182 11.602 4.9431 11.916-6.2523"/> </g> <g fill="#fff"> <path d="m904.24 807.94-0.98627-0.4917q-4.4412-2.2271-6.7439-2.7902-0.9267-0.24763-1.819-0.35597l-0.88213-0.06593q-0.8901-0.0235-1.6643 0.12526l-0.8798 0.22644-0.8535 0.3338-0.8296 0.4311q-0.81785 0.4799-1.5973 1.1161-1.9584 1.5508-5.1901 5.5431 2.8526 1.1032 4.0715 1.4569 2.031 0.5723 2.4348 0.60374 2.6796 0.4331 4.3374 0.05279 0.89368-0.17213 1.7824-0.50263l0.88801-0.3629q0.88708-0.39887 1.7706-0.9131 2.2094-1.257 6.1611-4.4068"/> </g> <g> <path d="m889.04 810.26 0.08616 0.59797q0.4256 1.7948 1.9033 2.7778 1.487 0.98106 3.3746 0.63076 1.7946-0.4252 2.7776-1.9029 0.3148-0.4774 0.50007-1.0263l0.14813-0.56124q0.1139-0.5759 0.06885-1.1895-0.19065-1.8787-1.5354-3.0334t-3.2306-1.0592q-1.8785 0.19049-3.0333 1.5354-1.155 1.3449-1.0595 3.2306"/> </g> <g fill="#fff"> <path d="m828.7 811.49 0.93965-0.57565q4.2315-2.604 6.4767-3.3647 0.90161-0.32704 1.7813-0.5124l0.8731-0.142q0.8847-0.1006 1.6691-0.0199l0.89596 0.14944 0.87914 0.25856 0.86396 0.3577q0.85624 0.4071 1.6882 0.9732 2.0855 1.3751 5.6512 5.0722-2.7461 1.346-3.9298 1.8044-1.9737 0.7464-2.3735 0.81245-2.6315 0.66405-4.3164 0.42901-0.90504-0.09406-1.8193-0.34626l-0.91607-0.28454q-0.91823-0.32031-1.8429-0.75606-2.3105-1.0605-6.5203-3.8554"/> </g> <g> <path d="m844.05 812.48-0.0339 0.60295q-0.26804 1.8248-1.6551 2.9324-1.3961 1.1066-3.3072 0.92139-1.8246-0.26814-2.9322-1.655-0.35486-0.44843-0.58726-0.97931l-0.19643-0.54572q-0.16317-0.56408-0.17157-1.1791 0.027-1.8882 1.2666-3.1552 1.2395-1.2672 3.1265-1.3356 1.888 0.02696 3.1551 1.2664 1.2671 1.2395 1.3354 3.1266"/> <path d="m848.67 797.15-1.1845-0.13746q-3.573-0.4375-6.9679-0.65307-1.1246-0.06353-2.2099-0.07763l-1.0729 9e-4q-0.93367 0.0036-2.3257 0.12055-2.0947 0.17575-4.7245 0.86475-2.3002 0.61786-5.6699 1.8936l24.155-2.0116"/> <path d="m879.44 792.63 1.1378-0.356q3.4281-1.0965 6.7229-1.9417 1.0934-0.27215 2.1568-0.4885l1.0545-0.1993q0.9175-0.1708 2.3073-0.3156 2.0907-0.218 4.8028-0.0317 2.3752 0.17756 5.9241 0.8016l-24.106 2.5312"/> <path d="m812.48 802.52 23.92-2.5691c0.039-0.00454 0.0775-0.0052 0.11624-0.0069 7.7089-0.82565 14.671-0.9712 19.09-0.94955 1.032 0.00465 2.0258 0.20955 2.9404 0.59365l15.935-1.7114c0.81226-0.56975 1.7399-0.98095 2.747-1.205 4.3132-0.95944 11.148-2.2959 18.857-3.1266 0.03793-0.00636 0.07507-0.01374 0.11363-0.0179l23.92-2.569c2.1294-0.22889 4.048 1.3174 4.2768 3.447l0.42824 3.9866c0.22874 2.1297-1.3176 4.0484-3.4472 4.2771l-2.5924 0.2785-0.4899 7.9765c-0.32965 5.3656-3.9202 9.961-9.1476 11.707-4.9565 1.6557-9.8204 2.573-14.212 3.0449-4.2268 0.45415-8.0169 0.4947-11.031 0.38206-4.2035-0.15676-7.7489-2.9445-8.8214-6.9365l-2.0433-7.6033c-0.06374-0.03767-0.1264-0.07831-0.1868-0.12427-0.7916-0.6056-2.5971-1.2176-5.0813-0.9508-2.4843 0.26696-4.1182 1.2486-4.7632 2.0082-0.04937 0.05783-0.10181 0.11075-0.15607 0.16117l-0.3818 7.8636c-0.2005 4.1287-3.0728 7.6057-7.1472 8.6521-2.9224 0.75026-6.6338 1.5152-10.861 1.9691-4.3917 0.4719-9.3404 0.6079-14.535 0.0429-5.479-0.59603-9.9638-4.3236-11.425-9.4967l-2.1728-7.6908-2.5913 0.27862c-2.1298 0.22854-4.0482-1.318-4.2768-3.4475l-0.42825-3.9866c-0.2288-2.1297 1.3175-4.0482 3.4474-4.2769zm104.48-7.2879c1.0248 1.1154 1.6706 2.4732 1.8887 3.9272l2.1245-0.22784c0.06845-0.00781 0.11855-0.06946 0.11115-0.13826l-0.42835-3.9866c-0.0072-0.0689-0.06935-0.1186-0.13782-0.1111l-3.6933 0.39673c0.04496 0.04697 0.09104 0.09192 0.13517 0.13987zm-41.797 9.7139 3.547 13.2c0.6424 2.3911 2.7851 4.0607 5.332 4.156 5.8358 0.21776 14.721-0.16681 23.912-3.2364 3.7662-1.258 6.352-4.5436 6.587-8.3718l0.6256-10.189c0.0618-1.0085-0.2842-1.978-0.9747-2.7294-0.6947-0.75592-1.6445-1.1856-2.6735-1.2094-5.0564-0.11745-10.194 0.1945-14.994 0.7102-7.5442 0.81053-14.253 2.1243-18.483 3.0654-1.0484 0.23286-1.9258 0.8567-2.4708 1.7562-0.52423 0.86564-0.66907 1.8772-0.40821 2.8485zm-12.032 1.8779-0.0509 1.0487c1.262-0.5917 2.7294-0.9997 4.2878-1.167 1.5584-0.16745 3.0792-0.08053 4.4381 0.2298l-0.27236-1.014c-0.35498-1.3197-0.33924-2.6745 0.0271-3.9511l-9.2955 0.9986c0.629 1.1697 0.9319 2.4899 0.8658 3.855zm-43.789 3.9735 2.7754 9.8238c1.0424 3.69 4.267 6.3521 8.2147 6.7821 9.6331 1.0473 18.398-0.46417 24.054-1.9163 2.4685-0.63397 4.2078-2.7208 4.3279-5.1932l0.66254-13.652c0.04846-1.005-0.30794-1.9629-1.0039-2.6972-0.72366-0.7635-1.7136-1.1866-2.7873-1.1917-7.0905-0.0344-20.873 0.36464-33.515 3.421-1.0008 0.24174-1.8372 0.8633-2.3559 1.7497-0.51486 0.88047-0.647 1.9014-0.3725 2.8736zm-6.1461-0.41556c0.0074 0.06891 0.0695 0.11859 0.13795 0.11121l2.1241-0.22785c-0.09558-1.4675 0.24716-2.9312 1.0118-4.2388 0.0329-0.05627 0.06825-0.11059 0.10243-0.16583l-3.6932 0.3972c-0.06856 7e-3 -0.11866 0.06887-0.11126 0.13753l0.4282 3.9865z"/> <path d="m917.69 802.79-1.3458-5.2893-1.3458-5.2893q15.89-11.337 31.779-22.674-0.51015 8.0376-1.0202 16.075l-28.067 17.177"/> <path d="m468.14 742.65v6e-5l-16.276 4.1892q7.9525-0.2146 15.905-0.42925l0.3715-3.76"/> </g> </svg>