<?xml version='1.0' encoding='utf-8'?>
<svg xmlns="http://www.w3.org/2000/svg" width="1337px" height="955px" version="1.1" viewBox="-131 561 1337 955"> <g> <g fill="#f26655"> <path d="m-131 560.27c-0.19219 0-0.3765 0.0763-0.5124 0.21223-0.13589 0.13593-0.21225 0.32017-0.21225 0.51237l0.00101 955c0 0.4001 0.32444 0.7246 0.72464 0.7246l1337 1e-3c0.1921 0 0.3766-0.0763 0.5124-0.2122 0.1359-0.1358 0.2122-0.3203 0.2122-0.5124l-1e-3 -955c0-0.4002-0.3245-0.7246-0.7246-0.7246l-1337-1e-3z"/> </g> <g fill="#2e1411" fill-opacity=".6549"> <path d="m-131.72 1395.7 1.2e-4 120.29c0 0.4001 0.32444 0.7246 0.72464 0.7246l1337 1e-3c0.1921 0 0.3766-0.0763 0.5124-0.2122 0.1359-0.1358 0.2122-0.3203 0.2122-0.5124l-1e-4 -120.29-1338.5-9e-4z"/> </g> </g> <g fill="#2e1411"> <path d="m403.45 810.36c-2.8088 1.4785-4.583 5.0265-3.5481 6.9482 0.44355 0.81299 1.4783 1.7739 2.2914 2.2174 1.2566 0.66528 1.9219 0.44335 4.0654-1.4043 3.0306-2.7348 5.2482-2.8827 9.6092-0.73925 3.1044 1.4784 6.2091 5.2483 6.2091 7.4657 0 0.5913-0.81312 1.8479-1.774 2.735-1.6262 1.4781-2.2176 1.626-6.8743 1.1825-5.1002-0.5175-5.1741-0.5175-6.6525 1.5523-0.81311 1.1826-2.0697 3.2522-2.8089 4.6568-1.2565 2.513-1.2565 2.5869 0.36962 3.9175 2.4394 1.9958 4.1394 1.6263 5.2482-0.96081l0.88702-2.3652 4.8785 0.5172c6.2829 0.5176 10.127-1.1087 12.566-5.5437 3.7698-6.6523 0.29565-13.823-8.7222-18.627-4.435-2.2175-6.1351-2.735-9.5352-2.7349-2.2914 0.07386-5.1004 0.51734-6.2091 1.1825z"/> <path d="m354.08 838.74c-1.0348 0.29577-3.9916 0.44334-6.6524 0.2218-3.9178-0.29566-5.0264-0.14796-5.8395 0.81311-0.5174 0.66528-1.9957 1.1827-3.1784 1.1827-3.0306 0-6.9482 1.8477-7.983 3.6218-0.44353 0.96097-1.5523 1.5521-2.661 1.5521-2.3654 0-8.1308 5.9137-9.0918 9.3137-0.29559 1.1827-1.4783 3.1782-2.5872 4.3609-1.1087 1.1826-1.7739 2.5872-1.5521 3.1786 0.2218 0.59134 0 1.5522-0.44354 2.1436-0.5174 0.5173-0.66522 1.1826-0.44354 1.4043 0.2218 0.29564-0.22168 1.8478-1.1088 3.4741-1.2566 2.5132-1.4783 3.9915-1.1825 8.796 0.22168 3.2523 0.07385 5.9873-0.29584 6.209-0.2956 0.2218-0.59126 1.774-0.59126 3.4741 7e-5 2.5873-0.6652 3.9916-3.7697 8.131-3.1785 4.3611-3.9917 5.0261-5.3221 4.5826-4.8785-1.5522-5.322-1.4043-8.1308 2.3654-4.5828 6.2829-9.4613 10.348-13.157 10.94-10.866 1.7739-26.61 7.2439-29.271 10.201-3.0305 3.474-7.2438 9.9787-9.2396 14.488-1.1826 2.5872-3.1044 5.4697-4.2871 6.5049-2.5132 2.0696-3.9176 6.3568-3.2524 9.683 0.36963 1.7739 0.07395 2.8088-1.3304 4.435-3.3263 3.9914-8.5743 13.675-14.266 26.388-3.1046 6.8741-7.3917 16.41-9.6832 21.066-2.3654 5.0265-3.9914 9.5354-3.9915 10.94 0 3.4741 3.3263 16.262 6.4308 24.54 2.5132 6.8004 7.7613 17.371 10.792 21.732 1.0348 1.4042 1.4783 3.1043 1.3305 5.0261-0.07392 2.1437 0.59131 3.9916 2.8828 7.9092 2.5131 4.2134 2.8828 5.3222 2.2915 6.8005-1.9958 4.7305-11.309 36.293-10.94 37.18 0.3696 1.0348 9.2396 3.3264 30.454 7.8352 6.1351 1.3306 11.457 2.5135 11.901 2.5873 0.88696 0.2955 1.6263 6.5045 2.5132 22.914 0.36962 6.0611 1.1827 16.41 1.7739 22.914 1.3307 14.044 1.6262 44.424 0.51746 49.155-0.36956 1.8478-1.4044 9.3135-2.2175 16.631-3.1784 27.793-1.3304 68.891 4.3613 95.132 0.73908 3.5481 1.7739 7.0965 2.1436 7.9093 0.5913 1.0348 0.5913 2.5133-6e-5 5.1004-0.66523 2.8088-0.66517 4.509 6e-5 7.096 0.66522 2.5871 0.5913 3.6958-0.07392 4.8045-0.66528 1.1087-0.51744 2.2915 0.8869 6.0611 0.96106 2.5874 2.2177 5.2484 2.735 5.9137 0.81311 0.9608 1.0349 3.4003 0.88702 10.349-0.22168 9.5351 0.66535 16.779 2.2175 18.701 1.2567 1.4786 6.8743 2.513 16.927 2.9566 7.7614 0.2958 8.3528 0.2218 9.0919-1.1825 0.66522-1.1827 1.3305-1.4044 3.8437-1.1089 1.7001 0.1479 4.9524 1.0347 7.3176 1.8478 9.092 3.4004 32.154 3.844 45.829 0.8874 6.8004-1.4784 10.274-2.8829 13.009-5.3959 1.7002-1.5523 2.2176-4.5088 0.88709-5.3222-0.36964-0.2216-0.73926-1.1087-0.73926-1.9958 0-2.587-2.2175-6.357-4.2872-7.096-1.1088-0.4434-5.4699-0.9608-9.7572-1.1827-4.2871-0.2217-9.0917-0.7391-10.718-1.2563-3.8437-1.0351-9.6092-5.3964-14.044-10.644-3.4001-3.9916-3.4742-4.1394-2.1436-5.2482 1.1087-0.8871 1.1087-1.1089 0.22175-0.8132-0.7392 0.2217-1.9958-0.3695-2.9568-1.4046-1.2565-1.3306-2.2175-1.7001-3.622-1.4046-1.7 0.3697-2.0696 0-3.5478-2.9566l-1.6263-3.4738 1.848-2.2177c2.2914-2.6612 2.2914-3.6219 0.22168-7.7613-1.4782-2.8826-1.5521-3.4739-0.66516-5.6177 2.2175-5.3223 1.9957-6.2831-1.774-10.127l-3.548-3.6219 1.2565-3.9175c0.66523-2.2176 1.5522-6.4308 1.848-9.4615 0.36951-3.0307 1.5522-11.901 2.587-19.588 3.548-27.202 4.2872-35.037 3.4001-37.55-0.73913-2.1434-0.59125-2.5132 1.4784-4.2132 1.1826-1.0348 2.5872-3.0306 3.1046-4.4349 0.44342-1.4044 2.4393-3.9914 4.361-5.7656 5.9134-5.322 6.8005-8.057 7.3918-22.693 0.4435-11.014 0.73914-13.157 2.3653-17.444 3.9915-10.348 11.088-51.224 10.792-62.608-0.0739-2.7348 0.29567-8.1308 0.81306-11.974l0.88709-7.0958 5.6177 0.9609c3.1784 0.5912 7.022 0.8868 8.6482 0.8129l2.9567-0.2217 0.22174-27.349c0.29553-33.263-0.73932-56.399-2.735-64.53-0.81318-3.1045-1.9958-8.5006-2.6611-11.974-1.5522-7.7613-10.792-41.098-13.305-47.824-1.4784-3.8438-3.9916-18.479-4.0654-23.21 0-0.44346-5.5438-7.9092-14.709-19.662-1.6262-2.0696-2.735-3.9174-2.5871-4.1393 0.22168-0.2218 3.1044 0.73915 6.4307 2.1436 7.4656 3.1045 10.201 3.1783 12.27 0.59133 0.88703-1.1088 1.5523-2.5872 1.5523-3.2523 0-0.73916 0.81312-1.848 1.8479-2.5131 1.0348-0.66553 1.848-1.7002 1.848-2.2915 0-0.59144 0.66522-1.4046 1.4044-1.8479 0.81317-0.36976 1.7001-1.4044 1.9219-2.2177 0.44347-1.4043 0.88697-1.4782 3.8436-1.0348 4.1393 0.59145 4.5828 0 4.7306-6.3568 0.14782-7.6135 0.66528-8.9439 3.622-9.905 2.2915-0.7389 2.735-1.2563 3.9177-5.2479 2.6609-8.6483 4.1393-11.161 5.322-9.2398 0.22168 0.36976 1.1087 1.1088 1.9957 1.5524 1.1087 0.5913 1.4044 0.5913 1.0348 0-0.66522-0.9609 0.66528-1.0348 2.4394-0.1478 0.96088 0.51744 1.9957 0.2955 3.8436-0.81325 2.2914-1.4043 2.3653-1.6261 1.0348-2.0694-1.4783-0.51747-1.4783-0.51747 0.07392-1.0349 0.81311-0.2217 2.0696-1.6262 2.7349-3.0305 1.4044-2.9569 1.6261-4.3612 0.59125-3.6961-0.36957 0.22194-0.96093 0-1.2567-0.44334-0.3695-0.59119-0.66522-0.59119-1.0347 0.07384-0.29572 0.51746-0.96088 0.73914-1.4045 0.4436-0.59131-0.3696-0.5174-1.0348 0.2218-2.1435 0.96087-1.5524 0.51745-4.9524-0.7392-4.9524-0.22167 0-0.22167 0.51734 0 1.1826 0.2218 0.5913 0.14789 0.96104-0.14777 0.7391-0.36956-0.22166-1.0348-1.7001-1.6262-3.3263-0.8869-2.8087-2.2173-4.0652-2.2173-2.1433-6e-5 0.4434-0.59144 0.2954-1.4046-0.4437-1.0348-0.96095-1.2565-1.9216-0.961-4.509 0.2218-2.2176 0.07391-3.3263-0.5174-3.3263-0.44342 0-0.81299 0.51758-0.81299 1.1087 0 1.8479-1.2566 1.2566-3.622-1.7738-1.5522-1.9957-2.2914-3.6958-2.2914-5.4697 0-1.4785-0.66528-3.4003-1.5524-4.5092-1.8478-2.2914-2.661-2.0696-1.4044 0.44346 0.51733 1.1087 0 0.81313-1.7-1.1087-2.8829-3.1784-3.4742-3.4-3.0306-1.1088 0.22168 1.1088-0.07398 0.8871-0.81311-0.73914-0.5913-1.2566-1.4784-2.3654-1.9219-2.3654-0.3695 0-0.51734 0.2958-0.29566 0.73926 0.961 1.4782-0.66516 0.66528-3.4001-1.8478-2.9566-2.6613-5.4698-3.1785-9.5352-1.848z"/> <path d="m396.95 847.02c-0.81305 0.8871-1.4783 2.5134-1.4783 3.6962 0 4.4349 6.0611 6.8741 8.4266 3.4001 3.7696-5.3221-2.5872-11.753-6.9483-7.0963z"/> </g> <g fill="#2e1411"> <path d="m943.48 1405.1-3.7363 1.0413q0.20666 0.3887-29.08 1.9581-13.483 0.6061-32.02 1.1499-37.073 1.0877-94.36 1.9264-57.683 0.8378-124.47 1.2328-15.274 0.168-105.3 0.3435-36.808 0.0315-75.892-0.0477-37.301-0.1106-71.282-0.3161-19.065-0.0434-94.476-0.8293-58.005-0.6951-102.73-1.7692-99.862-2.5984-82.94-5.4007 7.4376-1.3953 36.823-2.5741 14.693-0.5895 34.872-1.1248 6.9856-0.3076 72.233-1.472 108.44-1.719 263.05-1.7926 77.305 0.0367 143.07 0.4848 32.881 0.2242 62.876 0.5511 16.801 0.0991 83.492 1.2119 25.666 0.4813 45.846 1.0166 45.647 1.3857 48.193 1.7278 23.898 1.233 25.849 2.6823"/> <path d="m626.52 747.51 25.092 0.0013q-6e-5 326.35 4e-5 652.71-12.546 8e-4 -25.092 0.0017-4e-5 -326.35-4e-5 -652.71"/> <path d="m594.06 813.4 185.02-28.309 55.87 35.572-48.615 39.201-180.67 27.947-11.609-74.41"/> </g> <g> <path d="m879.02 664.19-1.3e-4 2.4e-4v2.6e-4l1.3e-4 -5e-4"/> </g> <g fill="#2e1411"> <path d="m686.74 902.22-185.99 21.083-44.617 48.95 57.177 25.116 181.69-20.294-8.2628-74.855"/> <path d="m713.08 710.65-185.11-27.772-55.766 35.734 48.728 39.059 180.75 27.422 11.393-74.443"/> <path d="m607.6 1008.8 186.05 20.542 44.759 48.82-57.104 25.282-181.75-19.766 8.0456-74.878"/> </g> </svg>