<?xml version='1.0' encoding='utf-8'?>
<svg xmlns="http://www.w3.org/2000/svg" width="1058px" height="1409px" version="1.1" viewBox="9 337 1058 1409"> <g fill="#fff"> <path d="m8.999 336.22c-0.20533 0-0.40224 0.08155-0.54743 0.22675-0.14519 0.1452-0.22675 0.3421-0.22675 0.54743l0.001001 1409c0 0.4276 0.34661 0.7742 0.77418 0.7742l1058 9e-4c0.2053 0 0.4023-0.0815 0.5475-0.2266 0.1451-0.1452 0.2266-0.3422 0.2266-0.5475l-9e-4 -1409c0-0.42758-0.3466-0.77417-0.7742-0.77417l-1058-0.00101z"/> </g> <g> <path d="m815.62 485.84c-1.5846 0.35199-7.8357 10.212-13.911 21.833-1.0564 1.9369-2.9933 5.2822-4.4018 7.483-1.4087 2.201-3.3456 5.5462-4.4022 7.4831-0.96851 1.9367-2.8174 5.1062-3.9619 7.0425-1.2325 1.9369-2.9936 5.1945-3.962 7.2194-1.0566 2.1126-2.1129 3.7854-2.4652 3.7854-0.3522 0-1.4086 1.9367-2.3771 4.4018-0.9685 2.377-2.025 4.4018-2.3772 4.4018-1.4086 0-0.6163 2.9933 1.5845 5.8987 3.9614 5.2824 9.772 3.3457 13.734-4.5777 0.70446-1.4966 3.2577-5.9864 5.6348-10.036 5.8109-10.036 8.7163-14.878 10.653-18.576 0.9685-1.6727 3.7858-6.6026 6.251-10.916 2.5531-4.3137 4.5782-8.0994 4.5783-8.5396 0-0.35204 0.2642-0.7926 0.7044-0.96832 1.3205-0.61622 3.9618-7.043 3.9619-9.684 0-4.5782-4.4018-7.5717-9.2439-6.2512z"/> <path d="m656.72 493.75c-2.553 0.4402-4.666 3.5216-4.666 6.5149 0 1.8488 5.3697 15.495 10.123 25.883 0.7042 1.4084 2.6409 6.1624 4.4014 10.564 7.3945 18.048 8.3629 19.897 11.092 21.482 2.5531 1.4086 6.0746 0.8807 8.2756-1.4084 1.9368-1.8487 1.4088-7.3951-1.144-12.765-0.9685-2.0249-3.5213-7.9236-5.5459-13.03-2.0247-5.1063-3.9613-9.6842-4.3134-10.124-0.35217-0.5282-0.96853-1.8488-1.3205-3.081-0.3521-1.2328-1.8485-4.6664-3.169-7.7478-1.4085-2.9932-2.553-5.7224-2.553-6.0746 1.5e-4 -1.9366-4.3136-8.5397-6.3384-9.5962-1.3206-0.70464-2.465-1.1446-2.6411-1.1446-0.17616 0.08783-1.1444 0.35205-2.2011 0.52795z"/> <path d="m725.65 497.1c-1.937 1.7607-2.2891 2.9052-2.2893 6.8668 0 2.5532-0.3523 5.0182-0.7926 5.4586-0.528 0.52802-0.96866 7.7471-1.0569 16.111-0.1765 14.79-0.1765 15.23 1.8481 17.343 2.9931 3.1694 10.564 2.6415 10.565-0.88015 0-0.61625 0.4402-1.3204 0.8804-1.4968 0.6162-0.1759 1.1449-8.0113 1.4973-20.688l0.52894-20.337-2.553-2.2893c-3.2573-2.8172-5.6344-2.9053-8.6277-0.08838z"/> <path d="m871.7 548.17c-8.4519 5.81-12.59 8.8036-18.4 13.205-17.432 13.029-21.57 16.022-24.915 18.223-2.0248 1.3201-5.2824 3.9616-7.3071 5.898-3.3456 3.1692-3.6978 3.8736-3.1696 6.4268 0.6161 3.4332 3.3451 5.9865 6.4265 5.9867 2.4651 2e-4 7.3072-2.2888 7.3073-3.5211 0-0.52844 0.44016-0.88074 0.96836-0.88064 0.52808 0 3.6096-2.1128 6.9552-4.6657 9.5082-7.1307 17.432-13.029 22.89-16.902 15.143-10.652 21.041-15.582 21.57-18.047 0.61636-2.9052-0.52807-5.4583-3.2572-7.3952-2.817-2.0251-4.1376-1.761-9.0678 1.6723z"/> <path d="m599.23 551.86c-2.9053 1.0562-4.402 3.257-4.4021 6.4264-1.3e-4 3.0814 0.7041 3.9616 11.356 13.734 19.632 18.225 20.6 19.017 23.681 19.457 3.9617 0.70436 7.2191-2.2887 7.2194-6.6907 0-2.9933-0.96817-4.1378-15.142-17.344-9.0675-8.4521-16.462-14.527-18.223-15.143-1.6726-0.6164-2.9931-1.0566-3.0812-0.96851-0.08801 0-0.70436 0.26396-1.4086 0.52826z"/> <path d="m719.4 563.57c-18.312 2.2884-40.85 11.355-52.383 20.951-20.425 17.079-34.072 38.559-38.386 60.48-2.3775 11.709-2.2022 29.14 0.4387 40.497 1.0563 4.8421 2.2887 8.98 2.6407 9.2442 0.35216 0.264 1.1444 2.201 1.7608 4.3138 1.3204 4.5783 4.9297 11.181 10.74 19.897 4.7538 7.2193 5.194 7.6594 22.449 23.771 7.2189 6.6911 15.934 15.055 19.28 18.488 11.18 11.269 21.744 29.141 25.53 43.139 0.7921 2.9052 1.7605 5.8987 2.2007 6.6909 0.35203 0.79234 0.96838 3.2574 1.3203 5.4587 0.70396 4.4898 0.3519 4.4018 9.6841 2.201 1.9369-0.43975 8.1877-1.7604 13.91-2.9046 12.325-2.5529 28.084-5.8975 41.994-8.8021 5.5464-1.1443 13.382-2.7287 17.431-3.5209 8.0998-1.6722 8.0115-1.4961 5.8988-9.2436-1.6723-6.1629-2.6401-28.7-1.4955-35.655 1.6731-10.388 3.6985-18.576 5.3712-22.009 2.6412-5.2823 6.2511-13.47 6.2511-13.998 0-0.26425 1.0566-2.7293 2.2892-5.5461 1.2329-2.8173 2.9935-6.691 3.8742-8.6278 0.8802-1.9367 2.7294-6.1624 4.226-9.4198 1.4968-3.1695 3.1696-8.1873 3.698-11.005 0.61635-2.8171 1.4968-6.0744 2.1129-7.2188 1.3208-2.9054 1.322-39.793 0.00158-41.554-0.61635-0.7044-1.6726-3.6095-2.4648-6.515-0.88024-2.9052-2.2886-6.9553-3.2571-8.98-0.8802-2.1128-1.6726-4.0497-1.6726-4.4018 2.7e-4 -0.4404-4.6655-8.0997-6.3382-10.389-9.3313-12.414-19.543-22.891-25.53-26.06-1.1443-0.61627-2.2006-1.3205-2.465-1.5848-0.7042-0.88026-8.7155-5.5466-13.645-7.836-17.871-8.4522-37.856-11.974-55.464-9.8622zm34.334 14.087c9.5959 3.0818 21.921 8.8926 28.964 13.559 14.526 9.7731 28.171 26.148 32.22 38.826 0.61606 1.9368 1.4083 3.874 1.7605 4.4024 0.4403 0.4399 1.4086 4.2255 2.1128 8.3632 1.8483 9.5961 1.9357 26.764 0.0866 35.479-1.4088 6.691-2.5534 9.7722-11.006 29.228-9.8612 22.537-14.087 34.686-15.937 45.339-1.4088 7.9236-2.0256 34.335-0.7933 35.567 1.4086 1.4085 1.0564 3.8738-0.6165 4.754-0.88047 0.44017-3.4334 1.0566-5.6341 1.4086l-4.138 0.61604-1.0561-5.9865c-0.5282-3.2573-1.3203-6.7791-1.7605-7.7475-0.4403-0.96838-1.4087-5.7226-2.2007-10.565-0.79236-4.842-1.6726-9.4199-1.9366-10.124-0.52805-1.321-2.9926-12.854-6.3376-30.198l-1.7604-8.7156 2.9052-2.5528c1.5849-1.3208 3.8739-4.3141 5.0186-6.5147 1.7606-3.2573 2.5532-3.9617 4.5779-3.9617 1.4088 1.6e-4 3.3458-0.88024 4.5781-2.2008 2.8172-2.7289 3.0816-8.8036 0.44066-12.149-2.4651-3.1694-8.7156-5.3706-13.646-4.7546-5.1062 0.52794-7.4832 2.6408-7.4834 6.5146-1.3e-4 2.641 0.26407 2.9052 2.465 2.9054 2.817 3e-5 6.2506 2.113 5.194 3.1694-0.35217 0.4404-2.9933 0.7922-5.7224 0.7922-4.578-2e-4 -5.1061 0.1759-6.779 2.8169-0.9685 1.5847-2.289 2.8172-2.9935 2.9052-1.6726 0-0.43995-4.3139 2.0251-7.0432 1.2327-1.3201 2.2892-3.7854 2.5534-6.1622 0.35216-2.9053 1.2326-4.5779 3.2577-6.4269 1.4084-1.3203 3.2575-2.3767 3.9616-2.3767 1.5847 0 1.5847-0.6161 0.2644-5.5464-0.79225-3.1693-0.79225-4.3137 0.3523-6.6029 0.88049-1.5846 1.3206-4.4018 1.1448-6.8669-0.264-3.5217-0.7042-4.4019-2.5528-5.3703-2.465-1.3207-5.7226-0.7926-6.8671 0.96816-0.35205 0.5281-0.7042 2.5531-0.70435 4.5779-1.2e-4 1.9371-0.61655 4.8418-1.409 6.4267-1.1446 2.289-1.6727 2.6412-2.6412 1.7607-0.88027-0.70435-1.0564-1.3206-0.35207-2.0248 0.44017-0.44031 0.88062-2.7293 0.88074-5.0182 1.3e-4 -3.6096-0.35207-4.4901-3.0811-6.8673-2.3771-2.0249-2.9933-3.0813-2.3771-4.1377 0.61636-1.1444 1.1447-1.0564 3.4334 0.8807 2.5533 2.1128 2.7294 2.1129 6.4269 0.8805 3.2574-1.1445 4.5779-1.1444 7.8353-0.2638 3.6976 1.0566 3.9615 0.96857 5.1942-0.79224 0.70436-1.0564 1.7606-1.9368 2.2891-1.9367 2.729-0.08796 3.3454-1.4968 1.937-4.2258-1.3204-2.5531-1.6728-2.7291-3.8736-1.849-4.226 1.5844-9.332 0.1757-13.205-3.6099-3.3454-3.3455-3.6096-3.4336-8.8918-3.1698-2.9933 0.08819-5.8985 0.70428-6.4267 1.2324-0.6163 0.6163-2.2892 1.0561-3.8738 1.0561-2.4649 0-2.8171 0.3522-3.2575 2.9053-1.0565 6.6026 1.7604 13.47 7.4826 18.048l2.4647 2.1128-1.7606 2.377c-2.025 2.9935-3.0818 8.5397-2.2894 12.678 0.35206 1.6725 2.1128 4.7538 3.9614 6.8669 2.817 3.2574 3.2571 4.314 2.9049 6.7791-0.17605 1.5846-0.70425 3.0812-1.1446 3.3453-1.9368 1.2323 0.88014 12.677 4.0492 16.199 0.70436 0.7926 1.9367 5.0182 2.7289 9.3323 0.7042 4.3138 1.6722 8.6279 2.1125 9.5961 0.44006 0.9685 1.2322 4.4901 1.7603 7.9236 0.9684 5.8985 2.3767 12.765 6.1617 29.493 2.3768 10.565 4.489 23.154 3.8729 23.682-0.4402 0.5282-2.2009 0.8803-15.583 3.697-6.2509 1.3201-6.1629 1.4084-7.6591-8.3639-0.61609-3.9618-1.3203-7.5713-1.6725-8.0115-0.26406-0.52815-1.4083-5.2822-2.4647-10.565-1.0561-5.3703-2.9048-14.614-4.2252-20.689-5.7213-27.908-5.7213-27.292-4.3124-32.574 1.7609-6.6028 0.44056-12.589-3.6091-17.432-2.905-3.3454-2.993-3.6095-1.7605-6.0746 1.4967-2.8173 1.7611-10.477 0.4407-13.822-0.4402-1.2325-2.465-3.7858-4.4899-5.8105l-3.6974-3.5218 1.937-4.4897c1.937-4.666 2.3773-10.212 1.145-12.941-2.7291-5.4586-3.7854-6.7791-5.194-6.5152-0.8805 0.17635-3.6098 0.6161-6.0747 0.96834-2.4651 0.35211-5.5464 1.2323-6.779 2.1129-1.3206 0.79217-2.9054 1.4963-3.6976 1.4963-0.7042 0-1.3205 0.70433-1.3205 1.5849-1.2e-4 4.5778-7.4838 11.62-12.326 11.62-1.4086 0-1.7606 0.61634-1.7609 2.9934-1.3e-4 2.9052 0.0879 2.9052 4.5778 3.4338 3.9616 0.52835 4.9302 0.26425 7.3952-1.5848 1.9369-1.4963 4.0498-2.2007 6.4268-2.2007 2.9934 2e-4 3.6976-0.35184 5.3704-3.0809 1.0566-1.6724 2.2012-3.0811 2.6412-3.0811 1.3206 0 1.5847 2.4651 0.4402 4.1377-2.1132 2.6411-1.6734 8.5395 0.87986 11.533 2.4647 2.9055 2.817 4.5781 0.96814 4.5779-1.7606 0-5.8103-5.0184-6.4264-8.0115-0.5281-2.5531-2.8171-3.6976-6.1626-2.9054-2.5532 0.70406-4.7541 4.0496-3.6978 5.7223 0.44031 0.70413 0.79235 1.937 0.79235 2.7292 0 0.88024 1.5845 3.1692 3.5214 5.1062 2.993 2.9935 3.5211 4.0499 3.5211 7.3954l-2.5e-4 3.7856 4.402 0.44049c4.8421 0.5282 8.2754 2.9055 9.1557 6.4267 0.26403 1.1445 1.4087 2.3775 2.5532 2.6415 2.1127 0.7043 5.8982 3.8739 5.8982 5.0184 0 1.2324-3.2572 0.79217-4.4018-0.61647-1.6728-2.0247-6.5149-1.5851-9.5084 0.88001-2.2008 1.8488-2.8171 2.0247-3.6095 0.96816-0.7921-0.96816-0.44003-1.6726 1.5849-3.4334 1.4966-1.2323 3.1694-2.3767 3.7858-2.6408 1.9367-0.70436-1.1443-5.1944-4.1376-6.0748-6.1625-1.585-15.319 4.4012-16.639 10.828-1.2329 6.2506 4.1372 11.885 10.476 11.093 3.1694-0.4404 4.0498-0.17597 6.8668 2.113 1.8488 1.4965 4.4019 2.9934 5.6344 3.3455 2.641 0.70445 2.641 0.61665 6.8661 21.217 1.1443 5.5465 2.9047 13.91 3.8732 18.488 2.9928 13.646 6.3377 30.197 6.8658 33.102l0.44004 2.6412-5.8103 0.88033c-5.2826 0.792-5.8108 0.792-5.8107-0.7047 1.4e-4 -5.1942-10.123-28.348-15.669-35.744-11.356-15.231-16.11-20.161-38.823-40.235-9.5957-8.364-12.589-11.709-18.311-20.249-9.9477-14.879-14.701-35.216-12.675-54.232 0.52844-4.8421 1.3208-9.4198 1.7611-10.3 0.4401-0.79243 1.4968-3.8738 2.2892-6.7791 5.7231-19.808 25.532-42.873 45.517-53.173 15.319-7.8348 28.084-10.74 45.164-10.211 9.86 0.2645 12.678 0.7049 20.249 3.0823z"/> <path d="m729.78 595.26c-4.0498 2.4649-5.7228 5.458-5.723 10.388 0.08801 5.5464 1.0563 7.9236 4.8419 11.621 2.9932 2.9055 3.0812 3.1697 1.8486 5.1064-2.0252 3.0811-1.7614 11.005 0.43956 14.614 3.5213 5.7224 9.2438 7.4835 13.382 4.138 1.5848-1.3206 2.5532-1.4962 4.9302-0.79195 2.1128 0.52803 3.6095 0.44026 5.3704-0.352 2.0249-1.0564 2.3769-1.6729 2.3771-5.1063 0-2.3768 0.61643-4.8418 1.5848-6.1624 0.8805-1.2324 1.4968-3.7856 1.497-5.8985 1.5e-4 -4.1377-1.8486-6.0746-6.4265-6.603-2.2009-0.2644-2.6411 0.1759-3.6976 3.2571-1.585 4.402-4.5782 7.043-6.2508 5.6343-1.0564-0.8804-0.88035-1.4086 0.96839-3.0813 3.9619-3.6092 2.6416-11.709-2.1122-13.382-2.9052-1.0566-3.5216-2.5534-1.4087-3.3454 1.9368-0.79235 7.3951 2.9934 8.0112 5.4586 0.4402 1.7608 1.1443 2.1129 3.6095 2.1131 8.8918 2e-4 13.469 8.5402 9.0672 17.168-0.9685 1.9368-1.7608 4.6663-1.7608 6.1629 0 1.4964-0.4403 3.1692-0.96864 3.6975-2.5531 2.5528 3.169 8.1874 8.4512 8.1876 1.4967 3e-4 4.138-0.79213 5.9867-1.7605l3.2575-1.7608-1.5e-4 2.3772c0 1.2326 0.96851 3.6094 2.2888 5.2824 2.641 3.4334 6.2506 3.8738 10.652 1.2326 2.9933-1.8486 6.4271-8.3632 6.4271-12.325 2.4e-4 -3.5214-3.9612-14.086-6.2501-16.463-2.0246-2.1131-8.3631-5.6349-10.3-5.6349-0.6162 0-1.0563-0.79234-1.0563-1.6727 0-2.6409-3.0812-9.1561-5.282-11.093-1.4966-1.3208-3.1694-1.761-7.219-1.761l-5.2822-2.4e-4 -1.4964-3.8736c-0.88025-2.465-2.3768-4.4902-4.0496-5.4585-3.3455-1.9368-4.842-2.0251-8.0115-0.35248-3.2573 1.6726-5.7224 1.6726-7.9233-4.5e-4 -2.377-1.7607-6.4267-1.5846-9.7722 0.44z"/> <path d="m696.33 603.54c-2.5531 2.2008-4.402 2.993-7.6594 3.3451-6.4266 0.792-8.7157 3.4332-8.6279 10.3l0.08776 5.3703-2.9933-3e-4c-2.1129 0-3.9617 0.7925-5.8986 2.553-2.6412 2.3771-2.9053 2.9933-2.9055 7.7474-1e-4 2.8171 0.2638 5.8984 0.61596 6.8668 0.5282 1.4086 0.17604 2.1132-1.7608 3.2576-1.4087 0.792-3.6097 3.6972-4.9304 6.4263-2.201 4.2258-2.4652 5.6343-2.1133 10.388 0.5281 6.5146 3.8732 13.646 7.4826 16.111 3.1692 2.1128 8.8916 2.1131 12.061 0.0882 2.2892-1.5845 2.4652-2.0247 2.1133-6.4264l-0.43996-4.7542 3.8737 3e-4c4.842 1.5e-4 8.6277-1.9365 10.389-5.2818 1.849-3.5217 1.673-4.138-1.3202-7.6592-1.4086-1.585-2.6411-3.5219-2.641-4.226 0-0.7043-1.1445-1.8488-2.6411-2.6413-1.5846-0.79253-3.2572-2.8173-4.3134-5.3705l-1.7608-3.9618 1.849-3.9616c1.2326-2.6412 2.9055-4.578 5.1945-5.8983 2.4651-1.4085 3.4335-2.5527 3.4335-4.0495 1.4e-4 -2.6412 3.2577-8.0115 4.9304-8.0115 1.6727 1.4e-4 1.5846 0.52838-0.6165 5.106-1.673 3.3456-1.7608 4.3139-0.88047 7.2191 0.79227 2.7293 1.6725 3.6977 4.0495 4.4902 2.0249 0.79248 3.0814 1.7606 3.0813 2.7294 0 1.3204-0.44034 1.4965-2.3771 1.0564-1.3206-0.35226-2.9934-1.1446-3.6095-1.849-0.6162-0.6163-1.4966-1.1444-1.9369-1.1444-0.4402 0-1.0564-0.79242-1.3204-1.7608-0.26406-0.9685-1.0564-1.7607-1.7606-1.7609-1.8488 0-6.6032 5.1939-6.6032 7.2189-1e-4 2.289 3.8734 7.4832 6.0744 8.1875 0.88035 0.26427 1.9368 1.5849 2.2888 2.9055 1.3204 5.2822 6.4265 7.3071 9.5961 3.7861 1.2326-1.3208 2.6411-1.7608 6.0745-1.6727 3.8738 0.0881 4.6661-0.1758 6.8671-2.6408 2.201-2.377 2.5533-3.6098 2.5533-7.7473 2.5e-4 -5.4584-0.7921-7.4833-4.4895-11.445-2.4648-2.5534-2.5528-2.8174-1.2323-5.2826 1.6731-3.2572 1.6733-11.181 5e-4 -14.438-2.2007-4.1379-5.458-6.163-10.212-6.1632-3.6096 0-4.8423 0.4405-7.5714 2.9933z"/> <path d="m790.7 656.45c-1.4086 0.704-4.5779 1.2324-6.9548 1.3204-2.9933 0-5.5465 0.70416-8.1876 2.2006-4.226 2.5531-5.4585 5.4582-3.9621 9.5079 0.88036 2.2889 0.7041 2.9052-1.1446 5.1941-2.6414 3.0812-2.7293 4.666-0.5286 8.2758 1.2324 2.0247 2.553 2.9052 5.106 3.4335 4.0497 0.70453 8.3638 3.2578 10.829 6.3392 1.6726 2.2007 1.8488 2.2007 3.9615 0.7924 4.314-2.8171 5.0185-9.8599 1.4972-14.614l-1.6727-2.201 4.2258-3.9615c4.1381-3.8736 4.3142-4.2256 4.3143-8.8916 1.3e-4 -4.8421-1.7605-8.8039-3.7853-8.6279-0.6162 0-2.2011 0.6162-3.6978 1.2324z"/> <path d="m679.86 679.51c-1.4087 0.7044-4.578 1.4084-7.0431 1.4966l-4.4899 0.0879-0.26407 3.6976c-0.17624 2.1129 0.35196 4.8422 1.1442 6.3388 1.5845 3.1692 7.3948 7.1311 10.388 7.1313 2.0248 0 2.1126 0.26422 1.6726 4.2259-0.44057 5.1063 1.4962 9.5082 4.7535 10.741 4.0496 1.585 5.1061 1.0566 7.2191-3.7855 1.3207-2.993 3.1697-5.3699 5.4588-7.0426 5.6344-3.9614 5.5466-10.564-0.1757-13.294-2.553-1.2324-2.9931-1.8488-2.993-4.5779 0-4.49-2.7292-6.515-8.6276-6.5152-2.4651 0.0881-5.6344 0.7041-7.0431 1.4963z"/> <path d="m526.59 600.45c-2.7292 1.1445-4.2259 3.4332-4.2261 6.2506-1.3e-4 3.4333 2.3767 5.9867 6.7785 7.0432 2.0249 0.5282 4.4019 1.3208 5.3702 1.7608 0.96838 0.4401 4.754 1.5848 8.3636 2.5533 11.445 2.9938 19.72 5.4591 21.569 6.2515 0.96839 0.4405 4.7539 1.4087 8.3635 2.2894 3.6095 0.7926 7.043 1.7611 7.483 2.1132 0.5282 0.352 4.0497 1.4088 7.9232 2.2895 3.8737 0.88037 7.2191 1.8487 7.4832 2.2011 0.5283 0.7041 9.0679 2.5533 11.885 2.5533 5.2821 2e-4 7.7476-7.4829 3.6979-11.268-2.0247-1.937-4.4016-2.7293-18.223-6.4274-3.6095-0.9688-7.3951-2.1134-8.3635-2.5535-0.9685-0.5282-4.49-1.497-7.9234-2.2892-3.3454-0.7046-6.5148-1.6731-7.043-2.0253-0.4402-0.44016-2.2888-0.96836-3.9617-1.3205-1.6727-0.2644-6.4266-1.5854-10.564-2.8177-23.329-7.1318-25.883-7.6602-28.612-6.6038z"/> <path d="m886.23 636.38c-1.2325 0.17595-2.9934 0.7041-3.9616 1.1443-0.96851 0.35227-5.7226 1.4965-10.565 2.4647-21.745 4.4012-24.475 5.1054-26.235 7.3062-1.2325 1.4968-1.497 2.9052-1.1448 5.1943 0.88015 5.7224 4.7537 6.515 18.576 3.5219 4.4018-0.88005 11.885-2.4646 16.727-3.4328 11.005-2.2885 17.696-4.3131 18.84-5.7217 2.0249-2.3769 2.0249-6.1623 0.08838-8.7154-1.5848-2.0252-2.4649-2.3774-5.9866-2.2891-2.2891 0.0877-5.1062 0.35176-6.3388 0.52771z"/> <path d="m560.93 671.59c-6.3389 0.35184-8.0996 0.968-10.125 3.0807-2.3772 2.6411-2.2893 6.4267 0.4397 9.068l2.113 2.2012 27.732 9.7e-4 27.644 0.00113 2.729-2.2891c3.6979-3.0813 3.698-6.6907-0.0874-10.124l-2.7293-2.6412-21.657 0.26335c-11.885 0.08755-23.594 0.35125-26.059 0.43935z"/> <path d="m840.97 706.63c-4.3139 3.9614-2.4652 9.8602 3.6093 11.709 1.9368 0.5284 20.425 1.4975 44.283 2.2907 36.271 1.1459 41.202 1.1461 42.962 0.0017 2.6412-1.7607 3.8739-5.0179 2.8175-7.7472-1.6725-4.4902-3.2572-4.7542-26.851-5.3713-12.061-0.26475-23.594-0.88145-25.531-1.3215-1.9366-0.4403-11.533-0.96876-21.217-1.2334l-17.696-0.52881-2.3772 2.2008z"/> <path d="m615.6 712.44c-1.9368 1.0562-6.779 4.4016-10.829 7.4827-3.9618 3.0811-7.4834 5.6342-7.6594 5.6341-0.5282 0-11.797 8.1871-13.91 10.036-0.88036 0.79217-1.8489 1.4085-2.113 1.4082-0.26394 0-3.1695 2.025-6.3388 4.4016-11.269 8.4512-20.425 14.966-21.13 14.966-0.35206 0-1.3207 0.7045-2.1129 1.4967-0.7925 0.88053-3.6096 3.1692-6.427 5.1061-5.8986 4.1377-6.9551 5.8101-6.163 9.7719 0.6162 3.3453 2.553 4.7539 6.6028 4.7542 2.6411 0 6.5149-2.2888 18.224-10.916 2.0248-1.4964 7.3071-5.2818 11.709-8.451 17.168-12.325 23.595-16.99 30.814-22.272 4.0499-2.9934 7.8357-5.6341 8.3638-5.8981 2.4652-1.2327 10.301-7.3948 11.005-8.8035 1.4087-2.5532 1.0568-6.6028-0.6161-8.1874-2.729-2.3773-5.7224-2.5533-9.42-0.52856z"/> <path d="m823.89 741.41c-2.4651 2.289-2.6413 7.9235-0.3524 9.9484 0.79237 0.70411 10.212 5.1945 20.865 9.8609 10.652 4.6665 20.6 8.9807 22.009 9.597 20.689 9.2445 25.179 11.094 27.203 11.094 2.9933 1.6e-4 6.691-3.6096 6.691-6.5147 2.4e-4 -3.6976-3.5214-6.3386-15.406-11.534-6.2505-2.7292-12.589-5.5468-14.086-6.163-1.4086-0.7044-10.388-4.5783-19.808-8.8045-9.4197-4.1382-17.871-7.924-18.663-8.3641-2.5532-1.4087-6.4268-0.96863-8.452 0.8798z"/> <path d="m630.3 772.3c-9.0683 9.2436-16.904 17.343-17.344 18.135-1.0566 1.8487 0.08776 6.4267 1.9365 7.8354 0.79224 0.6162 3.0813 1.2323 4.9299 1.2326 3.8736 0 2.9933 0.70455 25.884-23.153 11.885-12.501 12.766-14.526 8.5401-18.664-4.4896-4.5781-5.7221-3.7858-23.947 14.614z"/> <path d="m684.97 787.8c-0.79248 0.88025-2.0248 2.9054-2.7292 4.6658-1.585 3.6975-5.0185 11.356-7.3077 16.287-1.937 4.1377-5.2828 11.621-7.748 17.167-0.96851 2.2006-2.8174 6.1623-3.962 8.8035-7.6598 16.727-7.9241 17.959-4.7546 20.953 2.553 2.3768 7.659 2.6412 9.5961 0.35246 1.2325-1.3208 8.6282-16.199 8.6282-17.343 1.2e-4 -0.43996 3.6979-8.8036 7.0436-15.846 2.025-4.3136 6.0752-13.205 9.1568-20.248 1.3207-2.905 2.7294-5.9865 3.1696-6.7789 1.3208-2.2888 1.0565-3.3452-1.0561-6.6025-1.6728-2.3771-2.5531-2.9055-5.2823-2.9055-1.8488-2e-4 -3.8737 0.6159-4.7542 1.4964z"/> <path d="m583.63 794.84c-2.2892 1.9368-6.4273 12.149-6.4275 15.846 0 2.289-0.61634 3.0812-3.6978 4.9298-5.6345 3.2574-8.3639 6.5144-7.2195 8.3634 1.3205 2.025 4.9302 2.3772 8.1875 0.70443 3.8739-2.0246 5.1944-1.7604 6.6028 1.5849 0.79236 1.849 3.6095 4.8424 7.0427 7.5717 3.1693 2.5532 5.8104 5.0184 5.8104 5.6346 0 0.52837-1.2327 4.7543-2.6416 9.3319-4.0501 12.589-14.351 29.932-24.476 41.377-4.4901 5.106-10.389 12.501-13.03 16.463-5.5468 8.2752-8.1879 9.7717-18.84 10.828-4.93 0.43996-8.6276 1.5844-14.79 4.3134-8.0116 3.6974-8.1877 3.6974-12.942 2.6407-4.4899-0.96846-4.9301-0.96856-10.477 1.7604l-5.8106 2.7291-5.2822-2.2012c-6.3386-2.6413-6.5146-2.6413-13.294-0.35273-4.8421 1.6727-5.8105 1.7606-10.917 0.70405-4.93-0.96875-6.0745-0.88062-9.3319 0.35199-3.5216 1.4084-3.8738 1.4084-6.5148-0.26444-4.4018-2.7295-8.2754-2.2893-14.174 1.584-2.9052 1.9369-7.0431 3.9614-9.2441 4.4896-4.0498 1.1444-4.3139 1.0564-10.917-2.2894-3.6975-1.8489-6.7787-3.7857-6.7787-4.2261 0-0.44014 2.8173-1.7605 6.1627-2.9051 10.036-3.3449 13.206-8.0108 9.0684-13.293-1.1444-1.5848-1.5845-3.0813-1.2323-5.1062 0.26419-1.4967 0.17625-3.5217-0.17588-4.4021-0.35214-0.88034-0.79227-3.8736-0.88022-6.6908-0.17587-4.8421-0.08783-5.1942 2.2892-6.4267 4.49-2.2888 3.5218-5.018-4.6655-12.677l-7.3069-6.8673 1.1447-2.9931c1.4968-4.1378 1.4088-4.6662-1.2322-8.6277-1.3205-1.9368-2.1128-4.0499-1.8486-4.754 0.26407-0.61625 2.6412-2.4652 5.2824-3.9616 8.5398-4.9297 15.583-13.909 15.583-20.072 1.5e-4 -3.8737-0.70417-3.7858-16.639 1.4958-7.2191 2.3768-13.734 4.4014-14.438 4.4014-0.7043 0-2.8171-1.9369-4.8419-4.3141-2.0248-2.377-6.1625-6.1626-9.1557-8.452l-5.5462-4.138-9.244 0.43984c-6.9549 0.3519-10.917 0.96806-15.847 2.8166-3.6096 1.2326-8.7158 2.4649-11.181 2.6408-5.4585 0.35193-9.5963 2.9048-11.269 6.9546-0.6163 1.4967-2.377 3.8738-3.9618 5.37-6.339 6.0746-9.9488 14.79-12.679 30.813-1.0566 5.8104-1.1447 8.8037-0.52853 11.093 0.96829 3.4335 6.8665 13.118 10.124 16.64 1.1445 1.2324 2.7291 4.1376 3.5213 6.5146 1.0564 3.1696 3.6974 6.8671 9.3315 13.118 4.3138 4.7543 7.835 9.2444 7.835 9.8605 0 0.7043-2.2011 3.4336-4.8423 6.0745-3.2574 3.2571-5.9868 7.1307-8.0999 11.621-2.2891 4.93-4.05 7.219-6.339 8.7154-1.7607 1.0567-8.3638 5.3701-14.615 9.4195-6.3389 4.1376-13.822 8.4512-16.551 9.7716-7.3952 3.3451-14.791 10.828-17.872 17.959-1.4088 3.2575-4.8424 10.476-7.6598 16.023-6.8674 13.645-7.5718 15.758-8.6286 26.235-0.44033 4.9302-1.5851 11.533-2.5536 14.526-0.96853 3.0814-1.761 7.3072-1.7611 9.508-7e-5 2.3772-0.70444 5.1063-1.761 6.8669-2.113 3.4336-2.2011 4.9303-0.35242 8.0995 1.4085 2.2011 1.4085 2.7293-2.1e-4 6.6031-0.79242 2.3769-1.4088 5.1943-1.4088 6.3385-6e-5 1.1446-1.0565 3.0812-2.2891 4.2257-1.937 1.8488-2.201 2.6411-1.7609 5.1943 0.5281 2.6407 0.26394 3.2571-1.761 4.5778-2.0249 1.4083-2.201 1.9366-1.761 5.1062 0.44019 2.5529 0.17597 4.1375-0.70443 5.3701-1.7609 2.289-1.7611 7.395-0.08838 9.332 1.3205 1.3207 1.2325 1.7606-0.79257 4.666-1.8489 2.7293-2.025 3.6094-1.2327 5.4583 0.5282 1.1444 1.2324 2.113 1.5846 2.113 0.3521 0 0.88015 5.8103 1.144 12.942 0.52775 14.438 1.584 18.84 9.3305 42.082 2.7288 7.8354 4.8415 16.111 5.3696 20.425 0.52808 4.0497 1.3202 8.3632 1.7604 9.5962 1.2324 3.0813 1.0561 6.8668-0.35264 13.558-0.70438 3.1693-1.6731 9.6839-2.1135 14.526l-0.88062 8.8038 5.0178 7.4832c6.2503 9.4204 9.1555 11.445 16.375 11.446 7.1311 2e-4 12.942-2.0247 16.199-5.8099 1.4967-1.673 2.9054-2.9932 3.1694-2.9932 1.0565 0 0.35181 10.917-0.96886 13.91-4.8425 11.445-5.8994 21.129-3.4346 31.429 0.7922 3.3453 1.3202 10.036 1.3199 18.488-2.5e-4 7.2193 0.52772 15.759 1.0558 18.928 1.4084 7.3071 1.4081 15.406-0.0888 23.77-1.1448 6.7789-1.0567 8.0117 1.7599 20.337 1.1443 4.9301 1.0563 5.018-2.1132 11.18-2.5533 4.8423-3.2577 7.1311-3.2578 10.829-5e-5 3.1692-0.70447 6.3388-2.2012 9.4201-5.1065 11.005-7.0439 26.147-6.3404 49.477 0.35178 11.797 0.96775 18.136 2.2001 22.89 3.7851 14.791 4.1371 18.048 2.9922 27.732-1.1449 10.124-4.1384 19.72-8.0124 25.883-3.7858 5.8982-5.2826 9.8601-4.7544 12.853 0.70415 3.7858 6.7783 16.727 11.004 23.154l3.6092 5.5464-1.8489 3.3456c-2.6413 4.5779-2.4653 5.8983 1.1441 9.8601 1.6727 1.9369 3.0812 3.8739 3.0812 4.402 0 0.5284-0.96852 3.3456-2.1131 6.3389-1.1446 2.9931-2.7294 7.307-3.4338 9.596-0.79248 2.2888-2.6414 5.9865-4.1381 8.1874-3.1695 4.5778-4.1381 9.3317-2.7296 12.941l0.96827 2.4651 33.102 0.0011 33.19 0.0016-0.61608-6.4266c-0.35203-3.4338-0.61587-8.0117-0.52781-10.037 6e-5 -2.0247-0.35199-3.8736-0.88016-4.2257-0.4403-0.2641-0.88033-3.6978-0.88018-7.6594 1.8e-4 -6.8672 0.08826-7.219 3.1697-10.565 2.8173-3.169 3.0815-3.8734 2.5532-6.7785-0.96818-5.6346-0.79205-7.3952 1.6733-15.495 3.5218-11.621 3.7862-15.494 1.4973-18.752-1.0564-1.4967-3.2573-3.5215-4.9299-4.5783-5.3701-3.3458-5.4582-4.6662-0.96805-9.8601 2.201-2.4651 4.3141-6.0746 4.8423-8.0995 0.52829-1.9366 1.7613-11.533 2.7299-21.217 0.96887-9.6842 2.3779-23.594 3.1705-30.813 1.4971-13.734 1.2337-32.486-0.5267-43.138-0.44007-2.905-0.96803-8.8917-1.056-13.206l-0.26383-7.9236 5.3706-8.8039c8.4521-14.086 10.037-20.072 13.031-50.357 0.7926-7.3953 1.9374-15.671 2.6418-18.488 1.8491-7.2188 3.8743-17.431 5.8115-29.052 1.6731-9.6843 2.8178-13.558 3.698-12.061 0.52827 0.9687 4.4895 13.118 6.338 19.721 0.7043 2.6409 3.3451 11.533 5.7218 19.809 2.3768 8.1875 5.0176 17.52 5.8977 20.689 0.88036 3.1693 2.817 9.0678 4.4014 13.206 1.5846 4.1379 3.8732 12.061 5.1056 17.608 2.3766 10.741 8.1867 23.595 14.261 31.518 3.1693 4.2261 3.1693 4.314-0.79272 11.445-3.4336 6.1626-4.1383 14.086-1.9377 22.185 3.6972 13.91 5.8097 24.475 6.6017 31.958 0.79205 8.2755 1.1442 9.5962 7.0422 22.626 2.3768 5.3705 3.5211 9.2444 3.9612 13.91 0.26405 3.5216 1.1442 8.4518 1.9364 10.917 1.4085 5.018 1.1441 9.2437-1.057 16.551-1.6729 5.7224-1.321 11.885 1.3199 19.985 2.3767 7.7477 3.8732 10.3 6.6022 11.533 1.7608 0.7926 2.2009 1.4971 1.6727 2.6415-1.6729 3.8734-1.4088 7.1308 0.70404 9.2438 1.1444 1.1447 2.641 2.2893 3.3453 2.5532 0.96835 0.2644 0.96833 1.4086 0.08783 6.0749-1.4088 7.5712-2.7299 21.129-2.7302 27.908l-1.5e-4 5.4583 62.331-0.1738 62.243-0.2616-0.088-3.0813c-0.1758-4.2258-3.3451-11.005-5.8981-12.766-2.2889-1.4088-7.2189-2.4653-18.488-3.7865-10.652-1.3213-16.815-4.8429-31.341-17.785-3.6095-3.2577-3.7855-3.6977-3.2572-6.8672 0.3523-2.2888 0.08815-3.9616-0.7921-5.106-1.7607-2.3774-1.6726-2.9052 0.8805-3.8736 1.9368-0.7045 2.2009-1.3207 2.2012-5.106 1.4e-4 -2.3771 0.61658-8.0996 1.321-12.854 0.70436-4.6659 1.4971-12.413 1.8495-17.167 0.7046-9.7719 1.673-7.747-8.099-16.375-4.4898-3.9618-4.5778-4.1379-6.7784-13.47-3.2569-13.822-3.433-15.847-3.6961-43.755-0.08752-15.23-0.61529-26.94-1.1434-29.052-0.61614-1.937-2.4648-5.8983-4.1374-8.8037-2.3769-3.874-3.0811-5.8106-2.6408-7.4835 2.1132-8.0994 1.5851-12.061-2.2884-17.872-2.1129-3.2577-2.4651-4.4021-1.7607-5.8107 0.52832-0.9684 1.4088-3.6095 1.8491-5.9865 0.79254-3.6978 0.52838-5.7226-2.2003-16.551-2.5528-10.124-3.0808-13.91-3.0806-21.57 2.8e-4 -6.7787-0.52782-10.74-1.7602-14.878-1.6726-5.1941-1.7605-7.7471-1.5835-34.775 0.17716-28.964 0.17722-29.228-2.2874-40.497-1.6725-7.8355-3.345-13.03-5.3697-16.727-4.0495-7.3073-5.4578-16.111-3.9608-24.915 1.5849-8.8915 0.79282-16.199-2.4643-23.154-1.6725-3.4338-3.2571-8.8921-4.0492-13.734-0.70408-4.4898-2.0245-9.8603-2.9928-12.149-1.0563-2.289-1.4965-4.2261-0.96824-4.49 1.5847-1.0565 0.70447-3.9615-1.7606-5.8106-4.3138-3.1692-4.3135-8.7157 2.7e-4 -8.7157 2.7291 2e-4 5.9868-4.5774 7.9238-11.004 2.3772-7.6593 2.4656-15.407 0.97053-58.105-1.0554-31.694-1.0554-31.782 1.1462-51.502 2.4658-22.009 4.4912-34.51 6.252-37.944 1.4968-3.0813 5.0183-4.5778 16.639-7.3946 5.3704-1.3203 13.558-3.5209 18.224-4.9293 9.7722-2.993 12.237-4.9297 16.199-12.765 1.4967-3.0814 3.7858-5.8985 5.6346-7.1311 2.8172-1.9368 9.4202-6.3383 20.689-13.821 2.4652-1.6726 10.125-6.1625 17.168-10.035 7.0432-3.8736 13.822-7.9229 15.143-8.9795 1.3207-1.0562 3.8739-4.9298 5.5468-8.6274 1.7608-3.6974 4.6662-9.772 6.6032-13.382 3.3456-6.6026 8.8925-22.097 10.478-29.316 1.4968-6.5148 3.5222-21.833 4.4911-33.631 0.96875-11.269 1.9372-16.11 4.7546-22.625 1.761-4.1377 1.8492-11.709 0.08873-16.551-0.70423-2.0249-1.3203-5.5464-1.3203-7.8354 1.4e-4 -4.4899-1.8485-8.0115-4.3135-8.0115-0.88049 0-2.4651-0.9685-3.6095-2.2011-1.1446-1.2325-2.553-2.2011-3.0812-2.2011-0.61636 0-2.0249-0.79234-3.2573-1.6728-1.5847-1.3203-4.0497-1.8489-9.2439-2.2014-3.8738-0.2637-8.0113-0.7043-9.244-0.9685-1.4086-0.35223-2.7291-2.4e-4 -3.9616 1.0564zm-278.65 294.83c1.5846 2.6411 1.8486 3.8735 1.4083 7.307-0.35223 2.9934-1.8e-4 5.8984 1.3202 10.388 2.9049 9.7725 2.6407 11.005-3.5221 17.695-2.9054 3.0815-6.1629 7.5711-7.1314 9.772-2.2011 5.1065-3.0819 16.991-1.6735 21.482 1.1445 3.2574 6.2504 8.5399 8.4514 8.5399 2.0248 0 2.3768 1.5847 0.88015 3.8738-2.113 3.1692-3.786 11.356-5.2831 25.619-0.70459 6.7787-1.6733 16.111-2.1136 20.689-0.52841 4.5777-0.9689 12.677-0.96908 17.871-4e-4 10.917-1.233 11.885-2.201 1.7607-0.61604-7.0427-2.1125-11.885-4.4894-14.438-0.7923-0.8807-2.3767-6.4268-3.6091-12.414-2.0246-9.7719-2.2006-12.149-1.6719-24.474 0.26446-7.8354 1.4094-19.633 2.7302-27.732 1.9373-12.149 2.2016-16.111 1.8498-28.436-0.17588-7.9235-0.61582-14.614-0.87984-14.878-1.2326-1.2326-0.44005-4.49 1.1447-4.9302 2.2009-0.5282 4.402-4.842 5.1065-10.036 0.44027-3.1691 1.3208-4.9298 3.6979-7.3949 1.7608-1.7606 3.6096-3.1693 4.0498-3.2572 0.52822-0.0879 1.7607 1.3208 2.9052 2.9935z"/> <path d="m792.9 816.42c-1.6729 0.4403-7.7475 1.7608-13.382 2.9932-5.7226 1.1443-15.231 3.0806-21.129 4.3131-5.9867 1.3202-14.526 2.9926-19.016 3.8727-9.156 1.8484-10.477 2.5528-9.0681 5.0178 0.4402 0.96856 1.1443 3.1694 1.4084 4.9301 0.26406 1.849 0.61606 3.3456 0.70422 3.3456 0.08804 0 1.5846-0.44025 3.2574-0.96865 1.6726-0.44 6.8668-1.672 11.445-2.6406 4.5779-0.8802 13.294-2.6406 19.368-3.9609 6.0747-1.2323 15.407-3.1687 20.689-4.137 5.3701-1.0563 10.124-2.2008 10.653-2.5528 0.96824-0.6161-0.35181-11.357-1.3205-11.181-0.2639 0.088-1.9366 0.44-3.6092 0.9681z"/> <path d="m796.42 839.04c-0.70425 0.3523-5.4582 1.4084-10.565 2.2005-5.1062 0.88005-9.86 1.7606-10.564 2.0244-0.7042 0.3523-5.6345 1.4966-11.005 2.5528-5.2824 1.0564-13.47 2.7288-18.048 3.6967-10.3 2.1126-11.621 2.6409-11.093 4.4896 0.1759 0.79242 0.7041 3.0816 0.96826 5.1065 0.61609 4.1376 1.1443 4.4018 7.0428 2.8174 4.138-1.0563 20.601-4.489 33.895-7.0418 5.1063-0.96836 10.036-2.1126 11.005-2.5527 0.96853-0.4402 4.8421-1.2324 8.6278-1.8484 3.6975-0.5281 6.7788-1.3205 6.7792-1.6726 0-0.35229-0.44031-2.8172-0.96825-5.5466-0.8805-4.2257-1.3206-5.0179-2.9052-5.0181-0.96838 0-2.4651 0.35207-3.1695 0.79225z"/> <path d="m789.38 863.87c-3.0814 0.70453-18.048 3.8732-31.43 6.6021-8.1875 1.5841-8.3636 1.9362-6.075 8.7154 1.3203 3.6975 2.3767 4.4901 4.7538 3.4337 1.3207-0.61616 5.9867-1.5844 29.669-6.4258 10.917-2.2886 11.181-2.3767 10.565-5.7219-0.88012-4.402-2.2886-7.5716-3.4331-7.4835-0.5282 0.08806-2.3771 0.4403-4.0496 0.88006z"/> </g> <g> <path d="m924.44 1641.1-3.5505 0.5302q-25.243 1.6022-147.72 2.563-123.33 0.9597-290.45 0.7782-159.5-0.2535-255.13-1.4837-30.64-0.3978-50.476-0.8668l-16.672-0.4821q-13.739-0.4978-13.893-1.0388 4.1708-1.6603 113.92-2.7627 109.75-1.1026 275.02-1.1443 165.28 0.0418 275.02 1.1441 109.75 1.1026 113.92 2.7629"/> </g> </svg>