<?xml version='1.0' encoding='utf-8'?>
<svg xmlns="http://www.w3.org/2000/svg" width="1404px" height="1004px" version="1.1" viewBox="-164 538 1404 1004"> <g fill="#246089"> <path d="m186.63 791.85c-0.0863 2.6e-4 -0.1691 0.03442-0.23004 0.09556-0.06094 0.0614-0.09512 0.1442-0.09504 0.23037l0.80462 502.78c2.4e-4 0.1797 0.14621 0.3255 0.32602 0.325l703.14-1.1232c0.0862-5e-4 0.16896-0.0342 0.2299-0.096 0.06077-0.0607 0.09507-0.144 0.0948-0.2304l-0.8043-502.78c-2.4e-4 -0.18-0.1466-0.32517-0.3264-0.32505l-703.14 1.1241z"/> </g> <g fill="#092133"> <path d="m194.09 1123.8 25.548-0.0445 25.548-0.0432q0.06922 40.307 0.13867 80.614-25.548 0.044-51.096 0.0882-0.06943-40.307-0.13886-80.614"/> <path d="m194.42 1175 22.6-0.0391q0.03006 17.45 0.06003 34.9-11.3 0.0198-22.6 0.0396-0.02994-17.45-0.05999-34.9"/> <path d="m190.35 1174 9.2093-0.0159 9.2094-0.0156q0.03006 17.464 0.06012 34.928-9.2094 0.0161-18.419 0.0322-0.03007-17.465-0.0601-34.929"/> <path d="m253.44 1149.5 22.171-0.0376 22.171-0.0389q0.03827 22.171 0.07629 44.343-22.171 0.0383-44.342 0.0764-0.03815-22.172-0.07635-44.342"/> <path d="m319.79 1146.5 8.9155-0.0154 8.9155-0.0153q0.04681 27.273 0.09381 54.546-8.9155 0.0154-17.831 0.0313-0.04682-27.273-0.09381-54.546"/> <path d="m338.94 1118 9.4414-0.0166 9.4414-0.0159q0.07117 41.39 0.1424 82.782-9.4414 0.0159-18.883 0.0325-0.07122-41.391-0.14245-82.782"/> <path d="m415.55 1114.2 13.893-0.023 13.893-0.0229q0.07757 46.994 0.15472 93.987-13.892 0.0227-27.785 0.0459-0.07727-46.994-0.15491-93.987"/> <path d="m783.17 1014.8v0.0013l3.3537 6.4e-4v-1.1941l1.7883 0.00135 2.5e-4 -9.9872 1.1922 0.0017c0.09815-2.9344 1.0925-5.4663 2.9808-7.6037l-2.4e-4 0.81984c2.2853 2.1368 3.7866 4.6291 4.2498 7.5268 0.28405 1.7771 0.62 5.1185 1.2668 9.9865l2.0867 0.0013c0.29666-0.4978 0.568-0.703 0.81985-0.6722 0.14805 0.01854 0.59495 0.09874 1.3398 0.2983-0.09827 2.5335 0.0254 4.272 0.37256 5.2173l2.6086-0.3729 0.2981 3.2041c1.2432 0.44726 1.9986 1.3157 2.2358 2.6088 0.10867 0.5925 0.09837 2.0847-2.3e-4 4.4712l2.5339 0.0012c0.3981 0.6931 0.9739 2.0366 2.0121 3.8745 0.90187 1.5965 2.1376 2.408 3.4296 2.6075-0.29836 2.187-0.4231 4.0503-0.3726 5.5903 0.6946 0.1497 1.2415 0.2737 1.6395 0.3718 0.29822-0.249 0.8689-0.3725 1.7141-0.3725 1.0417 1.6899 1.5647 4.8183 1.565 9.3899 0 2.5339-0.0979 6.1855-0.2982 10.957l3.7e-4 49.112c8.9431-0.8957 19.5-1.3418 31.673-1.3418l0.74536 0.0013 3.6e-4 42.18c0.09824 0.0505 0.19994 0.0998 0.2981 0.1506l1.4e-4 0.6694c0.14915 0.0489 0.28636 0.146 0.4471 0.2232 1.68 0.8161 3.1045 1.2922 4.2478 1.4907l-1e-4 1.7141 7.901 2.6082 2.5e-4 12.966 5.3654 0.0022-1e-4 14.382 10.359 0.0013 2.6e-4 7.8987 1.7126 0.0012 2.4555 61.034-697.25-35.167-2.1e-4 -19.156c0.24884-0.0491 0.57093-0.1246 0.96878-0.2222 0.34738-1.5886 0.61176-2.7363 0.81967-3.4295 0.38822-1.2941 1.2179-1.9626 2.4594-2.0124 0.19833 0.3474 0.44723 0.5212 0.74533 0.522 0.4472-0.2967 0.71975-0.7693 0.81985-1.4148-0.29819-0.3994-0.50488-1.2674-0.59631-2.6084-0.10822-1.5879-0.17441-2.4597-0.22367-2.6084 0.49653-0.0491 0.84516-0.1245 1.0436-0.2236-0.44723-0.2474-0.69616-0.6468-0.74536-1.1927l0.9689 0.0029c0.04914-0.3498 0.22342-0.5752 0.52164-0.6738l-6e-5 0.2244c0.09988 0.0979 0.19836 0.3232 0.29807 0.6687l4.4717-0.2227-1.4e-4 -0.4465c-0.09977-0.0986-0.1743-0.323-0.22346-0.6704l1.0433 1e-3c0.04922 0.0478 0.12365 0.122 0.22366 0.2207l-0.22357 1.1176c1.0432 0.0496 1.8631-0.0739 2.4593-0.3728 0.09988-0.0979 0.17013-0.0324 0.29807 0.1509 0.22305 0.3181 0.57092 0.6946 0.96887 1.1922-0.29813 0.3982-0.44718 0.8711-0.44718 1.4162 0.74527 0.4468 1.3907 0.6943 1.9376 0.7454 0.24906-0.3982 0.64646-0.5835 1.1926-0.5232 0.34863 0.0381 1.0685 0.1247 2.1613 0.2234l-1e-4 -1.1177 0.22352 0.0012c0.39797 0.793 0.94338 1.2659 1.6396 1.4146l-1.2e-4 -17.886 3.801 0.0017c0.05057-7.1067-0.49645-14.212-1.6397-21.316 0.64526 0.0493 1.316 0.198 2.0121 0.4477v-1.1926c-0.19827-0.3489-0.32196-0.896-0.37262-1.6413l0.3725 0.0019c0.84509 1.3901 1.8141 2.1846 2.9066 2.3845l9e-5 -0.2983c-1.0434-1.0437-1.3161-1.9866-0.81976-2.8318 0.14908-0.7947 0.50326-1.2244 0.96872-1.491 0.58719-0.3357 0.91959-0.7197 1.1179-0.967l-6e-5 -10.359c0.49631-0.1994 1.1924-0.3471 2.0866-0.4472 0.24893 0.3967 0.52182 0.6962 0.81977 0.895-0.9434 1.9372-1.3668 5.3906-1.2668 10.359 0.69449-0.0505 1.3907-0.1997 2.0868-0.4472l6e-5 2.8305c0.2981 0.4971 0.41193 1.0322 0.22357 1.5649-0.11108 0.315-0.37265 0.8438-0.67071 1.6419l0.81976 0.0015c0.2489-1.2439 1.2163-2.0381 2.9064-2.3884l6e-5 0.4484c-0.6947 0.2966-1.118 0.9439-1.267 1.9385 0.99414 0.199 1.6887 0.4702 2.0867 0.8191-1.2416 1.491-1.8744 4.4973-1.9376 9.0176-0.0354 2.5346 0.05066 6.2114 0.2981 11.03l2.1612 0.0017 1.2e-4 3.2014 0.29804 0.0017v0.3709c2.0866-0.0977 3.3538 0.1748 3.8008 0.8215 0.34735 0.2471 0.1983 0.647-0.4472 1.1924l16.172 0.0011v16.767l4.1735 0.0017-1.8e-4 -0.0752 0.59637 1e-3 -0.44739-43.972c1.1431-0.4487 5.1423-0.5957 11.999-0.4483 1.0925-0.6469 4.5947-0.8764 10.508-0.7458 5.2657 0.1169 8.6899 0.3672 10.285 0.7454 0.49237 0.1169 1.5391 0.1965 3.1301 0.2241 1.1923 0.021 2.0868 0.1743 2.6828 0.5212 0.09985 0.1509 0.19824 0.3491 0.29828 0.5957l-2.4e-4 -18.854 0.74523 0.0012c1.1433-0.7465 2.8069-1.1508 4.9932-1.1196 1.2931 0.0183 3.3039 0.1643 6.0366 0.2981 11.427 0.5603 19.775 0.9448 25.041 1.1921 0.64545 2.0371 0.94782 5.1939 0.8197 9.4666-0.0716 2.3855-0.24878 5.7622-0.44696 10.136l1.2669 0.0015v2.8303l2.8318 0.0017c0.7453 2.2339 1.0535 6.0845 0.8944 11.55-0.08813 3.0305-0.24877 7.1782-0.44714 12.446l4.0245 3e-4 -6e-5 1.6386 3.3538 1e-3 -6e-5 1.6397 2.8319 0.0017 1e-4 4.3196 6.1857 9e-4v4.395l0.8197 0.0027 6e-5 -0.0761 0.29816 0.0012c0.0489-3.8259-0.04938-7.0322-0.29828-9.6153v-5.142l1.9377 0.0017-1.8e-4 -2.8357 4.0991 0.0012c0.29803 0.6934 0.47113 1.489 0.52154 2.384l1.1924 5e-4 -1.3e-4 -30.781 4.0986 0.0025 3.6e-4 -0.3741 0.4471 0.0015-3.2e-4 -30.036 3.2793 0.0015-2.5e-4 -32.42c2.2355-0.2986 3.4166-1.092 3.5024-2.3858 0.11248-1.6887 0.47032-2.7597 1.1181-3.2043 0.94275-0.6477 2.749-0.7035 5.2913-1.1915 3.7075-0.7119 7.2283-1.3584 10.806-0.9693 0.99341 0.1084 4.7204 0.8199 11.179 2.1612l4.8e-4 54.703 7.3032 1e-3c0.24909 0.8428 0.37262 4.8679 0.37287 12.071l2.4e-4 24.818 7.5272 0.0012-1.8e-4 1.9358 9.6883 0.0014 1.2e-4 5.2161 4.7694 5e-4 4.9e-4 21.612 0.22363 0.0014-3.7e-4 0.0728 7.4528 0.0017 0.52142-0.4482v-1.5655l1.2669 1e-3 3.6e-4 -1.1934 1.6395 0.0015-3.7e-4 -2.0884 1.7887 0.0012v2.0853l2.981 9e-4 -1.9e-4 -29.29 4.3972 0.0027-7.9e-4 -98.004c0.44745-0.0982 0.99444-0.2476 1.6399-0.447 0.54681-2.6831 0.98596-4.6245 1.3412-5.813 0.63916-2.1382 1.9869-3.2539 4.0247-3.3534 0.3471 0.5458 0.74482 0.795 1.192 0.7445 0.69616-0.4961 1.0926-1.2904 1.1927-2.3844-0.39818-0.6467-0.66028-2.1123-0.82031-4.3967-0.18732-2.6839-0.32307-4.1482-0.37232-4.3973 0.74525-0.0493 1.316-0.1728 1.714-0.3725-0.69464-0.4478-1.1178-1.1179-1.2671-2.0125l1.5652 0.0015c0.1488-0.5977 0.44708-0.9954 0.89417-1.1936v0.3721c0.14898 0.1982 0.2727 0.5952 0.3728 1.1924l7.3777-0.3724 3.7e-4 -0.8198c-0.14929-0.1997-0.27319-0.5964-0.37274-1.1936l1.6393 0.0015c0.09973 0.0962 0.24908 0.2224 0.44728 0.3711l-0.44697 2.0136c1.7391 0.0494 3.1301-0.1997 4.1731-0.7456 0.09845-0.0993 0.19818 0.0254 0.2981 0.3726 0.49646 0.4968 1.0691 1.1667 1.7142 2.0127-0.547 0.6958-0.81983 1.4907-0.81983 2.3865 1.1924 0.7446 2.285 1.1416 3.279 1.1921 0.44775-0.5962 1.0892-0.8059 1.9377-0.7451 0.54584 0.0388 1.6889 0.0979 3.4282 0.2978l1.9e-4 -1.9389 0.37262 1e-3c0.74536 1.4897 1.714 2.2834 2.9064 2.385 0.547 0.1999 1.0688 0.2004 1.5649 2e-4 0.34735 0.2984 0.67092 0.6951 0.96902 1.1924-1.1928 1.0432-1.3579 3.3323-0.44714 6.8563 0.63044 2.4397 1.4412 4.5693 2.3848 6.4109l0.52172 1e-3c0.04938-0.5979 0.17457-1.146 0.37275-1.6424l0.37262 0.0015c0.29808 1.4885 1.1431 2.4343 2.5335 2.8306 0.29848 0.5456 0.45026 1.5168 0.37288 2.9057-0.07216 1.293 0.00432 2.2029 0.37242 2.6844 0.27796 0.3625 1.1182 0.8686 2.4594 1.5639l6.6e-4 74.004 0.29792 0.0012-1.8e-4 0.1477 4.3975 0.0015v37.187l3.8756 0.0017-3e-4 -5.9637 2.0866 0.0018v8.7902l4.6209 2e-3 0.44708-0.374 1.3e-4 -2.0122c1.143-0.0992 2.1359-0.3474 2.981-0.7451 0.0996 0.5468 0.34715 0.9426 0.7447 1.1923l-1.5e-4 -35.624c0.74565-0.3992 1.0692-2.4106 0.9693-6.0386l4.844 0.0022-1.4e-4 -0.0764 0.67074 0.0017 1e-4 -8.7942c4.9188-0.0488 11.055 0.4224 18.407 1.4141-0.2979-27.077-0.4472-47.398-0.4471-60.961l0.89423 0.0022c0.89417-0.5986 2.7578-1.219 5.5893-1.8652 2.8323-0.6458 5.0676-0.9685 6.7074-0.9688l-3.4e-4 -28.767 0.44724 0.0015v-0.4483l1.2686 0.0012v26.828l0.37262 1e-3v0.4458c0.84381-2e-4 1.987 0.125 3.4282 0.373l-2e-4 2.012c0.1488 0.2002 0.2983 0.5962 0.4471 1.1936 2.6336 0.0486 4.6203 0.5708 5.962 1.5649 0.34698 0.5945 0.57244 1.8633 0.67089 3.8008l-1.5e-4 7.0059c-0.0491 2.3335-0.15036 5.1416-0.2981 8.4196l6e-4 50.38 2.4591 0.0017 1e-4 -2.4619c1.0418-0.2978 4.0228-0.4211 8.9432-0.3728l-1.8e-4 -1.1921 5.0664 0.0017-2e-4 -3.2068-1.2667-0.4463c-0.20017-0.1497-0.62171-0.2744-1.2686-0.3728v-9.6135c2.9318-0.2 5.4658-0.2 7.6029-5e-4 0.74524 2.583 1.9616 4.4224 3.6518 5.5146 1.7871-1.4411 5.7875-2.0615 11.998-1.8632l-2e-4 -4.0237c7.6014-0.1497 12.718 0.0737 15.352 0.6699l-3.6e-4 -49.932 34.132-1.5653c2.0854 0.6453 6.6287 3.0594 13.636 7.2285 0.84117 0.501 3.3283 1.5647 7.4526 3.2051l5e-4 60.737c0.74506-0.4462 1.7644-0.7717 3.0553-0.968 0.9941-0.1509 2.5593-0.3474 4.6951-0.5947l1.7e-4 -9.9866 6.0362 0.0015 2e-4 -3.5791 8.5704 0.0022-4.6e-4 -7.3071 11.403 0.0014c0.89407 0.2947 2.5836 1.0882 5.0656 2.3833 2.088 1.0904 3.8768 1.7644 5.3676 2.0127l-1.6e-4 2.386 10.359 3.6521 1.8e-4 17.662 16.022 9e-4 1.3e-4 4.3963c0.9436 0.2981 2.2361 0.4216 3.8755 0.3723 0.34715 0.1995 0.91795 0.3223 1.7136 0.3726l2.5e-4 25.264 5.5893 0.0016 2.6e-4 2.8291 7.7492 9e-4 -2.5e-4 -1.6406 0.97205 0.0012-2.5e-4 -0.2246 0.8197 0.0015-1e-4 -25.936 1.3415 0.0014-4.8e-4 -119.91c0.94334-0.3972 2.7569-0.5449 5.4383-0.4468v-6.4109l5.5148 0.0017c0.2982-4.8691 0.4469-8.5721 0.4469-11.104l6.2602 0.0016v-6.0384-3.5e-4z"/> </g> <g fill="#fff"> <path d="m622.55 928.15-0.72094 11.825q-5.4301 35.755-32.726 57.344-27.486 21.572-64.94 17.762-35.756-5.4299-57.345-32.726-6.9173-8.8235-11.425-19.251l-3.8009-10.726q-3.1466-11.076-3.2568-23.137 0.70264-37.021 25.127-61.754 24.425-24.733 61.434-25.898 37.021 0.70224 61.753 25.127 24.733 24.425 25.899 61.434z"/> </g> <g fill="#031624"> <path d="m392.02 1181.2q-33.472 0.0532-70.502 2.3005-39.285 1.9077-134.57 10.909l0.11816 72.707 3.9e-4 0.2607 0.04432 27.531c2.4e-4 0.1797 0.14621 0.3255 0.32602 0.325l703.14-1.1232c0.0862-5e-4 0.16896-0.0342 0.2299-0.096 0.06077-0.0607 0.09507-0.144 0.0948-0.2304l-0.0439-27.53-0.0453-28.298-64.284-10.772-90.102-12.429-224.58-26.363q-42.499-4.465-61.061-5.42-27.866-1.8199-58.764-1.7705z"/> </g> <g fill="#0d2a3e"> <path d="m528.19 1143.8 7.3496-43.078q4.9026-13.36 5.2991-20.089 0.26587-3.3836 0.08157-6.6531l-1.1934-12.425-0.06486-3.5393 4.3284-37.819q-7.051-21.159-8.1407-29.754-0.37706-3.6781 0.28949-5.5603 0.1665-1.2535 2.5688-4.0236 0.3572-0.99694 0.0913-1.3081l-4.6828-6.6135q-0.52814-0.88894 0.58116-3.5904-0.1258-1.0563-0.4409-1.3645l-6.0225-6.3368q-2.033-2.997-1.6724-4.3724-0.30225-2.6736 4.7903-9.2224l14.748-14.125 19.304 49.98q-6.1982-16.962-3.9707-20.521 1.8118-4.5628 14.484-3.4663l26.194 45.025-5.0317 135.9-68.89 2.9595"/> </g> <g fill="#031624"> <path d="m534.23 853.14c6.6e-4 0.44031-1.9228 2.8113-4.0119 4.9621-3.2429 3.3911-4.2015 6.4214-2.7394 8.5935 0.35904 0.5228 0.93829 1.2374 1.2693 1.5672 0.46886 0.46756 0.55196 0.85256 0.4986 2.0091l-0.08024 1.4315-2.4774 0.16906c-3.138 0.19788-4.7619 0.50344-5.0089 0.88964-0.08255 0.1376-0.18995 1.817-0.21435 3.7166-0.02185 3.5515 0.0612 3.8264 1.2459 4.4575 0.7439 0.38426 2.7545 1.0418 3.9389 1.2602 0.7711 0.1366 1.0189 0.30152 0.96437 0.63187-0.05451 0.2478-0.35707 0.46835-0.71477 0.524-0.9358 0.1393-1.2924 1.0481-0.7403 1.8736 0.2483 0.38455 0.6346 0.76941 0.8547 0.85181 0.4408 0.16418 0.55294 1.4584 0.11263 1.459-0.33033 6.1e-4 -0.35559 1.5698-0.02478 1.7619 0.11015 0.08226 0.27745 1.4034 0.36255 2.9173 0.0849 1.5421 0.28 2.918 0.47284 3.1103 0.16553 0.1654 0.30371 0.46775 0.30406 0.6878 8e-4 0.4958 1.0504 2.7516 1.7127 3.6864 0.66214 0.9348 0.6909 1.6783 0.4304 10.956-0.2343 8.3424 0.10326 12.994 1.2392 17.205 1.1357 4.3199 1.4126 5.5309 1.553 7.1827 0.14008 1.6791 0.14008 1.6791-0.84976 2.4517-0.5496 0.41393-1.4015 1.3236-1.9234 2.0404-1.566 2.1494-5.2951 11.516-5.7859 14.517-0.21804 1.487 0.34086 6.607 0.8656 7.597 0.22101 0.41285 0.74506 1.1554 1.1864 1.6503 0.41374 0.4947 0.9936 1.5951 1.2428 2.4205 0.58099 1.816 1.9596 3.1902 3.6672 3.6282 1.1018 0.27354 1.1845 0.3557 1.1857 1.1815 8e-4 0.49585-0.29994 1.8456-0.6834 3.0027-0.79464 2.4234-0.8481 3.3048-0.2679 4.6521 0.44207 1.0732 2.1239 2.5847 3.1429 2.8583 0.57827 0.13674 0.63373 0.24707 0.44247 1.2936-0.10885 0.6057-0.2446 1.8997-0.2705 2.8357-0.02615 0.9636-0.19 1.8726-0.35477 2.0652-0.13726 0.19285-0.35608 1.0471-0.46478 1.9006-0.24445 2.0652 0.30815 3.2754 2.8454 6.2725 1.7931 2.1169 1.9588 2.4466 2.1263 3.8508 0.084 0.85316 0.4162 2.1743 0.6931 2.972 0.2764 0.77025 0.60905 2.1464 0.693 3.0276l0.1676 1.5962-1.84 2.7558c-2.1148 3.1969-3.9806 6.9991-5.4879 11.296-0.87714 2.4797-1.068 3.416-1.0652 5.0952 3e-3 1.8997 0.11346 2.3125 1.1075 4.2657 1.2153 2.4201 1.932 3.0525 4.3561 3.8193 1.3771 0.4385 1.5426 0.5759 1.9572 1.6211 0.74663 1.9534 0.58263 2.9451-1.0908 6.554-1.5087 3.2509-1.5637 3.3884-1.3957 5.1228 0.16794 1.7617 1.3873 6.6325 1.8841 7.5678 0.13826 0.2747 0.3863 0.4949 0.4963 0.4949 0.13775-2e-4 1.318-2.2046 2.6353-4.9045 4.8844-9.9463 6.8602-13.804 8.6999-16.945 0.41174-0.7163 0.7688-1.3775 0.7685-1.46 0-0.0827 0.41155-0.799 0.9059-1.5708 0.5219-0.7993 1.1533-1.8464 1.4552-2.3149 1.1808-2.0393 5.5471-8.901 6.838-10.83 0.76897-1.13 1.9224-2.9487 2.5264-3.9958 1.345-2.2871 2.3066-3.5556 1.3733-1.792-1.317 2.4801-3.6234 6.5585-5.6824 10.058-2.3336 3.9686-4.4476 7.6878-5.3536 9.3685-4.0622 7.4675-6.9168 13.005-10.374 20.114-0.21935 0.4401-0.96075 1.9006-1.6465 3.2231-0.6864 1.3227-1.7017 3.4437-2.2498 4.7387-0.96005 2.2311-0.98731 2.3967-0.90045 5.1496 0.08624 2.2293 0.25286 3.1931 0.7501 4.376 0.6357 1.4585 0.6638 1.7888 0.73165 9.9092 0.06505 6.3601-0.01365 8.6447-0.26025 9.3613-1.8643 4.9585-2.083 5.8122-1.7798 6.197 1.1036 1.3201 3.5787-0.3354 9.4881-6.3193 4.4249-4.4671 4.4802-4.4949 0.908-0.3042-2.4455 2.8664-6.5411 6.9753-8.191 8.1892-0.5224 0.414-1.4301 0.8005-2.0082 0.9118-1.2661 0.25-1.4308 0.5528-1.9766 3.6097-0.5183 2.8637-1.0924 5.425-2.4604 10.713-1.1489 4.5439-1.8318 7.9587-2.4584 12.117-0.2177 1.6523-0.4902 3.3597-0.5447 3.7731-0.05434 0.3855-0.5751 1.8728-1.1234 3.3051-0.54827 1.4051-1.2332 3.554-1.5064 4.7654-1.6408 6.7476-2.2427 9.1163-2.4353 9.3091-0.10985 0.1377-1.0454 0.3045-2.0917 0.4163-1.8168 0.1955-1.8989 0.2236-1.9806 0.9394l-0.0814 0.7437-8.6443 0.1787 0.01506 9.4704 0.0152 9.4705 1.3222 0.4385c0.74355 0.2461 1.4328 0.6308 1.5706 0.8506 0.11036 0.2202 0.28726 7.4326 0.38336 16.022l0.19025 15.637-1.3488 0.0027c-1.2942 0.0015-4.0188 0.2539-9.3592 0.8403-3.1654 0.3623-7.9816 1.1414-14.449 2.3624-4.6512 0.8614-6.8806 1.2776-8.6696 1.5557-0.99078 0.167-2.4769 0.4995-3.3025 0.7212-0.8255 0.2217-4.0458 0.6399-7.1564 0.947-5.918 0.5882-10.597 1.0635-16.79 1.7615-2.0369 0.2236-5.6978 0.6147-8.1202 0.8391-2.422 0.2517-4.9543 0.5862-5.6423 0.7525-1.2658 0.3322-10.236 3.2375-18.711 6.059-2.6414 0.8853-5.3381 1.743-5.971 1.909-0.93543 0.2492-1.3205 0.5805-2.2543 1.9306-0.60443 0.9092-1.6481 2.3426-2.3624 3.2527-0.68689 0.8819-2.2252 2.9492-3.434 4.6304-1.2086 1.6536-2.4447 3.3352-2.7192 3.7207-0.30237 0.3862-1.8406 2.4255-3.4342 4.5212-1.5933 2.0945-2.9119 3.9961-2.9116 4.1883 6.2e-4 0.3303 24.2 0.3471 151.83 0.1436 145-0.2318 151.83-0.2708 151.58-0.7384-0.13824-0.2473-0.24924-0.771-0.2497-1.1557-6.4e-4 -0.3858-0.03684-5.8364-0.07458-12.114-0.06906-8.7814-0.15606-11.59-0.43226-12.112-0.22064-0.3852-0.44177-0.9077-0.52484-1.1831-0.08306-0.2475-0.35856-0.4675-0.6065-0.467-0.24786 2e-4 -0.8263-0.1641-1.2945-0.3833-0.49596-0.2192-1.8181-0.658-2.9475-0.9866-1.1291-0.3286-2.5614-0.7671-3.1672-0.9587-0.60616-0.1914-1.9007-0.575-2.8919-0.821-0.99167-0.2735-2.2863-0.657-2.8922-0.8489-0.60594-0.1917-3.0301-0.9309-5.3711-1.6153-2.341-0.6577-4.8752-1.424-5.6461-1.643-3.5258-1.0679-7.4366-2.1353-10.466-2.9019-0.60585-0.1638-1.6524-0.4651-2.3411-0.6838-1.3499-0.4663-0.90926-0.4671-25.467-0.7576-8.1767-0.0969-14.894-0.197-14.922-0.2241-0.0828-0.0547-0.67774-10.598-1.0771-19.297-0.2284-5.0103-0.45636-9.8274-0.5404-10.763-0.19653-2.5049-0.05945-2.7803 1.5643-3.141 0.77063-0.166 1.5135-0.4426 1.6233-0.6355 0.1097-0.1933 0.2133-4.4331 0.20516-9.4431-0.01336-8.3423-0.0423-9.1399-0.48309-9.3047-0.24793-0.1096-2.3405-0.1617-4.5979-0.1302l-4.1568 0.0332-0.4148-1.1829-0.44253-1.2104-3.469-0.0767c-2.8355-0.051-3.4964-0.1321-3.6346-0.49-0.304-0.7979-0.7267-6.8267-1.0147-14.837-0.3457-9.3871-0.71663-17.645-1.1715-26.509-0.22726-4.3496-0.25784-6.4968-0.0656-6.6897 0.165-0.1658 0.6874-0.4968 1.21-0.7458l0.9353-0.469 0.0789-2.4781c0.05255-1.4038 0.21607-2.6433 0.4083-2.8913 0.1922-0.2202 0.5764-0.8543 0.8512-1.3775 0.3016-0.5239 0.9609-1.5713 1.4552-2.3152 1.0162-1.5158 1.0433-1.7912 0.46131-4.2951-0.58177-2.3943-0.74977-4.1287-0.47602-4.9002 0.16465-0.3852 0.05255-1.6513-0.25295-3.4406-1.6949-9.7701-3.1434-20.229-2.8685-20.533 0.0826-0.0828 0.63287-0.1663 1.2387-0.1951 0.57807-0.0276 1.1834-0.1396 1.3485-0.2219 0.2476-0.1658 5.1595-10.002 8.1776-16.421 0.8233-1.7353 1.8658-3.9673 2.3324-4.9585 1.3718-2.8928 1.5367-3.1687 2.0597-3.2522 1.1281-0.222 2.2557-0.9671 2.5574-1.7113 0.16431-0.4404 0.74121-1.1571 1.2362-1.5984 0.60462-0.57936 0.98915-1.2681 1.2354-2.2046 0.16383-0.7709 0.49298-1.4596 0.71333-1.5425 0.21996-0.0826 0.6594-0.74425 0.9886-1.4603 0.3017-0.74366 0.65866-1.3774 0.74124-1.4607 0.10981-0.0823 0.38446-0.46875 0.65912-0.8823 0.659-1.0745 0.5741-2.5058-0.22626-3.7709l-0.6626-1.0725 0.6314-1.2123c2.9368-5.594 4.0618-7.9904 3.8411-8.2101-0.33095-0.3303-1.8462-1.1262-12.647-6.5871-4.6839-2.3607-9.1475-4.6387-9.8914-5.0225-0.744-0.4122-1.5153-0.74084-1.6806-0.74084-0.19276 2.4e-4 -1.3457 1.9845-2.5806 4.4093-3.8144 7.5218-4.6654 9.0921-5.1875 9.7816l-0.5219 0.66123-0.1671-1.0735c-0.08346-0.6604-0.66366-1.8706-1.464-3.053-0.7176-1.1006-1.5461-2.6132-1.7951-3.3834-0.24874-0.77039-0.8845-2.3394-1.3542-3.4674-0.93975-2.1728-2.2956-6.4378-2.9332-9.2175-0.94254-4.128-1.856-7.2099-2.4082-8.3105-0.4971-0.96213-0.8555-1.2373-3.3908-2.8298-1.4605-0.8787-1.709-1.1812-1.875-2.0619-0.13905-0.74316-0.608-1.4309-1.6285-2.4198-1.5441-1.5122-1.4056-1.0438-2.627-7.3467-0.77704-3.8253-1.2532-9.0001-1.0357-10.845 0.1359-1.0186 0.0519-1.8448-0.2524-2.7528-0.2487-0.71544-0.4429-1.761-0.4441-2.3668-0.0021-1.4042 0.4651-1.6528 3.5759-1.9052 1.2937-0.11231 2.532-0.30715 2.6972-0.41748 1.1001-0.66223-0.5807-1.6232-3.4446-1.9489l-1.7346-0.18956-0.0022-1.3216c-0.00116-0.7432 0.1353-1.4319 0.328-1.5422 0.3024-0.19361 1.2655-0.47035 4.8983-1.357 0.82545-0.19383 2.7517-0.6926 4.2654-1.1079 6.7694-1.8005 6.6042-1.9109-2.6463-2.006l-7.2956-0.0426-0.6076-1.3209-0.6077-1.2928 0.9063-1.2956c0.4671-0.68907 1.511-1.9294 2.2529-2.7568 0.76984-0.79946 2.0889-2.2604 2.9133-3.2533 2.1706-2.5911 2.8027-3.336 3.2422-3.7765 0.63244-0.66175-0.05646-0.99097-0.82641-0.4116-1.155 0.9104-3.5472 2.5384-3.6847 2.5384-0.08256 4e-4 -0.30262 0.1381-0.4953 0.27615-0.5224 0.46912-3.7398 2.7589-5.665 4.056-1.6776 1.1317-2.8329 1.4913-3.1644 0.9414-0.0824-0.1378-0.6887-0.3297-1.3769-0.41066-0.66076-0.10964-1.3771-0.32824-1.5976-0.52124-0.44114-0.3567-0.8595-3.7151-1.2276-10.101-0.19786-3.2486-0.47496-4.5415-0.91546-4.2934-0.1373 0.11057-0.329 0.6887-0.438 1.3497-0.1633 1.1841-0.3273 1.9277-1.2019 5.9757-0.2731 1.2946-0.7379 3.3604-1.0114 4.5994-0.5465 2.5613-0.5465 2.5613-3.6012 3.1168-1.9816 0.3607-2.0092 0.3607-2.8912-0.3534-0.49644-0.41186-2.3983-1.8683-4.2173-3.2695-1.8194-1.4009-3.6663-2.8572-4.0799-3.2417-1.2405-1.0716-2.3426-1.7035-2.5074-1.4003-0.0826 0.1382 0.3041 0.85267 0.8836 1.5958 1.0205 1.2919 5.849 8.0291 6.7598 9.4594 0.4691 0.68736 0.4417 0.7428-0.4923 1.9277-0.5219 0.66164-0.96135 1.3506-0.96104 1.5436 3e-4 0.21997-1.4584 0.3329-4.8723 0.42016-2.6976 0.05969-5.0652 0.17371-5.2851 0.25659-0.2479 0.05515-0.4408-0.10962-0.5242-0.43969-0.05514-0.30286-0.4416-0.85256-0.8552-1.2373-1.3512-1.2096-1.6273-1.8974-1.7972-4.815-0.28195-4.2393-0.699-6.7715-1.8631-11.56-2.7438-11.476-3.247-16.155-2.1254-20.782 0.629-2.589 0.59656-5.5895-0.122-7.4329-1.1335-2.9714-1.3284-4.1273-0.86115-4.8719 0.10981-0.19236 1.0177-0.55212 1.9806-0.80102 1.9814-0.49904 3.8518-1.5753 3.851-2.1811-5.6e-4 -0.2205-0.13926-0.9357-0.33301-1.5963-0.24939-0.9904-0.22275-1.5138 0.13281-2.9733 0.3559-1.3771 0.3551-1.8177 0.10687-2.0648-0.52393-0.49476-2.8923-0.959-5.6182-1.1199l-2.5605-0.161-0.0019-1.2114c-0.0017-1.0739 0.1354-1.3491 1.4824-2.7 3.106-3.1716 3.1554-6.6404 0.14885-10.215-0.74473-0.8794-1.7657-2.2821-2.2351-3.0795-0.77245-1.293-1.627-1.8972-1.6257-1.1261zm12.687 83.589c-0.10885 0.88123-0.40926 2.3131-0.68325 3.2219-0.68475 2.2312-2.8515 7.2728-3.6479 8.5677-0.38436 0.60681-0.76866 1.2677-0.87829 1.4884-0.21967 0.46802-0.52161 0.99156-1.7573 2.8655-0.87894 1.3781-0.9328 2.0939-0.08054 1.4868 1.5401-1.1313 4.0412-3.6124 5.0026-4.9637 1.2909-1.8735 1.621-2.0672 0.74274-0.4684-1.0431 1.8733-4.0669 4.7965-7.0919 6.866-0.3301 0.2207-1.3751 0.9929-2.3375 1.683-2.2271 1.6278-3.3826 2.18-5.0344 2.376-1.7891 0.19557-2.2027-0.24438-1.7099-1.9796 0.19157-0.68833 0.46613-1.3222 0.57577-1.4051 0.3302-0.19287 0.3029-0.08287-0.13577 1.2117-0.49333 1.35-0.21733 1.7074 1.3517 1.7047 1.4044-0.00195 2.3669-0.52725 4.9235-2.7608 1.4298-1.2413 2.0893-1.986 2.0885-2.4265-5e-4 -0.3303 0.30125-1.1017 0.6856-1.7078 0.38463-0.60623 1.0434-1.7629 1.4829-2.5349 4.2543-7.9355 5.818-11.379 6.2-13.665 0.27255-1.707 0.52075-1.4052 0.30355 0.44007zm4.2679 0.46103c0.82599 0.0813 2.0651 0.32705 2.7537 0.51895 1.157 0.35585 1.2121 0.41065 1.2964 1.5122 0.1123 1.321 0.13986 1.321-2.8327 1.6007-2.918 0.30784-3.166 0.25304-3.1676-0.82046-0.02837-0.49546-0.19471-1.3764-0.4162-1.9813-0.22113-0.60583-0.41457-1.1283-0.41474-1.1835 0-0.02746 0.27517-3.6e-4 0.63343 0.0542 0.33034 0.08191 1.2942 0.21827 2.1477 0.29917zm4.3337 7.0685c0.05546 0.3855 0.24921 0.88026 0.46956 1.0454 0.4687 0.38454 0.3326 1.4036-0.5444 3.8552-0.35625 0.99121-0.73973 2.2583-0.8215 2.8093-0.1092 0.55029-0.356 1.2386-0.52065 1.4874-0.32975 0.4132-0.44015 0.38574-1.46-0.54835-0.6065-0.55005-1.5436-1.1538-2.0668-1.3732l-0.93695-0.4119 0.3274-2.0096c0.19073-1.1013 0.35327-2.8643 0.37915-3.8826l-0.00312-1.8722 2.5605 0.0786c2.5329 0.07864 2.5329 0.07864 2.6168 0.8218zm-16.167 13.35c-3.5458 3.5842-7.479 5.8753-8.7465 5.1067-0.49616-0.30186 0.1638-0.7981 2.2548-1.6826 2.5035-1.0779 5.419-2.8443 6.9309-4.2508 2.0615-1.9027 1.8421-1.5172-0.43916 0.8268zm1.8042 9.3569c-0.35655 0.74415-1.1521 2.4252-1.7558 3.7471-1.1521 2.507-2.4701 4.7668-2.6634 4.5746-0.11014-0.1377 1.7274-4.5456 2.6606-6.3639 0.5216-1.0475 2.252-3.5001 2.3621-3.39 0.05548 0.02735-0.21917 0.68835-0.60352 1.4322zm22.988-0.0641c1.8e-4 0.1377-0.13777 0.0829-0.27551-0.1368-0.13826-0.22024-0.27631-0.5509-0.27662-0.6884-1.8e-4 -0.16514 0.13756-0.0825 0.27582 0.1375 0.13774 0.21994 0.276 0.5228 0.27631 0.6877zm-15.414 2.0344c-2.1397 4.9313-7.7423 13.42-10.491 15.902-1.4024 1.2687-1.7322 1.4346-1.9807 0.99425-0.49686-0.79748 0.8761-2.9468 4.339-6.7518 2.281-2.5088 5.7699-7.277 7.6092-10.419 0.6588-1.1575 1.263-2.0391 1.3183-1.9845 0.0826 0.0552-0.30126 1.0741-0.7947 2.259zm16.021-0.65869c0.08324 0.35745 0.05614 0.60545-0.05402 0.55029-0.11064-0.08191-0.27614-0.43957-0.33194-0.82544-0.0831-0.35705-0.056-0.60547 0.0543-0.5503 0.11 0.0829 0.276 0.4396 0.33166 0.82545zm14.707 4.023c-3.0205 4.8778-7.3608 10.887-10.466 14.415-2.0063 2.2881-2.1161 2.4258-3.848 3.9982-1.0172 0.91004-0.9896 0.88221 0.30157-0.74423 0.7417-0.93716 3.2696-4.1068 5.6326-7.0292 2.3629-2.9494 5.0552-6.4501 6.0167-7.8005 1.6754-2.4526 2.4721-3.4452 2.6649-3.4455 0.05499 0-0.08226 0.27554-0.30196 0.60584zm-29.99 11.363c-0.2466 0.82642-0.60216 2.2858-0.82085 3.25-0.73791 3.4422-3.8875 13.606-4.5736 14.846-0.35677 0.63317-0.30245 0.3032 0.32774-1.6528 0.73956-2.3683 2.7377-9.447 3.5039-12.394 0.3282-1.2946 0.71166-2.5338 0.82164-2.7542 0.13726-0.2484 0.32886-0.85424 0.41056-1.3768 0.3279-1.57 0.5196-2.0935 0.63046-1.7359 0.08304 0.19226-0.05336 1.0184-0.29976 1.8175zm43.345 7.6115c0.3318 1.1003 0.9963 3.3019 1.4942 4.8979 0.8303 2.6138 1.4402 5.2014 1.1372 4.8985-0.24876-0.2472-2.323-6.328-2.7113-7.9793-0.96976-3.9906-0.91676-5.1744 0.07994-1.8171zm-0.0307 15.087c0.25417 4.2112 0.20235 6.2208-0.2099 6.4696-0.3027 0.1936-0.5277-2.7797-0.7029-9.0838-0.1188-5.2856-0.1189-5.4237 0.2418-3.5798 0.2221 1.0463 0.5293 3.854 0.671 6.194zm-4.5686 35.438c-0.177 9.8283-0.36955 27.172-0.46155 38.598-0.1087 18.06-0.1871 20.785-0.54455 20.979-2.4756 1.3252-3.0262 1.3536-2.8902 0.1697 0.0819-0.468 0.2403-4.6528 0.398-9.2783 0.1302-4.6248 0.39557-10.93 0.5558-14.042 0.2665-5.5339 0.47655-11.893 1.0274-29.045 0.1301-4.7083 0.3678-11.068 0.5277-14.179 0.16016-3.1106 0.2647-6.6621 0.26276-7.9012-0.00316-1.9821 0.07894-2.3403 0.60119-2.8366 0.32975-0.3033 0.65979-0.4962 0.71495-0.41404 0.0829 0.08264-0.0144 8.1488-0.19145 17.95zm-12.401-8.1011c-1.5046 6.0586-5.5041 18.399-8.1361 25.147-0.2195 0.6062-0.6033 1.5979-0.8225 2.2044-0.24676 0.6057-0.60314 1.4873-0.7952 1.9831-0.2197 0.468-0.38405 0.9368-0.38405 1.0193 5.5e-4 0.3303-2.085 4.4356-3.1556 6.2266-1.2633 2.122-2.7192 4.1342-4.8348 6.7529-1.6759 2.0398-5.7984 6.4512-5.1669 5.5142 0.21954-0.3033 0.60437-0.7994 0.90673-1.1028 2.336-2.5366 7.0849-11.271 9.7722-18.048 0.32885-0.8259 0.79511-1.9009 0.98718-2.397 0.21947-0.4685 0.38367-0.9636 0.38357-1.1291-4e-4 -0.1377 0.1915-0.6335 0.4112-1.0466 0.21933-0.4412 0.4114-1.0469 0.411-1.3498-7e-4 -0.3298 0.1088-0.6882 0.2462-0.8264 0.13745-0.165 0.4937-1.2119 0.8225-2.3408 0.3558-1.1294 0.71186-2.314 0.84907-2.6169 0.10968-0.3033 0.49303-1.4327 0.82183-2.4783 1.1231-3.6643 5.2614-15.344 5.3715-15.234 0.02793 0.0552-0.24557 1.2673-0.62891 2.6995-1.0124 3.8007-1.2577 5.2602-0.95456 5.5625 0.3584 0.3571 2.4693-5.2076 4.0848-10.716 0.84877-2.8918 0.7135-1.405-0.1891 2.1756zm-6.2619 43.81c-0.84646 4.3518-1.9951 9.0884-2.4614 10.246-0.1373 0.303-0.65784 1.7903-1.2062 3.3052-0.52037 1.5151-1.3977 3.9397-1.9734 5.3716-0.54852 1.4328-1.7815 4.9028-2.7407 7.7129-4.384 13.056-5.645 16.5-8.6066 23.69-2.0019 4.8492-3.4566 7.5486-4.6388 8.6243-1.0446 0.9378-3.4652 2.0703-3.7687 1.7686-0.13795-0.1375 1.5364-3.1692 2.1685-3.9131 0.32966-0.4136 3.3506-5.1257 4.0644-6.3662 0.8783-1.5705 3.8973-7.5766 4.3359-8.6791 0.2193-0.523 0.68557-1.6252 1.0697-2.4517 0.35656-0.8269 1.1517-2.81 1.7273-4.4077 0.57553-1.5974 1.4803-3.9939 2.0287-5.344 0.76794-1.8735 0.90434-2.5071 0.65649-2.7541-0.19305-0.1926-0.3584-0.1919-0.44065-0.0264-0.05483 0.1375-0.54867 1.1016-1.1256 2.0935-3.4311 6.2-3.0193 5.5388-9.0885 14.716-7.4155 11.244-12.609 17.337-15.306 17.92-0.66064 0.1387-0.2486-0.33 2.143-2.6186 2.3915-2.2888 5.3047-5.4326 6.486-7.031 0.1098-0.1651 0.60431-0.7988 1.0992-1.4058 1.4833-1.902 1.1801-2.1769-1.2134-1.0715-0.825 0.3865-1.5682 0.6904-1.6508 0.6904-0.27535 3e-4 0.7414-1.2398 2.6928-3.2799 2.3086-2.3987 3.7925-4.1631 6.3203-7.4712 2.0053-2.6184 5.1637-7.3586 5.1632-7.7165-3e-4 -0.1377 0.10968-0.2754 0.21954-0.3308 0.35786-0.1382 2.6636-4.2718 3.9258-6.9712 0.6309-1.3777 1.5637-3.416 2.1125-4.5457 0.87796-1.9014 2.002-4.821 3.3721-8.9531 0.30108-0.9089 0.68493-1.9006 0.82213-2.2031 0.1371-0.3033 0.35646-0.9368 0.49336-1.3777 0.16434-0.4685 0.65784-1.8731 1.1237-3.1677 0.4935-1.2952 1.2062-3.2779 1.5896-4.4078 0.79446-2.341 1.0977-2.1484 0.60632 0.3572z"/> </g> <g fill="#246089"> <path d="m-177.52 532.01c-0.17557 0-0.3439 0.07047-0.46794 0.1943-0.12398 0.1246-0.19359 0.2936-0.19329 0.469l1.6378 1023c6e-4 0.3663 0.29746 0.6619 0.6633 0.6612l1430.6-2.2849c0.1758 0 0.3441-0.0699 0.4679-0.1944 0.1239-0.1245 0.1935-0.2927 0.1935-0.469l-1.6372-1023c-8e-4 -0.36604-0.2979-0.66198-0.6636-0.66124l-1430.6 2.2867z"/> </g> <g fill="#092133"> <path d="m-162.36 1207.5 51.98-0.0894 51.98-0.088q0.14114 82.008 0.28232 164.02-51.98 0.0894-103.96 0.1793-0.14119-82.009-0.2823-164.02"/> <path d="m-161.68 1311.5 22.991-0.0395 22.991-0.0391q0.061065 35.503 0.12204 71.007-22.991 0.0403-45.982 0.0801-0.06108-35.504-0.1223-71.008"/> <path d="m-169.96 1309.6 37.475-0.0635q0.06125 35.533 0.12231 71.066-18.737 0.0328-37.475 0.0655-0.06125-35.534-0.12241-71.068"/> <path d="m-41.597 1259.7 90.219-0.1542q0.0777 45.11 0.15521 90.218-45.11 0.0786-90.219 0.1563-0.077605-45.11-0.1553-90.22"/> <path d="m93.397 1253.5 18.14-0.0308 18.14-0.0304q0.09564 55.49 0.19104 110.98-18.14 0.0315-36.279 0.063-0.09543-55.49-0.19092-110.98"/> <path d="m132.36 1195.6 38.419-0.0661q0.14496 84.214 0.28986 168.43-19.21 0.0337-38.419 0.0678-0.1448-84.215-0.28979-168.43"/> <path d="m288.24 1187.9 56.532-0.0928q0.15753 95.614 0.31518 191.23-28.266 0.0469-56.532 0.0938-0.15778-95.614-0.31531-191.23"/> <path d="m1036.2 985.61-3e-4 2e-3 6.8239 9.5e-4v-2.4294l3.6388 0.0027 4e-4 -20.32 2.4257 0.00293c0.2001-5.9685 2.2229-11.121 6.0653-15.47l-2e-4 1.6681c4.6491 4.348 7.7035 9.4189 8.6461 15.314 0.5779 3.6146 1.2612 10.413 2.577 20.318l4.2459 0.00233c0.6031-1.0127 1.1555-1.4296 1.6678-1.3672 0.3012 0.03735 1.2103 0.2008 2.7263 0.6068-0.2005 5.1546 0.052 8.6917 0.7582 10.614l5.3073-0.7587 0.6063 6.5202c2.5295 0.9093 4.0665 2.6765 4.5491 5.3076 0.221 1.2061 0.201 4.2417-2e-4 9.0967l5.1552 0.0033c0.8105 1.4102 1.9813 4.1425 4.0941 7.8821 1.8352 3.2483 4.3491 4.9002 6.9774 5.3065-0.6059 4.4489-0.8606 8.2395-0.7577 11.373 1.4136 0.3051 2.526 0.5576 3.3361 0.7575 0.6064-0.5063 1.7678-0.7578 3.4873-0.7585 2.1202 3.4392 3.184 9.8039 3.1841 19.105 5e-4 5.1553-0.1994 12.585-0.6061 22.293l6e-4 99.924c18.196-1.8225 39.675-2.7302 64.442-2.7295l1.5169 0.0027 4e-4 85.82c0.2002 0.103 0.4068 0.2038 0.6066 0.3066l4e-4 1.3611c0.3033 0.1001 0.5826 0.2964 0.9095 0.4555 3.4182 1.6592 6.3171 2.628 8.6427 3.032l1e-4 3.4881 16.075 5.3064 7e-4 26.381 10.917 0.0032-3e-4 29.262 21.076 0.0027 5e-4 16.07 3.4848 3e-3 4.9958 124.18-1418.6-71.552-3.6e-4 -38.974c0.50637-0.1001 1.1614-0.2525 1.9713-0.4524 0.70654-3.2317 1.2447-5.5674 1.6678-6.9773 0.7898-2.6338 2.4778-3.9917 5.0039-4.0943 0.40324 0.7066 0.90979 1.0603 1.5163 1.0611 0.90971-0.6026 1.4646-1.5645 1.668-2.8777-0.60664-0.813-1.027-2.5796-1.2131-5.3076-0.22033-3.2312-0.35486-5.0044-0.45495-5.3069 1.0098-0.1001 1.7194-0.2534 2.1229-0.4548-0.90982-0.5032-1.4164-1.3155-1.5164-2.4258l1.9712 0.0051c0.1001-0.7117 0.45469-1.1697 1.0614-1.3704l3e-5 0.4551c0.20316 0.1995 0.40344 0.6585 0.60654 1.3623l9.0979-0.4536-2.6e-4 -0.9087c-0.20305-0.2004-0.35461-0.6577-0.45471-1.3642l2.1228 0.0024c0.10008 0.0967 0.25162 0.249 0.45493 0.449l-0.45482 2.2739c2.1227 0.1006 3.7908-0.1511 5.0037-0.7583 0.20314-0.1995 0.3462-0.0657 0.60655 0.3066 0.45379 0.647 1.1614 1.4131 1.9712 2.4253-0.60669 0.8091-0.90979 1.772-0.90988 2.8814 1.5164 0.9089 2.8296 1.4133 3.9424 1.5163 0.50661-0.8093 1.3154-1.187 2.4263-1.0649 0.70953 0.0786 2.1743 0.2544 4.3973 0.4556l-1.2e-4 -2.2749 0.45476 0.0031c0.81005 1.6133 1.9198 2.575 3.336 2.8775l-2.5e-4 -36.391 7.7335 0.0034c0.10289-14.459-1.0102-28.916-3.3363-43.369 1.313 0.0993 2.6778 0.4028 4.0939 0.9101l2.1e-4 -2.427c-0.40348-0.7085-0.65518-1.8225-0.75819-3.3386l0.75807 0.0027c1.7194 2.8298 3.6907 4.446 5.9136 4.8523l5e-5 -0.6072c-2.1228-2.1226-2.6778-4.041-1.6679-5.7612 0.30325-1.6172 1.0239-2.4903 1.971-3.0325 1.1947-0.6841 1.8712-1.4651 2.2745-1.9683l-9e-5 -21.077c1.0098-0.4068 2.426-0.7066 4.2455-0.9092 0.50652 0.8064 1.0617 1.4158 1.6682 1.8198-1.9197 3.9414-2.7812 10.969-2.5778 21.076 1.4133-0.103 2.8296-0.4063 4.2459-0.9094l-6e-5 5.7583c0.60655 1.011 0.83821 2.1003 0.455 3.1848-0.22604 0.6391-0.75827 1.7163-1.3648 3.3391l1.6679 0.0044c0.50641-2.5313 2.4746-4.1472 5.9137-4.8602l-2.1e-4 0.9131c-1.4134 0.603-2.2744 1.9201-2.5776 3.9428 2.0227 0.4053 3.436 0.9573 4.2456 1.6672-2.5262 3.033-3.8139 9.1497-3.9423 18.348-0.07192 5.1551 0.1031 12.636 0.60675 22.441l4.3972 0.0032 1.7e-4 6.5137 0.60638 0.0029 2.45e-4 0.7558c4.2456-0.2006 6.8236 0.3548 7.7332 1.6705 0.70668 0.5036 0.40338 1.3166-0.90999 2.4265l32.904 0.0022 1.52e-4 34.114 8.4913 0.0034-2.44e-4 -0.154 1.2133 0.0034-0.9104-89.467c2.3261-0.9126 10.463-1.2132 24.413-0.9126 2.2227-1.3162 9.3485-1.783 21.38-1.5167 10.714 0.2373 17.68 0.7463 20.925 1.5161 1.0019 0.2378 3.1315 0.3989 6.3687 0.4558 2.4258 0.0425 4.2457 0.3537 5.4585 1.0605 0.20313 0.3067 0.40344 0.7102 0.60672 1.2124l-5.49e-4 -38.362 1.5163 0.0029c2.3263-1.5193 5.7111-2.3418 10.159-2.2778 2.6309 0.0371 6.722 0.3349 12.282 0.6074 23.25 1.1389 40.234 1.9216 50.948 2.4253 1.3135 4.1455 1.9287 10.568 1.6679 19.261-0.14551 4.854-0.50626 11.725-0.90936 20.622l2.5778 0.0027-9.4e-5 5.7588 5.762 0.0039c1.5162 4.5457 2.1432 12.379 1.8197 23.5-0.17963 6.1663-0.50617 14.605-0.90973 25.324l8.1884 0.0015-3e-5 3.3342 6.8232 0.0024-1.8e-4 3.3357 5.762 0.0027 2.2e-4 8.7888 12.585 0.0037-3e-5 8.9424 1.6677 0.0049 3e-5 -0.1563 0.60657 0.0037c0.09994-7.7847-0.10001-14.308-0.60669-19.564l-1.8e-4 -10.462 3.9423 0.0029 1.8e-4 -5.7691 8.3397 3e-3c0.60669 1.4096 0.95858 3.029 1.0613 4.8496l2.4264 0.0024-6.1e-4 -62.628 8.3395 0.0037 1.2e-4 -0.7608 0.90976 3e-3 -4.9e-4 -61.111 6.672 3e-3 -4.9e-4 -65.962c4.5486-0.6079 6.9515-2.2219 7.1265-4.8533 0.22852-3.4365 0.9567-5.6147 2.2744-6.52 1.9182-1.3186 5.593-1.4331 10.766-2.4253 7.5429-1.4487 14.707-2.7637 21.986-1.9719 2.0209 0.2202 9.6042 1.6685 22.745 4.3968l7.3e-4 111.3 14.86 0.0022c0.50672 1.7141 0.7583 9.9053 0.75854 24.561l5e-4 50.495 15.315 0.0017-1.8e-4 3.94 19.712 0.0026v10.612l9.7043 0.0024 3.7e-4 43.97 0.45501 0.0035-1.2e-4 0.1484 15.163 0.0032 1.0613-0.9122 2.3e-4 -3.1848 2.5776 0.0027 1.8e-4 -2.428 3.3358 0.0022-2.4e-4 -4.2492 3.6392 0.0034 2.5e-4 4.2429 6.0651 0.0015-4.3e-4 -59.593 8.9465 0.0032-0.00171-199.4c0.90998-0.1995 2.0229-0.5034 3.3359-0.9087 1.113-5.459 2.0068-9.4092 2.7294-11.827 1.3-4.3503 4.0425-6.6206 8.1881-6.8235 0.70662 1.1104 1.5161 1.6187 2.426 1.5166 1.4164-1.01 2.2227-2.6264 2.4263-4.8532-0.80982-1.3155-1.3434-4.2981-1.6683-8.9458-0.38184-5.4601-0.6579-8.4406-0.75804-8.946 1.5163-0.1003 2.6777-0.351 3.4874-0.7582-1.4129-0.9105-2.2744-2.2742-2.5781-4.094l3.1846 0.0027c0.30317-1.2163 0.90986-2.0251 1.8194-2.4289l-5e-5 0.7576c0.30365 0.403 0.55517 1.2111 0.75825 2.4257l15.012-0.7573 7e-5 -1.6682c-0.3034-0.4055-0.55505-1.2139-0.75811-2.4287l3.3356 0.0032c0.20325 0.1963 0.50622 0.4519 0.90979 0.7541l-0.90936 4.0987c3.5388 0.0991 6.3685-0.4073 8.4907-1.5176 0.20062-0.2027 0.40318 0.052 0.60668 0.758 1.0103 1.011 2.1748 2.3745 3.4879 4.0945-1.113 1.4163-1.6679 3.0335-1.6682 4.8555 2.4265 1.5159 4.6491 2.3231 6.6718 2.4259 0.91046-1.2128 2.2155-1.64 3.9424-1.5165 1.1102 0.0801 3.4361 0.1995 6.9747 0.6072l3e-4 -3.9453 0.75806 0.0027c1.5167 3.0295 3.4873 4.6453 5.9135 4.8514 1.1133 0.407 2.1748 0.4077 3.1841 7e-4 0.70655 0.607 1.3654 1.4141 1.9717 2.4256-2.4265 2.1233-2.7628 6.7798-0.90997 13.951 1.2828 4.9636 2.9326 9.2973 4.8522 13.044l1.0613 0.0022c0.1004-1.2168 0.35505-2.332 0.75806-3.342l0.75842 0.0031c0.60627 3.0298 2.3261 4.9519 5.1551 5.7588 0.60663 1.1099 0.91565 3.0862 0.75843 5.9131-0.14618 2.6296 0.00873 4.4817 0.75793 5.4597 0.56561 0.739 2.2747 1.7686 5.0038 3.1836l0.00158 150.57 0.60614 0.0027-1.8e-4 0.3003 8.947 0.0032 6e-5 75.66 7.885 0.0035-3e-4 -12.133 4.2452 0.0027 1.7e-4 17.886 9.4012 0.0029 0.90937-0.7615 6.7e-4 -4.094c2.3254-0.2007 4.3453-0.7065 6.0651-1.5156 0.2027 1.1123 0.70673 1.9185 1.5159 2.4255l-4.4e-4 -72.48c1.5167-0.8129 2.1751-4.9045 1.9718-12.286l9.8553 0.0038-1.8e-4 -0.1543 1.365 0.0019v-17.892c10.008-0.0993 22.493 0.8591 37.453 2.8775-0.60669-55.091-0.9104-96.438-0.91058-124.03l1.8199 0.0056c1.819-1.2185 5.6108-2.481 11.372-3.7957 5.7624-1.3149 10.31-1.9716 13.647-1.9716l-3.5e-4 -58.529 0.90935 0.0026v-0.9116l2.5811 0.0022 7.6e-4 54.585 0.75774 0.0022-2e-4 0.9075c1.7168-8e-4 4.0429 0.2539 6.9752 0.7578l-4e-4 4.0942c0.3033 0.4065 0.60683 1.2129 0.90957 2.4287 5.3589 0.0991 9.401 1.1614 12.131 3.1836 0.7062 1.21 1.1645 3.7905 1.3644 7.7329l-3.6e-4 14.255c-0.09955 4.7482-0.30585 10.462-0.6061 17.131l0.0017 102.5 5.0035 3e-3 -2e-4 -5.0076c2.1197-0.6062 8.1848-0.8574 18.196-0.7581l1.9e-4 -2.4262 10.308 0.0033 1.9e-4 -6.524-2.5782-0.909c-0.40631-0.3032-1.2642-0.5584-2.5808-0.7578v-19.56c5.9647-0.4067 11.12-0.4069 15.469-0.0016 1.5166 5.2563 3.9908 8.9978 7.4298 11.22 3.6361-2.9326 11.776-4.1941 24.413-3.791l-9.6e-4 -8.187c15.467-0.3042 25.878 0.1504 31.236 1.3638l-5e-4 -101.59 69.446-3.1844c4.2425 1.3129 13.487 6.2251 27.745 14.708 1.7117 1.0183 6.7719 3.1839 15.164 6.5208l2.5e-4 123.58c1.5164-0.9095 3.5906-1.5703 6.2169-1.9702 2.0226-0.3072 5.2068-0.7076 9.5526-1.2103v-20.319l12.282 0.0032 6.1e-4 -7.2822 17.437 0.0049-5e-4 -14.867 23.2 0.0033c1.8195 0.6006 5.2572 2.2133 10.307 4.8501 4.248 2.2181 7.888 3.589 10.921 4.0931l-2.5e-4 4.856 21.077 7.4292 6e-4 35.936 32.599 0.0022 2.7e-4 8.9433c1.9198 0.6067 4.5492 0.8577 7.885 0.7576 0.70603 0.406 1.8678 0.656 3.4874 0.759l-2.4e-4 51.402 11.372 0.0027 1.2e-4 5.7561 15.767 0.0032 1e-4 -3.3394 1.9769 0.0029 3.6e-4 -0.4572 1.6675 0.0026-2.5e-4 -52.77 2.7295 0.0039-0.00194-243.98c1.9198-0.809 5.6106-1.1095 11.066-0.9095l3.4e-4 -13.044 11.22 0.0033c0.60656-9.9078 0.90916-17.441 0.90906-22.594l12.737 0.00365-1e-4 -12.285v-6.3e-4z"/> </g> <g fill="#031624"> <path d="m240.37 1324.3q-68.102 0.1094-143.44 4.6814-79.929 3.8809-273.8 22.194l0.24042 147.93 8.8e-4 0.5305 0.09015 56.014c6e-4 0.3663 0.29746 0.6619 0.6633 0.6612l1430.6-2.2849c0.1758 0 0.3441-0.0699 0.4679-0.1944 0.1239-0.1245 0.1935-0.2927 0.1935-0.469l-0.0897-56.014-0.0921-57.576-130.79-21.921-183.32-25.286-456.93-53.64q-86.468-9.0843-124.24-11.026-56.697-3.7032-119.56-3.6027z"/> </g> <g fill="#fff"> <path d="m37.7 765.71-0.75998 10.596q-5.2115 32.01-29.894 51.106-24.853 19.08-58.401 15.304-32.01-5.2115-51.106-29.894-6.1182-7.9784-10.06-17.372l-3.3055-9.6544q-2.7152-9.9614-2.6983-20.778 0.98468-33.189 23.123-55.132 22.139-21.943 55.335-22.634 33.189 0.9845 55.132 23.123 21.943 22.139 22.634 55.335"/> </g> <g fill="#031624"> <path d="m621.24 1129.8-61.383-0.0696q-0.00563 9.8633-0.01683 19.727l-0.0058 7e-4q-0.2109 188.55-0.4276 377.1l61.383 0.3294q0.21674-188.68 0.43367-377.36l-0.0063 7e-4q0.0177-9.8642 0.02924-19.728z"/> </g> <g> <path d="m621.29 1093.9-61.384-0.0717q-0.02064 17.948-0.0413 35.896l61.377 0.0699q0.0271-17.947 0.04776-35.894z"/> </g> <g fill="#031624"> <path d="m169.12 614.88 847.95 0.975q-0.307 267.08-0.614 534.16-423.97-0.4861-847.95-0.9724l0.61337-534.16"/> </g> <g fill="#fff"> <path d="m200.41 634.64 785.32 0.9033-0.56799 494.7-785.32-0.8998 0.56793-494.71"/> </g> <g fill="#031624"> <path d="m239.85 838.58-4.8755 2.5021-6.0776 0.01584c-6.4179 0.0142-8.5597 0.4889-13.679 3.0384-4.1435 2.0198-8.7911 7.3921-8.806 10.163-0.00283 0.53479-0.54581 2.0392-1.185 3.3482l-1.2279 2.3272 0.9046 3.5541c1.6665 6.5727 4.993 11.841 11.522 18.246l3.9177 3.8131-0.02011 3.7438-0.02002 3.7436-2.1 1.7389c-2.1975 1.7876-8.9358 7.1483-12.695 10.045-2.2459 1.7381-5.2814 5.6598-6.2665 8.0376-1.0838 2.6683-2.4828 9.6617-2.9452 14.279-0.2587 2.9156-0.80695 5.441-1.4463 6.7988-1.7706 3.7828-1.2608 8.4529 1.5771 14.157 1.1546 2.2917 1.2492 2.7782 0.75568 4.1366-0.34497 0.8737-0.4505 2.4289-0.26206 3.5484 0.42356 2.6277-0.07156 4.2779-1.4352 4.7081-1.7042 0.4773-2.7803 1.6865-2.7877 3.0481-0.00808 1.5073 1.1969 3.4587 2.1693 3.4641 0.38901 0.00196 0.91929 0.83155 1.2055 1.854 1.0988 3.6524 2.8874 5.5578 7.4452 7.8673l4.2669 2.1621-0.36273 4.1796c-0.15811 2.2842-0.71649 6.7057-1.1706 9.766-1.1596 7.7246-1.2413 22.942-0.13428 25.039 0.38492 0.77991 1.0104 1.9989 1.2984 2.6811 0.33664 0.68227 1.2534 2.0004 2.0263 2.9281 1.933 2.1981 2.6542 3.7095 3.3193 6.63 0.33319 1.3144 0.81024 3.019 1.0976 3.8468 0.67069 1.8513 3.6131 6.2433 4.4856 6.7338 1.9873 1.1289 2.5522 4.5842 1.8368 11.046-0.51437 5.248 0.57343 10.942 3.883 19.372l1.1991 3.0692-1.0314 1.9396c-1.2279 2.2783-1.3439 5.7785-0.33928 8.8468 0.67 1.9972 0.61979 2.2884-0.26526 4.1316-2.9003 5.9157-5.4685 22.433-5.5402 35.803-0.03571 6.6611 0.37494 11.671 1.6355 21.402 0.23367 1.7515-0.81318 6.5597-2.7904 12.626-0.24759 0.8254-0.69943 3.4972-0.95592 5.9752-0.30496 2.4779-0.85437 5.1978-1.2967 6.0704-0.44229 0.8731-0.9415 3.3013-1.0988 5.4401-0.31442 4.2284-0.85388 5.1007-3.0904 5.0886-1.8474-0.0095-2.8269 1.2975-3.1836 4.3582-0.15375 1.4579-0.55642 4.0328-0.85724 5.7325-0.44989 2.2826-0.45461 3.1577-0.01931 3.598 0.72528 0.7333 0.71511 2.6291 0.0685 5.3487-1.7399 7.1378-5.4742 23.502-6.6221 29.039-0.14947 0.6801-0.54599 2.0881-0.84347 3.1561-0.29749 1.0675-0.8451 3.4479-1.1956 5.3416-0.39886 1.8451-1.2464 5.7791-1.9429 8.7417-0.64774 2.9135-1.7937 8.0611-2.541 11.412-0.74726 3.3513-1.7924 7.8675-2.2903 10.052-0.54651 2.1853-1.5923 6.7984-2.2913 10.198-0.7475 3.3997-1.496 6.9937-1.6954 7.9165-0.24811 0.922-0.64828 3.0108-0.99722 4.6134-0.30026 1.6029-0.74832 3.5446-0.99582 4.3703-0.29584 0.776-1.143 4.6126-1.9903 8.4978-1.3952 6.3134-1.9437 8.8385-3.4881 15.783-0.24878 1.0682-0.74731 3.35-1.1943 5.0982-0.39828 1.7483-0.99585 4.3705-1.2953 5.8276-0.34811 1.4569-1.0957 4.856-1.7421 7.5268-1.0939 4.5159-4.3312 18.89-4.8806 21.61-0.14954 0.6798-0.84708 3.8361-1.5936 7.0414-1.9419 8.5464-3.7353 16.559-4.484 20.153-0.5979 2.7196-2.0418 9.0329-3.731 15.782-0.24888 1.0685-0.94605 4.1275-1.5438 6.7985-1.745 8.0613-1.8938 8.6435-2.6893 11.897-1.9407 8.3039-6.2739 27.534-6.7253 30.108-0.24966 1.2141-0.64722 2.8163-0.89465 3.6411-0.29587 0.7769-0.74407 2.7675-1.0932 4.3703-0.30013 1.6032-0.89776 4.2255-1.3438 5.8275-1.1428 4.5641-1.4419 5.9243-2.8866 12.382-1.5455 7.1393-4.1328 18.162-5.2249 22.337-0.84282 3.0583-2.3866 9.8563-3.4329 14.567-0.54828 2.5255-1.2961 5.9735-1.6943 7.6728l-0.74539 3.0103 26.011 0.1398 0.79559-3.3018c0.39859-1.7968 0.89704-4.0792 1.0968-5.0503 0.20169-1.3605 0.59354-1.8933 1.3725-2.0837 0.58389-0.0943 11.574-0.3752 24.41-0.5983 12.837-0.2237 33.065-0.6494 44.979-0.9744 37.735-1.0622 56.65-1.3492 57.085-0.909 0.19308 0.2444 0.3224 3.3566 0.15692 7.0025l-0.22989 6.6107 19.156 0.1022 0.25688-2.5752c0.15319-1.3609 0.56759-6.1232 0.83447-10.546 0.31545-4.4227 0.78219-9.8655 1.0376-12.149 0.5083-4.1296 0.71673-6.7051 2.6426-30.373 1.821-22.258 2.0846-26.098 2.6568-33.048 0.57865-8.1646 1.2521-15.892 2.3379-27.943 0.41552-4.9571 0.98745-11.858 1.249-15.308 0.26187-3.4994 0.8341-10.498 1.2987-15.552 0.41648-5.1022 1.247-14.919 1.8191-21.869 0.52356-6.9495 1.2511-15.697 1.5628-19.439 0.31183-3.7424 0.93695-11.518 1.3568-17.253 0.41959-5.7344 0.99561-13.413 1.2579-17.01 0.26239-3.597 0.8342-10.498 1.2976-15.309 0.87776-9.5249 1.5024-17.204 2.3367-27.701 0.26321-3.7421 0.72937-9.0878 1.0362-11.906 0.51202-4.8108 2.5897-29.597 3.6367-43.496 0.26184-3.4986 0.72936-9.088 1.0876-12.441 0.51511-5.3943 0.47129-6.2695-0.20208-7.6343-0.52933-1.0243-0.76303-2.7759-0.74875-5.4496 0.01745-3.2574-0.17209-4.1822-0.9924-5.3537-1.1585-1.5622-1.1577-1.7079 0.28323-16.529 0.46145-4.4215 1.0828-11.517 1.3976-15.794 0.3632-4.2768 0.83118-9.9632 1.0887-12.636 0.25743-2.6727 0.6735-7.7265 0.98375-11.177 0.26193-3.4991 0.62082-6.9494 0.81915-7.6774 0.29935-1.4085 0.72-7.3382 1.7863-24.835 0.5318-8.5062 0.48968-9.7217-0.13849-10.454-0.43487-0.4886-0.76947-1.5597-0.76511-2.3861 0.00736-1.3616-0.186-1.5572-1.7889-1.8575-1.0204-0.1513-3.0599-0.5998-4.565-0.9971-3.8842-0.9931-4.3223-0.8984-4.3299 0.5118-0.00364 0.6804-0.3512 2.0403-0.7454 3.0105-1.0342 2.4255-1.8022 9.6655-3.3305 31.731-0.26529 4.1317-0.78421 10.255-1.0453 13.608-0.30963 3.3531-0.77841 9.1365-1.0415 12.879-0.5214 6.5605-1.6129 19.682-2.5992 31.346-0.25953 3.0618-0.62495 7.7273-0.83347 10.352-0.20835 2.5759-0.60963 4.9073-0.90259 5.1002-0.43954 0.3864-9.1952 1.1178-25.246 2.1979l-4.3289 0.3175 0.15213-1.1659c0.25314-1.8953-0.89948-4.5265-2.6407-6.2378-1.6445-1.6133-1.79-1.663-7.282-2.0327-6.8526-0.523-8.3572-1.0171-12.668-4.1034-4.6496-3.331-5.5671-4.5026-5.5536-7.0307 0.00905-1.7022-0.3273-2.4332-1.6802-3.9955-1.595-1.7594-1.8775-3.4621-0.66213-3.4555 0.2431 0.0011 0.58548-0.3863 0.78265-0.8711 0.14813-0.4369 0.54102-1.1641 0.88342-1.5513 0.78336-1.0172 1.7503-9.0826 1.7832-15.209 0.01955-3.6465 0.32387-5.9786 0.9677-8.163 0.54385-1.6987 1.3423-5.5354 1.7475-8.5476 0.55544-3.8382 1.1515-6.2175 2.0847-7.9627 1.0814-2.1822 1.2316-3.0079 1.0505-5.4884-0.13228-2.5292 0.0175-3.2575 0.99953-5.0511 0.68667-1.1146 1.4703-2.18 1.8119-2.4214 1.561-0.9638 4.4039-5.2271 5.0482-7.5089 0.34794-1.4082 0.90812-6.1211 1.1749-10.544 0.47956-7.8252 1.1898-13.315 2.0806-16.276 0.3962-1.3595 0.7463-3.1562 1.9535-10.686 1.4577-8.8894 1.4788-12.827 0.10704-19.934-0.2844-1.3628-0.656-4.6224-0.8847-7.2976-0.2772-2.6758-0.69957-5.547-0.98653-6.4232-0.2872-0.82815-0.47473-2.1419-0.37329-2.9191 0.10306-1.0692 0.44516-1.4078 1.5643-1.5963 2.2385-0.37684 2.5353-1.2992 1.7334-5.9222-0.51773-3.1628-0.59232-7.3934-0.33115-19.839 0.45914-22.169 0.46977-33.205 0.05441-37.34l-0.32162-3.5024 1.3128 0.00684c0.77783 0.0043 1.8945 0.30237 2.5734 0.64624 2.9578 1.5232 13.979 4.3047 17.14 4.3218 3.3059 0.0177 3.6474-0.1748 10.583-6.1179 10.697-9.1801 12.458-11.116 18.194-19.982 2.3532-3.5852 2.3532-3.5852 5.642-9.4509 4.0257-7.2224 4.5644-7.949 6.755-8.4724 6.2807-1.6193 13.896-7.3642 13.914-10.573 0.00408-0.77793 0.25172-1.6031 0.4956-1.7478 0.7319-0.4824 0.60192-3.4488-0.22095-4.1338-0.96823-0.78305-0.9136-1.9011 0.11335-3.0138 0.6849-0.77443 0.73552-1.1631 0.25677-2.5271-0.33563-0.87683-0.57255-2.0449-0.56965-2.5798 0.00312-0.5834-0.57534-1.5105-1.3018-2.049-2.3725-1.8116-2.566-2.007-2.5598-3.174 0.00314-0.58315-0.52614-1.6073-1.2035-2.2429-1.0158-0.97791-1.5014-1.0778-3.4964-0.79686-2.0922 0.2806-2.7261 0.66624-6.1478 4.0512-2.1016 2.031-4.1074 4.354-4.4522 5.1787-0.34454 0.776-0.99227 3.6897-1.4445 6.4101-0.90483 5.5378-1.7392 6.9923-7.7056 13.475-1.7606 1.9356-4.5972 5.0319-6.2607 6.9677-2.9348 3.2904-9.6271 9.1376-12.31 10.776-0.68305 0.43393-3.1223 1.9767-5.464 3.4715-2.3418 1.4943-4.7793 2.6966-5.3141 2.6938-0.5834-0.00304-2.2807-0.8386-3.734-1.8187-1.502-0.9801-3.78-2.3053-5.0408-2.9441-1.2606-0.63916-3.3446-1.9143-4.6034-2.8934-1.2591-0.93042-3.1487-2.1564-4.2155-2.6972-1.2124-0.5896-2.906-2.1063-4.4032-3.9614-5.7463-7.3728-8.116-9.719-11.945-11.976-3.1019-1.8156-3.7793-2.4025-3.774-3.4235 0.01373-2.5772-4.3488-5.0314-8.9676-5.056-2.1875-0.01187-3.9236-2.6953-3.52-5.4157 0.10052-0.63145 0.8837-1.5998 1.762-2.1784 3.0742-2.0742 6.837-5.6034 7.4273-6.9129 0.49301-1.2614 0.39776-1.6509-1.2414-4.2366-1.2533-2-1.8287-3.5102-1.9181-4.9694-0.091-1.1674-0.47268-2.5308-0.85922-2.9706-1.015-1.1234-0.96384-1.6096 0.25998-3.1588 1.4686-1.8398 0.89032-2.8151-2.8909-4.8774-2.6176-1.4727-3.924-2.6464-6.1451-5.5271-1.5938-2.0021-2.8966-3.8565-2.9924-4.1003-0.09604-0.24366 0.68838-1.455 1.7649-2.7133 2.6428-3.2431 3.6275-5.5229 3.4479-8.2953-0.13498-2.0428-0.27945-2.2868-1.3486-2.3898-0.68011-0.10087-3.2624 0.90615-6.0417 2.3986zm76.406 358.2c-0.64246 10.985-1.8391 25.612-2.8613 34.894l-0.35739 3.1587-3.6478 0.272c-1.9944 0.1839-7.1499 0.4966-11.43 0.7653-4.2801 0.269-10.409 0.7221-13.619 0.9483-6.4205 0.4996-13.716 0.9468-36.964 2.3297-8.5597 0.4886-18.19 1.0692-21.4 1.2952-3.2099 0.1768-5.9816 0.2105-6.175 0.0155-0.19348-0.1956-0.03814-1.9452 0.36148-3.9366 0.39958-1.9913 0.94921-4.7596 1.1993-6.0713 0.25049-1.3601 1.2978-6.2652 2.2953-10.927 0.9974-4.6622 1.9963-9.616 2.2464-10.927 0.29911-1.3595 0.7999-4.0798 1.1997-6.1197 1.1007-5.7796 0.90543-5.635 6.9848-5.9911 10.797-0.5742 21.4-1.3436 38.327-2.7119 8.6096-0.7316 12.598-1.0017 28.211-2.0365 4.28-0.2683 8.1225-0.5396 8.512-0.6344 0.38946-0.0956 2.2376-0.1824 4.0853-0.2215l3.355-0.0308-0.32345 5.9301zm-4.6456 50.297c0.28747 0.7794-0.51465 14.388-1.4962 25.177-0.2588 2.916-0.72585 8.4078-1.0376 12.15-0.78378 10.157-0.88342 10.594-2.9278 11.021-0.92473 0.1897-6.4208 0.549-12.159 0.8105-5.7389 0.309-13.715 0.7035-17.751 0.8766-19.599 1.0134-26.505 1.3651-35.259 1.7554-5.2033 0.2149-12.304 0.6145-15.806 0.8389-14.737 1.0393-17.752 1.072-18.039 0.2437-0.14346-0.4385 0.21076-3.0132 0.80866-5.7331 0.94801-4.5163 1.5466-7.333 2.9961-14.715 0.29918-1.3602 0.69844-3.303 0.94725-4.3712 0.24884-1.0683 0.79818-3.7879 1.2481-6.0702 1.9483-9.7135 3.4398-15.831 3.9286-16.316 0.53733-0.4835 11.335-1.3006 38.28-2.9548 4.1338-0.2209 9.9703-0.6274 12.889-0.9027 2.9671-0.2279 9.387-0.6313 14.348-0.8959 4.9604-0.2164 12.693-0.6122 17.216-0.8312 4.5229-0.2187 8.317-0.539 8.4636-0.6837 0.63519-0.58 3.064-0.1781 3.3516 0.6015zm-5.0576 63.664c-0.01122 2.0907-0.2236 5.444-0.5261 7.4356-0.2537 1.9924-0.71714 6.8035-1.0298 10.692-0.31263 3.8882-0.77873 9.2336-1.0362 11.906-0.25751 2.6732-0.72244 7.776-1.0332 11.323-0.31104 3.596-0.76633 6.8997-1.0119 7.3849-0.58933 1.0662-2.4867 1.299-16.784 1.8542-5.5928 0.2616-16.875 0.7365-25.045 1.0815-8.17 0.3452-19.55 0.8185-25.288 1.0311-5.7387 0.261-11.429 0.5222-12.645 0.6612-5.157 0.6048-28.303 1.2097-28.69 0.8188-0.38688-0.3911 1.0164-8.2113 3.008-16.953 0.24875-1.0683 0.69811-3.2533 0.99823-4.8075 0.30023-1.6029 0.6484-3.0596 0.79562-3.3019 0.14682-0.1937 0.4451-1.4077 0.69522-2.7191 0.24988-1.263 0.79846-3.8363 1.1974-5.6825 1.1939-5.0496 2.1424-9.6632 2.9951-14.52 0.45035-2.3801 1.0453-4.5166 1.3868-4.7577 0.34134-0.1929 2.6274-0.3753 5.0099-0.3621 4.5215 0.0242 15.075-0.5025 26.505-1.3169 3.5994-0.2719 12.597-0.7585 19.94-1.1078 17.264-0.8314 30.055-1.492 36.475-1.9434 2.8209-0.1797 7.1494-0.3994 9.6291-0.4342l4.4732-0.0254-0.02015 3.7436zm-5.4452 63.42c-0.1521 1.1658-0.61875 6.5601-1.0372 12.052-0.41849 5.492-0.9899 12.344-1.2974 15.308-0.2588 2.916-0.61927 6.658-0.72498 8.2617-0.83957 11.47-1.5583 18.564-2.0471 19.048-0.39132 0.4357-4.2339 0.7547-12.209 1.0527-6.4191 0.2082-16.388 0.641-22.127 0.853-5.7386 0.2615-16.486 0.6414-23.829 0.893-7.343 0.2522-18.819 0.6282-25.53 0.8356-20.765 0.7639-32.921 0.9906-33.406 0.6965-0.5329-0.3435-0.17118-4.3282 0.62109-6.9984 0.54467-1.8441 2.2871-9.4194 2.9363-12.624 0.29904-1.3604 1.3459-6.1674 2.3425-10.684 0.99676-4.5651 1.9941-9.2278 2.2438-10.441 0.35074-1.9434 1.1979-5.7797 2.4437-11.461 0.24887-1.0689 0.6944-2.5249 1.0386-3.2526 0.59021-1.2606 0.73626-1.3084 4.5285-1.2884 3.8409 0.0205 12.984-0.4164 28.012-1.3567 4.1341-0.2702 12.353-0.6635 18.237-0.8751 22.37-0.8518 32.777-1.2824 38.662-1.6398 3.3558-0.1766 9.5318-0.386 13.713-0.3635l7.6822-0.0567-0.25395 2.0408zm-6.3616 71.097c-0.10878 2.1385-0.47603 7.1444-0.88646 11.178-0.36178 3.9852-0.82739 9.2342-1.035 11.663-0.63204 9.0895-2.9409 31.588-3.2344 31.926-0.39083 0.3379-28.887 1.1571-84.465 2.3176-11.476 0.2787-25.334 0.5934-30.78 0.7593-5.3978 0.1649-10.065 0.1881-10.308 0.1387-0.72796-0.2471-0.57211-2.0938 0.47278-6.5608 0.94488-3.9332 2.0897-8.8864 3.088-13.694 0.29895-1.3601 0.84702-3.8362 1.2454-5.5848 1.3926-5.8267 1.6422-7.0408 1.8944-8.741 0.15091-0.9233 1.149-5.7318 2.2452-10.685 1.0476-4.9533 2.0944-9.7613 2.2457-10.781 0.19974-0.9715 0.69079-1.8921 1.1781-2.0841 0.43857-0.1925 3.4543-0.4192 6.6639-0.548 3.2093-0.08 11.962-0.3247 19.451-0.576 7.489-0.2516 19.403-0.6259 26.502-0.782 11.768-0.3262 20.667-0.6674 45.955-1.6497 4.8142-0.1683 11.282-0.328 14.344-0.2632l5.5909 0.0784-0.16667 3.8888z"/> </g> </svg>