<?xml version='1.0' encoding='utf-8'?>
<svg xmlns="http://www.w3.org/2000/svg" width="1663px" height="1187px" version="1.1" viewBox="-292 455 1663 1187"> <g fill="#00aec7"> <path d="m-292 454.16c-0.22257 0-0.43604 0.08844-0.59342 0.24582s-0.24582 0.37085-0.24582 0.59342l0.00101 1187c0 0.4635 0.37573 0.8392 0.83923 0.8392l1663 1e-3c0.2225 0 0.436-0.0885 0.5934-0.2458 0.1573-0.1574 0.2458-0.3709 0.2458-0.5934l-1e-3 -1187c0-0.4635-0.3757-0.83923-0.8392-0.83923l-1663-0.00101z"/> </g> <g> <g fill="#f9fdff" fill-opacity=".19216"> <path d="m576.01 684.62-59.483 3.68q-116.7 11.666-215.31 57.748-49.302 23.041-94.077 54.688-25.726 10.955-123.13 113.28-180.32 228.83-143.2 505.76l1270.2-0.0095q37.336-276.94-143.05-505.76-188.41-221.23-491.99-229.39z"/> </g> <g fill="#0f3b52" fill-opacity=".64314"> <path d="m104.74 1419.5 455.62 0.0023 455.54-1e-4q3.7e-4 3.0486 4.9e-4 6.0964-455.54 0.0013-911.16 0.0021 6e-5 -3.0506 1.8e-4 -6.1007"/> </g> <g fill="#222b32"> <path d="m383.63 1035.5 8.7607 0.0012 8.7605-4e-4q-5e-5 21.066-5e-5 42.132-8.7605 7e-4 -17.521 7e-4 0-21.067 3e-5 -42.134"/> <path d="m225.76 1035.5-8.7605 8e-4 -8.7605-8e-4q-3e-5 21.066-2.2e-4 42.132 8.7606 5e-4 17.521 5e-4 0-21.066 9e-5 -42.133"/> <path d="m342.14 1383.9 48.017-0.0077q0.00366 20.153 0.0069 40.307-24.009 0.0042-48.017 0.0085-0.00348-20.154-0.0069-40.308"/> <path d="m292.07 1017.1 19.981-0.92386q1.6808 36.36 3.3617 72.72-9.9907 0.462-19.981 0.9241-1.6808-36.36-3.3615-72.72"/> </g> <g fill="#d4eff0"> <path d="m353.48 984.04-0.83533 6.9212q-4.5487 20.816-22.251 32.563-17.82 11.731-41.017 8.2134-22.088-4.4109-34.639-21.181-4.0197-5.4189-6.4859-11.698l-2.0167-6.4299q-1.5975-6.613-1.2721-13.701 1.6464-21.72 17.663-35.412 16.017-13.692 39.1-13.112 23.03 1.6769 37.633 16.868 14.603 15.191 14.121 36.968"/> </g> <g fill="#222b32"> <path d="m339.74 984.62-0.29358 3.4892q-2.3623 10.573-14.687 17.123-12.411 6.546-29.417 5.6819-16.241-1.3534-26.114-9.247-3.164-2.5518-5.2392-5.5938l-1.7554-3.1343q-1.459-3.2414-1.5432-6.7946 0.21345-10.914 11.227-18.37 11.013-7.456 27.803-8.0548 16.801-0.0491 28.093 6.9775 11.292 7.0256 11.926 17.923"/> </g> <g fill="#00bce9"> <path d="m327.95 980.25-0.0251 0.9415q-0.3341 2.8577-2.4454 4.6485-2.1264 1.7903-5.1143 1.5891-2.8574-0.33387-4.6482-2.4452-1.7901-2.1264-1.5895-5.1143 0.33422-2.8576 2.4455-4.6481 2.1263-1.7902 5.1142-1.5892 2.8577 0.33399 4.6483 2.4452 0.57409 0.68236 0.96087 1.4992l0.33143 0.8425q0.28034 0.87185 0.32214 1.8309"/> <path d="m289.41 983.67-0.02521 0.94262q-0.14832 1.2699-0.64771 2.3288-0.70135 1.278-0.94685 1.4704-0.38158 0.45094-0.85057 0.849-0.94495 0.79564-2.0602 1.1976-1.4313 0.4172-1.7686 0.3822-0.62147 0.0536-1.2855 0.0095-0.35035 0.0176-1.7866-0.4209-0.55585-0.2054-1.0592-0.4995-1.0068-0.5869-1.8024-1.5251-1.5912-1.8904-1.6094-4.4607 0.01233-1.3308 0.44031-2.4404 0.20575-0.55563 0.49945-1.0592l0.31549-0.4897q0.33763-0.4775 0.76288-0.90157 0.17695-0.26819 1.4346-1.1086 0.51526-0.2991 1.0728-0.50025 1.1154-0.40225 2.4008-0.4115 1.3304 0.01255 2.44 0.44018 0.31061 0.04837 1.5492 0.81543 0.477 0.33764 0.9013 0.76284 0.86018 0.8611 1.372 1.9466 0.56183 1.1319 0.65345 2.6723"/> </g> <g fill="#d4eff0"> <path d="m363.74 1039.8-125.01 0.0011 0.0029 107.25q6.0778 9.0292 12.826 15.984 4.8742 5.7995 17.914 14.147l67.349-0.0061q15.763-9.5003 26.918-25.422l-0.0042-111.95z"/> <path d="m363.58 1018.3 12.998 6.3e-4 12.998-4.8e-4q2e-5 67.698-3e-5 135.4-12.998 5e-4 -25.995 7e-4 4e-5 -67.698 4e-5 -135.4"/> </g> <g fill="#222b32"> <path d="m343.18 1108.2-0.29363 3.4888q-0.5251 2.3503-1.5418 4.5017-0.20093 1.199-4.1576 6.0046-3.5098 3.7058-8.9874 6.617-2.7579 1.4541-5.7427 2.5432-7.6608 2.4014-9.4655 2.4431-6.6505 1.0791-14.209 0.6956-7.2179-0.6016-13.178-2.4949-2.9803-0.9468-5.646-2.2166-6.3893-3.4565-7.2899-4.5354-9.8104-8.5036-8.357-17.906 0.62805-4.6797 3.3898-8.6762 1.3806-1.9986 3.2946-3.8256 0.65479-1.0415 6.8799-5.0574 10.36-5.9504 25.284-6.4826 3.7334-0.011 7.1951 0.3274 1.9007-0.0491 9.7724 1.802 6.1068 1.7255 11.126 4.8479 2.5093 1.5612 4.4923 3.3137 1.3206 0.7571 4.765 5.6881 2.3872 4.0781 2.6689 8.9211"/> </g> <g fill="#00bce9"> <path d="m289.74 1106.1v8e-4l4.6412-0.0953 0.08313 4.0718-4.6414 0.0943zm11.603-0.2363v7e-4l4.6414-0.0949 0.08301 4.0715-4.6412 0.0947zm11.603-0.2363v2e-4l4.6412-0.0947 0.08288 4.0715-4.6412 0.0947zm11.603-0.2366v1e-3l4.6414-0.0957 0.08276 4.0725-4.6411 0.0942zm-46.413 0.9458v2e-4l4.6414-0.0947 0.08288 4.0718-4.6412 0.0947z"/> </g> <g fill="#d4eff0"> <path d="m245.81 1020.9-12.998 0.0011-12.998-5e-4q5e-5 67.698 1.4e-4 135.4 12.998-6e-4 25.995 1e-4 -9e-5 -67.698-1.3e-4 -135.4"/> </g> <g fill="#222b32"> <path d="m258.39 1165.2 44.987 5e-4 44.987-2e-4q0 8.0691 0 16.138-44.987 2e-4 -89.975 2e-4 0-8.0698 0-16.139"/> </g> <g fill="#d4eff0"> <path d="m267.4 1179.2 35.575 5e-4 35.574 0.0012q0 28.304 6e-5 56.607-35.575 5e-4 -71.149 1e-3 -6e-5 -28.305-6e-5 -56.61"/> </g> <g fill="#222b32"> <path d="m334.77 1200.4 32.23 1e-3q0 30.495-9e-5 60.989-16.115 4e-4 -32.229 6e-4 -2e-5 -30.495-2e-5 -60.991"/> </g> <g fill="#d4eff0"> <path d="m345.53 1198.9 19.767 2e-4 19.768 0.0013q-9e-5 96.484 3e-5 192.97-19.768 8e-4 -39.535 9e-4 0-96.486 9e-5 -192.97"/> </g> <g fill="#222b32"> <path d="m268.63 1200.4-16.115 8e-4 -16.115 5e-4q0 30.494-9e-5 60.989 16.115 0 32.23 5e-4 0-30.495 0-60.991"/> </g> <g fill="#d4eff0"> <path d="m257.86 1198.9-19.768 5e-4 -19.768 2e-4q1.1e-4 96.485 1.4e-4 192.97 19.768 4e-4 39.535 4e-4 -6e-5 -96.486-6e-5 -192.97"/> <path d="m356.49 1368 9.5032 7e-4 9.5035-7e-4q6e-5 24.43 6e-5 48.861-9.5031 0-19.007 1e-4 0-24.431-5e-5 -48.861"/> </g> <g fill="#222b32"> <path d="m216.3 1385.5 24.009-0.0046 24.009-0.0042q0.00354 20.154 0.0069 40.307-24.009 0.0054-48.017 0.0089-0.00348-20.153-0.00714-40.307"/> </g> <g fill="#d4eff0"> <path d="m230.64 1369.7 9.5033 2e-4 9.5035-2e-4q2.5e-4 24.43 2.5e-4 48.861-9.5036 0-19.007 0 0-24.431-5e-5 -48.861"/> </g> <g fill="#222b32"> <path d="m341.06 1299.7 49.877 0.0012q0 10.758 0 21.516-24.939 2e-4 -49.877 8e-4 1.2e-4 -10.759 1.2e-4 -21.518"/> <path d="m213.66 1303.1 49.877 1e-4v21.517l-49.877 9e-4v-21.518"/> </g> <g fill="#d1eeef"> <path d="m396.96 1046 12.992 1.2839 12.992 1.2841q-3.284 33.241-6.5681 66.482-12.992-1.283-25.984-2.5657 3.2842-33.242 6.5686-66.484"/> <path d="m373.13 1148.3-5.1164-12.009-5.116-12.009q19.383-8.2591 38.767-16.518 5.1173 12.008 10.235 24.017-19.385 8.2595-38.769 16.519"/> </g> <g fill="#222b32"> <path d="m415.4 1113.4 0.85925 1.0923q2.3138 3.5574 1.606 7.5794-0.7261 4.0344-4.3057 6.6225-3.5573 2.3137-7.5788 1.6062-1.2947-0.2336-2.5033-0.7956l-1.1701-0.6433q-1.1397-0.7254-2.0903-1.7735-2.8271-3.2995-2.6159-7.3728 0.211-4.0732 3.3635-7.0625 3.2992-2.8271 7.3723-2.6159 4.073 0.2106 7.063 3.3632"/> <path d="m419.44 1050.2-0.0982 1.4595q-0.69813 4.4111-4.0854 7.0557-3.4105 2.6426-8.0326 2.1431-4.4109-0.6983-7.0556-4.0853-0.8474-1.0947-1.3957-2.3859l-0.46112-1.3277q-0.38007-1.3701-0.38434-2.8594 0.11548-4.5706 3.1506-7.6058 3.0351-3.0349 7.6058-3.1506 4.571 0.1157 7.6061 3.1506 3.035 3.0352 3.1505 7.6058"/> </g> <g fill="#fff"> <path d="m324.26 1126.1v2e-4 0.0012q-7.9409-0.0012-15.882-0.0012l15.882-2e-4"/> </g> <g fill="#222b32"> <path d="m364.4 1118.3 7.4846-0.5049q1.1486 17.015 2.2967 34.03-3.7422 0.2531-7.4842 0.5056-1.1486-17.015-2.297-34.03"/> </g> <g fill="#d1eeef"> <path d="m260.62 1149-10.819-1.1233-10.82-1.1223q-0.31036 2.9929-0.62121 5.9854 10.819 1.1239 21.639 2.2462 0.31037-2.9931 0.6211-5.986"/> <path d="m261.24 1137.3-21.639-2.2456-0.62122 5.9853 21.638 2.2461 0.62135-5.9858"/> <path d="m262.27 1124.5-21.639-2.2459q-0.31055 2.9925-0.62127 5.9859 10.819 1.1231 21.639 2.2458 0.31048-2.9931 0.62121-5.9858"/> <path d="m235.87 1149.4 5.116-12.009 5.1165-12.009q-19.383-8.2592-38.767-16.518-5.1175 12.008-10.235 24.017 19.384 8.2592 38.769 16.519"/> </g> <g fill="#222b32"> <path d="m244.6 1119.4-3.7424-0.2522-3.7422-0.2527q-1.1486 17.015-2.2969 34.03 3.7426 0.2527 7.4844 0.5055 1.1485-17.015 2.2971-34.031"/> <path d="m193.61 1114.5-0.85931 1.092q-2.3138 3.5574-1.6059 7.5789 0.72583 4.0351 4.3052 6.6228 3.5574 2.3144 7.5792 1.6064 1.2945-0.2339 2.5033-0.7956l1.1697-0.6436q1.14-0.7253 2.0906-1.7734 2.827-3.2996 2.616-7.3723-0.21118-4.0733-3.3635-7.0628-3.2995-2.8266-7.3725-2.616-4.0733 0.211-7.0628 3.3636"/> </g> <g fill="#d1eeef"> <path d="m212.04 1047.1-25.984 2.5678q3.2841 33.241 6.5684 66.482 12.992-1.2827 25.984-2.5656-3.2846-33.242-6.5686-66.484"/> </g> <g fill="#222b32"> <path d="m189.57 1051.3 0.0982 1.4595q0.69825 4.4113 4.0853 7.0556 3.4106 2.6426 8.0325 2.1431 4.411-0.698 7.0557-4.085 0.84741-1.0949 1.3958-2.3857l0.46112-1.3281q0.38007-1.3699 0.38422-2.8592-0.11526-4.5709-3.1504-7.6056-3.0352-3.0354-7.6061-3.1511-4.5709 0.116-7.6057 3.1509-3.0352 3.0349-3.1506 7.6056"/> </g> <g fill="#ec9a5e"> <path d="m364.11 1140.7-22.732 4.6808-2.7704 4.5251q-9.5851 15.793-12.284 22.048-1.9859 4.2381-3.3442 8.2481l-1.1564 3.9355q-0.97723 3.8714-1.0578 7.4148l0.18848 3.4461 0.64166 3.0178q0.87274 2.9346 2.5205 5.4914 1.6478 2.5567 3.9223 4.6961l2.3941 2.0237q2.5323 1.9143 5.4689 3.3491 2.9366 1.4347 6.1288 2.3492 1.39 0.6473 6.4457 1.1856 1.3319 0.1418 2.9183 0.2756 3.9513 0.0808 7.2595-0.5349 3.4387-0.6132 6.6014-1.8778l3.0551-1.4192q6.0107-3.1726 9.6784-8.6938 1.7951-2.7522 2.7722-6.0432l0.73377-3.418 0.26068-3.6686q0.01739-3.7952-0.77605-8.0124-1.6678-8.4766-5.6057-18.136-2.7303-7.1276-11.264-24.884z"/> </g> <g fill-opacity=".10588"> <path d="m351.68 1143.3-10.307 2.1216-2.7704 4.5251q-9.5851 15.793-12.284 22.048-1.9859 4.2381-3.3442 8.2481l-1.1564 3.9355q-0.97723 3.8714-1.0578 7.4148l0.18848 3.4461 0.64166 3.0178q0.87274 2.9346 2.5205 5.4914 1.6478 2.5567 3.9223 4.6961l2.3941 2.0237q2.5323 1.9143 5.4689 3.3491 2.9366 1.4347 6.1288 2.3492 1.3903 0.6473 6.4462 1.1858 0.4173 0.0442 0.8595 0.0879-1.3285-0.4194-2.5436-0.8652-9.9248-3.4022-12.938-12.123-0.90852-3.1998-0.83503-6.9544-0.4018-1.6934 1.8466-11.964 0.33464-2.1096 4.1652-12.498l12.582-29.338q0.03655-0.0991 0.07268-0.1977z"/> </g> <g fill="#fff"> <path d="m359.59 1171.7-2.5e-4 0.0015-3e-4 -0.0015 3e-4 0.0015 2.5e-4 -0.0015z"/> <path d="m359.24 1184.4v5e-4 -5e-4 5e-4 -5e-4 5e-4 -5e-4 5e-4l-1.3e-4 -5e-4 -3.5e-4 5e-4 3.5e-4 -5e-4v5e-4z"/> <path d="m359.77 1164.9-1.4872-0.0407-0.06781 2.4639q-2.6476 0.4165-4.3155 2.3052-1.6684 1.9103-1.8353 4.8818-0.12702 3.4565 1.1534 5.1802 0.90412 1.5713 4.5564 3.6506l-0.21765 7.9036q-0.78979-0.1375-1.6022-1.2908-0.52393-1.105-0.32373-2.8867l-3.8832-1.0425-0.05896 2.3498q0.07293 2.5384 1.4398 4.4407 1.8341 2.4016 4.309 2.7632l-0.07013 2.5493 1.487 0.0408 0.06909-2.5061q2.0997-0.0576 4.4006-2.3032 1.7362-2.0568 1.8788-4.9228 0.1167-3.4614-0.97376-4.7895-0.61682-1.3411-4.8647-4.0037l0.21997-7.9873q0.84112 0.1377 1.7044 1.3071 0.5575 1.1316 0.3478 2.9161l3.8831 1.0427 0.02833-1.02q0.26593-2.733-0.82593-4.8394-1.8795-3.1582-5.0186-3.7407l0.06689-2.4216zm-1.6743 6.7574-0.1919 6.9683q-0.44381-0.3528-0.78586-0.7466l-0.31646-0.4041-0.26532-0.4248-0.2146-0.445-0.16358-0.4656-0.11267-0.4871-0.06152-0.5068-0.01068-0.5283 0.03923-0.5064 0.08827-0.4621 0.13757-0.4178 0.18666-0.3733 0.2357-0.3291q0.521-0.6132 1.4352-0.8713m1.141 12.661 0.44552 0.3385q0.83686 0.7028 1.2394 1.6211l0.17443 0.4721 0.11995 0.4995 0.06572 0.5259 0.01148 0.5527-0.04132 0.532-0.09351 0.4807-0.14569 0.4305-0.19788 0.3793-0.25 0.3284q-0.55206 0.6065-1.5214 0.8065l0.1933-6.9672z"/> </g> <g fill="#ec9a5e"> <path d="m365.51 1095.8q-2.0382-0.217-9.1517 2.2599-6.835-2.3525-9.4097-2.6263-0.20789-0.022-0.38794-0.031-3.6646-0.3335-4.9079 1.2608-0.8609 0.8382-1.0503 3.1426l0.01915 1.7239q0.13068 1.8679 0.62622 4.2073 1.0926 5.6586 6.239 19.952l1.1348 3.1646 13.744 4.5018q6.4548-20.918 7.014-25.47 0.49085-2.5977 0.65081-4.6917l0.05914-1.9409q-0.03344-1.7903-0.5058-2.9541-0.6684-2.1338-3.6695-2.4531-0.11888-0.0129-0.2418-0.023-0.07667-0.0134-0.16248-0.0227z"/> </g> <g fill-opacity=".10588"> <path d="m346.95 1095.4q-0.20789-0.022-0.38794-0.031-3.6646-0.3335-4.9079 1.2608-0.8609 0.8382-1.0503 3.1426l0.01915 1.7239q0.13068 1.8679 0.62622 4.2073 1.0926 5.6586 6.239 19.952l1.1348 3.1646 5.9986 1.9648q1.2089-12.154-2.3205-34.088-3.6285-1.1136-5.3512-1.297z"/> </g> <g fill="#222b32"> <path d="m337.6 1117.4 15.624 2e-4 15.624 4e-4q0 18.26-2e-5 36.52-15.624 7e-4 -31.248 0.0014 3e-5 -18.261 3e-5 -36.522"/> </g> <g fill="#ec9a5e"> <path d="m244.08 1140.4 22.732 4.6806 2.7706 4.5247q9.5849 15.794 12.284 22.048 1.9858 4.2387 3.344 8.248l1.1567 3.9356q0.97723 3.8713 1.0577 7.4152l-0.18843 3.4458-0.6417 3.0179q-0.87275 2.9348-2.5203 5.4912-1.648 2.5571-3.9225 4.6958l-2.3942 2.0236q-2.5323 1.9144-5.4688 3.3492-2.9367 1.4352-6.1289 2.349-1.3901 0.6477-6.4457 1.1858-1.3318 0.142-2.9182 0.2761-3.9513 0.0806-7.2596-0.5349-3.4387-0.6138-6.6014-1.8772l-3.055-1.4196q-6.0107-3.1728-9.6782-8.6939-1.7952-2.7522-2.7722-6.0433l-0.73394-3.4174-0.26075-3.669q-0.01727-3.7951 0.77619-8.0129 1.6678-8.4768 5.6057-18.135 2.7303-7.1277 11.264-24.883z"/> </g> <g fill-opacity=".10588"> <path d="m256.51 1143 10.307 2.122 2.7706 4.5247q9.5849 15.794 12.284 22.048 1.9858 4.2387 3.344 8.248l1.1567 3.9356q0.97723 3.8713 1.0577 7.4152l-0.18843 3.4458-0.6417 3.0179q-0.87275 2.9348-2.5203 5.4912-1.648 2.5571-3.9225 4.6958l-2.3942 2.0236q-2.5323 1.9144-5.4688 3.3492-2.9367 1.4352-6.1289 2.349-1.3902 0.6477-6.4462 1.1858-0.4173 0.0449-0.85938 0.0886 1.3285-0.4194 2.5436-0.8657 9.9247-3.4023 12.937-12.123 0.90862-3.2002 0.83513-6.9544 0.4018-1.6936-1.8466-11.964-0.33476-2.1093-4.1651-12.497l-12.582-29.338q-0.03657-0.0989-0.07269-0.1978z"/> </g> <g fill="#fff"> <path d="m250.44 1171.4v2e-4l1.2e-4 -2e-4 -1.2e-4 2e-4 -1.2e-4 8e-4 -3.7e-4 -8e-4 3.7e-4 8e-4 1.2e-4 -1e-3z"/> <path d="m250.09 1184v5e-4 -5e-4 5e-4 -5e-4 5e-4 -5e-4 5e-4l-2.5e-4 -5e-4 -3.6e-4 5e-4 3.6e-4 -5e-4 2.5e-4 5e-4z"/> <path d="m250.63 1164.6-1.4872-0.0403-0.06769 2.4636q-2.6478 0.4163-4.3156 2.3054-1.6683 1.9099-1.8353 4.8814-0.12702 3.457 1.1534 5.1806 0.90399 1.5713 4.5563 3.6507l-0.21765 7.9033q-0.78967-0.1375-1.6022-1.2905-0.52393-1.105-0.32361-2.8865l-3.8834-1.0432-0.05896 2.3496q0.07288 2.5386 1.4398 4.4409 1.8341 2.4016 4.3091 2.7634l-0.07019 2.5491 1.4871 0.0415 0.06915-2.5068q2.0997-0.0576 4.4004-2.3025 1.7363-2.0571 1.8789-4.9233 0.1167-3.4615-0.97377-4.7894-0.61682-1.341-4.8647-4.0036l0.2199-7.9871q0.84119 0.1372 1.7045 1.3067 0.5575 1.1318 0.34778 2.9162l3.8831 1.0425 0.02832-1.0195q0.26593-2.7332-0.82595-4.8399-1.8795-3.1579-5.0185-3.7402l0.06689-2.4221zm-1.6743 6.7573-0.19195 6.9683q-0.44379-0.3526-0.78583-0.7461l-0.31646-0.4041-0.26545-0.425-0.2146-0.4449-0.16357-0.466-0.11255-0.4866-0.06153-0.5071-0.01055-0.5281 0.03912-0.5068 0.08838-0.4619 0.13733-0.4177 0.18676-0.3731 0.23572-0.3291q0.52088-0.613 1.4352-0.8718m1.141 12.661 0.44556 0.3382q0.83685 0.7028 1.2394 1.6213l0.17438 0.4724 0.11999 0.499 0.06574 0.5262 0.01135 0.5529-0.04119 0.5313-0.09363 0.4814-0.1457 0.4302-0.19775 0.3789-0.25012 0.3286q-0.55206 0.6067-1.5214 0.8067l0.19335-6.9671z"/> </g> <g fill="#ec9a5e"> <path d="m242.68 1095.5q2.0382-0.2169 9.1516 2.2595 6.8351-2.3522 9.41-2.6258 0.20763-0.0223 0.38788-0.0308 3.6646-0.3342 4.9077 1.2599 0.8609 0.8386 1.0502 3.143l-0.01903 1.7242q-0.13057 1.8679-0.62623 4.2072-1.0925 5.6585-6.2389 19.952l-1.1346 3.1648-13.744 4.5017q-6.4548-20.918-7.014-25.47-0.49084-2.597-0.65094-4.6912l-0.05902-1.9407q0.03357-1.79 0.50574-2.9538 0.66846-2.1343 3.6694-2.4539 0.11901-0.0125 0.24188-0.0225 0.0766-0.0136 0.16253-0.0229z"/> </g> <g fill-opacity=".10588"> <path d="m261.24 1095.1q0.20763-0.0223 0.38788-0.0308 3.6646-0.3342 4.9077 1.2599 0.8609 0.8386 1.0502 3.143l-0.01903 1.7242q-0.13057 1.8679-0.62623 4.2072-1.0925 5.6585-6.2389 19.952l-1.1346 3.1648-5.9986 1.9646q-1.209-12.155 2.3204-34.088 3.6283-1.1134 5.3512-1.2967z"/> </g> <g fill="#222b32"> <path d="m270.59 1117-31.247 8e-4q0 18.26-2e-5 36.52 15.624 2e-4 31.248 7e-4 2e-5 -18.261-8e-5 -36.522"/> </g> <g> <path d="m651.21 1201.9 6.4845 0.0017 6.4856 0.0037q5e-5 109.19 1.2e-4 218.39-6.4852 0.0015-12.97 0.0069-8e-4 -109.2-2.5e-4 -218.4"/> <path d="m587.34 1208.7 6.263 1.6819 6.2632 1.6821q-28.261 105.47-56.523 210.94-6.2647-1.6746-12.53-3.3496 28.264-105.48 56.526-210.96"/> <path d="m715.18 1212 12.53-3.3518 56.523 210.94-12.527 3.3643-56.526-210.96"/> </g> <g fill="#fff"> <path d="m502.08 844.07 315.26 0.00565q0 195.31-2e-4 390.62-157.63 0.0041-315.26 0.0071-7e-5 -195.32 0-390.63"/> </g> <g fill="#ecf0f1"> <path d="m528.66 949.92 149.08 0.9564-1.1264 175.91-149.08-0.9547 1.1255-175.91z"/> <path d="m689.52 1001.8-0.03589 5.6281 83.867 0.53383 0.0368-5.624-83.868-0.53786z"/> <path d="m689.37 1025.1-0.03564 5.6284 104.55 0.6647 0.036-5.6245-104.55-0.6686z"/> <path d="m689.22 1048.4-0.0354 5.6279 104.55 0.6664 0.03624-5.6262-104.55-0.6681z"/> <path d="m689.07 1071.7-0.01694 2.8105-0.01831 2.8121q29.373 0.1896 58.745 0.377l0.0372-5.6245q-29.374-0.1898-58.747-0.3751z"/> </g> <g> <path d="m695.72 1012v0.00706-0.00145-0.00561 0.00706-0.00706 0.00561q0-0.00561 0-0.00561z"/> <path d="m695.72 1012v0.00706-0.00145-0.00561 0.00706-0.00706 0.00561q0-0.00561 0-0.00561z"/> </g> <g fill="#f7b239"> <path d="m598.6 966.69-3.051 55.753-50.23-22.815c0-20.335 16.484-36.819 36.817-36.819 5.923-0.00195 11.52 1.3975 16.464 3.8806z"/> </g> <g fill="#f95428"> <path d="m618.96 999.62c0 4.8927-0.9458 9.555-2.6819 13.812l-0.01035 0.0024-35.442 7.954 1.3139-21.768 16.464-32.935c12.077 6.0385 20.356 18.523 20.356 32.935z"/> </g> <g fill="#2ba5f7"> <path d="m616.27 1013.4 0.01035 0.0024c-5.4605 13.486-18.684 23.006-34.137 23.006-20.334 3e-4 -36.817-16.485-36.817-36.82l36.817 0.00365 34.127 13.808z"/> </g> <g fill="#f7b239"> <path d="m635.44 1043.7 25.354 0.0073 4e-5 70.064-25.354 0.0017 2e-4 -70.073zm0 0 25.354 0.0073 4e-5 70.064-25.354 0.0017 2e-4 -70.073zm0 0 25.354 0.0073 4e-5 70.064-25.354 0.0017 2e-4 -70.073zm0 0 25.354 0.0073 4e-5 70.064-25.354 0.0017 2e-4 -70.073z"/> <path d="m588.92 1065.7 25.355 0.0067-5e-4 48.024-25.355 0.0018 5.5e-4 -48.032zm0 0 25.355 0.0067-5e-4 48.024-25.355 0.0018 5.5e-4 -48.032zm0 0 25.355 0.0067-5e-4 48.024-25.355 0.0018 5.5e-4 -48.032zm0 0 25.355 0.0067-5e-4 48.024-25.355 0.0018 5.5e-4 -48.032z"/> </g> <g fill="#2ba5f7"> <path d="m542.4 1083.9 25.355 0.0073v29.9l-25.355 0.0017v-29.909zm0 0 25.355 0.0073v29.9l-25.355 0.0017v-29.909zm0 0 25.355 0.0073v29.9l-25.355 0.0017v-29.909zm0 0 25.355 0.0073v29.9l-25.355 0.0017v-29.909z"/> </g> </g> </svg>