<?xml version='1.0' encoding='utf-8'?>
<svg xmlns="http://www.w3.org/2000/svg" width="1713px" height="1225px" version="1.1" viewBox="-317 438 1713 1225"> <g fill="#76c1eb"> <path d="m-317 437.17c-0.21992 0-0.43082 0.08734-0.58634 0.24286s-0.24286 0.36642-0.24286 0.58634l1e-3 1225c0 0.458 0.37125 0.8292 0.8292 0.8292l1713 1e-3c0.22 0 0.4308-0.0874 0.5863-0.2429s0.2429-0.3663 0.2429-0.5863l-1e-3 -1225c0-0.45795-0.3712-0.8292-0.8292-0.8292l-1713-1e-3z"/> </g> <g> <g fill-opacity=".33725"> <path d="m1111.5 1444-5.5687 0.7619q-28.583 1.2216-43.336 1.4021-20.093 0.4275-47.717 0.8017-55.247 0.7486-140.62 1.2848-19.37 0.1868-136.57 0.6115-48.067 0.1401-99.525 0.1953-102.92 0.1104-219.4-0.1186-111.17-0.2703-202.55-0.8011-25.937-0.092-125.94-0.9426-38.271-0.3633-71.595-0.7914-148.8-2.0586-123.59-4.1006 11.084-1.018 54.872-1.845 21.894-0.4134 51.964-0.7791 10.409-0.2169 107.64-0.9815 161.59-1.1118 391.98-0.9437 115.2 0.138 213.19 0.563 48.997 0.2123 93.695 0.4964 25.036 0.0972 124.42 1.0133 76.494 0.7836 120.28 1.695 47.581 1.1672 47.285 1.4392 9.6295 0.5037 11.082 1.0394"/> </g> <g fill="#2f8694"> <path d="m78.854 1438.8c1.8763 0.7477 3.9232 1.1588 6.0662 1.1591l4.3e-4 7e-4 0.001546-7e-4h0.001634l4.604 3e-4 -4.6063-3e-4 -0.00103 7e-4c-2.1427-1e-3 -4.1892-0.4125-6.065-1.1598z"/> <path d="m266.29 1144.2-133.52-0.0063 133.52 0.0063z"/> </g> <g fill="#535d66"> <path d="m321.55 913.95 357.68 0.09405q-0.0609 234.38-0.1217 468.77-178.84-0.0452-357.68-0.0908 0.06082-234.39 0.12175-468.77"/> </g> <g fill="#3c464f" fill-opacity=".99608"> <path d="m343.13 880.95 323.43 0.0852q-0.0728 279.98-0.14516 559.96-161.72-0.0412-323.44-0.083 0.07281-279.98 0.14545-559.96"/> </g> <g fill="#929fa8"> <path d="m397.56 917.06 214.15 0.0564q-0.0234 90.355-0.047 180.71-107.07-0.0269-214.15-0.0542 0.02357-90.355 0.04709-180.71"/> </g> <g fill="#91d4ff"> <path d="m410.16 927.94 188.71-0.2383q0.10056 79.622 0.2015 159.24-94.356 0.1201-188.71 0.2401-0.10074-79.622-0.20154-159.25"/> </g> <g fill="#fff" fill-opacity=".99608"> <path d="m419.74 1134.7 46.077 0.0124q-0.00454 17.461-0.0091 34.923-23.038-0.0061-46.077-0.012 0.00455-17.462 0.00913-34.923"/> <path d="m483.09 1134.7 46.077 0.0124-0.00916 34.923-46.077-0.0115 0.0091-34.924"/> <path d="m546.45 1134.8 46.077 0.0124q-0.00453 17.461-0.0089 34.923-23.038-0.0059-46.077-0.0115 0.0045-17.462 9e-3 -34.924"/> <path d="m419.73 1176.3 23.038 0.0063 23.038 0.0065q-0.00447 17.461-9e-3 34.923-23.039-0.0059-46.077-0.0121 0.00454-17.462 0.00904-34.924"/> <path d="m483.08 1176.3 46.077 0.0128-0.00915 34.923-46.077-0.0119 0.0091-34.924"/> <path d="m546.44 1176.3 23.039 6e-3 23.038 0.0067q-0.00454 17.461-0.00904 34.923-23.038-0.0056-46.077-0.0117 0.0045-17.462 0.00916-34.924"/> <path d="m419.72 1217.8 23.038 6e-3 23.039 0.0063q-0.0044 17.461-0.00895 34.923-23.039-0.0061-46.077-0.0114 0.00446-17.462 9e-3 -34.924"/> <path d="m483.07 1217.8 46.077 0.0123-0.0089 34.923-46.077-0.0117 0.00894-34.924"/> <path d="m546.43 1217.8 23.038 0.0056 23.038 0.0063q-0.0044 17.461-0.0089 34.923-23.039-0.0062-46.077-0.0116 0.0045-17.462 0.0089-34.924"/> <path d="m419.7 1259.3 23.038 0.0059 23.039 0.0062q-0.00455 17.461-0.0091 34.923-23.039-0.0059-46.077-0.0118 0.00455-17.462 0.00909-34.923"/> <path d="m483.06 1259.3 46.077 0.0125-0.00904 34.923-46.077-0.012 0.00904-34.923"/> <path d="m546.42 1259.4 23.038 0.0056 23.039 0.0066q-0.0045 17.461-9e-3 34.923-23.039-0.0058-46.077-0.0118 0.00453-17.462 0.00913-34.923"/> </g> <g fill="#f9ff00"> <path d="m419.69 1300.9 23.038 6e-3 23.039 0.0066q-0.00473 17.461-0.00927 34.923-23.039-0.0062-46.077-0.0122 0.00455-17.461 0.00913-34.923"/> </g> <g fill="#f00"> <path d="m483.05 1300.9 46.077 0.0128-0.0093 34.923-46.077-0.0125 0.00928-34.923"/> </g> <g fill="#00ff4e"> <path d="m546.41 1300.9 23.038 6e-3 23.038 0.0066q-0.0046 17.461-0.00914 34.923-23.038-0.0061-46.077-0.012 0.00464-17.461 0.00927-34.923"/> </g> <g fill="#7d8b96" fill-opacity=".99608"> <path d="m395.86 1389.3 113.74 0.0295 113.74 0.0302q-0.0044 15.433-0.00843 30.867-113.74-0.0289-227.48-0.0575 0.00406-15.435 0.00808-30.869"/> </g> <g fill="#535d66" fill-opacity=".99608"> <path d="m409.69 1395.2 201.92 0.0522q-0.00244 9.596-5e-3 19.193-100.96-0.0258-201.92-0.0513 0.00256-9.5969 0.00506-19.194"/> <path d="m380.53 867.98 250.8 0.06565q-0.00356 13.943-0.0072 27.887-125.4-0.0315-250.8-0.0635 0.00369-13.945 0.00723-27.889"/> </g> <g fill="#fff" fill-opacity=".99608"> <path d="m410.7 635.49 189.15 0.04999q-0.03345 128.59-0.06675 257.18-94.577-0.02403-189.15-0.0482 0.03355-128.59 0.06678-257.18"/> </g> <g fill="#535d66" fill-opacity=".22353"> <path d="m434.99 675.66 140.57 0.03748-0.00284 10.846-140.57-0.03479 0.00284-10.849z"/> <path d="m434.98 711.81 140.57 0.03733q-0.0015 5.4234-0.00284 10.847-70.287-0.01734-140.57-0.0349 0.00137-5.4246 0.00293-10.849"/> <path d="m434.97 747.97 140.57 0.03745-0.00284 10.846-140.57-0.0348 0.00284-10.849"/> <path d="m434.96 784.13 140.57 0.03747q-0.00135 5.4231-0.00294 10.846-70.287-0.0175-140.57-0.0347 0.00155-5.4247 0.00292-10.849"/> <path d="m434.95 820.28 140.57 0.0375-0.00269 10.846-140.57-0.0342 0.00265-10.85"/> <path d="m434.94 856.44 140.57 0.0371q-0.00135 5.4236-0.00293 10.847-70.287-0.01724-140.57-0.03454 0.00156-5.4244 0.00284-10.849"/> </g> <g fill="#10ff7f" fill-opacity=".99608"> <path d="m487.8 1393.9v6e-4l1.4e-4 4e-4 -1.4e-4 -1e-3"/> </g> <g fill="#507c5c" fill-opacity=".49804"> <path d="m554.39 1011.2c-0.0071 27.247-22.101 49.33-49.348 49.323-27.247-7e-3 -49.33-22.101-49.323-49.348 0.00715-27.247 22.101-49.33 49.348-49.323 27.247 0.00696 49.33 22.101 49.323 49.348z"/> </g> <g fill="#10ff7f"> <path d="m505.05 1028c-1.4853-4e-4 -2.9267-0.5381-4.052-1.5243l-16.236-14.222c-2.5558-2.2386-2.813-6.1263-0.57498-8.6816 2.2399-2.5569 6.126-2.8133 8.6817-0.5744l11.442 10.023 15.871-19.46c2.1475-2.6344 6.0228-3.0274 8.6558-0.88013 2.6324 2.1474 3.0265 6.0232 0.87926 8.6562l-19.899 24.4c-1.0549 1.2938-2.5902 2.1029-4.2536 2.2423-0.17273 0.0151-0.34479 0.0216-0.51599 0.0216z"/> </g> <g fill="#507c5c"> <path d="m505.04 1066.6c-30.597-0.0082-55.483-24.907-55.475-55.505 0.0079-30.597 24.907-55.483 55.504-55.475 30.597 0.00794 55.483 24.907 55.475 55.504-0.00794 30.597-24.908 55.484-55.504 55.476zm0.0259-98.675c-23.812-0.00636-43.19 19.362-43.196 43.174-0.0062 23.812 19.361 43.19 43.174 43.196 23.813 0.0059 43.19-19.362 43.196-43.174 0.0062-23.811-19.361-43.19-43.174-43.196z"/> </g> <g fill="#62e4b8"> <path d="m282.69 1160.6-0.00686 262.95c-0.00525 9.0611-7.3483 16.404-16.409 16.404l-181.35-0.0063c-9.0614-3e-4 -16.404-7.3435-16.403-16.405l0.01619-262.96c-0.004815-9.0614 7.338-16.404 16.4-16.404l181.35 0.0081c9.061 8e-4 16.403 7.3443 16.403 16.406"/> </g> <g fill="#62b99c"> <path d="m132.77 1144.1-18.88-1e-4 -24.354-0.0011-0.012556 295.76 43.234 0.0011 0.01317-295.76z"/> </g> <g fill="#26936e"> <path d="m226.6 1205.3c16.899 1e-3 30.593 13.698 30.593 30.597-6.6e-4 16.899-13.697 30.596-30.596 30.596-16.898-8e-4 -30.594-13.699-30.593-30.598 6.9e-4 -16.9 13.698-30.596 30.596-30.595"/> </g> <g fill="#11c286"> <path d="m226.6 1169.6c16.898 8e-4 30.593 13.698 30.593 30.598-7.6e-4 16.899-13.697 30.596-30.595 30.595-16.899-6e-4 -30.594-13.698-30.593-30.597 6.9e-4 -16.899 13.697-30.596 30.596-30.595"/> </g> <g fill="#fff300" fill-opacity=".99608"> <path d="m155.04 1344.3 18.314 0.0052 18.313 0.0058q-0.00859 33.169-0.01718 66.338-18.313-0.0044-36.627-0.0082 0.00859-33.171 0.01718-66.341"/> </g> <g fill-opacity=".10588"> <path d="m321.5 1113q-0.0351 134.84-0.0701 269.67l21.562 0.0061q-0.00756 29.093-0.01514 58.187 161.72 0.0418 323.44 0.083 0.00756-29.094 0.01516-58.188l12.684 0.0042q0.0348-134.84 0.07006-269.67l-357.68-0.0939z"/> </g> <g fill="#fff" fill-opacity=".99608"> <path d="m502.12 1325.5 2.3e-4 1e-3q0 1e-3 -2.3e-4 -1e-3z"/> </g> <g fill-opacity=".99608"> <path d="m600.2 1312.1v4e-4l2.4e-4 4e-4 -2.4e-4 -8e-4z"/> </g> <g fill="#ffe100"> <path d="m1132.8 943.53 39.98 10.212 33.106 11.581 8.7144 145.44-28.791 10.581-81.558-30.187 11.745-140.19 16.542-7.3184"/> </g> <g fill="#ff001a"> <path d="m1114.9 948.35 39.949 10.202 33.13 11.484 8.8191 145.1q0.1185 0.4138-0.1586 0.46l-28.743 10.57-81.551-30.118 11.773-140.53 16.681-7.1234"/> </g> <g fill="#d7d7d7"> <path d="m1154.3 900.34q5.599-0.1073 13.236 17.416 4.77 10.591 14.447 39.815 0.2791 1.9574-1.6673 2.1643-1.0389-0.06324-1.4989-1.0938-10.604-31.84-15.777-42.826-5.0938-11.081-8.4381-12.044-3.0478-0.9419-7.1454 9.6055-3.063 7.3731-9.1152 32.751-1.5634 1.8942-3.0203-0.0276-0.2278-0.4873-0.1202-1.0439 2.9702-12.437 4.6784-18.711 2.7807-10.291 5.0522-15.742 4.3642-10.556 9.2805-10.268"/> <path d="m1151.7 902.97q5.7791-0.06066 13.655 18.359 4.7548 10.871 14.013 38.824 0.3088 2.0383-1.676 2.2106-1.0374-0.0719-1.4878-1.1316-10.347-31.044-15.444-42.099-5.3067-11.721-8.7458-12.728-3.1521-1.0482-7.5422 10.57-2.9451 7.6061-8.7506 31.808-1.4921 1.8614-3.0034-0.0602-0.2286-0.4968-0.1111-1.0607 3.0037-12.551 4.561-18.274 2.8093-10.45 5.0935-15.985 4.4035-10.725 9.3334-10.438"/> <path d="m1155.8 903.3q5.8355 0.7362 8.5071 18.813 1.9325 11.832 3.1772 44.738-0.2045 1.6841-1.8762 1.6575-1.1838-0.19507-1.4514-1.4291-1.5022-35.856-3.5815-47.575-1.9264-11.864-5.0507-12.845-3.3528-1.1056-10.711 10.163-6.5391 9.7645-21.173 38.308-0.5945 0.86121-1.7871 0.67104-1.0515-0.3048-1.2493-1.4243-0.0591-0.49157 0.1702-0.95347 7.9631-15.566 11.628-22.231 5.5751-10.228 9.9002-16.516 8.3874-12.18 13.458-11.382"/> <path d="m1152.6 905.17q6.0046 0.7805 8.6693 19.855 1.8205 12.145 3.0147 43.696-0.2307 1.7139-1.8909 1.654-1.1718-0.19505-1.4369-1.4409-1.4537-34.64-3.432-46.686-2.0115-12.855-5.2312-13.73-3.4575-1.0517-11.072 10.765-6.5341 9.9371-20.797 37.738-0.6043 0.8511-1.8062 0.63845-1.0371-0.31299-1.2198-1.4616-0.0417-0.5027 0.1972-0.9492 7.7655-15.177 11.36-21.739 5.7644-10.595 10.105-16.904 8.3723-12.16 13.41-11.455"/> </g> <g fill="#ffceb5"> <path d="m1147.7 901.69q1.8407 7.9098 3.7591 10.536 1.0469 1.5763 2.5951 2.5046 0.7028 0.43275 1.6597 0.8435l3.7211 1.4744q0.9143 0.4374 1.4034 0.91933 1.5687 1.7872 0.3824 3.6306-1.8542 2.2426-6.9217 0.58801-5.4229-1.7237-15.969-7.887l9.3519-12.585"/> </g> <g fill="#ff001a"> <path d="m795.07 1143-41.02 4.4725-34.409 6.797-29.134 142.75 27.011 14.535 85-18.385 8.1395-140.45-15.345-9.5779"/> </g> <g fill="#ffceb5"> <path d="m829.81 1075-12.393 6.9635-16.841 7.8515q-9.5617-5.5583-13.676-6.1249-4.8104-1.0032-8.9577 1.9754-4.0415 2.9113-7.0828 8.3306-3.1202 5.7239-2.4541 8.8949 0.43566 2.093 2.8613 2.5632 0.88515 0.4032 8.6513-0.3962 1.3103-0.0133 1.8528 0.1804 1.2928 0.3211 0.94775 2.0375-0.9009 2.9758-4.3353 5.8395-1.2481 0.9985-2.874 1.6195-0.67822 0.2539-1.3651 0.4259l-3.0581 0.6992q-0.5105 0.314-0.27784 0.7804 1.1006 1.8419 4.0566 2.4929 1.9629 0.3845 5.9302-0.8776 20.727-6.8906 31.137-14.29 8.0766-5.6869 13.647-14.639 3.068-5.0158 4.3637-9.1555 0.97804-3.1438-0.12512-5.1524"/> <path d="m1158.3 897.31q-3.7279-3.7108-6.0201-2.8796-6.4742 2.2492-13.375 8.1086-6.819 5.7079-9.1588 9.4199-2.2764 3.5041-0.2754 7.1808l-3.9057 5.2884 10.379 10.032 7.5636-7.2329q10.412-3.1381 13.425-5.8461 2.1311-1.7578 3.1913-4.5823 0.7336-1.8416 1.332-5.7001 0.7142-1.967 0.9398-2.9319 0.2568-1.0414 0.3116-1.9578 0.4318-3.9758-4.4024-8.8938"/> <path d="m932.94 1358.9-7.3052 26.414q20.551 25.652 27.12 29.798 7.235 5.2531 7.5675-4.2505 0.5913-9.9314-5.2926-36.597l-22.076-15.355"/> <path d="m886.98 1212.8-27.066-7.9105q-10.049 21.117-13.303 29.822-5.2326 13.555-3.1342 16.93 1.9973 3.288 11.987-2.1435 8.8231-4.7777 23.603-16.055l7.884-20.565"/> </g> <g> <path d="m926.82 976.15-0.568 0.8762q-2.0458-0.09644 0.36645-0.8098m4.9697-129.21q-22.362-0.23096-33.519 14.286-9.3084 12.158-8.2358 42.519-0.3893 2.4535 4.0435 49.006 0.82398 12.358 0.71131 21.628l29.539 6.5635 2.2541-3.8369q2.6702 0.912 9.7706 4.6486 0.88537-0.0995-0.94763-2.8546-1.8176-2.5956-3.5212-3.8347l-4.8034 0.94202q1.0258-1.4367 2.1947-1.7274 0.69545-0.33145 2.6516 0.64675 13.966-2.4401 39.023-3.8263 12.667-0.7554 32.264-0.49324 3.3645-0.073 5.6438-0.41906 8.7586-1.1124 8.1668-9.3593-0.26415-8.9869-8.4662-29.534-10.688-25.836-17.811-35.71-1.7139-2.2799-3.0713-3.4717-6.9799-4.719-8.5542-7.0193-1.5927-1.8738-3.2514-4.3838-7.5358-12.496-9.7903-15.209-4.115-5.4621-8.5412-9.1195-10.32-8.7661-25.624-9.4361"/> </g> <g fill="#fff"> <path d="m1125.8 921.92-55.271 43.751q-53.506-16.58-50.206-15.999l-3.9213-2.1411q-10.187-8.4599-13.857-10.319-6.2141-3.5747-12.237-4.9206-4.7338-1.1661-12.515-1.2322l-28.128 0.96446q-2.498-0.13353-5.526-0.766-11.652-3.6605-12.67-3.1708-5.2345-0.11841-11.392 3.4268-7.9139 4.795-13.031 12.924l-16.455 32.21q-4.5614 8.2372-12.102 18.801l-67.265 88.671 9.32 13.923 49.372-46.352 25.951-28.811 15.084-23.784q2.9487 13.878-0.36975 62.944l69.407 12.643q29.106-73.167 36.37-90.827 32.808 9.5452 57.077 8.5008 17.08-10.486 28.201-20.842 11.505-10.301 37.08-38.505l-12.914-11.085"/> </g> <g> <path d="m928.5 1372.5q-11.383 10.783-11.917 16.887-1.0403 4.9412 2.4297 14.97l0.51634 20.506 5.0028-0.4817-0.29822-19.611q6.3119 6.018 9.3463 10.573 1.2415 1.2605 7.3325 13.789 1.4641 2.6019 2.9065 4.4941 3.2053 4.2502 7.5619 6.8778 9.2321 5.5643 24.057 7.5912 13.87 1.7681 14.48-2.6532 0.43995-2.7445-4.1999-8.1279-5.6697-6.7732-20.399-19.598l-36.76-45.143"/> <path d="m850.68 1199q-3.8569 0.0109-5.9148 1.8259-2.0318 1.5712-4.3886 6.7334l-17.328 1.0372-2.1477 4.4606 19.366 0.9787q-0.54883 6.8685-2.5039 11.48-0.82224 2.0367-2.0509 4.244-5.2212 8.548-5.4584 9.2341-1.4306 2.75-2.1237 4.9378-1.5979 5.0106-0.57083 9.2187 1.6217 6.8217 10.482 14.97 11.275 9.7719 17.489 10.518 3.4668 0.1363 2.7676-5.8532-0.6454-6.138-5.7545-22.259l13.163-45.346q-6.7061-5.9933-15.013-6.1815"/> <path d="m911.75 1052q-21.731 60.773-21.16 62.503-3.9418 14.987-1.6022 27.536 6.7612 33.325 54.452 75.266-34.985 1.4482-62.279-7.3066l-4.2035 27.331q50.179 14.035 70.673 21.189-9.4629 24.971-12.15 43.644-3.0226 18.163-4.5015 63.242l28.869 15.223 0.2465-0.0356 11.064-41.358q5.5727-21.407 8.1402-33.315 4.676-20.978 5.2117-39.003 23.786-0.0377 30.798-7.1457 9.326-9.3898 7.1363-26.863-0.88303-6.8151-5.3273-15.733-23.467-40.431-30.581-56.582-8.0795-17.487-10.805-28.474-2.1645-8.3979-1.5421-15.878 0.3522-3.7763 1.2992-7.0679l4.5043-12.549q1.0528-3.4486 1.4488-6.2477 1.2378-7.2247 0.1886-20.87l-69.842-17.494"/> </g> <g fill="#ffceb5"> <path d="m936.75 859.91q-9.1917-1.2372-17.458 2.0676-8.0329 3.4409-10.745 9.5975-2.2391 4.9035-0.46006 12.599 0.74109 3.2609 2.099 6.9909 0.56861 1.8668 5.6068 13.621 0.86035 2.2057 1.0002 3.5142 0.1249 1.4873-0.43286 1.9613-0.10327 0.3964-2.3689 0.8057-0.27429 0.0821-0.49644 0.3414-0.3561 0.4269-0.0159 1.6801 2.2726 5.6693 7.0879 7.9559 3.7539 1.8459 13.039-0.0752 4.0025 3.9393 11.557 5.8112l-1.3228 14.042 12.815 7.4088q3.0624 1.626 5.2377 1.9276 3.3633 0.59984 6.4614-2.3814 2.7997-2.4844 8.0582-11.352l-2.0885-14.301q7.9219-4.9017 3.679-20.177-11.673-36.593-41.185-42.028"/> </g> <g fill="#fb0"> <path d="m812.14 1150.3-40.988 4.4672-34.419 6.6971-29.191 142.41q-0.176 0.394 0.0925 0.4782l26.966 14.518 84.983-18.32 8.1594-140.79-15.51-9.4045"/> </g> <g fill="#fff"> <path d="m779.9 1097.3q-5.5279-0.895-15.56 15.377-6.2156 9.8118-19.917 37.379-0.55263 1.8988 1.3452 2.378 1.0372 0.0839 1.6382-0.8713 14.988-30.028 21.659-40.174 6.6052-10.252 10.052-10.734 3.1499-0.5034 5.7194 10.516 1.993 7.7318 4.4056 33.71 1.2809 2.096 2.994 0.398 0.2937-0.4493 0.2661-1.0159-1.1867-12.732-1.9925-19.185-1.3024-10.58-2.782-16.297-2.8326-11.066-7.7406-11.474"/> <path d="m782.08 1100.2q-5.7123-0.8755-16.106 16.25-6.2407 10.092-19.348 36.461-0.5933 1.974 1.3475 2.4248 1.0369 0.0742 1.6325-0.9106 14.621-29.276 21.226-39.5 6.907-10.857 10.454-11.369 3.268-0.5931 5.9767 11.528 1.8427 7.9455 4.1778 32.724 1.214 2.053 2.9813 0.3642 0.29675-0.4599 0.2594-1.0356-1.2036-12.849-1.9378-18.734-1.3081-10.742-2.7893-16.544-2.847-11.239-7.768-11.65"/> <path d="m778.04 1100q-5.8806-0.0935-11.074 17.426-3.582 11.442-9.4544 43.843-0.03479 1.6962 1.6238 1.9051 1.1994-0.0256 1.6386-1.2101 6.5431-35.287 10.254-46.595 3.5802-11.474 6.8113-12.005 3.4755-0.6218 9.1709 11.572 5.0969 10.588 15.56 40.91 0.4672 0.9374 1.6748 0.9172 1.0839-0.1545 1.4374-1.2341 0.1277-0.4782-0.0338-0.9686-5.6885-16.533-8.3765-23.648-4.0773-10.912-7.473-17.746-6.5856-13.241-11.718-13.167"/> <path d="m780.92 1102.3q-6.0543-0.0744-11.382 18.434-3.5147 11.767-9.146 42.836-0.0131 1.7285 1.6394 1.9031 1.187-0.0273 1.6252-1.2228 6.3242-34.09 9.981-45.736 3.8037-12.444 7.1145-12.856 3.5716-0.5542 9.4437 12.219 5.0681 10.759 15.267 40.293 0.4783 0.9284 1.6985 0.8879 1.0707-0.1647 1.4132-1.276 0.1123-0.4913-0.0613-0.9673-5.5483-16.12-8.181-23.124-4.2124-11.302-7.6202-18.159-6.5742-13.22-11.661-13.232"/> </g> <g fill="#ffceb5"> <path d="m795.39 1093.6q-0.77014-0.0015-1.2941 0.5759-0.4923 0.5841-0.3884 1.3581 0.0228 0.1398 0.0668 0.2699l1.1501 3.3142q0.0507 0.1479 0.137 0.2965 0.48717 0.7776 1.4078 0.8249 0.7699 0.0018 1.2947-0.5741 0.4929-0.5827 0.39075-1.3566-0.02039-0.1345-0.07032-0.2821l-1.1455-3.303q-0.0509-0.1475-0.13645-0.2967-0.48635-0.7781-1.4074-0.827"/> <path d="m786.29 1099.5q-2.9378 7.5704-5.2071 9.9011-1.259 1.4122-2.9227 2.1129-0.7565 0.33-1.7614 0.6021l-3.8921 0.9346q-0.96645 0.3038-1.519 0.7111-1.805 1.5486-0.8901 3.5414 1.5193 2.4805 6.7694 1.5565 5.6116-0.9409 16.922-5.5547l-7.4844-13.778"/> </g> </g> </svg>