<?xml version='1.0' encoding='utf-8'?>
<svg xmlns="http://www.w3.org/2000/svg" width="1526px" height="1090px" version="1.1" viewBox="-224 500 1526 1090"> <g fill="#d4f0ff"> <path d="m-224 499.05c-0.25256 0-0.49476 0.10032-0.67333 0.2789-0.17857 0.17859-0.27889 0.42078-0.27889 0.67332l0.00101 1090c0 0.5259 0.42631 0.9523 0.95221 0.9523l1526 9e-4c0.2525 0 0.4947-0.1003 0.6733-0.2789s0.2789-0.4208 0.2789-0.6733l-9e-4 -1090c0-0.52588-0.4264-0.9522-0.9523-0.9522l-1526-0.00102z"/> </g> <g> <g fill="#a5b3bc"> <path d="m43.754 732.06 1032.2 0.00122q0 336.57 0 673.15-516.08 8e-4 -1032.2 0.0013-6e-5 -336.58-1.3e-4 -673.15"/> </g> <g fill="#222b32"> <path d="m832.1 1181.7-4e-4 2e-3q196.83 0.9278 4e-4 -2e-3"/> </g> <g fill="#fff"> <path d="m435.67 813.4 58.421-0.07221 58.421-0.07124q0.09265 74.6 0.18545 149.2-58.421 0.073-116.84 0.1465-0.09264-74.601-0.1854-149.2"/> <path d="m242.94 958.63 116.84-0.14345 0.18539 149.2-116.84 0.1471-0.18539-149.2"/> <path d="m450.81 1188.6 116.84-0.1434 0.1853 149.2-116.84 0.1467-0.18533-149.2"/> <path d="m759.3 1134.4-1.3191-56.078-1.3191-56.077q71.607-1.6848 143.21-3.3708 1.3206 56.078 2.641 112.16-71.609 1.6855-143.22 3.3711"/> <path d="m397.15 819.61 116.84-0.14336 0.18519 149.2-116.84 0.1467-0.18533-149.2"/> <path d="m737.88 1109.2-2.6388-112.16 143.22-3.3712 2.6417 112.15-143.22 3.372"/> </g> <g> <path d="m357.54 819.65-26.18 12.295-19.931-42.436 26.18-12.295 19.931 42.436zm-13.104 11.413c-0.54782-1.1663-0.05558-2.5527 1.1005-3.096 1.1564-0.54295 2.5375-0.0367 3.0855 1.1301 0.54784 1.1666 0.0563 2.554-1.1 3.0978-1.1564 0.54123-2.5381 0.03473-3.0859-1.1319m17.785-6.0114 0.00365-0.00136-23.885-50.857-1.2e-4 0.00176-0.00492-0.0125-6.1e-4 9e-4c-0.55117-1.1589-1.9345-1.6562-3.0978-1.1097-0.00834 0.00375-0.01478 0.0078-0.02225 0.0111l-2.5e-4 -0.00124-4.743 2.2281-13.837 6.4985-6.8743 3.2291c-1.1614 0.5458-1.6612 1.9278-1.1225 3.0914l-3.3e-4 3e-4 23.89 50.866 0.00351-0.0012c0.00934 0.0225 0.01712 0.045 0.02804 0.06764 0.53418 1.138 1.924 1.6119 3.104 1.0576 0.01743-0.0083 0.03353-0.0185 0.05051-0.02746l0.00142 0.00335 25.427-11.942v0.00158c1.1479-0.54065 1.6491-1.9019 1.1146-3.0393-0.01016-0.02275-0.0234-0.04405-0.03432-0.06549"/> </g> <g fill="#fff"> <path d="m337.61 777.22 19.931 42.436-26.18 12.295-19.931-42.436z"/> </g> <g> <path d="m428.31 1159.5-0.22932-5.2757-2.9064 1.0351 3.1346 4.2396z"/> </g> <g fill="#fff"> <path d="m428.34 1154.5-4.9568-21.116-7.5137 2.774 9.1786 19.47 0.01927 0.0246 3.2487-1.1436z"/> </g> <g> <path d="m437.94 1155.3-0.2294-5.276-2.9069 1.0352 3.1349 4.2396z"/> </g> <g fill="#fff"> <path d="m437.97 1150.3-4.9562-21.117-7.514 2.7742 9.178 19.47 0.02017 0.0247 3.2484-1.1438z"/> </g> <g> <path d="m448.14 1152-0.22945-5.276-2.9064 1.0354 3.1346 4.2387z"/> </g> <g fill="#fff"> <path d="m448.17 1146.9-4.957-21.117-7.5136 2.7743 9.1784 19.47 0.01955 0.0243 3.2481-1.1433z"/> <path d="m401.15 1075.2-4.3683-8.6748-4.6219 1.2984-0.01477 8e-3 2.5867 10.345 6.4117-2.9733z"/> <path d="m396.11 1066.9-2.7863-7.0256-2.9836 1.0555 2.3213 7.0721 3.4467-1.1011z"/> <path d="m410.78 1070.9-4.3682-8.6747-4.6223 1.2989-0.01465 0.0075 2.587 10.345 6.4121-2.9729z"/> <path d="m405.75 1062.7-2.7875-7.0253-2.9833 1.0554 2.3217 7.0723 3.447-1.1017z"/> <path d="m420.98 1067.6-4.3688-8.6753-4.6218 1.299-0.01488 0.0084 2.5867 10.344 6.4118-2.9726z"/> <path d="m415.94 1059.3-2.7872-7.0259-2.9831 1.0562 2.3216 7.072 3.4468-1.1012z"/> </g> <g fill="#f6f885"> <path d="m423.76 1134-22.135-59.656-7.2775 2.7007-0.46551 0.1731 0.03363 0.0985 22.094 59.546 7.7464-2.8613z"/> </g> <g fill="#fa5422"> <path d="m433.39 1129.8-22.135-59.655-7.2778 2.7013-0.46553 0.1725 0.03367 0.0991 22.094 59.546 7.7461-2.8615z"/> </g> <g fill="#00eaff"> <path d="m443.59 1126.5-22.135-59.656-7.2778 2.7016-0.46601 0.172 0.03448 0.0994 22.094 59.546 7.7459-2.8612z"/> </g> <g> <path d="m457.77 1147.8-0.22983-5.2768-2.9063 1.0349 3.1348 4.2406z"/> </g> <g fill="#fff"> <path d="m457.8 1142.7-4.9569-21.116-7.5136 2.7748 9.1785 19.469 0.01973 0.0246 3.248-1.1438z"/> <path d="m430.61 1063.4-4.3689-8.6759-4.6219 1.3003-0.0147 0.0072 2.5873 10.345 6.4113-2.973z"/> <path d="m425.57 1055.1-2.7866-7.0257-2.9836 1.0559 2.3214 7.0718 3.4468-1.102z"/> </g> <g> <path d="m453.22 1122.3-22.135-59.655-7.2777 2.6996-0.46539 0.1731 0.03396 0.0993 22.093 59.546 7.7463-2.861z"/> </g> <g fill="#222b32"> <path d="m479.35 1057.4 35.874 1.9825 35.874 1.9828q-0.3514 6.3583-0.7027 12.716-35.874-1.9825-71.748-3.9644 0.3515-6.3583 0.70256-12.717"/> </g> <g fill="#637079"> <path d="m483.75 1071.6 31.806 1.5263 31.806 1.5272q-1.4295 29.785-2.8589 59.571-31.806-1.5266-63.612-3.0526 1.4295-29.786 2.859-59.572"/> </g> <g fill="#3c464f"> <path d="m475.88 1130.4c-0.0924 2.0362 1.4835 3.7619 3.5212 3.8532l64.536 2.9102c2.0374 0.0925 3.7622-1.4842 3.8551-3.5198l2.8266-62.694-71.912-3.2436-2.8269 62.694zm57.728-50.98c0.0919-2.0366 1.8168-3.613 3.8544-3.5213l5.5315 0.2495c2.0376 0.0929 3.6135 1.8176 3.5211 3.8542l-0.08288 1.8432c-0.09205 2.0381-1.8169 3.6147-3.8534 3.5223l-5.5322-0.2494c-2.0374-0.0918-3.6142-1.817-3.522-3.8545l0.0835-1.844zm-0.6648 14.752c0.09167-2.038 1.8168-3.6139 3.8539-3.5213l5.5315 0.2491c2.0374 0.0919 3.6137 1.8172 3.5224 3.854l-0.08377 1.844c-0.0919 2.0365-1.817 3.6126-3.8543 3.5208l-5.5316-0.2495c-2.0371-0.0916-3.6134-1.8166-3.5218-3.8537l0.08375-1.8434zm-0.66517 14.751c0.09177-2.0361 1.8168-3.6132 3.8541-3.5209l5.5317 0.2492c2.0372 0.0916 3.6137 1.8163 3.5216 3.8544l-0.74814 16.595c-0.09195 2.0364-1.8168 3.6131-3.8542 3.5213l-5.5314-0.2497c-2.0376-0.0923-3.6138-1.8164-3.5221-3.8543l0.74843-16.595zm-15.266-30.251c0.09276-2.038 1.8168-3.6131 3.8545-3.5215l5.5321 0.2509c2.0373 0.091 3.613 1.8161 3.5211 3.8531l-0.0829 1.8445c-0.09154 2.037-1.8168 3.6132-3.8541 3.5212l-5.5319-0.2502c-2.0376-0.0918-3.6135-1.8159-3.5218-3.8545l0.083-1.8435zm-0.6648 14.752c0.0918-2.037 1.8168-3.6131 3.8541-3.5212l5.5324 0.2491c2.0373 0.0924 3.613 1.8177 3.5212 3.8551l-0.08264 1.8434c-0.09266 2.0358-1.8172 3.6122-3.8546 3.5203l-5.5324-0.2487c-2.0374-0.0931-3.613-1.8175-3.5209-3.8538l0.0828-1.8442zm-0.66505 14.751c0.09155-2.0375 1.8166-3.6136 3.854-3.5213l5.5322 0.2498c2.0373 0.0918 3.6131 1.8165 3.5217 3.8546l-0.083 1.8439c-0.09265 2.0375-1.8166 3.6136-3.854 3.5215l-5.5321-0.25c-2.0375-0.0918-3.6136-1.8166-3.5219-3.8545l0.08301-1.844zm-0.66528 14.751c0.09203-2.0374 1.8165-3.613 3.8542-3.5223l5.5319 0.2497c2.0374 0.092 3.6134 1.8177 3.5217 3.8552l-0.0829 1.8441c-0.0919 2.0377-1.8165 3.6125-3.8541 3.5206l-5.532-0.2496c-2.0376-0.0909-3.6136-1.8161-3.5212-3.8534l0.08237-1.8443zm-14.6-45.002c0.0932-2.0365 1.8177-3.6123 3.8553-3.5208l5.5319 0.25c2.0375 0.0918 3.6126 1.8157 3.5203 3.8522l-0.08314 1.8447c-0.0918 2.0368-1.8162 3.6128-3.8538 3.5224l-5.532-0.25c-2.0373-0.092-3.613-1.8172-3.5212-3.854l0.08267-1.8445zm-0.66452 14.752c0.09238-2.0377 1.8168-3.6141 3.8541-3.5217l5.532 0.2494c2.0376 0.0924 3.6127 1.8163 3.5214 3.8541l-0.08314 1.8431c-0.09253 2.0376-1.8163 3.6145-3.8541 3.5227l-5.5319-0.2506c-2.0374-0.0913-3.6133-1.8166-3.5212-3.8538l0.08286-1.8432zm-0.66519 14.752c0.09204-2.0379 1.8169-3.6141 3.8544-3.5217l5.532 0.2491c2.0373 0.092 3.6123 1.8161 3.521 3.8533l-0.0832 1.8442c-0.09173 2.037-1.816 3.6147-3.8535 3.5223l-5.5321-0.2492c-2.0376-0.0924-3.6132-1.8165-3.5212-3.8546l0.08253-1.8434zm-0.6648 14.751c0.09134-2.0372 1.8165-3.6134 3.8538-3.5218l5.5321 0.2502c2.0375 0.0917 3.6129 1.8156 3.521 3.8526l-0.08263 1.8441c-0.09247 2.0382-1.8165 3.6148-3.854 3.5233l-5.532-0.2498c-2.037-0.0915-3.6139-1.8167-3.5213-3.8545l0.08297-1.8441zm-14.6-45.004c0.09272-2.0361 1.8177-3.6119 3.8552-3.5203l5.531 0.25c2.0376 0.0913 3.6141 1.8161 3.5214 3.8527l-0.08344 1.8442c-0.09179 2.0375-1.8164 3.6134-3.8539 3.5213l-5.5318-0.2494c-2.0374-0.0918-3.6135-1.8159-3.5222-3.8545l0.08374-1.844zm-0.66497 14.752c0.09217-2.0374 1.8169-3.6128 3.8541-3.5224l5.5317 0.2506c2.0378 0.0918 3.6138 1.8165 3.5219 3.854l-0.08346 1.8434c-0.09192 2.0374-1.8168 3.6142-3.8544 3.5218l-5.5316-0.2494c-2.0374-0.0923-3.6136-1.8167-3.521-3.8537l0.08273-1.8443zm-0.66489 14.752c0.09146-2.0374 1.8166-3.613 3.8535-3.5219l5.5321 0.2498c2.0373 0.0923 3.6136 1.8171 3.5213 3.8545l-0.08253 1.844c-0.09206 2.0375-1.8169 3.6139-3.8544 3.5207l-5.532-0.2486c-2.0367-0.0926-3.6127-1.817-3.5214-3.854l0.08347-1.8445zm-0.66504 14.751c0.09146-2.0374 1.8159-3.6134 3.8532-3.521l5.5322 0.249c2.0373 0.0924 3.6135 1.8165 3.5216 3.8546l-0.08285 1.8429c-0.09168 2.0387-1.8168 3.6147-3.8541 3.5223l-5.532-0.2491c-2.0371-0.0919-3.6133-1.8176-3.5218-3.8546l0.08368-1.8441z"/> </g> <g> <path d="m538.98 1083.4 1.8437 0.0838 0.08347-1.8441 1.8435 0.0825 0.08376-1.8429-1.8444-0.0841 0.0834-1.8442-1.8438-0.0826-0.08314 1.8434-1.8441-0.0825-0.08314 1.8442 1.8436 0.0826z"/> <path d="m535.72 1114.7 5.5313 0.2498-0.0825 1.8439-5.5319-0.2493 0.0831-1.8444z"/> <path d="m536.64 1094.4 5.5321 0.2496-0.08336 1.8441-5.532-0.2499 0.08325-1.8438z"/> <path d="m535.55 1118.3 5.5319 0.2493-0.0831 1.844-5.5323-0.2498 0.0835-1.8435z"/> </g> <g fill="#3c464f"> <path d="m477.85 1042.4-1.1235 23.409 0.14818 0.024 76.257 3.6424 1.1237-23.409-76.406-3.6501"/> </g> <g fill="#a6d8ff"> <path d="m482.18 1046.4-0.76284 15.892 0.13086 0.0243 67.261 3.2103 0.76255-15.892-67.392-3.218"/> </g> <g fill="#7d8b96"> <path d="m541.02 1078-0.0813 1.796c-7.6e-4 0.0124 0.0039 0.0257 0.0124 0.0345 0.0086 0.0097 0.02066 0.0153 0.0332 0.0158l3e-4 7e-4 1.7961 0.0809-0.07884 1.7467-1.7954-0.0806c-0.02685-0.0013-0.04932 0.0194-0.05055 0.046l-0.0814 1.7966-1.7472-0.0799 0.08093-1.7955c2.7e-4 -0.0125-0.00403-0.0258-0.01257-0.0346-0.00879-0.0098-0.02051-0.0152-0.03346-0.0155l-1e-4 0.0014-1.7957-0.0821 0.07911-1.7478 1.7958 0.0802c0.0266 0.0016 0.0492-0.0191 0.0504-0.0457l0.08084-1.7953 1.7475 0.0782zm1.9887-1.8546-0.00464-2e-4 -0.0045 2e-4 -5.5316-0.25c-2.0639-0.093-3.8117 1.5055-3.9048 3.568l-0.08335 1.8436c-0.09317 2.0602 1.4983 3.8062 3.557 3.9046l2.6e-4 2e-4 0.0055 0.0016 0.00535-5e-4 5.5321 0.2484c2.0632 0.0929 3.8106-1.5036 3.9038-3.5676l0.08304-1.8439c0.0935-2.0604-1.4986-3.8059-3.558-3.9044z"/> </g> <g fill="#fff"> <path d="m641.67 823.35q10.359-0.82407 18.446 5.6411 7.9868 6.744 9.1386 17.121 0.8689 10.406-5.6424 18.551-6.8114 8.0104-17.104 9.1241-10.527 0.83464-18.554-5.6398-7.9829-6.7478-9.13-17.125-0.86352-10.407 5.6516-18.549 6.8158-8.0075 17.109-9.1158z"/> </g> <g fill="#744619"> <path d="m641.3 827.62q8.6092-1.0006 15.546 4.1424 6.8617 5.3797 8.1365 13.994 1.0392 8.6472-4.1411 15.634-5.434 6.8836-13.98 8.1239-8.7483 1.0146-15.636-4.1382-6.8589-5.3826-8.1295-13.997-1.035-8.6475 4.1487-15.632 5.4382-6.8808 13.984-8.1167z"/> </g> <g fill="#fff"> <path d="m626.52 820.53 3.0927 4.4116 3.0928 4.412q-3.4917 2.4478-6.9836 4.8954-3.0928-4.4121-6.1851-8.8235 3.4916-2.4479 6.9833-4.8955"/> <path d="m268.08 1198.1q10.359-0.824 18.446 5.6412 7.9872 6.7439 9.1388 17.121 0.86859 10.406-5.6426 18.551-6.8113 8.0105-17.104 9.1242-10.527 0.8346-18.554-5.64-7.983-6.7474-9.1298-17.124-0.86364-10.407 5.6515-18.549 6.8158-8.0077 17.109-9.1161z"/> </g> <g fill="#d24900"> <path d="m267.71 1202.3q8.6091-1.0008 15.546 4.1423 6.8616 5.3797 8.1361 13.995 1.0395 8.6471-4.1409 15.633-5.4343 6.883-13.98 8.1237-8.7484 1.0148-15.636-4.1384-6.8589-5.3819-8.1294-13.997-1.0355-8.6471 4.1486-15.632 5.4385-6.881 13.984-8.1166z"/> </g> <g fill="#fff"> <path d="m252.94 1195.2 3.0927 4.4119 3.0925 4.4117q-3.4914 2.4484-6.9833 4.8952-3.0926-4.4116-6.1853-8.8229 3.4917-2.4481 6.9834-4.8959"/> <path d="m879.59 1242.5q10.359-0.8245 18.446 5.6409 7.9872 6.7441 9.1387 17.121 0.869 10.406-5.6426 18.55-6.8113 8.0103-17.104 9.1245-10.526 0.8346-18.554-5.6395-7.9829-6.7474-9.1299-17.124-0.8635-10.407 5.6516-18.549 6.8163-8.0074 17.109-9.1159z"/> </g> <g> <path d="m879.22 1246.8q8.6093-1.0011 15.546 4.1421 6.8617 5.3799 8.136 13.994 1.0398 8.6471-4.1407 15.633-5.4345 6.8831-13.98 8.123-8.7483 1.0147-15.636-4.1376-6.8586-5.3819-8.129-13.997-1.0357-8.6476 4.1484-15.632 5.4382-6.8809 13.984-8.1171z"/> </g> <g fill="#fff"> <path d="m864.45 1239.7 3.0926 4.4118 3.0924 4.4124q-3.4914 2.4477-6.9831 4.8952-3.0928-4.4123-6.1853-8.8236 3.4917-2.4477 6.9834-4.8958"/> <path d="m283.84 872.32q10.359-0.8244 18.446 5.6411 7.9872 6.7439 9.1388 17.121 0.86877 10.406-5.6426 18.551-6.8112 8.0104-17.104 9.1244-10.527 0.83435-18.554-5.6398-7.9829-6.7477-9.1299-17.125-0.86368-10.407 5.6516-18.549 6.816-8.0073 17.109-9.1155z"/> </g> <g fill="#744619"> <path d="m283.47 876.6q8.6091-1.0009 15.546 4.1423 6.8617 5.3798 8.1364 13.994 1.0393 8.6472-4.1409 15.634-5.4343 6.883-13.98 8.1235-8.7484 1.0147-15.636-4.1385-6.8588-5.3816-8.1293-13.997-1.0356-8.6472 4.1485-15.632 5.4384-6.8804 13.984-8.1164z"/> </g> <g fill="#fff"> <path d="m268.7 869.51 3.0928 4.4118 3.0925 4.4115q-3.4914 2.4481-6.9835 4.8958-3.0924-4.4119-6.1851-8.8235 3.492-2.4477 6.9834-4.8956"/> <path d="m295.41 811.24v1e-4 -1e-4 1e-4q0-1e-4 0-1e-4"/> </g> <g> <path d="m416.07 995.64-0.1875-4.3023-2.3695 0.84386 2.5561 3.4568z"/> </g> <g fill="#fff"> <path d="m416.1 991.53-4.0405-17.217-6.1265 2.2622 7.4826 15.874 0.01617 0.02004 2.6484-0.9325z"/> <path d="m393.93 926.85-3.5618-7.0742-3.7682 1.0604-0.0121 0.00606 2.1092 8.4341 5.2274-2.4239z"/> <path d="m389.82 920.12-2.272-5.7278-2.4326 0.86005 1.8926 5.7663 2.8103-0.898z"/> </g> <g> <path d="m412.36 974.85-18.045-48.64-5.9338 2.2012-0.37973 0.14096 0.02767 0.0811 18.011 48.55 6.3159-2.3326z"/> <path d="m351.06 1198.6-0.1872-4.303-2.3696 0.844 2.5558 3.4576z"/> </g> <g fill="#fff"> <path d="m351.08 1194.5-4.0408-17.218-6.1262 2.2619 7.4826 15.875 0.01617 0.0196 2.6484-0.9317z"/> <path d="m328.92 1129.8-3.562-7.0741-3.7684 1.0596-0.01224 0.0061 2.1094 8.4345 5.2277-2.4234z"/> <path d="m324.81 1123-2.2717-5.728-2.4327 0.8602 1.8925 5.7664 2.8102-0.8986z"/> </g> <g fill="#1b90eb"> <path d="m347.35 1177.8-18.045-48.64-5.934 2.201-0.37945 0.1413 0.02746 0.081 18.011 48.551 6.316-2.3333z"/> </g> <g> <path d="m945.54 1108.2-0.22987-5.2768-2.9061 1.0346 3.1346 4.2404z"/> </g> <g fill="#fff"> <path d="m945.58 1103.2-4.9569-21.116-7.5141 2.7742 9.1786 19.47 0.0199 0.0244 3.248-1.1434z"/> <path d="m918.39 1023.9-4.3686-8.6752-4.6218 1.2999-0.01527 0.00735 2.5875 10.345 6.4114-2.9736z"/> <path d="m913.35 1015.6-2.7864-7.0255-2.9835 1.0555 2.3214 7.0725 3.4466-1.1018z"/> </g> <g fill="#3c464f"> <path d="m941 1082.7-22.136-59.655-7.2777 2.7008-0.4651 0.1722 0.0337 0.1001 22.093 59.545 7.7468-2.861z"/> </g> <g> <path d="m670.75 1351.6-0.2296-5.2762-2.9066 1.0346 3.1347 4.2395z"/> </g> <g fill="#fff"> <path d="m670.78 1346.5-4.9567-21.116-7.5137 2.7741 9.178 19.47 0.01975 0.0244 3.2484-1.1432z"/> <path d="m643.59 1267.2-4.3686-8.6758-4.6219 1.3008-0.01489 0.0072 2.5873 10.344 6.4115-2.9728z"/> <path d="m638.55 1259-2.7869-7.0247-2.9834 1.0551 2.3214 7.072 3.4466-1.1017z"/> </g> <g> <path d="m666.2 1326.1-22.136-59.655-7.2777 2.7002-0.4654 0.173 0.03367 0.0993 22.094 59.546 7.7467-2.861z"/> <path d="m214.74 1072.9-26.18 12.296-19.931-42.436 26.18-12.295 19.931 42.436zm-13.104 11.414c-0.54777-1.1666-0.05557-2.5531 1.1004-3.0968 1.1567-0.5421 2.5376-0.0359 3.0856 1.1307 0.54787 1.1667 0.05631 2.5543-1.1 3.0975-1.1565 0.5415-2.5381 0.035-3.0859-1.1314m17.785-6.0117 0.00353-0.0023-23.885-50.856-1.4e-4 0.0016-0.00493-0.0125-5.6e-4 1e-3c-0.55115-1.1591-1.9344-1.6562-3.0977-1.1102-0.00842 0.0038-0.01477 0.0081-0.0224 0.0112l-2.3e-4 -8e-4 -4.743 2.2279-13.837 6.4985-6.8745 3.2289c-1.1613 0.5462-1.6612 1.9276-1.1226 3.0911l-3.3e-4 5e-4 23.89 50.867 0.00341-0.0016c0.00938 0.0221 0.0171 0.0449 0.02801 0.0681 0.53447 1.1376 1.9243 1.6119 3.1043 1.0575 0.01747-0.0085 0.03328-0.0189 0.05015-0.0277l0.00153 0.0032 25.427-11.942v0.0019c1.148-0.5407 1.6491-1.9021 1.1147-3.0397-0.01005-0.023-0.0233-0.0439-0.03435-0.0653"/> </g> <g fill="#fff"> <path d="m194.81 1030.5 19.931 42.436-26.18 12.296-19.931-42.436z"/> </g> <g fill="#a19a89"> <path d="m202.74 1081.3c1.1567-0.5421 2.5376-0.0359 3.0856 1.1307 0.54787 1.1667 0.05631 2.5543-1.1 3.0975-1.1565 0.5415-2.5381 0.035-3.0859-1.1314-0.54777-1.1666-0.05557-2.5531 1.1004-3.0968z"/> </g> <g> <path d="m834.29 1271.5-26.18 12.294-19.931-42.435 26.18-12.296 19.93 42.436zm-13.104 11.413c-0.5476-1.1661-0.05516-2.5527 1.1007-3.0958 1.1566-0.5431 2.5376-0.0363 3.0854 1.1301 0.54795 1.1672 0.0564 2.5537-1.1 3.0969-1.1564 0.542-2.538 0.0352-3.0861-1.1312m17.785-6.0112 0.0034-0.0014-23.885-50.857v0.0018l-0.00515-0.0125-3.5e-4 8e-4c-0.5513-1.1592-1.9345-1.6563-3.0979-1.1099-0.00844 0.0037-0.0144 0.0075-0.0221 0.0111l-4e-4 -7e-4 -4.7432 2.2278-13.837 6.4986-6.8744 3.2289c-1.1613 0.5455-1.6612 1.9275-1.1223 3.0907l-7.3e-4 5e-4 23.89 50.867 0.0033-0.0011c0.00966 0.0226 0.01735 0.045 0.02846 0.0681 0.53404 1.1371 1.9242 1.6116 3.1039 1.057 0.01756-0.0085 0.03356-0.0184 0.05056-0.0272l0.0012 0.0033 25.427-11.942 2.7e-4 0.0018c1.1478-0.5413 1.6488-1.902 1.1146-3.0402-0.01026-0.0228-0.02357-0.0437-0.0343-0.0651"/> </g> <g fill="#fff"> <path d="m814.36 1229.1 19.93 42.436-26.18 12.294-19.931-42.435z"/> </g> <g fill="#a19a89"> <path d="m822.29 1279.8c1.1566-0.5431 2.5376-0.0363 3.0854 1.1301 0.54795 1.1672 0.0564 2.5537-1.1 3.0969-1.1564 0.542-2.538 0.0352-3.0861-1.1312-0.5476-1.1661-0.05516-2.5527 1.1007-3.0958z"/> </g> <g fill="#ecf0f1"> <path d="m411.85 946.37 46.475-0.3281-0.38742-54.84-46.474 0.32727 0.38699 54.84z"/> <path d="m463.74 901.46-0.00754-1.0751-0.00757-1.0752q11.229-0.0796 22.457-0.15816l0.01517 2.1496q-11.229 0.07946-22.458 0.15882z"/> <path d="m411.42 885.72-0.01495-2.1512 81.48-0.57458 0.01538 2.1513-81.481 0.57445z"/> </g> <g fill="#f00"> <path d="m447.83 959.37v-1e-4 0.0016-0.0015-1e-4 1e-4 -1e-4q0 1e-4 0 1e-4z"/> </g> <g fill="#fff"> <path d="m490.63 961.25c1.2567-0.0089 2.2695-1.0356 2.2603-2.294-0.00866-1.257-1.0355-2.2697-2.2925-2.2608-1.259 0.0087-2.2708 1.0359-2.2619 2.2935 0.00874 1.2566 1.0355 2.27 2.2941 2.2613z"/> <path d="m499.15 961.19c1.2576-0.0089 2.2694-1.0354 2.2606-2.294-0.0089-1.2567-1.0357-2.2689-2.2927-2.26-1.2577 0.00879-2.2695 1.0355-2.2604 2.2927 0.00879 1.2567 1.035 2.2703 2.2926 2.2613z"/> </g> <g fill="#ecf0f1"> <path d="m464.06 946-0.01538-2.1515 39.968-0.28164 0.01495 2.1511-39.968 0.28196z"/> <path d="m464 937.09-0.01552-2.1511 39.968-0.28164 0.01526 2.151-39.968 0.28173z"/> <path d="m463.93 928.18-0.01498-2.1516 32.061-0.22586 0.0151 2.151-32.062 0.22646z"/> <path d="m463.87 919.28-0.0154-2.152 39.968-0.28131 0.01523 2.1511-39.968 0.2822z"/> <path d="m463.81 910.37-0.01511-2.1513 39.968-0.28176 0.01538 2.1511-39.968 0.282z"/> <path d="m411.36 876.81-0.01524-2.152 81.481-0.5738 0.01524 2.1511-81.481 0.57471z"/> <path d="m411.3 867.9-0.0151-2.1513 65.363-0.46094 0.01538 2.1513-65.363 0.46095z"/> <path d="m411.23 859-0.01514-2.1517 81.481-0.57406 0.0148 2.1514-81.48 0.5744z"/> <path d="m411.17 850.09-0.01526-2.1515 81.481-0.5744 0.01535 2.1512-81.481 0.5747z"/> <path d="m464 937.09v-3e-4 -1e-4q0 1e-4 0 4e-4z"/> </g> <g> <path d="m463.92 926.99v-4e-4 -2.6e-4 2.6e-4 4e-4 -4e-4 -2.6e-4q0 2.6e-4 0 6.6e-4z"/> <path d="m463.92 926.99v-4e-4 -2.6e-4 2.6e-4 4e-4 -4e-4 -2.6e-4q0 2.6e-4 0 6.6e-4z"/> <path d="m473.85 921.33v-5.3e-4 0.00159-0.00106-5.3e-4 5.3e-4 -5.3e-4q0 5.3e-4 0 5.3e-4z"/> </g> <g fill="#f7b239"> <path d="m433.65 941.13-0.96237-17.381-15.655 7.1231c0.00417 6.3395 5.1466 11.475 11.485 11.471 1.8463-8.5e-4 3.5906-0.4382 5.1316-1.2132z"/> </g> <g fill="#f95428"> <path d="m439.99 930.86c-0.00113-1.525-0.29691-2.9777-0.83878-4.3055l-0.00366-2.6e-4 -11.05-2.4717 0.41452 6.7847 5.1391 10.265c3.7638-1.8849 6.3422-5.7796 6.3393-10.272z"/> </g> <g fill="#2ba5f7"> <path d="m439.15 926.55 0.00366-2.6e-4c-1.705-4.2028-5.8294-7.1681-10.647-7.1648-6.3393 0.00395-11.475 5.1463-11.47 11.485l11.478-0.00757 10.636-4.3127z"/> </g> <g fill="#f7b239"> <path d="m445.12 917.11 7.9044-0.0052-0.0143-21.845-7.9044 0.0047 0.0143 21.845zm0 0 7.9044-0.0052-0.0143-21.845-7.9044 0.0047 0.0143 21.845zm0 0 7.9044-0.0052-0.0143-21.845-7.9044 0.0047 0.0143 21.845zm0 0 7.9044-0.0052-0.0143-21.845-7.9044 0.0047 0.0143 21.845z"/> <path d="m430.61 910.25 7.9043-0.0049-0.01004-14.974-7.904 0.00493 0.00975 14.974zm0 0 7.9043-0.0049-0.01004-14.974-7.904 0.00493 0.00975 14.974zm0 0 7.9043-0.0049-0.01004-14.974-7.904 0.00493 0.00975 14.974zm0 0 7.9043-0.0049-0.01004-14.974-7.904 0.00493 0.00975 14.974z"/> </g> <g fill="#2ba5f7"> <path d="m416.11 904.61 7.9042-0.00505-0.00625-9.3244-7.9042 0.00486 0.00626 9.3246zm0 0 7.9042-0.00505-0.00625-9.3244-7.9042 0.00486 0.00626 9.3246zm0 0 7.9042-0.00505-0.00625-9.3244-7.9042 0.00486 0.00626 9.3246zm0 0 7.9042-0.00505-0.00625-9.3244-7.9042 0.00486 0.00626 9.3246z"/> </g> <g fill="#ecf0f1"> <path d="m462.73 1221.5 49.096 0.0783-0.09333 57.933-49.096-0.078 0.09326-57.934z"/> <path d="m517.81 1268.6-0.00183 1.1353-0.00159 1.1362q11.862 0.0189 23.724 0.0369l0.0035-2.2704q-11.862-0.0191-23.724-0.038z"/> <path d="m462.63 1285.5-0.00342 2.2723 86.077 0.1373 0.00363-2.272-86.077-0.1376z"/> </g> <g fill="#f00"> <path d="m500.67 1207.5v0.0018-0.0018z"/> </g> <g fill="#ecf0f1"> <path d="m517.89 1221.6-0.00375 2.2733 42.223 0.0664 0.00345-2.2724-42.223-0.0673z"/> <path d="m517.87 1231-0.00414 2.2728 42.223 0.0667 0.00376-2.2726-42.223-0.0669z"/> <path d="m517.86 1240.4-0.00366 2.2725 33.87 0.0539 0.00378-2.272-33.87-0.0544z"/> <path d="m517.84 1249.8-0.00366 2.2735 42.223 0.0672 0.00356-2.2732-42.223-0.0675z"/> <path d="m517.83 1259.2-0.0035 2.2728 42.222 0.0672 0.00379-2.2725-42.223-0.0675z"/> <path d="m462.62 1294.9-0.00372 2.2728 86.077 0.1377 0.0038-2.2724-86.077-0.1381z"/> <path d="m462.6 1304.4-0.00354 2.2724 69.05 0.1108 0.00366-2.2726-69.05-0.1106z"/> <path d="m462.59 1313.8-0.00367 2.2734 86.077 0.1371 0.00329-2.2729-86.076-0.1376z"/> <path d="m462.57 1323.2-0.00378 2.2728 86.077 0.1382 0.00376-2.2726-86.077-0.1384z"/> <path d="m517.87 1231v6e-4 0.0018q0-0.0018 0-0.0018v5e-4q0-5e-4 0-0.0011z"/> </g> <g> <path d="m517.85 1241.6v0.0011-0.0011 0.0011t0-0.0011z"/> <path d="m517.85 1241.6v0.0011-0.0011 0.0011t0-0.0011z"/> <path d="m528.37 1247.6v6e-4 0.0012-0.0018 6e-4 -6e-4 6e-4q0-6e-4 0-6e-4z"/> </g> <g fill="#f7b239"> <path d="m485.79 1226.9-0.91633 18.366-16.578-7.4348c-0.03213-6.6969 5.3706-12.151 12.067-12.183 1.9502-0.0101 3.7957 0.4419 5.4276 1.2518z"/> </g> <g fill="#f95428"> <path d="m492.55 1237.7c0.00739 1.6101-0.29686 3.1464-0.86169 4.5524l-0.00339 5e-4 -11.659 2.6751 0.39881-7.17 5.3694-10.873c3.9871 1.9688 6.7329 6.0689 6.756 10.815z"/> </g> <g fill="#2ba5f7"> <path d="m491.69 1242.2 0.00339 5e-4c-1.777 4.4491-6.1166 7.6056-11.206 7.6295-6.6965 0.0322-12.151-5.37-12.183-12.066l12.125-0.0579 11.26 4.4944z"/> </g> <g fill="#f7b239"> <path d="m498.05 1252.2 8.35-0.0397 0.11057 23.076-8.35 0.0399-0.11053-23.076zm0 0 8.35-0.0397 0.11057 23.076-8.35 0.0399-0.11053-23.076zm0 0 8.35-0.0397 0.11057 23.076-8.35 0.0399-0.11053-23.076zm0 0 8.35-0.0397 0.11057 23.076-8.35 0.0399-0.11053-23.076z"/> <path d="m482.76 1259.5 8.3499-0.0403 0.07547 15.818-8.3496 0.0396-0.07574-15.818zm0 0 8.3499-0.0403 0.07547 15.818-8.3496 0.0396-0.07574-15.818zm0 0 8.3499-0.0403 0.07547 15.818-8.3496 0.0396-0.07574-15.818zm0 0 8.3499-0.0403 0.07547 15.818-8.3496 0.0396-0.07574-15.818z"/> </g> <g fill="#2ba5f7"> <path d="m467.47 1265.6 8.3497-0.0401 0.04712 9.85-8.3496 0.0401-0.04727-9.85zm0 0 8.3497-0.0401 0.04712 9.85-8.3496 0.0401-0.04727-9.85zm0 0 8.3497-0.0401 0.04712 9.85-8.3496 0.0401-0.04727-9.85zm0 0 8.3497-0.0401 0.04712 9.85-8.3496 0.0401-0.04727-9.85z"/> </g> <g fill="#ecf0f1"> <path d="m746.65 1057.1-0.9093-49.087 57.923-1.0731 0.9094 49.088-57.923 1.0724z"/> </g> <g fill="#f00"> <path d="m731.94 1019.5 2.6e-4 0.00174 1e-4 -0.00174-3.6e-4 0.00174 2.6e-4 -0.00174-2.6e-4 0.00174 3.6e-4 -0.00174q-3.6e-4 0-3.6e-4 0z"/> </g> <g> <path d="m765.71 1001.6 1e-4 0.00174 6.4e-4 -0.00174-6.4e-4 0.00174-1e-4 -0.00174 1e-4 0.00174 6.4e-4 -0.00174q-6.4e-4 0-7.4e-4 0z"/> <path d="m765.71 1001.6 1e-4 0.00174 6.4e-4 -0.00174-6.4e-4 0.00174-1e-4 -0.00174 1e-4 0.00174 6.4e-4 -0.00174q-6.4e-4 0-7.4e-4 0z"/> </g> <g fill="#f7b239"> <path d="m751.59 1034 18.38 0.5466-7.0993 16.724c-6.6949 0.1673-12.257-5.1247-12.424-11.819-0.04906-1.95 0.366-3.8037 1.1428-5.4518z"/> </g> <g fill="#f95428"> <path d="m762.27 1027c1.6101-0.0394 3.1524 0.2333 4.5693 0.7703l5e-4 0.0034 2.9089 11.603-7.1765-0.2545-10.979-5.1498c1.8887-4.0252 5.9318-6.8534 10.677-6.9722z"/> </g> <g fill="#2ba5f7"> <path d="m766.84 1027.8 5e-4 -0.0034c4.4841 1.6869 7.7269 5.962 7.8536 11.049 0.16684 6.6947-5.1252 12.257-11.819 12.423l-0.3018-12.121 4.2671-11.348z"/> </g> <g fill="#f7b239"> <path d="m776.65 1021.2-0.2085-8.3472 23.07-0.57519 0.2085 8.3472-23.07 0.57519zm0 0-0.2085-8.3472 23.07-0.57519 0.2085 8.3472-23.07 0.57519zm0 0-0.2085-8.3472 23.07-0.57519 0.2085 8.3472-23.07 0.57519zm0 0-0.2085-8.3472 23.07-0.57519 0.2085 8.3472-23.07 0.57519z"/> <path d="m784.29 1036.3-0.2085-8.347 15.814-0.3942 0.20766 8.3471-15.813 0.3941zm0 0-0.2085-8.347 15.814-0.3942 0.20766 8.3471-15.813 0.3941zm0 0-0.2085-8.347 15.814-0.3942 0.20766 8.3471-15.813 0.3941zm0 0-0.2085-8.347 15.814-0.3942 0.20766 8.3471-15.813 0.3941z"/> </g> <g fill="#2ba5f7"> <path d="m790.63 1051.5-0.20824-8.3469 9.8467-0.2453 0.20876 8.3475-9.8472 0.2447zm0 0-0.20824-8.3469 9.8467-0.2453 0.20876 8.3475-9.8472 0.2447zm0 0-0.20824-8.3469 9.8467-0.2453 0.20876 8.3475-9.8472 0.2447zm0 0-0.20824-8.3469 9.8467-0.2453 0.20876 8.3475-9.8472 0.2447z"/> </g> <g fill="#f7b239"> <path d="m339.86 1075.6-1.4943 18.328-16.335-7.9535c0.17894-6.6939 5.7506-11.975 12.444-11.796 1.9497 0.0517 3.7797 0.5616 5.3853 1.422z"/> </g> <g fill="#f95428"> <path d="m346.27 1086.6c-0.04314 1.6102-0.39528 3.1363-1.0044 4.5234h-0.00345l-11.737 2.3062 0.62422-7.1539 5.7092-10.698c3.9226 2.0948 6.5379 6.2781 6.4112 11.022z"/> </g> <g fill="#2ba5f7"> <path d="m345.26 1091.1 0.00345 5e-4c-1.9158 4.391-6.3526 7.4091-11.44 7.2725-6.6941-0.1782-11.976-5.7502-11.797-12.444l12.121 0.3242 11.112 4.8472z"/> </g> <g fill="#ecf0f1"> <path d="m255.07 1062.3-0.00366 1.9944-0.00281 1.9958q20.837 0.0327 41.674 0.0649l0.00631-3.9888q-20.837-0.0335-41.674-0.0663z"/> <path d="m255.18 996.17-0.00692 3.9922 74.168 0.1173 0.00631-3.9921-74.168-0.1174z"/> <path d="m255.15 1012.7-0.00632 3.9922 59.496 0.0941 0.00677-3.9911-59.496-0.0952z"/> <path d="m255.12 1029.2-0.00653 3.9937 74.168 0.1171 0.00644-3.9922-74.168-0.1186z"/> <path d="m255.1 1045.8-0.00632 3.993 74.167 0.1174 0.00657-3.9906-74.168-0.1198z"/> <path d="m255.18 996.17v8.7e-4 0.0016q0-0.0016 0-0.0016v5e-4q0-5e-4 0-0.00137z"/> </g> <g> <path d="m255.14 1014.9v7.4e-4 7.6e-4 -7.6e-4 -7.4e-4 7.4e-4 7.6e-4q0-7.6e-4 0-0.0015z"/> <path d="m255.14 1014.9v7.4e-4 7.6e-4 -7.6e-4 -7.4e-4 7.4e-4 7.6e-4q0-7.6e-4 0-0.0015z"/> <path d="m273.62 1025.3v7e-4 0.0016-0.0023 7e-4 -7e-4 7e-4q0-7e-4 0-7e-4z"/> </g> <g fill="#427add"> <path d="m719.26 1451.1-1.1142 10.288q-7.9226 31.09-46.364 49.732-38.707 18.626-91.161 15.105-50.06-4.9204-80.074-28.795-9.6168-7.7175-15.842-16.818l-5.2326-9.3562q-4.3121-9.6567-4.3607-20.155 1.309-32.218 35.755-53.612 34.445-21.393 86.32-22.206 51.874 0.8136 86.319 22.207 34.446 21.393 35.755 53.611"/> </g> <g fill="#dd8b42"> <path d="m551.61 1228.4q0.47927-0.5711 0.72084-1.0294 2.4564-3.4546 0.21266-7.2851-1.3665-2.8135-10.9-9.4519l-0.0447-0.8978q-0.28843-7.2501-2.4669-9.1498-2.2491-2.3092-7.6959-3.7789-4.9467-6.5764-9.2468-8.531-2.8119-1.1231-5.9682-0.7686-2.1141 0.0423-8.7481 1.9237-4.9153-0.6363-7.0105-0.1993-2.4776 0.4803-3.6795 1.2134-2.4079 1.4076-4.5388 3.9477-3.66 4.3632-6.5013 12.068-4.9405 12.306-12.573 40.181l30.395 24.6 12.358-14.776 12.369-0.6095q5.964-12.705 9.2388-16.609 0.24-0.2867 0.4658-0.5256 1.6488-1.8573 3.317-2.9934 7.1439-4.1788 7.4855-4.5859 0.0374-0.0444-0.0068-0.0439 1.8718-1.5696 2.8182-2.6979z"/> </g> <g fill="#f7faff"> <path d="m471.23 1241.2 17.175 13.853 17.175 13.851q-5.4372 6.7407-10.875 13.483-17.176-13.851-34.35-27.703 5.4374-6.7409 10.875-13.484z"/> </g> <g fill="#427add"> <path d="m506.89 1283.1-0.60494 0.5939q-33.429 34.351-25.766 82.845 4.2634 22.632 19.241 41.196 13.061 15.618 30.282 24.14l-42.245 44.951q-20.042-13.254-34.545-30.99l-11.253-15.64-9.0632-16.705-6.8504-17.546-4.6167-18.16-2.3605-18.548-0.08264-18.71 2.2166-18.648 4.5382-18.359 6.881-17.844 9.2468-17.104q13.706-19.981 19.12-24.584l45.863 39.112z"/> </g> <g fill="#dd8b42"> <path d="m666.39 1446.2-0.54295 8.0705q-3.8598 24.389-22.588 39.011-18.858 14.611-44.413 11.849-24.389-3.8599-39.011-22.588-4.6854-6.0537-7.7187-13.193l-2.549-7.3392q-2.1011-7.5751-2.1246-15.81 0.6378-25.273 17.42-42.055t42.054-17.419q25.273 0.6382 42.054 17.42 16.781 16.781 17.419 42.054"/> </g> <g> <path d="m605.1 1406.2q-0.51209 0-0.77478 0.1682-0.20887-0.0918-0.49107-0.0918-1.8115 0-6.6414 3.776-3.2174 3.1211-9.8973 13.111-1.9516 2.683-4.0759 4.6994-1.0412 1.8039-6.7279 3.277-0.64441 0.1318-1.3666 0.1318-6.9628 0-21.132-12.264-6.1699 12.082-6.5515 27.204 0.02354 8.2353 2.1246 15.81l2.549 7.3392q3.0333 7.1393 7.7187 13.193 14.622 18.728 39.011 22.588 4.0621 0.4388 7.955 0.4388 20.598 3e-4 36.458-12.288 18.728-14.622 22.588-39.011l0.54295-8.0705q-0.48805-19.336-10.425-33.701-1.2478 2.6438-2.5719 5.0008-3.3349 5.6552-7.8542 7.35-0.93165 0.542-2.374 0.542-2.6584 0-7.0518-1.8415-3.0574-1.4869-6.3368-3.686-11.688-8.3541-16.479-10.935-6.1292-2.7411-8.1956-2.7411z"/> </g> <g fill="#dd8b42"> <path d="m649.06 1228.4q-0.47926-0.571-0.72096-1.0292-2.4565-3.4548-0.21289-7.2853 1.3666-2.8135 10.9-9.4516l0.04456-0.8981q0.2888-7.2499 2.4668-9.1494 2.2494-2.3096 7.6961-3.7791 4.9468-6.5765 9.247-8.531 2.812-1.1234 5.9682-0.7685 2.1142 0.0421 8.7484 1.9235 4.9153-0.6366 7.0103-0.1995 2.4775 0.4803 3.6794 1.2137 2.408 1.4076 4.5386 3.947 3.6602 4.3633 6.5015 12.068 4.9405 12.306 12.572 40.18l-30.394 24.599-12.358-14.776-12.37-0.6095q-5.9639-12.705-9.2387-16.609-0.24026-0.2864-0.46582-0.5253-1.6487-1.8576-3.3172-2.9937-7.1437-4.1788-7.4852-4.5859-0.03725-0.0444 0.00659-0.0436-1.8714-1.5698-2.8177-2.6982z"/> </g> <g fill="#f7faff"> <path d="m729.44 1241.2-17.175 13.853-17.175 13.852q5.4371 6.7407 10.874 13.483 17.176-13.851 34.35-27.703-5.4375-6.7411-10.875-13.484z"/> </g> <g fill="#427add"> <path d="m693.78 1283.1 0.605 0.5938q33.429 34.351 25.766 82.845-4.2632 22.632-19.241 41.196-13.061 15.618-30.282 24.14l42.246 44.95q20.042-13.255 34.544-30.99l11.254-15.639 9.0629-16.705 6.8507-17.546 4.6168-18.16 2.3604-18.549 0.08289-18.71-2.2166-18.648-4.5382-18.359-6.8815-17.844-9.2467-17.103q-13.706-19.982-19.12-24.585l-45.863 39.112z"/> </g> <g fill="#422e1d"> <path d="m719.26 688.49-1.1142-10.288q-7.9229-31.091-46.364-49.732-38.707-18.626-91.161-15.106-50.06 4.9207-80.074 28.796-9.6169 7.7173-15.843 16.818l-5.2326 9.356q-4.312 9.6574-4.3605 20.155 1.3091 32.218 35.755 53.611 34.446 21.393 86.319 22.206 51.874-0.813 86.32-22.207 34.446-21.393 35.755-53.611"/> </g> <g fill="#744019"> <path d="m551.61 911.22q0.479 0.57105 0.7207 1.0292 2.4564 3.4548 0.21276 7.2851-1.3664 2.8134-10.9 9.4521l-0.04456 0.89757q-0.2886 7.2505-2.4668 9.1498-2.2494 2.3096-7.6962 3.7793-4.9468 6.5766-9.2468 8.5312-2.8116 1.1229-5.9681 0.76866-2.1142-0.0422-8.7483-1.924-4.9153 0.63685-7.0105 0.19985-2.4777-0.4801-3.6795-1.2138-2.4079-1.4076-4.5388-3.9475-3.6598-4.3635-6.5012-12.068-4.9405-12.306-12.573-40.181l30.394-24.6 12.358 14.776 12.37 0.60965q5.964 12.705 9.2385 16.608 0.24026 0.2866 0.46597 0.5257 1.6487 1.8572 3.3171 2.9933 7.1439 4.1788 7.4853 4.5857 0.03735 0.0445-0.0066 0.044 1.8717 1.5698 2.8182 2.6982z"/> </g> <g fill="#fff"> <path d="m471.23 898.41 17.175-13.853 17.175-13.851q-5.4371-6.7411-10.874-13.483-17.176 13.851-34.35 27.703 5.4373 6.7408 10.875 13.484z"/> </g> <g fill="#422e1d"> <path d="m506.89 856.46-0.60498-0.59384q-33.429-34.351-25.766-82.845 4.2636-22.632 19.241-41.196 13.061-15.618 30.282-24.141l-42.246-44.951q-20.042 13.255-34.545 30.989l-11.253 15.64-9.063 16.705-6.8505 17.546-4.6166 18.16-2.3604 18.548-0.0828 18.711 2.2167 18.648 4.5384 18.359 6.8811 17.844 9.2469 17.104q13.706 19.981 19.12 24.584l45.862-39.112z"/> </g> <g fill="#744019"> <path d="m666.39 693.38-0.54323-8.0703q-3.8598-24.389-22.588-39.011-18.858-14.611-44.413-11.849-24.389 3.8599-39.011 22.588-4.6851 6.0536-7.7185 13.193l-2.549 7.3394q-2.1009 7.5753-2.1247 15.81 0.6377 25.273 17.42 42.055 16.782 16.782 42.054 17.419 25.273-0.63737 42.054-17.419 16.782-16.782 17.42-42.054"/> </g> <g> <path d="m605.1 733.39q-0.5121 0-0.7748-0.16815-0.2089 0.0916-0.4912 0.0916-1.8117 0-6.6413-3.7758-3.2176-3.1211-9.8973-13.111-1.9516-2.6834-4.0762-4.6996-1.041-1.8041-6.7276-3.2772-0.6447-0.13195-1.3666-0.13195-6.963 0-21.132 12.264-6.17-12.082-6.5517-27.204 0.0238-8.2352 2.1247-15.81l2.549-7.3394q3.0334-7.139 7.7185-13.193 14.623-18.728 39.011-22.588 4.0624-0.4387 7.9555-0.4387 20.597 4e-5 36.458 12.288 18.728 14.623 22.588 39.011l0.54323 8.0703q-0.48806 19.336-10.426 33.701-1.2478-2.6441-2.5719-5.0009-3.3347-5.6549-7.8541-7.3496-0.93139-0.5423-2.374-0.5423-2.6582 0-7.0518 1.8418-3.0575 1.4866-6.3369 3.6859-11.688 8.3541-16.479 10.934-6.1292 2.7412-8.1956 2.7412z"/> </g> <g fill="#744019"> <path d="m649.06 911.22q-0.47924 0.571-0.7208 1.0292-2.4562 3.4548-0.21254 7.285 1.3663 2.8136 10.9 9.4518l0.04456 0.89797q0.2887 7.2504 2.467 9.1494 2.2493 2.3099 7.6958 3.7794 4.947 6.5769 9.2471 8.531 2.8119 1.1237 5.9682 0.76894 2.1143-0.04184 8.7482-1.9241 4.9153 0.63696 7.0105 0.19958 2.4775-0.47985 3.6793-1.2135 2.4081-1.4076 4.5388-3.9478 3.6601-4.3634 6.5012-12.068 4.9405-12.306 12.572-40.181l-30.394-24.599-12.358 14.776-12.37 0.6095q-5.964 12.705-9.2387 16.609-0.2402 0.28634-0.4659 0.52553-1.6488 1.8569-3.3172 2.9935-7.1437 4.1791-7.4851 4.586-0.03724 0.0441 0.00686 0.0434-1.872 1.5699-2.8184 2.6983z"/> </g> <g fill="#fff"> <path d="m729.44 898.41-17.175-13.852-17.175-13.852q5.4369-6.7412 10.874-13.483 17.176 13.85 34.35 27.702-5.4375 6.7413-10.875 13.484z"/> </g> <g fill="#422e1d"> <path d="m693.78 856.46 0.6049-0.59394q33.429-34.351 25.766-82.845-4.2636-22.633-19.241-41.196-13.061-15.618-30.281-24.14l42.245-44.951q20.042 13.255 34.545 30.989l11.254 15.64 9.0628 16.705 6.8504 17.546 4.6166 18.16 2.3606 18.548 0.08289 18.711-2.2167 18.648-4.5385 18.358-6.8815 17.844-9.2466 17.104q-13.707 19.981-19.12 24.584l-45.862-39.111z"/> </g> <g fill="#3c464f"> <path d="m4.175 1183-10.288-1.1142q-31.091-7.9227-49.732-46.363-18.626-38.708-15.106-91.161 4.9206-50.06 28.795-80.074 7.7175-9.6168 16.818-15.843l9.3562-5.2327q9.6571-4.3119 20.155-4.3604 32.218 1.3089 53.611 35.754 21.394 34.446 22.207 86.319-0.81288 51.874-22.206 86.32-21.393 34.445-53.611 35.754"/> </g> <g fill="#ffab8c"> <path d="m226.9 1015.3q0.57107 0.47915 1.0291 0.72085 3.4545 2.4562 7.2852 0.21289 2.8134-1.3669 9.4518-10.901l0.89795-0.0444q7.2503-0.2887 9.1497-2.4671 2.3095-2.2493 3.7791-7.696 6.5766-4.9468 8.5311-9.2468 1.1232-2.8121 0.76877-5.9682-0.04221-2.1143-1.9242-8.7484 0.6368-4.915 0.19963-7.01-0.48003-2.4778-1.2135-3.6795-1.4078-2.4079-3.9476-4.5386-4.3635-3.6602-12.068-6.5009-12.306-4.941-40.181-12.573l-24.6 30.394 14.776 12.358 0.60954 12.37q12.705 5.964 16.609 9.2384 0.28655 0.24 0.5257 0.46595 1.8574 1.6484 2.9934 3.3169 4.179 7.1436 4.5858 7.4854 0.04446 0.037 0.04385-0.00683 1.5698 1.8719 2.6982 2.8183z"/> </g> <g fill="#fff"> <path d="m214.09 934.96-13.853 17.175-13.852 17.175q-6.7409-5.4367-13.483-10.874 13.851-17.176 27.703-34.351 6.7412 5.4378 13.484 10.875z"/> </g> <g fill="#3c464f"> <path d="m172.14 970.62-0.5939-0.6051q-34.351-33.429-82.845-25.765-22.632 4.2632-41.196 19.24-15.618 13.061-24.14 30.282l-44.951-42.246q13.254-20.042 30.989-34.544l15.64-11.253 16.706-9.0631 17.546-6.8502 18.16-4.6169 18.548-2.3605 18.711-0.083 18.648 2.2165 18.359 4.5385 17.844 6.8812 17.104 9.2469q19.981 13.706 24.584 19.12l-39.112 45.863z"/> </g> <g fill="#ffab8c"> <path d="m9.0601 1130.1-8.0703-0.5429q-24.389-3.86-39.011-22.588-14.611-18.858-11.849-44.413 3.86-24.388 22.588-39.011 6.0537-4.6852 13.193-7.7183l7.3393-2.5492q7.5753-2.1009 15.81-2.1244 25.273 0.6375 42.054 17.419 16.782 16.782 17.42 42.054-0.63763 25.273-17.419 42.054-16.782 16.781-42.054 17.42"/> </g> <g fill="#612115"> <path d="m49.072 1068.8q0-0.5123-0.16833-0.7749 0.09155-0.2088 0.09155-0.4911 0-1.8119-3.7758-6.6414-3.121-3.2178-13.11-9.8971-2.6835-1.9515-4.6996-4.0761-1.8042-1.0411-3.2771-6.7277-0.13186-0.6444-0.13186-1.3667-2e-6 -6.9627 12.264-21.132-12.082-6.1698-27.204-6.5514-8.2352 0.02346-15.81 2.1244l-7.3393 2.5492q-7.1391 3.0331-13.193 7.7183-18.728 14.623-22.588 39.011-0.43906 4.0626-0.43895 7.9557 2e-6 20.598 12.288 36.457 14.623 18.728 39.011 22.588l8.0703 0.5429q19.336-0.4883 33.701-10.426-2.6438-1.2475-5.0007-2.5716-5.655-3.3349-7.3499-7.8544-0.54215-0.9314-0.54215-2.3738-3.2e-5 -2.6584 1.8416-7.052 1.4867-3.0577 3.6859-6.3368 8.3543-11.688 10.934-16.479 2.7414-6.1294 2.7414-8.1957z"/> </g> <g fill="#ffab8c"> <path d="m226.9 1112.8q0.57114-0.4791 1.0292-0.7207 3.4548-2.4563 7.2852-0.2127 2.8134 1.3665 9.4519 10.9l0.89795 0.0445q7.2505 0.2887 9.1497 2.467 2.3097 2.2493 3.7791 7.6959 6.577 4.9472 8.5313 9.247 1.1232 2.8119 0.7685 5.9684-0.04186 2.1139-1.9237 8.7478 0.6369 4.9154 0.19916 7.0101-0.47971 2.4777-1.2135 3.6792-1.4076 2.4081-3.9474 4.5387-4.3634 3.6605-12.068 6.5017-12.306 4.9402-40.181 12.573l-24.599-30.394 14.776-12.358 0.60948-12.37q12.705-5.9637 16.608-9.2383 0.28627-0.2403 0.5254-0.4663 1.8574-1.6485 2.9936-3.3171 4.179-7.1434 4.5859-7.485 0.0444-0.0371 0.04359 0.0068 1.5698-1.8718 2.6981-2.8182z"/> </g> <g fill="#fff"> <path d="m214.09 1193.2-13.853-17.175-13.852-17.175q-6.7412 5.4373-13.483 10.874 13.851 17.176 27.703 34.351 6.7409-5.4375 13.484-10.875z"/> </g> <g fill="#3c464f"> <path d="m172.14 1157.5-0.59371 0.6045q-34.351 33.429-82.845 25.767-22.633-4.2639-41.196-19.241-15.618-13.061-24.14-30.281l-44.951 42.245q13.255 20.042 30.99 34.545l15.64 11.253 16.705 9.0632 17.546 6.8503 18.16 4.6171 18.548 2.3605 18.711 0.0828 18.648-2.2166 18.359-4.5385 17.844-6.881 17.103-9.2472q19.982-13.706 24.585-19.12l-39.112-45.862z"/> </g> <g fill="#20443b"> <path d="m1122.6 1179.4 10.288-1.1142q31.091-7.9228 49.732-46.364 18.626-38.707 15.106-91.161-4.9209-50.06-28.795-80.074-7.7176-9.6166-16.818-15.842l-9.3564-5.2326q-9.6573-4.312-20.155-4.3606-32.218 1.3092-53.611 35.754-21.394 34.446-22.206 86.319 0.8128 51.874 22.206 86.32 21.393 34.446 53.611 35.754"/> </g> <g fill="#c49069"> <path d="m899.9 1011.7q-0.5712 0.47947-1.0291 0.72097-3.4548 2.4563-7.2853 0.21275-2.8134-1.3664-9.452-10.901l-0.89783-0.04457q-7.2502-0.28869-9.1496-2.4667-2.3096-2.2495-3.779-7.6962-6.5764-4.9467-8.5309-9.2467-1.1233-2.8122-0.7689-5.9683 0.0421-2.1144 1.9238-8.7484-0.6366-4.9149-0.1993-7.0101 0.47996-2.4774 1.2136-3.6795 1.4076-2.408 3.9476-4.5387 4.3633-3.6602 12.068-6.5009 12.306-4.9406 40.181-12.573l24.6 30.395-14.776 12.358-0.60962 12.37q-12.705 5.9638-16.609 9.2384-0.2866 0.23999-0.5256 0.46558-1.8576 1.6488-2.9934 3.3175-4.179 7.1436-4.586 7.4851-0.04443 0.03725-0.04383-0.00671-1.5697 1.8715-2.6981 2.818z"/> </g> <g fill="#fff"> <path d="m912.71 931.33 13.853 17.175 13.851 17.175q6.741-5.4363 13.483-10.874-13.851-17.176-27.703-34.351-6.7412 5.4373-13.484 10.875z"/> </g> <g fill="#20443b"> <path d="m954.66 966.99 0.59386-0.60487q34.351-33.429 82.845-25.766 22.632 4.2633 41.196 19.24 15.618 13.061 24.14 30.282l44.951-42.245q-13.255-20.042-30.989-34.544l-15.64-11.253-16.706-9.0633-17.546-6.8506-18.16-4.6167-18.548-2.3604-18.711-0.08271-18.648 2.2168-18.359 4.5381-17.844 6.8811-17.104 9.247q-19.981 13.706-24.584 19.12l39.112 45.862z"/> </g> <g fill="#c49069"> <path d="m1117.7 1126.5 8.0701-0.5425q24.389-3.86 39.011-22.588 14.611-18.859 11.849-44.414-3.8598-24.388-22.588-39.011-6.0539-4.6855-13.193-7.7187l-7.339-2.5492q-7.5755-2.1008-15.811-2.1243-25.273 0.63783-42.054 17.419-16.782 16.782-17.42 42.054 0.6377 25.273 17.42 42.055 16.782 16.782 42.054 17.419"/> </g> <g> <path d="m1077.7 1065.2q0-0.5122 0.1684-0.7748-0.0916-0.2091-0.0916-0.4914 0-1.8117 3.7758-6.6413 3.1208-3.2175 13.111-9.8971 2.6835-1.9515 4.6996-4.0761 1.8042-1.0412 3.2769-6.7276 0.132-0.6447 0.132-1.3671-1e-4 -6.9623-12.264-21.131 12.082-6.1703 27.204-6.5518 8.2352 0.02345 15.811 2.1243l7.339 2.5492q7.1392 3.0332 13.193 7.7187 18.728 14.622 22.588 39.011 0.4388 4.0627 0.4388 7.9556 0 20.598-12.288 36.458-14.622 18.728-39.011 22.588l-8.0701 0.5425q-19.336-0.4877-33.701-10.425 2.6437-1.2479 5.0009-2.572 5.6548-3.3351 7.3497-7.8541 0.5422-0.9317 0.5422-2.3739 0-2.6585-1.8416-7.0521-1.487-3.0574-3.6861-6.3366-8.354-11.688-10.934-16.48-2.7414-6.1293-2.7414-8.1953z"/> </g> <g fill="#c49069"> <path d="m899.9 1109.2q-0.57129-0.4791-1.0294-0.721-3.4549-2.4566-7.2853-0.2127-2.8135 1.3664-9.4518 10.9l-0.8981 0.0444q-7.2502 0.2887-9.1494 2.4671-2.3098 2.2494-3.7793 7.6958-6.5768 4.9472-8.5313 9.2472-1.123 2.812-0.76867 5.9684 0.04199 2.1138 1.9238 8.7484-0.6371 4.9147-0.1996 7.0096 0.47987 2.4777 1.2134 3.6795 1.4078 2.4079 3.9476 4.5388 4.3633 3.6599 12.068 6.5008 12.306 4.9406 40.181 12.573l24.6-30.394-14.776-12.358-0.60913-12.37q-12.705-5.9639-16.609-9.2388-0.2865-0.24-0.5255-0.4657-1.8572-1.6488-2.9936-3.3172-4.179-7.1438-4.586-7.485-0.0443-0.0374-0.04357 0.0063-1.5696-1.8714-2.6979-2.8179z"/> </g> <g fill="#fff"> <path d="m912.71 1189.5 13.852-17.174 13.852-17.175q6.7406 5.4371 13.483 10.874-13.85 17.176-27.703 34.351-6.7412-5.4377-13.484-10.876z"/> </g> <g fill="#20443b"> <path d="m954.66 1153.9 0.59376 0.6046q34.35 33.428 82.845 25.766 22.632-4.2635 41.196-19.241 15.618-13.06 24.141-30.281l44.95 42.245q-13.255 20.042-30.99 34.544l-15.639 11.254-16.705 9.0634-17.546 6.8501-18.16 4.6167-18.548 2.3606-18.711 0.0828-18.648-2.2166-18.359-4.5381-17.844-6.8807-17.104-9.247q-19.982-13.706-24.585-19.12l39.113-45.862z"/> </g> </g> </svg>