<?xml version='1.0' encoding='utf-8'?>
<svg xmlns="http://www.w3.org/2000/svg" width="1713px" height="1225px" version="1.1" viewBox="-317 438 1713 1225"> <g fill="#00aec7"> <path d="m-317 437.25c-0.19852 0-0.38892 0.07884-0.5293 0.21924-0.1404 0.14038-0.21924 0.33078-0.21924 0.5293l1e-3 1225c0 0.4135 0.33512 0.7485 0.74854 0.7485l1713 1e-3c0.1985 0 0.3889-0.0788 0.5293-0.2192s0.2192-0.3308 0.2192-0.5293l-1e-3 -1225c0-0.41342-0.335-0.74854-0.7485-0.74854l-1713-1e-3z"/> </g> <g> <g fill-opacity=".37647"> <path d="m1260.5 1398.6-6.0979 0.9211q-9.6354 0.6241-27.519 1.2019-51.927 1.4044-72.21 1.6299-60.513 1.0171-154.02 1.8491-21.216 0.2664-149.59 1.0377-52.65 0.2761-109.01 0.4583-112.73 0.3648-240.32 0.3558-121.77-0.0702-221.87-0.4956-50.049-0.2125-94.68-0.514-25.702-0.0951-121.7-1.104-145.9-1.7513-137.6-4.2597 6.3882-1.2994 51.948-2.4075 22.008-0.5549 52.264-1.0634 9.9729-0.2832 109.33-1.4215 18.102-0.272 142.56-1.1663 50.792-0.3227 105.3-0.5518 109.01-0.4582 232.89-0.5426 128.13-0.0662 233.33 0.2861 127.15 0.4986 146.08 0.7048 44.631 0.3013 83.844 0.6916 79.488 0.7899 124.57 1.8194 49.7 1.0718 52.507 2.5707"/> </g> <g fill="#11445f" fill-opacity=".99608"> <path d="m149.26 1314.8 471.95-0.2547 471.95-0.2508q0.0217 40.452 0.0438 80.911-471.95 0.2554-943.89 0.5108-0.02188-40.458-0.04382-80.916"/> <path d="m742.44 979.3 72.685-0.03826 72.685-0.03449q0.1041 192.42 0.2085 384.84-72.685 0.0396-145.37 0.0794-0.10419-192.43-0.20862-384.85"/> <path d="m577.31 1075.5 145.37-0.0781 0.15643 288.75-145.37 0.0797-0.1564-288.75"/> <path d="m412.17 1152.8 72.684-0.0344 72.685-0.0442q0.05707 105.79 0.11447 211.58-72.685 0.0395-145.37 0.0796-0.05744-105.79-0.11454-211.58"/> <path d="m907.57 866.4 145.37-0.07599q0.1349 248.83 0.2701 497.66-72.685 0.0391-145.37 0.0792-0.13466-248.83-0.26966-497.67"/> <path d="m247.01 1216.2 72.685-0.0382 72.685-0.0346q0.0422 77.692 0.08425 155.39-72.685 0.0402-145.37 0.0796-0.04203-77.696-0.08416-155.39"/> </g> <g fill="#0f3b52" fill-opacity=".99608"> <path d="m149.08 1392.3 944.28-0.5114q0.0017 3.1593 0.0035 6.3194-472.14 0.2556-944.28 0.5124-0.0018-3.1611-0.00356-6.3204"/> <path d="m149.17 1315.1 944.28-0.5094 0.0038 6.3182-944.28 0.5163-0.00345-6.3251"/> <path d="m907.39 866.37 6.2679 0.0025 6.2685-0.00739q0.12334 225.3 0.2453 450.6-6.2688 0.0047-12.537 0.0082-0.12214-225.3-0.2445-450.6"/> <path d="m740.92 979.33 6.2685 0.00196 6.269-0.00775q0.09179 169.52 0.18376 339.03-6.2689 0.0038-12.537 0.0079-0.0919-169.52-0.18464-339.03"/> <path d="m576.8 1075.4 6.2687 0.0014 6.2679-0.0078q0.06575 121.12 0.1315 242.24-6.2682 0.0052-12.537 0.0085-0.0656-121.12-0.13117-242.24"/> <path d="m409.03 1152.6 6.2681-0.0023 6.2681 0.0014q0.04419 81.858 0.08893 163.72-6.2682 0.0036-12.536 0.0064-0.04447-81.864-0.08871-163.73"/> <path d="m288.81 907.88v0.00574-0.00574 0.00574-0.00574 0.00574-0.00574"/> <path d="m246.92 1216 6.2685 0.0016 6.2683-0.0086q0.02851 52.845 0.05729 105.69-6.2683 0.0048-12.537 0.0081-0.02881-52.847-0.05728-105.69"/> </g> <g fill="#fdd908"> <path d="m432.71 1079.4-0.08661 0.0783-0.0686 0.0685-0.04993 0.0597-0.031 0.0498-0.0127 0.0414 0.00617 0.0322 0.02496 0.0229 0.04328 0.0142 0.06213 0.0044q0.05218 0.0013 0.18293-0.0193-0.02497-0.1365-0.06666-0.3521l-0.00397 0.0012z"/> </g> <g fill="#929fa8"> <path d="m457.71 1011.8-43.294-79.138q32.87-17.982 65.739-35.965 21.648 39.569 43.295 79.138l-65.74 35.965"/> </g> <g fill="#fdd908"> <path d="m329.37 951.86 0.87956-21.3q8.5068-64.522 56.855-104.32 48.69-39.785 116.21-34.251 64.524 8.505 104.33 56.852 12.756 15.632 21.236 34.237l7.2169 19.163q6.0504 19.816 6.6723 41.513 0.0421 66.63-43.031 111.99-43.073 45.358-109.62 48.764-66.631 0.0406-111.99-43.031-45.359-43.07-48.759-109.61z"/> </g> <g fill="#eeaa01"> <path d="m353.89 950.83 0.74505-17.966q7.1761-54.425 47.955-87.998 41.07-33.557 98.023-28.89 54.422 7.1751 87.998 47.956 10.758 13.185 17.91 28.876l6.0894 16.165q5.103 16.713 5.6302 35.017 0.0342 56.202-36.298 94.462-36.33 38.262-92.462 41.132-56.201 0.0336-94.461-36.296-38.258-36.331-41.13-92.459z"/> </g> <g fill="#ffb70d"> <path d="m357.12 950.7 0.727-17.527q7.0017-53.094 46.784-85.848 40.067-32.737 95.627-28.184 53.094 6.9996 85.847 46.785 10.496 12.864 17.473 28.169l5.9399 15.772q4.9792 16.304 5.4914 34.159 0.0342 54.83-35.41 92.154-35.442 37.327-90.201 40.128-54.828 0.033-92.152-35.41-37.324-35.443-40.127-90.199z"/> </g> <g fill="#eeaa01"> <path d="m472.19 859.88 0.1626 13.292q-11.055 4.7007-17.877 14.706-6.823 10.003-6.668 22.702 0.09968 8.1343 3.3644 15.436 3.261 7.104 8.6829 12.396 5.4227 5.2918 12.802 8.3761 7.1808 3.0866 15.315 2.9878l1.1912-0.01379q2.3846 0.36716 3.9936 2.1338 1.6092 1.7659 1.6412 4.3452 0.03358 2.7774-1.9271 4.7848-1.9592 2.0092-4.7366 2.0424-2.7781 0.0341-4.7861-1.9247-2.0074-1.9608-2.0428-4.737l-32.933 0.40185q0.07745 6.348 2.1318 12.078 1.8532 5.5333 5.2867 10.452 3.232 4.7223 7.8411 8.4374 4.6074 3.5145 10.189 5.6289l0.185 15.079 33.33-0.40555-0.20507-16.866q9.4597-5.2738 15.1-14.669 5.6422-9.1975 5.5022-20.704-0.09936-8.1339-3.3632-15.438-3.2614-7.1025-8.6848-12.394-5.4221-5.2919-12.802-8.3772-7.1807-3.0865-15.314-2.9877l-1.1919 0.0165q-2.3851-0.3696-3.9968-2.3342-1.6084-1.7659-1.6366-4.1472-0.0345-2.7782 1.9225-4.9851 1.9602-2.0074 4.7376-2.0414 2.7768-0.03253 4.788 2.1242 2.0076 1.9598 2.042 4.7388l32.935-0.40233q-0.14056-11.509-6.009-20.762-5.8676-9.2556-15.453-14.298l-0.18373-15.079z"/> </g> <g fill="#fdd908"> <path d="m469.42 861.58 0.16204 13.293q-11.054 4.6991-17.877 14.703-6.8226 10.005-6.6684 22.704 0.09961 8.1336 3.3635 15.436 3.2623 7.1024 8.6847 12.394 5.4216 5.2921 12.801 8.3752 7.1803 3.0882 15.316 2.9899l1.1902-0.0142q2.3862 0.3677 3.9953 2.1332 1.6085 1.7671 1.6403 4.3453 0.03332 2.7781-1.9262 4.7858-1.96 2.0079-4.7374 2.0416-2.778 0.0339-4.7854-1.9249-2.0084-1.9598-2.0425-4.7384l-32.934 0.4048q0.07763 6.3468 2.1321 12.076 1.8532 5.5337 5.2869 10.453 3.2323 4.7228 7.8413 8.436 4.6071 3.5168 10.189 5.6319l0.18512 15.078 33.331-0.4065-0.20569-16.865q9.4596-5.2754 15.099-14.67 5.6428-9.1965 5.5016-20.704-0.09826-8.133-3.3638-15.435-3.2601-7.1044-8.6835-12.396-5.4218-5.291-12.802-8.3762-7.181-3.0876-15.316-2.987l-1.1911 0.0145q-2.3854-0.3689-3.9958-2.3335-1.6092-1.7671-1.6384-4.1473-0.03381-2.7766 1.9234-4.9848 1.9606-2.0076 4.7376-2.0419 2.7772-0.0329 4.7873 2.1248 2.0085 1.9587 2.043 4.7378l32.935-0.401q-0.14055-11.509-6.008-20.764-5.8674-9.2546-15.454-14.296l-0.18395-15.079z"/> </g> <g fill="#0f3b52" fill-opacity=".99608"> <path d="m268.9 813.66-2.4e-4 7.6e-4 2.4e-4 -4.6e-4v-3e-4l-2.4e-4 7.6e-4 2.4e-4 -7.6e-4v3e-4q0-3e-4 0-3e-4"/> </g> <g> <path d="m260.27 928.61-0.11883-3.01q-4.938-8.245-16.364-8.6696-13.665-1.3032-25.651 4.2138-6.72 3.6148-9.5811 9.6754-2.9693 5.0191-5.2558 21.533-8.6832 4.1939-12.763 7.841-3.3653 3.3281-2.9341 6.6648-0.23824 5.3247 13.62 22.996l10.647-0.9347 1.8465 14.955 31.695-15.078 14.86-60.188z"/> </g> <g fill="#ffb298"> <path d="m343.32 885.6 7.0793-6.4675q3.7283-2.1702 4.8355-4.2983 0.758-1.1888 1.7704-4.6835l4.2334-10.182 2.8348-5.4564 4.5013-2.3267-1.0462-2.5144-2.6078 1.2132-1.671 1.5864q1.4061-2.155 1.4766-3.183 0.18298-1.0365-0.7157-3.0096l6.6948-10.564-2.7684-2.1517-6.4246 11.51 7.1013-12.161-3.5459-1.0311-9.93 14.638-4.6097 6.1056-6.8969 14.049-7.3578 11.531 7.0468 7.3951z"/> <path d="m359.01 1072.6 1.0576-0.3743q5.9371-2.0124 8.0067-3.9946 1.3346-1.4771 1.3481-1.8752 0.55719-1.391 0.45215-3.0545 0.04163-0.3889-0.3714-2.583-0.40985-1.7898-0.96686-3.6404-3.912-18.804-4.3574-20.317l0.68103-7.6926-0.08001-5.8327-2.4999-0.18268q-1.5593 3.2479-1.943 4.6326-0.45387 1.4271-0.57393 3.8022l-1.183 3.6389 3.0094-19.038-3.3707-0.0811-2.9605 14.677 4.5243-17.979-3.4651 0.58679-3.2295 15.045 2.0336-9.688-4.6379 10.159q0.11194 11.342-0.23266 13.707 0.46936 3.7556 2.0057 9.9259 0.75623 2.967 2.092 5.9949l-1.9766 3.7931 6.6379 10.369z"/> </g> <g fill="#fff"> <path d="m337.11 875.79-17.531 20.615q-4.7068 4.8757-10.061 8.2737l-14.346 15.896q-2.2596 1.3749-11.814 20.927-2.6743 3.8674-5.4896 6.5233l-44.853 40.58q-17.209 6.7079-29.921 20.697-2.558 3.4801-4.5647 11.632-0.91049 1.6022-4.5679 32.628-1.5441 8.5805-4.4202 16.882-4.489 12.559-14.897 22.644l42.298 35.934q26.472-39.838 30.102-47.142 3.4946-5.3476 3.9278-17.659l38.541 21.732 4.0479 3.9586 9.187-20.466-12.868-11.906q-19.098-12.614-21.212-14.65-4.8378-4.1411-10.687-13.086l-0.19928-9.9369q3.12-14.818 2.4612-22.822 10.743-5.8316 18.848-15.356l14.329-17.853 9.1341-14.304q15.335-18.452 19.956-25.948 13.693-22.286 22.641-38.235l-8.0407-9.5594"/> <path d="m283.16 1067.5 7.8988 21.296q4.0695-0.3579 8.3799-1.8968 25.963-2.1626 32.235-3.9132 9.6085-2.5553 15.887-4.8276 11.813-4.5507 16.008-7.1224l-11.559-10.328q-14.619 3.0254-23.926 3.8011l-21.603-0.6203-8.5868 0.4492q-10.974 1.8722-14.734 3.1622z"/> </g> <g fill="#ffb298"> <path d="m-4.7841 1250.1-17.093 9.4719q-1.1363 3.3041-1.2411 5.1586-0.222 2.2208 0.93394 4.4912 1.5329 2.8674 5.3933 6.0605 3.4211 2.8024 5.3853 2.8378l17.191-14.224-10.569-13.796z"/> <path d="m178.48 1256.2-16.221 11.233q3.2594 3.8039 4.4867 5.0154 1.6306 1.6776 3.1134 2.6386 2.3486 1.5944 9.6344 3.88l11.658-11.587-12.672-11.18z"/> </g> <g> <path d="m176.35 1256.8 10.764 15.318q11.532-7.6647 19.996-11.829l23.564-9.3722 12.994-6.9634 9.9013-3.5835 3.1811-1.6854q3.3648-1.7246 8.6221-10.4 6.5284-11.09 5.726-14.412-0.33924-3.8331-3.6028-8.2849-9.8458-13.955-17.32-22.7-3.001-4.8904-39.393-38.138l7.752-7.2668q-3.1312-1.9041-5.301-4.3077-8.6088-12.841-13.244-16.4-5.3982-5.0452-20.298-15.238-2.7627 4.0551-8.0053 6.8639-2.5776 1.2294-3.9267 1.5407-9.2557 1.4237-11.883 2.6697-5.0671 2.3713-7.9205 5.5954-3.4074 3.4754-6.3182 9.1549-1.0997 1.5454-8.6517 21.698-1.2588 3.4162-4.8828 8.5574-3.5516 5.0794-13.338 10.857-20.843 24.867-24.563 27.251-10.089 8.5292-14.77 10.08-3.9734 2.4694-28.348 8.6164-3.7497 1.1046-10.686 5.5066-19.258 15.441-44.143 30.838-0.67569 7.4595 2.4538 11.059l6.2603 7.1965q9.1059-6.0225 17.486-9.6471 8.2877-3.7493 30.853-11.83l20.088-8.5856q4.4948-1.4993 6.8702-1.5187l11.231 0.5128q1.591 0.0584 5.5868-1.5751l10.976-5.7919 16.683-7.2713q5.7579-3.0428 12.902-8.0181 16.75-11.121 42.74-36.813 26.311 21.354 50.09 34.15 4.4511 3.2839 6.1966 6.8031l-10.552 3.1465-6.0758 3.5077q-4.9117 3.0163-22.405 18.113l-17.289 12.598z"/> <path d="m-9.2621 1277.3-0.73755-0.2251q-7.3746-1.8642-10.194-5.9249-2.805-3.7404-1.6022-11.6-2.0854-0.0932-3.5567-0.3468-6.8164-1.8582-7.8936-1.6657-2.6449-0.2047-9.3995 0.9555-3.7099 0.4485-6.4061 7.8476-1.4893 3.6656-1.278 8.9046 0.13324 1.7923 0.48088 3.7256 1.9681 9.19 2.0137 11.115 0.12143 1.0232 0.087231 3.5107-0.75579 9.5717-0.50181 12.141 0.074193 4.1033 1.7932 10.946 1.8288 7.069 5.8105 11.844 1.3084 1.615 3.6406 3.1532 1.0357 0.7255 4.1127 1.9691 1.4608 1.2511 2.3533 1.4223 3.6297 0.7237 8.2588-0.9727 3.5037-1.3356 4.312-3.5671 0.53496-1.3637 0.30116-3.1504 0.014381-0.6504-1.7157-6.9411-0.41488-1.7954-0.5435-3.8056-0.241-2.4701 0.50754-7.5188 0.23211-1.684 1.2445-5.713 0.66581-2.6719 3.8476-12.685 0.63196-2.162 1.1247-5.0031l3.9403-8.4149z"/> <path d="m-26.409 1285.3 4.67e-4 8e-4 -4.67e-4 -8e-4 1.16e-4 0.0014z"/> <path d="m180.74 1278.8-2.4023-0.6872q-6.1957-1.7417-6.1373-1.8006-1.4941-0.5602-2.5415-1.2903-2.6522-1.7954-7.9065-8.3049-13.988 6.4759-18.759 7.6448-2.4314 1.4825-2.3595 4.2248 0.10279 1.2661 1.0838 2.7906 5.2824 8.5123 6.9402 10.599 1.2155 1.5992 2.3399 2.8835 7.5377 8.3885 8.7868 9.9696l7.4778 9.3421q6.7294 7.5706 13.004 9.4327 4.6796 1.2109 8.7847-0.4732 5.8352-2.5137 6.1878-5.6346-0.03064-1.2019-0.62536-1.5613-0.06718-0.0982-0.71481-0.4327l-2.4101-1.0276q-0.80554-0.4033-1.6785-0.973-1.5748-0.9795-3.8551-3.0714-5.0778-5.2243-5.3755-6.6433-0.51403-1.3315-0.65979-3.6596-0.45802-12.603-0.78782-15.547-0.10567-1.5894 1.6084-5.7803z"/> </g> <g fill="#ffb493"> <path d="m355.78 1055.4 6.7e-4 7e-4 -3.7e-4 -7e-4v7e-4z"/> </g> <g fill="#ffb298"> <path d="m241.41 999.65 0.36237 0.36274q2.2863 2.428 4.5852 3.3197 1.9914 0.85 7.3822 1.0001l2.7428-4.1764q2.6278-6.1711 3.2382-8.7799 1.2652-4.3667 0.7884-12.035l5.6144-1.0524q3.1216 1.0049 5.2218 0.09704 3.999-1.7874 5.1099-4.6541 0.74365-1.8843-2.3377-5.3459 0.88382-2.3115 0.96689-3.4244 0.02937-1.2958-1.1466-1.9448l-0.25904-3.5238q1.0174-0.8288 0.84554-1.4547-0.1568-0.76684-2.0059-2.4042 0.83356-1.2608 1.5556-1.8942l2.8206-2.0324q0.53589-0.3909 0.96425-0.85804 0.8118-1.0138 0.48906-1.7347-0.31996-0.994-2.2878-2.3652-0.93672-0.75677-6.1824-3.3432-0.94963-0.58434-1.6626-1.4249-0.69372-0.85589-1.1234-2.0584-1.55-5.7259-2.7158-7.8863-1.0704-2.2968-5.0033-7.7095-3.1207 0.79523-4.7808 2.0475-1.003 0.67108-3.2852 2.8745l-6.8823 5.5011 5.0542 4.7245 0.39837 10.473-7.2545 6.9487q-7.5362-4.6829-11.026-2.4291-2.9405 1.5247 0.30004 7.6645-3.0289-0.78576-3.1754 0.33516-0.22546 0.28088 0.41775 2.1665 0.30965 1.0177 2.6688 5.6144l3.5033 9.8677 6.5573 3.6734-0.45768 15.861z"/> </g> <g> <path d="m193.65 971.84 1.1266 8.6605q5.2806 8.779 8.3348 12.547 3.0697 3.6158 3.7196 4.0023 1.2629 1.1209 2.5641 1.8847 2.6203 1.4554 5.3113 1.7538 0.84799 0.22795 8.954 0.37736 0.64635-0.06036 3.3016 0.80939 3.2118 0.99065 8.9102 7.0072l34.007 15.308q-12.468-9.179-14.623-13.303-0.88687-1.3644-1.3901-2.7517l-0.3999-1.395q-0.29538-1.3996-0.33362-2.8213l0.01854-7.2194q-0.48666-3.6672-1.0136-4.4144-1.2655-2.9545-4.5121-5.9353-3.2506-2.9802-7.7745-5.9735-3.2673-2.2463-12.104-7.4986l-34.097-1.0385z"/> </g> <g fill="#fff"> <path d="m273.66 959.45-2.5e-4 0.00235-4.0873 3.2392q2.1993 0.2933 4.3982 0.584l-0.31066-3.8256z"/> </g> <g fill="#f00"> <path d="m274.16 957.25-5.0305 5.4043 5.8758 1.5276q0.10768-0.4364-0.03822-0.65643-0.24345-0.30217-0.59642-0.40507-0.69833-0.2982-4.091-0.67544 0.81623-0.73456 1.3965-1.2262l1.939-1.594q0.50616-0.44409 0.6802-0.69177 0.30078-0.36886 0.30298-0.92493l-0.43838-0.75817z"/> <path d="m247.41 925.44-1.2e-4 0.00214 1.2e-4 -0.00214-5.8e-4 0.00214z"/> </g> <g fill="#5a2b16"> <path d="m265.92 940.25-0.63942-0.04821q-1.9488-0.15711-3.6153-0.2063-1.7819-0.02584-2.3956 0.11736-0.79486 0.162-1.1655 0.46156-0.40399 0.25774-0.75635 1.086l8.5721-1.4104z"/> </g> <g fill="#fff"> <path d="m264.64 942.89-1.9552 1.0629-1.9562 1.0591q2.3164-0.15184 4.6318-0.307l-0.7204-1.815z"/> <path d="m259.99 951.78h-6.1e-4l0.00177 0.00311-0.00177-0.00311z"/> </g> <g> <path d="m264.65 942.96 0.01844 0.03917q0.14411 0.2784 0.73304 1.7752-0.46868 0.16814-0.71368 0.17951-0.09913 0.00689-0.19385-0.00531l-0.09363-0.01846q-0.09369-0.0237-0.18146-0.0752-0.08813-0.0498-0.172-0.1264l-0.08216-0.0813q-0.08166-0.08744-0.1601-0.19486-0.19524-0.26284-0.5214-0.88184l1.3668-0.61047z"/> <path d="m216.63 982.83-1.1e-4 0.0019 5.8e-4 -0.0019-5.8e-4 0.0019z"/> <path d="m200.16 953.9 8.033 8.6806q1.2146-1.7645 1.8844-2.4362 0.65881-0.7095 2.1019-1.7123l-8.7469-8.3634q-0.27702 1.6909-0.86296 2.3106-0.47311 0.6366-2.4094 1.5207z"/> </g> <g fill="#f00" fill-opacity=".99608"> <path d="m349.47 906.27v0.00159-0.00159 0.00159z"/> </g> <g> <path d="m67.093 1239.9-29.842 25.682-29.842 25.681q-12.319-22.038-24.636-44.074 58.06-22.843 116.12-45.688l27.465 3.638-59.265 34.762"/> <path d="m259.99 1234.1-64.036 58.293q-14.955-20.054-29.911-40.109 35.151-23.015 70.303-46.029l23.644 27.845"/> </g> <g fill="#fff"> <path d="m253.45 1043.1 8.2256 5.8939q-14.949 47.572-39.56 96.852-33.398 17.037-45.262 16.866-4.4207 0.1881-8.7757-2.346-1.4072-0.0914-11.78-11.051-3.9425-3.2388-7.0186-3.9306-8.8306-2.7938-30.238 1.3761 14.111-27.216 23.487-40.319 4.1516-5.6647 8.214-9.7383 18.452-16.973 21.117-20.998 10.231-12.474 26.493-38.105l55.098 5.5001"/> </g> <g fill="#a90c72"> <path d="m230.36 1154.7 3.2403 93.376 3.2408 93.38-6.4811-186.76"/> </g> <g> <path d="m82.796 1205.3h3.5e-4l58.432-76.894q9.2223 12.877 18.445 25.753l-76.878 51.141"/> </g> <g fill="#fff"> <path d="m325.42 1084.3-2.8499 1.1626q-7.1403 2.8085-8.6009 3.1673-2.888 0.9226-5.8266 1.5287l-2.9562 0.494q-2.9716 0.3963-6.0237 0.2889l-3.0784-0.2691-3.1288-0.5858-4.1826-1.2996q-3.6297-1.4371-6.691-3.2423-1.5654-0.6288-9.8657-6.7409-8.3442-6.3873-23.925-21.407l77.129 26.903"/> </g> </g> </svg>