<?xml version='1.0' encoding='utf-8'?>
<svg xmlns="http://www.w3.org/2000/svg" width="1526px" height="1090px" version="1.1" viewBox="-224 500 1526 1090"> <g> <g fill="#fca732"> <path d="m-224 498.8c-0.31856 0-0.62407 0.12655-0.84932 0.35181-0.22525 0.22524-0.35181 0.53076-0.35181 0.84934l0.00101 1090c0 0.6633 0.53776 1.2011 1.2011 1.2011l1526 1e-3c0.3186 0 0.6241-0.1264 0.8493-0.3518 0.2252-0.2251 0.3518-0.5307 0.3518-0.8493l-1e-3 -1090c0-0.66336-0.5378-1.2011-1.2011-1.2011l-1526-0.00101z"/> </g> <g fill="#fdd25f" fill-opacity=".57647"> <path d="m189.27 679.51q-22.893 0-44.187 2.9553-5.5997 0.7771-11.089 1.7586-11.232 0.80276-22.722 2.3974-147.15 20.422-336.48 170.71l0.00235 103.3-0.00208 40.277 0.00266 589.09c0 0.6633 0.53776 1.2011 1.2011 1.2011l1526 1e-3c0.3186 0 0.6241-0.1264 0.8493-0.3518 0.2252-0.2251 0.3518-0.5307 0.3518-0.8493l-3e-4 -429.23-4e-4 -352.49 0.0131 9.6e-4 -0.0131-0.00196 0.0118 1e-3q-43.325-35.314-88.204-39.01-70.654-15.486-131.7-15.486-30.755 0-59.072 3.93-122.49 17-199.37 107.53-30.363 35.754-53.612 82.976-363.68-268.72-581.98-268.72z"/> </g> <g fill="#fef291" fill-opacity=".64706"> <path d="m269.59 886.87q-101.47 0-248.52 93.889-36.76-4.5867-73.702-4.5867-85.796 0-172.57 24.74l0.00491 589.09c0 0.6633 0.53776 1.2011 1.2011 1.2011l1526 1e-3c0.3186 0 0.6241-0.1264 0.8493-0.3518 0.2252-0.2251 0.3518-0.5307 0.3518-0.8493l-3e-4 -429.23-0.0131 9e-4q-22.53 34.507-35.636 71.655-52.946-57.508-100.91-57.508-23.353 0-45.524 13.634-3.2236 1.8997-6.311 4.656-25.798 23.034-42.058 105.89-49.819-248.85-142.79-269.65-62.282-22.994-114.37-22.994-75.483 0-129.56 48.284-21.357 19.069-39.376 45.668-218.03-213.22-356.28-213.22-3.4508 0-6.8518 0.13283-6.8584-0.4571-13.939-0.4571z"/> </g> <g fill="#fca732"> <path d="m1303.2 1372-1528.4 3.5229 0.00179 214.48c0 0.6633 0.53776 1.2011 1.2011 1.2011l1526 1e-3c0.3186 0 0.6241-0.1264 0.8493-0.3518 0.2252-0.2251 0.3518-0.5307 0.3518-0.8493l-1e-4 -201.4-1e-4 -16.606z"/> <path d="m-225.2 1388.1 0.00168 201.86c0 0.6633 0.53776 1.2011 1.2011 1.2011l1526 1e-3c0.3186 0 0.6241-0.1264 0.8493-0.3518 0.2252-0.2251 0.3518-0.5307 0.3518-0.8493l-1e-4 -201.4-1528.4-0.4643z"/> <path d="m1081.9 964.78 7.2835 0.01455 4e-3 -2.5927 3.8842 0.00927 0.0346-21.69 2.5893 0.00784c0.224-6.3702 2.3916-11.866 6.5003-16.501l-3e-3 1.7804c4.9551 4.649 8.021 10.098 9.2023 16.36 0.4244 3.8852 1.3288 11.118 2.7166 21.692l4.5319 0.0101c0.6455-1.0802 1.2422-1.5642 1.7826-1.4564 0.3236 3.5e-4 1.2914 0.2157 2.9088 0.65147-0.2225 5.5022 0.0405 9.278 0.7913 11.331l5.666-0.8009 0.6361 6.9606c2.6983 0.97524 4.3131 2.8683 4.8463 5.6726 0.2114 1.2915 0.207 4.5283-0.0156 9.7104l5.5024 0.01185c0.8624 1.5064 2.3147 4.3154 4.3565 8.4204 2.1538 3.3497 4.6334 5.2375 7.4388 5.6756-0.6548 4.7481-0.9329 8.7937-0.8282 12.138 1.5079 0.32876 2.6954 0.59963 3.5592 0.8145 0.6482-0.5398 1.8884-0.8063 3.7235-0.80337 2.2573 3.674 3.3822 10.47 3.3663 20.397-0.0084 5.5024-0.2346 13.433-0.6853 23.794l-0.1697 106.66c19.424-1.9141 42.353-2.846 68.788-2.8035l1.6187 0.0051-0.1458 91.602c0.2133 0.1098 0.4336 0.2175 0.6466 0.3276l-0.0019 1.4534c0.3234 0.1072 0.6469 0.2734 0.9702 0.487 3.6675 1.7315 6.738 2.8167 9.2198 3.2513l-0.0061 3.7231 17.149 5.6914-0.0448 28.158 11.652 0.023-0.0502 31.233 22.497 0.0388-0.0269 17.153 3.7193 0.0083-0.0899 56.161-1508.9-2.3957 0.06621-41.6c0.54068-0.1064 1.2401-0.2678 2.1047-0.4797 0.75966-3.4488 1.3594-5.9341 1.7922-7.4453 0.86869-2.8028 2.6514-4.2559 5.3479-4.3611 0.42931 0.7549 0.96932 1.1337 1.6166 1.135 0.97214-0.6414 1.5661-1.6673 1.7854-3.0684-0.64623-0.8694-1.0735-2.7563-1.2858-5.6677-0.21133-3.4502-0.37016-5.3416-0.47653-5.6653 1.0781-0.105 1.8358-0.2676 2.2668-0.4817-0.97035-0.539-1.5096-1.4067-1.6145-2.5925l2.1038 0.0093c0.10814-0.7596 0.48754-1.2476 1.1355-1.461l-8.4e-4 0.4859c0.21657 0.2134 0.4295 0.7036 0.6451 1.4553l9.7116-0.468 0.0013-0.9705c-0.21647-0.2141-0.37735-0.7026-0.48298-1.4573l2.2658 0.0061c0.10657 0.1038 0.26812 0.2664 0.48481 0.48l-0.48952 2.4268c2.2656 0.1106 4.0465-0.1546 5.3423-0.801 0.21727-0.2127 0.43069-0.1055 0.64697 0.3278 0.53957 0.6492 1.2372 1.5113 2.0997 2.5933-0.64881 0.8628-0.97406 1.8892-0.97596 3.0735 1.6169 0.9726 3.0178 1.5132 4.2054 1.625 0.54213-0.8628 1.4036-1.24 2.5917-1.1321 0.75417 0.1084 2.3203 0.2754 4.6928 0.4934l0.00378-2.4277 0.48548 0.0041c0.86167 1.7229 2.0445 2.7515 3.5558 3.0767l0.06192-38.843 8.2544 0.0169c0.13457-15.433-1.0288-30.866-3.4869-46.297 1.4013 0.1086 2.8574 0.4348 4.3682 0.9788l0.00427-2.5904c-0.42941-0.7573-0.69627-1.9467-0.8036-3.5654l0.80919 0.0049c1.8305 3.0234 3.9318 4.7514 6.3037 5.1892l0.0011-0.648c-2.2622-2.2692-2.8514-4.3181-1.7705-6.1525 0.32642-1.7259 1.0272-2.8018 2.1091-3.2337 1.1892-0.8628 1.9997-1.5605 2.4311-2.0969l0.03589-22.497c1.0785-0.4319 2.5906-0.7498 4.5331-0.9629 0.53925 0.8618 1.1307 1.5129 1.7774 1.9448-2.0558 4.2044-2.9873 11.703-2.7874 22.492 1.5085-0.1071 3.0208-0.4287 4.5335-0.9633l-0.00995 6.146c0.64564 1.0803 0.8057 2.2168 0.48019 3.4004-0.32479 0.6472-0.81231 1.831-1.4624 3.5615l1.7804 0.0075c0.5448-2.7001 2.6484-4.4221 6.3203-5.1772l-0.00162 0.9749c-1.5096 0.6411-2.4309 2.0451-2.7581 4.2041 2.1584 0.436 3.6658 1.0273 4.5289 1.7861-2.7017 3.2339-4.1167 9.7598-4.2393 19.578-0.11565 5.502 0.08856 13.488 0.60919 23.954l4.6935 0.0113-0.01098 6.9521 0.64732 0.0049-0.001216 0.8061c4.532-0.2067 7.2828 0.3907 8.2515 1.7964 0.75346 0.5381 0.42828 1.4063-0.97542 2.5884l35.121 0.0581-0.05804 36.412 9.0634 0.0186v-0.1643l1.295 0.0046-0.81886-95.496c2.4843-0.9702 11.17-1.2766 26.059-0.9326 2.375-1.4011 9.9824-1.926 22.823-1.582 11.436 0.2324 18.88 0.7876 22.332 1.6538 1.0775 0.2155 3.3431 0.385 6.7969 0.4973 2.5896 0.0027 4.5312 0.385 5.8245 1.1416 0.2164 0.3274 0.42939 0.7585 0.64546 1.2949l0.065109-40.947 1.6185 0.0061c2.4854-1.6176 6.0991-2.4218 10.848-2.4145 2.8063 0.1118 7.1759 0.3388 13.109 0.6697 24.816 1.2241 42.941 2.1194 54.376 2.6757 1.3949 4.4263 1.9792 11.28 1.7474 20.561-0.22499 5.178-0.56036 12.513-1.0058 22.009l2.7512 7e-3 -0.00982 6.147 6.1501 0.0137c1.6108 4.8545 2.2449 13.217 1.9022 25.086-0.22399 6.5806-0.56518 15.588-1.0142 27.028l8.7399 0.0153-0.0056 3.5586 7.2831 0.0144-0.005921 3.5608 6.1503 0.0127-0.014875 9.3806 13.433 0.0252-0.01526 9.5456 1.7802 0.0074 2.3e-4 -0.1663 0.64734 0.0049c0.11999-8.3091-0.08239-15.272-0.61409-20.883l0.01768-11.168 4.2078 0.0107 0.01006-6.1577 8.9015 0.0171c0.6452 1.5066 1.018 3.2351 1.1246 5.1785l2.5898 0.0063 0.10643-66.846 8.9014 0.0178 0.00146-0.8115 0.97095 0.0049 0.10395-65.229 7.1214 0.0144 0.11212-70.407c4.8562-0.6406 7.3935-2.3616 7.615-5.1675 0.21964-3.6702 1.0325-5.9893 2.4387-6.9563 2.0515-1.4011 5.8819-2.2551 11.495-2.5701 7.8824-2.2534 15.704-2.9431 23.471-2.0666 2.1587 0.22 10.248 1.7966 24.269 4.7317l-0.18899 118.8 15.861 0.0278c0.53769 1.8303 0.79243 10.573 0.76758 26.217l-0.08603 53.896 16.347 0.0283-0.00671 4.2053 21.04 0.0364-0.01825 11.327 10.358 0.0196-0.07452 46.932 0.48555 0.0039-4.5e-4 0.1587 16.185 0.0291 1.1344-0.9719 0.00555-3.399 2.7514 0.0071 0.00422-2.5918 3.5605 0.0081 0.00717-4.5349 3.8842 0.0088-0.00703 4.529 6.4737 0.0127 0.10141-63.608 9.5491 0.0186 0.33886-212.83c0.97174-0.2119 2.1602-0.5337 3.5624-0.9651 1.1973-5.8242 2.175-10.034 2.9333-12.619 1.4121-4.6357 4.3262-7.0591 8.7515-7.2693 0.75215 1.1865 1.6154 1.7307 2.5868 1.6228 1.5136-1.0757 2.3769-2.7993 2.5978-5.1753-0.86208-1.4057-1.4492-4.5889-1.7653-9.5513-0.42103-5.8271-0.68772-9.0102-0.79364-9.5502 1.6184-0.1045 2.8585-0.3709 3.7233-0.8035-1.5066-0.9739-2.4236-2.4312-2.7445-4.3743l3.3991 0.0086c0.3255-1.2976 0.97461-2.1602 1.9461-2.5892l-0.00128 0.8086c0.32328 0.4307 0.59048 1.293 0.80523 2.5906l16.024-0.7837 0.0029-1.78c-0.32323-0.4341-0.59038-1.2964-0.80528-2.594l3.5604 0.0088c0.21674 0.2104 0.5398 0.4836 0.97006 0.8071l-0.97799 4.3723c3.7771 0.1123 6.7983-0.4228 9.0656-1.6047 0.2143-0.2156 0.43033 0.0564 0.6464 0.8105 1.0764 1.0801 2.3172 2.5379 3.7155 4.376-1.1903 1.5098-1.7853 3.2349-1.7888 5.1797 2.5872 1.6218 4.9582 2.4873 7.1173 2.6006 0.97366-1.2932 2.3755-1.8313 4.2104-1.6116 1.1881 0.0015 3.6675 0.2185 7.4438 0.6592l0.00716-4.2109 0.80907 0.0044c1.6135 3.2363 3.7145 4.9643 6.3038 5.1884 1.1874 0.4363 2.3202 0.4383 3.3986 0.0061 0.75307 0.6485 1.4547 1.5113 2.1002 2.5921-2.5936 2.2624-2.9252 7.2236-0.99492 14.889 1.3961 5.2913 3.1143 9.9292 5.157 13.931l1.1328 0.0047c0.10925-1.2986 0.38278-2.4883 0.81512-3.5657l0.80903 0.0041c0.6421 3.2349 2.4744 5.2906 5.4928 6.1558 0.6458 1.1863 0.91424 3.2934 0.79943 6.3132-0.21853 2.8025 0.04724 4.7498 0.79967 5.8286 0.6466 0.7539 2.425 1.8914 5.3355 3.4063l-0.25558 160.72 0.64724 0.0044-6.8e-4 0.3206 9.5495 0.0183-0.12912 80.758 8.4164 0.0169 0.02033-12.951 4.5314 0.0102-0.03045 19.091 10.035 0.0193 0.97206-0.8108 0.00716-4.3694c2.4829-0.2107 4.6397-0.7475 6.4766-1.6079 0.21442 1.1882 0.75086 2.0488 1.6136 2.5913l0.1236-77.363c1.6204-0.8645 2.3298-5.2307 2.1254-13.11l10.52 0.0205v-0.165l1.4568 0.0051 0.03037-19.098c10.682-0.0893 24.007 0.9551 39.971 3.135-0.5535-58.804-0.80705-102.94-0.75993-132.39l1.9422 0.0083c1.9438-1.2964 5.9925-2.6404 12.144-4.0317 6.1527-1.3948 11.009-2.0864 14.57-2.0811l0.09984-62.472 0.9707 0.0038 0.0017-0.9733 2.7549 0.0075-0.0929 58.262 0.8091 0.0042-0.0016 0.9677c1.8322 0.0027 4.3147 0.2788 7.4435 0.8213l-0.0071 4.3697c0.3229 0.435 0.6454 1.2961 0.96656 2.5939 5.7198 0.1155 10.033 1.2562 12.942 3.4195 0.75206 1.2927 1.2368 4.0483 1.4436 8.2566l-0.02442 15.214c-0.11463 5.0681-0.34473 11.166-0.67653 18.284l-0.17357 109.41 5.3408 0.0127 0.00854-5.3457c2.2634-0.6433 8.7378-0.9013 19.423-0.778l0.00416-2.5899 11.002 0.021 0.01111-6.9634-2.7499-0.9751c-0.43323-0.3237-1.3486-0.5974-2.7534-0.8132l0.03335-20.877c6.3674-0.4241 11.87-0.4156 16.512 0.0251 1.6098 5.6126 4.2444 9.6109 7.9113 11.99 3.8859-3.124 12.576-4.4568 26.064-4.0044l0.01307-8.7395c16.509-0.2981 27.621 0.2051 33.338 1.5093l0.1727-108.44 74.13-3.2807c4.5264 1.4092 14.391 6.6584 29.589 15.746 1.8304 1.0808 7.2224 3.4099 16.173 6.9859l-0.20985 131.9c1.6199-0.9678 3.8355-1.6668 6.6387-2.0923 2.1599-0.3213 5.5589-0.7459 10.198-1.2756l0.03467-21.687 13.109 0.0239 0.0127-7.7727 18.612 0.0349 0.02465-15.869 24.763 0.0434c1.9411 0.6438 5.6058 2.3748 10.993 5.1936 4.5286 2.3787 8.4137 3.8448 11.65 4.3877l-8e-3 5.1829 22.484 7.9666-0.06106 38.357 34.796 0.0581-0.01504 9.5459c2.0482 0.6509 4.8545 0.9236 8.4147 0.8225 0.75329 0.4346 1.9927 0.7036 3.7211 0.8159l-0.08764 54.866 12.138 0.0222-0.00964 6.1433 16.829 0.0303 0.0057-3.5637 2.1102 0.0061 1e-3 -0.4881 1.7799 0.0059 0.0901-56.325 2.9132 0.0081 0.4147-260.41c2.0504-0.8602 5.9904-1.1746 11.813-0.95175l0.0222-13.923 11.976 0.022c0.6647-10.574 1.0006-18.614 1.0092-24.114l13.596 0.02649 0.0205-13.113z"/> <path d="m107.73 1083.1 47.381 0.1319q-0.43011 155.35-0.86023 310.69-23.69-0.0652-47.381-0.1303 0.43012-155.35 0.86024-310.7"/> <path d="m-170.14 1192.7 80.206 0.0947q-0.10529 89.835-0.21056 179.67-40.103-0.0466-80.206-0.0932 0.10529-89.836 0.21058-179.67"/> <path d="m-216.92 1317.7 42.431-0.0642q0.07425 48.912 0.14851 97.823-21.215 0.0325-42.431 0.0647-0.07424-48.912-0.14851-97.824"/> </g> </g> <g fill="#121111"> <path d="m483.23 810.94c-0.46011 0.17264-1.4378 0.86276-2.1855 1.4954-1.0927 1.0352-2.3581 1.2077-10.64 1.6104-14.609 0.69007-21.223 2.3579-33.186 8.4545-20.418 10.41-30.828 22.718-42.273 50.037-1.4954 3.5658-3.1633 6.6717-3.6808 6.9592-0.51763 0.2301-2.1856 0.63263-3.796 0.86273-4.4286 0.57519-7.4194 4.1983-8.5696 10.295-0.46008 2.5883 0.97775 7.8797 2.5306 9.3174 0.6326 0.5752 3.5658 1.2079 8.1095 1.783 3.9109 0.5178 7.3618 1.1504 7.6494 1.4379 0.80515 0.74766-0.51765 4.4285-2.8757 7.9945-4.3136 6.4416-4.2561 6.2115-4.2561 23.063 3e-5 18.117-0.69012 23.523-4.4861 35.314-0.92026 2.8182-2.3581 7.4768-3.2208 10.352-0.86267 2.8184-2.2431 6.8443-3.0483 8.7996-1.6679 4.0837-0.86264 3.8536-7.937 2.4156-1.898-0.4024-5.5789-0.7475-8.1095-0.8051-3.7959-0.0575-4.9462 0.11504-5.8664 0.9778-1.3228 1.2077-7.0167 11.963-7.0167 13.228 0 0.51755 0.51764 2.0705 1.1503 3.5084l1.0928 2.588-1.5529 1.0929c-1.9555 1.3227-5.5789 3.0482-10.755 5.0036-15.184 5.7514-36.982 16.334-44.229 21.453-5.4064 3.8534-19.325 15.471-19.325 16.219 0 0.1724-0.8052 1.2653-1.7829 2.358-3.911 4.2563-11.79 17.772-15.184 26.112-1.6104 3.8534-5.4638 15.931-6.3266 19.612-1.1504 4.716-3.1633 26.456-3.1633 33.473 0 8.6272 1.6679 16.967 6.3266 31.46 1.5529 4.7735 3.7384 13.803 5.4638 22.603 1.2078 5.9814 1.0928 7.8219-0.63265 10.468-2.013 3.0482-2.243 6.6715-1.1503 19.267 0.51764 5.694 1.3228 15.644 1.7829 22.143 1.3229 18.577 2.7032 26.917 6.7292 41.238 1.898 6.7867 5.0038 20.188 7.1318 30.942 3.3359 16.967 4.026 19.497 8.9722 31.346 0.34509 0.8053 0.8052 4.4286 1.0928 8.052 0.23005 3.6234 0.74765 7.5343 1.0352 8.6272 2.4731 8.7422 5.7513 17.887 8.2245 22.948 4.8312 9.8924 9.95 14.206 24.961 21.223 3.5084 1.6103 7.5919 3.3933 9.1448 3.9682 1.5529 0.5754 2.8757 1.3229 2.9907 1.668 0.11502 0.3452-1.4953 2.6458-3.5083 5.1189-7.6495 9.1448-16.047 30.598-21.338 54.063-1.5529 7.0742-2.6456 10.238-4.3136 12.653-2.1855 3.1632-3.3358 8.0519-3.7384 16.104-0.17254 3.4509-0.57513 9.0873-0.92016 12.423-0.69025 6.7291-0.34522 8.3396 1.8979 8.6847l1.3228 0.1724-0.17252 20.992c-0.17251 17.715-0.05752 21.683 0.74772 25.306 0.51763 2.3581 1.1503 6.3266 1.4379 8.7997 0.2876 2.473 0.97772 6.5565 1.4954 9.0297l0.97772 4.6013 135.39-3e-4h135.33v-5.2337c5e-5 -2.9332-0.40266-8.5696-0.92024-12.653-0.51766-4.026-0.80516-7.7069-0.63263-8.1672 0.17257-0.4601 1.0353-1.0352 1.9555-1.2077 1.7829-0.4602 5.9239-4.1986 5.9239-5.3488 0-1.668 1.8981-1.3804 5.2339 0.69 2.7608 1.668 3.8534 2.0707 5.2339 1.7831 2.7031-0.5177 4.9462-2.4731 5.6363-4.8313 2.4156-8.6273 6.4416-35.601 8.6273-57.342 0.5751-6.154 0.63264-6.3839 2.588-8.052 2.5307-2.243 6.4992-10.525 7.3618-15.414 0.63267-3.9109 0.4601-6.3264-1.6104-18.232-0.6901-3.9685-0.86264-7.0743-0.57505-11.215 0.51765-8.7422 0.51765-8.9147-0.46015-9.8925-0.63256-0.6327-3.5083-1.2654-8.8571-1.9554-11.273-1.4955-10.525-0.8627-10.123-8.5121l0.34507-6.3268-1.3804-0.2876c-1.5527-0.345-6.9017-0.9202-9.4321-1.0926-1.553-0.115-1.783 0.1148-2.5882 2.5881-0.4601 1.4955-1.0353 2.8181-1.2078 2.9908-0.1725 0.23-1.3229 0.1725-2.5881-0.1151l-2.2431-0.4601-0.1151-13.458c-0.115-7.4193-0.23-14.839-0.2875-16.392l-0.1726-2.8756 2.5882-0.1153c3.8533-0.2299 13.343-1.3226 19.842-2.3004 9.7774-1.5529 11.848-1.8404 18.692-2.4731 5.7514-0.5751 7.2468-0.9202 11.273-2.8181 3.9109-1.8405 4.7162-2.4732 5.0613-3.8534 0.17254-0.9202 1.2078-4.8887 2.2431-8.8573 1.5528-6.0965 2.0128-7.1891 3.0481-7.3618 0.6327-0.1149 1.5529 0.2301 1.9555 0.7478 0.4027 0.4601 1.2653 0.8626 2.013 0.8626 0.6901 0 1.7254 0.5176 2.3006 1.1504 1.0353 1.1503 5.924 4.0834 14.091 8.5119 2.358 1.2653 5.9814 3.2783 8.0519 4.4286 13.056 7.2467 20.705 9.8923 26.111 8.8573 2.4157-0.4602 8.3396-2.8758 12.423-5.0614 1.9554-1.0352 3.2207-2.818 4.8312-7.0742 0.80525-2.0704 0.97779-2.1856 3.5084-2.1856 1.7829 0 3.5083-0.4601 5.0611-1.3803 1.3229-0.7476 3.8535-1.8404 5.5791-2.358 4.0834-1.3229 9.2021-3.911 10.468-5.2339 0.9777-1.1502 2.4155-4.6011 2.9907-7.3043 0.4027-1.668 1.3803-2.2429 5.3488-3.2783 3.1632-0.8052 5.6365-2.9332 7.3618-6.3266 1.3804-2.7031 1.3804-2.7031 5.0038-3.1057 5.2339-0.5752 7.8796-1.3803 10.525-3.2209 4.3136-2.9905 4.9462-8.9146 1.4954-14.263-1.783-2.8183-1.898-4.3136-0.2876-4.9463 0.4601-0.1725 6.0964-3.796 12.481-7.9946 6.3841-4.1983 13.113-8.5695 14.954-9.6048 1.8404-1.0926 4.8313-3.1632 6.7291-4.6011 13.746-10.525 21.683-16.449 25.996-19.325 6.2116-4.1986 13.631-10.87 14.321-12.826 0.34515-0.9201 2.3006-2.6456 5.1188-4.5437 2.5307-1.7254 5.0039-3.6233 5.464-4.3134 1.3803-1.9555 1.0927-6.3842-0.69031-10.41-1.9554-4.5435-4.1984-6.9591-6.0389-6.499-1.4954 0.4026-12.423 6.7867-22.316 13.056-7.1318 4.5437-22.718 14.034-28.757 17.485-2.0705 1.1501-6.9593 4.1984-10.928 6.6713-3.9685 2.4733-8.8571 5.464-10.928 6.6718-9.3171 5.3488-12.135 7.1891-21.108 14.148-1.3227 1.0354-4.6587 3.5661-7.4768 5.6365-2.7606 2.0129-6.384 4.8313-8.052 6.154-1.6104 1.3803-3.1633 2.4731-3.451 2.4731-0.22994 0-2.5306-1.0353-5.0612-2.3006l-4.601-2.243 3.2207-0.0574c5.9816 0 12.366-1.7829 14.321-4.0261 0.17254-0.1725 1.7254-1.2078 3.4508-2.358 8.2821-5.4639 10.928-9.5473 10.928-16.967 0-5.809-1.8404-8.2247-6.269-8.2822-2.1856 0-2.9906 0.4027-6.3266 3.1058-5.694 4.6585-4.7162 4.4285-28.757 7.5343-5.5788 0.7477-7.8219 0.8052-10.64 0.345-2.013-0.345-6.7291-0.6325-10.525-0.6325-9.0872 0-16.737 1.5529-26.226 5.2339-6.4992 2.5304-11.445 3.9109-17.542 4.9462-1.0928 0.1725-2.6455 0-3.4508-0.4026-4.0836-1.898-5.2338-2.358-8.3396-3.3357-1.8404-0.6328-3.4508-0.863-3.6234-0.5753-0.1725 0.2301-0.11497 4.0835 0.1151 8.5122 0.23 5.2336 0.17246 8.052-0.17263 8.052-0.51767 0-1.7254-6.787-2.7607-15.644-0.23006-1.4951-0.69014-3.1055-1.1502-3.5656-1.0928-1.0354-15.126-1.6681-23.408-1.0356-5.7514 0.4601-6.269 0.5752-8.2246 2.3007-2.4731 2.243-3.1058 2.243-5.924 0.4027-1.7254-1.1504-2.4731-1.3229-3.8534-0.9203-0.97784 0.2301-8.3395 0.2876-16.391 0-13.919-0.4026-23.639-1.438-27.377-2.8758-2.9332-1.0927-17.944-2.128-25.421-1.7254-6.0965 0.2876-7.2468 0.5175-7.937 1.4378-0.46008 0.6327-0.80512 1.6105-0.80512 2.128 0 2.0705-1.1504 1.6104-3.796-1.4953-2.9907-3.4508-4.7736-4.0259-6.2115-1.8977-1.2078 1.6678-2.243 0.7475-4.4861-4.0837-1.898-4.1984-3.7384-6.4415-6.7867-8.3394-3.1058-1.9555-8.6271-3.7384-13.286-4.3713-10.813-1.3802-14.839-2.2429-17.887-3.9683-1.6679-0.9778-4.4286-2.013-6.0965-2.3581-2.4156-0.5178-3.1633-0.9777-3.8534-2.3006-0.57514-1.1503-1.6104-1.898-3.2208-2.4156-2.243-0.6328-2.8757-0.5177-8.7997 1.4379-3.5084 1.2078-6.5566 2.1279-6.7867 2.1279-1.898-0.0573 6.2691-9.3748 8.8573-10.122 2.1855-0.6327 2.5306-2.128 0.6326-2.4156-0.74768-0.115-1.3228-0.4026-1.3228-0.6902s-0.69016-1.3228-1.4954-2.3004c-1.4378-1.6681-1.4954-1.9556-0.80514-4.026 0.40261-1.2078 0.57519-2.8183 0.40261-3.5085-0.34506-1.2652 0.40256-3.3934 1.2078-3.3934 0.2876 0 1.2078 1.1504 2.128 2.5882 1.2078 1.9555 1.9555 2.5881 2.8182 2.4733 1.0352-0.1726 1.2078-0.6328 1.3804-3.3359 0.40258-7.4769-1.3804-14.551-4.6012-18.06-0.57522-0.6326-1.0353-1.2653-1.0353-1.4954 0-0.5175-3.2208-2.3004-4.256-2.3004-0.5177 0-2.1856 1.2653-3.796 2.8756-2.7606 2.7032-6.154 4.9463-6.6716 4.4286-0.17258-0.1723 0.6326-2.0128 1.7254-4.141 2.1856-4.0834 2.5881-6.7866 1.2079-8.6845-1.2078-1.8403-3.5084-2.0129-8.6272-0.7476-2.5306 0.6326-5.1763 1.3226-5.8665 1.4951-0.74768 0.1727-1.3228 0.0575-1.3227-0.2872 0-0.8052 1.2077-1.668 2.9907-2.1282 2.8182-0.6901 4.0835-2.7606 3.9685-6.3264-0.05747-1.7256 0.11499-3.1632 0.40262-3.1632 0.22998 0 1.0352 0.7474 1.7254 1.6678 1.4954 2.0705 9.0298 6.7866 11.503 7.3041 1.0353 0.2302 2.013 0.633 2.1856 0.8629 0.17251 0.2876 0.80518 0.5176 1.4378 0.5176 2.0705 0 1.1503-2.0705-3.7959-8.6846-2.6457-3.6235-5.694-7.937-6.7292-9.6624-1.0352-1.6679-2.358-3.7385-2.8757-4.6012-0.57519-0.8053-1.4379-2.3006-1.898-3.2209-2.7032-5.0611 12.941 14.379 16.104 20.073 1.6679 3.0482 3.4508 7.8218 4.371 11.79 0.28764 1.438 1.3804 4.3711 2.3007 6.5568 0.97768 2.1855 1.6104 4.0835 1.4379 4.2559-0.17258 0.2302-0.05756 0.6902 0.2875 1.0929 0.34513 0.4025 0.80528 6.3841 1.1503 14.148 0.28758 7.3617 0.80521 13.918 1.1503 14.551 1.1502 2.3005 6.9017 5.924 10.41 6.6141 1.898 0.3451 4.6011 1.3804 6.0964 2.2432 2.0705 1.2078 4.026 1.7255 8.4546 2.243 12.883 1.4954 19.612 4.4288 26.399 11.503 2.6457 2.7607 2.9333 2.8757 7.1318 3.5081 2.4732 0.2876 8.052 0.7477 12.481 0.9202 4.4286 0.1727 9.1447 0.4602 10.468 0.6329 2.0131 0.2874 2.5307 0.1723 2.8182-0.5754 0.40273-0.9777-1.3227-7.5917-5.924-22.776-1.3802-4.6011-3.0482-10.237-3.6233-12.538-0.63266-2.3005-2.5881-7.7642-4.371-12.078-7.4194-18.117-9.8925-24.559-10.87-28.297-0.46015-1.7253-1.3803-5.2336-2.0706-7.7644-1.5529-5.9238-2.1855-9.2596-2.1855-11.963l-0.05743-2.1852 2.473 0.1723c2.3581 0.1726 2.4156 0.2301 2.8757 2.7607 1.8979 10.237 5.0612 22.718 7.8793 31.345 0.6327 1.898 1.1504 3.8535 1.1504 4.3137 0 0.4601 0.34509 1.4954 0.74775 2.3005 0.86266 1.783 3.5084 9.9501 4.6587 14.666 0.5175 1.8977 1.2651 5.0034 1.7828 6.9015 0.97774 3.9685 1.6104 6.2114 4.8886 17.254 1.323 4.4286 2.8758 9.7773 3.5085 11.848 2.013 7.2469 1.7254 7.0167 9.1447 7.707 2.0706 0.2298 4.7163 0.6326 5.924 0.9203 1.7829 0.4599 2.4157 0.4024 3.1632-0.2877 0.86285-0.7476 1.1504-0.6901 2.3582 0.2877 1.0352 0.8626 2.243 1.0926 5.5787 1.0926l4.2561-1e-4v-3.0481c0-2.9907-0.8626-8.9147-2.5881-18.52-0.46007-2.5307-1.1503-7.1892-1.4378-10.353-1.3803-13.458-1.898-16.564-3.6234-20.992-0.63265-1.7255-1.3803-3.4509-1.6104-3.7385-0.8627-1.2078-5.0037-12.366-5.694-15.241-1.3227-5.5787-4.4861-13.918-5.8088-15.298-1.2653-1.3229-1.2653-1.5531-0.57514-4.9464 0.69004-3.3934 0.69004-3.6235-0.46006-4.5437-0.6903-0.5751-2.3008-1.1503-3.6811-1.3802-1.7828-0.3451-2.8757-0.9779-4.256-2.5882-1.0353-1.208-2.4732-2.3007-3.1633-2.5307-1.2652-0.2876-3.911-3.6809-3.911-4.8886 0-0.5753-2.6456-6.729-5.6364-13.286-0.74755-1.7254-2.0704-4.6012-2.8181-6.3267-0.8052-1.7254-1.898-4.2561-2.5306-5.5213-0.57519-1.3228-1.4954-3.6808-2.013-5.1763-0.51764-1.5529-1.6678-4.3136-2.5881-6.1542-0.92027-1.8403-1.6679-3.6808-1.6679-4.141 0-1.035-4.4286-9.5472-5.3488-10.352-0.86275-0.6901-2.2431-6.3841-2.5306-10.64-0.11504-1.7255 0.11497-4.8311 0.51765-6.9018 1.0928-5.4062 0.8627-6.0964-2.5882-7.8795-3.4509-1.7252-13.861-8.4544-15.816-10.18-1.4954-1.3228-2.9908-4.4286-2.9908-6.1539 0-0.9202 0.17247-0.9778 1.3803-0.4602 1.898 0.9201 5.0613 0.2301 6.9017-1.4954 1.8404-1.7255 1.8404-2.1854 0.17253-3.8534-0.7477-0.7476-2.3006-2.5308-3.4509-4.026-1.2078-1.5529-4.9462-4.6012-8.8572-7.3043-3.7385-2.588-8.7998-6.2689-11.33-8.2821-2.4731-1.9556-6.3265-4.8887-8.5696-6.499-2.2431-1.6104-4.3136-3.3357-4.6587-3.7961-0.4026-0.6902 0.115-2.0129 2.013-5.3489 1.3804-2.473 2.8757-4.601 3.2208-4.716 0.74772-0.2876 1.783 0.2301 8.052 4.4861 2.9332 2.0132 5.1763 2.9333 8.9147 3.9111 6.2691 1.4954 8.2821 1.4954 12.021 0.0575 6.6716-2.6456 9.1448-5.694 9.1448-11.388 0-4.026 1.3228-5.809 5.3488-7.3045 1.898-0.6325 3.1632-1.6102 3.9109-2.8182 1.0928-1.7255 1.1503-2.473 0.17263-6.269-0.34512-1.4952-0.2876-1.5528 2.1855-1.5528 4.026 0 4.6587-0.80524 5.0613-6.3842 0.28754-4.4285 0.4026-4.8886 1.7254-5.5212 1.1503-0.51767 2.1855-0.46023 5.0038 0.23 4.7737 1.208 8.3971 0.6327 10.698-1.6103 1.6679-1.668 1.6679-1.8404 1.3229-5.5791-0.6902-7.3043-1.3804-14.781-1.8405-19.497l-0.4026-4.6586 2.4156-1.2078c1.6104-0.86284 2.3581-1.6103 2.3581-2.4156 0-1.6104 1.7829-4.5437 2.7607-4.5437 0.40264 0 3.1632 1.2079 6.0389 2.7034 9.4899 4.8311 10.698 5.4064 15.241 6.9017 3.5658 1.1502 5.9815 1.4952 12.251 1.7253 9.835 0.40265 13.861-0.05745 15.874-1.783 1.4953-1.2654 1.4953-1.4954 0.8628-3.6234-1.783-5.9242-10.468-14.378-20.533-19.957-0.9203-0.5177-2.7607-1.6106-4.026-2.3581-1.2654-0.74774-6.6716-3.6234-12.078-6.3841-18.06-9.2023-24.616-12.883-22.948-12.883 0.4602 0 7.8795 2.7608 10.87 4.0837 3.0484 1.3227 16.449 6.269 16.909 6.269 0.80525 0 1.0928-0.57525 3.5084-7.3619 1.2079-3.3933 2.8758-7.9946 3.7384-10.18 4.8889-12.998 4.1987-38.189-1.5528-56.651-3.5659-11.215-14.666-25.824-24.328-31.863-1.8979-1.2079-4.1986-2.9332-5.1764-3.7959-0.92014-0.8629-3.4507-2.4156-5.5788-3.3934-3.6234-1.6678-5.2913-2.9333-3.911-2.9333 0.34507 0 2.1281 0.74784 4.026 1.7256 4.8313 2.4155 6.8443 1.4378 3.5084-1.7256-1.898-1.7254-12.596-7.1317-18.462-9.3748-7.0167-2.6456-23.178-5.924-25.306-5.1762zm29.62 16.449c4.6586 2.5306 12.826 9.0297 15.184 12.136 3.2209 4.3137 5.2338 8.2247 5.2337 10.18 0 2.5306-0.86267 2.013-2.6456-1.4953-0.86266-1.7256-2.6457-4.5437-3.9109-6.2115-2.7033-3.6235-11.905-11.676-16.277-14.379-5.1188-3.0482-3.2208-3.2783 2.4156-0.23003zm-72.756 250.59c0 0.2876-0.11496 0.575-0.22998 0.575-0.17258 0-0.46018-0.2874-0.63268-0.575-0.1726-0.3452-0.05754-0.5753 0.23006-0.5753 0.34506 0 0.6326 0.2301 0.6326 0.5753zm1.4379 0.575c0.1725 0.2876 0.05748 0.5753-0.2301 0.5753-0.34505 0-0.63264-0.2877-0.63264-0.5753 0-0.3451 0.11502-0.575 0.23007-0.575 0.17251 0 0.46007 0.2299 0.63267 0.575zm11.848 9.7775c4.8887 4.8886 7.8794 8.3971 9.2598 10.87 1.1502 2.0705 1.9554 3.9686 1.7829 4.2562-0.40254 0.6326-2.4731-1.2653-2.4731-2.3008 0-0.4023-0.23004-0.7475-0.51761-0.7475s-1.4378-1.3802-2.5306-3.0482c-1.0928-1.6104-5.2914-6.2117-9.2599-10.18-3.9685-3.9686-7.2468-7.3619-7.2468-7.6495 0-1.2652 4.4286 2.3005 10.985 8.7997zm-33.416 1.9554c4.6011 7.5919 5.8664 9.9499 17.542 32.553 10.122 19.67 13.343 25.766 14.263 26.917 0.28757 0.4027 0.46012 0.8625 0.28757 0.9776-0.92025 0.9203-2.4731-1.2651-6.4416-9.087-5.2913-10.41-7.8794-15.011-8.5121-15.242-0.23007-0.1151-0.46017-0.5176-0.46017-0.9203 0-0.3451-0.9777-1.8404-2.128-3.3358-5.1188-6.3265-10.353-14.034-12.078-17.714-0.34506-0.8052-2.1281-4.9463-3.911-9.2023-1.8404-4.2561-4.026-9.4324-4.9462-11.445-0.92029-2.013-1.668-3.7958-1.668-4.0259 0.11509-0.9778 4.7162 5.1188 8.0521 10.525zm19.785-4.7161c7.5344 7.7643 16.162 16.909 19.037 20.36 1.5529 1.8406 5.0038 5.579 7.6494 8.2246 2.6457 2.6458 5.1763 5.4639 5.7515 6.3267 0.51765 0.805 2.5306 3.5658 4.4286 6.0964 1.9555 2.5308 5.1763 7.4193 7.1892 10.928 2.013 3.4507 4.6012 7.8219 5.7515 9.6047 1.2078 1.783 2.7031 4.7738 3.4508 6.6143 0.69013 1.8404 1.6679 4.141 2.0705 5.1761 0.46014 0.9779 0.80517 1.9556 0.80517 2.1281 0 0.2302 1.2079 2.4156 2.6457 4.9464 1.783 3.1632 2.8757 4.4286 3.4509 4.1985 0.46004-0.1728 0.80511-0.5179 0.80511-0.8053 0-0.8053 3.6234 1.2078 4.4861 2.473 0.40255 0.5753 1.4953 1.8979 2.473 2.8756 1.3228 1.4379 1.668 2.4156 1.668 4.3137 0 1.3801-0.2301 2.473-0.46013 2.473-0.23011 0-2.9332-0.7476-5.8665-1.7253-2.9907-0.9202-6.0389-1.7255-6.7291-1.7255-0.69018 0-1.3803-0.2299-1.6104-0.5174-0.1724-0.2877-1.9554-0.7478-4.0259-0.9204-4.4286-0.5175-5.8665-1.4379-7.7069-5.176-2.5882-5.1765-1.4954-11.791 2.013-11.791 1.6678 0 2.4156-1.3802 1.3803-2.588-0.40258-0.4603-1.6104-0.9779-2.8182-1.208-3.5659-0.5751-3.796-0.6902-2.7607-1.8404 0.80522-0.9202 0.63267-1.3229-2.8757-5.5789-2.0705-2.5307-3.9685-5.0613-4.3136-5.6939-0.28759-0.5752-1.1503-1.7256-1.8979-2.5882-1.668-1.898-9.4899-12.653-9.4899-13.056 0-0.1725-0.92023-1.4954-2.0705-2.8756-1.1503-1.4379-1.9555-2.7031-1.783-2.9334 0.2301-0.1725 0.97779 0.4029 1.6679 1.323 0.74775 0.9202 3.3933 3.9684 5.924 6.8443 2.5306 2.8181 5.579 6.499 6.7292 8.052 2.7606 3.7957 7.822 8.1095 8.6271 7.3043 0.46009-0.4602-3.0483-7.5344-6.4416-12.768-0.28753-0.4601-0.97775-1.6679-1.4954-2.7031-0.51764-1.0353-1.2653-2.1282-1.7254-2.5308-0.46007-0.3451-0.80527-0.9201-0.80527-1.2653 0-0.6325-2.8181-4.2561-7.6494-9.6048-1.8405-2.0707-3.5084-4.026-3.7384-4.3136-0.23005-0.3451-2.9908-3.5658-6.154-7.1892-3.1633-3.6233-6.4991-7.5343-7.4193-8.6271-0.86275-1.0928-4.3136-4.7737-7.7069-8.2245-3.3358-3.3935-5.6939-6.1542-5.2914-6.1542 0.4026 0 2.5882 1.898 4.8312 4.1411zm28.815 0.5177c0.63263 0.9777-0.05753 1.2078-0.86271 0.23-0.46014-0.5177-0.46014-0.8629-0.11508-0.8629 0.3451 0 0.80516 0.2877 0.97779 0.6329zm5.1188 1.1502c1.6103 1.8981 1.898 2.8182 0.8627 2.8182-1.2078 0-3.6809-2.5882-3.5084-3.6234 0.28755-1.4377 0.9778-1.2076 2.6457 0.8052zm-60.39 10.238c1.1504 2.8758 2.5307 6.5568 2.9907 8.2246 0.46008 1.6679 1.2654 4.486 1.7255 6.2115 0.46012 1.7256 2.128 8.3395 3.6809 14.666 1.5529 6.3266 3.2208 13.113 3.7384 15.069 1.0353 4.1984 1.0353 4.1984 0.28754 4.1984-0.28754 0-0.57506-0.4601-0.57506-1.0352 0-0.5752-0.2301-1.2654-0.51762-1.5529-0.23011-0.3452-0.80524-2.5883-1.2078-5.0614-0.40259-2.4732-0.97772-4.601-1.2078-4.7736-0.28753-0.1727-0.51761-0.8052-0.51761-1.3804 0-1.0352-1.0352-4.601-3.4509-12.078-0.51765-1.7254-1.6104-5.3487-2.3006-8.0519-1.2078-4.5436-2.358-8.5696-4.371-14.896-0.40262-1.3804-0.63272-2.7033-0.46015-2.9908 0.17252-0.2874 0-0.5176-0.2876-0.5176-0.34502 0-0.63256-0.2877-0.63256-0.575 0-1.7255 1.1502 0 3.1057 4.5434zm66.659 57.399c-0.40262 0.1151-1.0928 0.1151-1.4379 0-0.40262-0.1722-0.11505-0.2873 0.69015-0.2873 0.80517 0 1.0927 0.1151 0.74771 0.2873zm39.512 17.657c0 0.1725-0.23 0.4601-0.5751 0.6326-0.2877 0.1726-0.57516 0.0575-0.57516-0.23 0-0.3451 0.2876-0.6327 0.57516-0.6327 0.3451 0 0.5751 0.1151 0.5751 0.2301zm4.601 15.874c0 0.2875-0.22983 0.5749-0.57505 0.5749-0.28755 0-0.57505-0.2874-0.57505-0.5749 0-0.3452 0.2875-0.5752 0.57505-0.5752 0.34522 0 0.57505 0.23 0.57505 0.5752zm4.3136 11.1c1.2078 3.2207 2.9332 8.5695 3.796 11.905 0.86265 3.3359 1.783 6.4994 1.9555 7.0167 0.2301 0.6328 0.17253 1.0353-0.23 1.0353-0.3452 0-0.6327-0.4025-0.6327-0.8628 0-0.4601-0.23015-1.3228-0.5752-1.8979-0.6902-1.2652-4.8886-14.148-5.4638-16.794-0.22995-1.0926-0.80515-2.5308-1.2078-3.1633-0.8627-1.2079-1.0928-3.1632-0.3451-3.1632 0.23004 0 1.4379 2.6455 2.7031 5.9239zm8.052 26.284c0.1727 0.2874 0.05764 0.575-0.23 0.575-0.34505 0-0.6326-0.2876-0.6326-0.575 0-0.3452 0.11494-0.5753 0.23006-0.5753 0.17248 0 0.46008 0.2301 0.63254 0.5753zm1.4379 6.0389c0 0.4601-0.115 0.8629-0.23 0.8629s-0.3451-0.4028-0.5751-0.8629c-0.1727-0.4601-0.0575-0.8626 0.23-0.8626 0.3451 0 0.5751 0.4025 0.5751 0.8626zm0.8628 2.5882c0.1725 0.2876 0.0575 0.5751-0.2301 0.5751-0.345 0-0.6327-0.2875-0.6327-0.5751 0-0.3451 0.1151-0.5752 0.2301-0.5752 0.17254 0 0.4601 0.2301 0.6327 0.5752zm0.86266 2.6457c0 0.46-0.2876 0.6901-0.57516 0.5175-0.345-0.2299-0.4601-0.6325-0.2875-0.9201 0.51756-0.8052 0.86266-0.6327 0.86266 0.4026zm0.57519 2.8183c0 0.4599-0.11505 0.8626-0.2301 0.8626-0.11499 0-0.34509-0.4027-0.57505-0.8626-0.1725-0.4603-0.05764-0.8629 0.22996-0.8629 0.34509 0 0.57519 0.4026 0.57519 0.8629zm1.1502 2.5879c0 0.2876-0.2301 0.5751-0.57516 0.5751-0.28763 0-0.5751-0.2875-0.5751-0.5751 0-0.3451 0.28747-0.5751 0.5751-0.5751 0.34506 0 0.57516 0.23 0.57516 0.5751zm0.40259 4.1409c-0.17255 0.4027-0.2876 0.1152-0.2876-0.6898 0-0.8055 0.11505-1.0929 0.2876-0.748 0.11499 0.4026 0.11499 1.0927 0 1.4378zm4.6012 19.842c-0.17257 0.5752-0.28756 0.2301-0.28756-0.6902 0-0.9776 0.11499-1.3802 0.28756-1.0351 0.11503 0.4025 0.11503 1.2077 0 1.7253zm1.0352 2.4731c0.17254 0.2876 0.05755 0.5754-0.23004 0.5754-0.3451 0-0.63269-0.2878-0.63269-0.5754 0-0.3449 0.11513-0.5751 0.23013-0.5751 0.1725 0 0.4601 0.2302 0.6326 0.5751zm0.8628 3.7961c0 0.4601-0.23005 0.69-0.5752 0.5175-0.2876-0.1726-0.57514-0.5751-0.57514-0.9201 0-0.2876 0.28754-0.5177 0.57514-0.5177 0.34515 0 0.5752 0.4026 0.5752 0.9203zm33.703 151.95c-0.5176 0.5176-2.1281-0.4601-1.783-1.0354 0.28766-0.4601 0.63263-0.4025 1.2079 0.0575 0.4601 0.3451 0.6901 0.8053 0.5751 0.9779z"/> </g> <g fill="#121111"> <path d="m956.87 520.27c-2.2252 4.4749-4.6373 8.3909-5.4743 8.8587-0.7439 0.37364-6.7934 1.8764-13.495 3.2883-6.608 1.411-18.801 3.9524-26.991 5.7398-8.1906 1.6943-21.779 4.6107-30.249 6.3988-8.4698 1.7875-17.404 3.7626-20.01 4.3273-2.5128 0.56436-6.701 1.5047-9.307 1.9759-2.5133 0.47084-6.3293 1.2245-8.3767 1.6947-3.6298 0.84619-19.917 4.3271-51.19 10.914-20.383 4.328-43.093 9.2201-61.707 13.265-8.5628 1.7881-19.731 4.1411-24.851 5.1763-5.0264 0.9423-9.8664 1.9774-10.703 2.2586-1.3958 0.4685-6.9804 1.5984-50.26 10.726-9.9588 2.1634-18.8 4.0449-19.545 4.3259-0.8373 0.2816-5.6772 1.3165-10.704 2.2588-5.1189 1.0354-16.381 3.3883-25.13 5.27-8.6556 1.7882-22.896 4.8926-31.645 6.7743-8.6556 1.7883-17.312 3.6696-19.08 4.0458-1.7687 0.37636-8.6555 1.8816-15.357 3.2931-6.6084 1.4114-13.589 2.8239-15.357 3.2936-3.3503 0.75194-17.777 3.763-38.16 7.999-6.4222 1.3175-15.357 3.2924-20.01 4.327-4.5603 1.1274-10.424 2.3507-13.03 2.8221-2.5134 0.4712-6.329 1.2246-8.3764 1.6947-2.0477 0.47-10.796 2.3518-19.545 4.2332-16.381 3.4815-36.485 7.7161-62.824 13.361-34.437 7.4327-46.257 9.9727-50.259 10.726-2.3272 0.3783-8.3766 1.6952-13.495 2.8235-5.1192 1.1288-16.008 3.4807-24.199 5.1747-8.1903 1.7876-21.965 4.7046-30.714 6.586-8.6556 1.8816-20.662 4.422-26.526 5.6455-10.424 2.1648-37.694 7.9977-47.002 9.9732-10.424 2.2583-13.589 2.6382-26.718 2.6669-8.0079 0.1107-13.874 0.49585-14.245 1.0555-0.27826 0.46631-1.674 0.93496-3.0707 0.93796-2.0483 0.0043-10.319 7.8444-47.111 44.8l-44.597 44.794 2.249 6.5132c1.2187 3.6285 2.809 6.9774 3.3688 7.4421 0.74616 0.55667 27.006 0.9644 71.329 0.9596l70.21 0.12496 0.29358 6.4241c0.29126 5.4002 0.57276 6.4237 2.0636 6.793 1.8635 0.4614 1.8666 1.9512 2.0348 78.12 0.17017 77.007 0.17139 77.566-1.6888 78.594-1.767 0.93503-1.8583 1.7733-1.6508 11.457l0.30237 10.428 5.1223 0.45508 5.1226 0.45361 0.30286 10.708c0.30493 11.639 0.49231 12.104 5.7999 12.092 4.4696-0.01 5.7709-1.1299 5.3912-4.2952-0.19043-1.955-0.84411-2.7915-2.4274-2.9745-2.0494-0.2748-2.1433-0.6471-1.8798-7.9109l0.26233-7.6362 5.1202-0.4761 5.1202-0.4779 0.25562-10.802c0.16369-10.243 0.06909-10.895-1.7011-11.356-1.8632-0.46143-1.8642-0.83386-2.0349-78.213-0.16822-76.262-0.17164-77.752 1.6896-78.221 1.489-0.37635 1.766-1.401 2.0333-6.8026l0.26538-6.425 357.38-1.0679 357.29-0.9738 0.8624 390.99c0.47464 215.1 1.1432 391.64 1.4245 392.48 0.46863 1.3025 2.7967 1.4839 16.019 1.4549l15.457-0.0344 28.524-28.557c21.835-21.836 28.618-28.184 29.086-26.974 0.2818 0.8377 0.58929 13.687 0.62163 28.492l0.05946 26.91 7.9148-0.0176c7.5424-0.0163 7.9144-0.1106 7.91-2.1591-0.00245-1.1172-0.3903-176.83-0.8607-390.34-0.47147-213.61-0.5796-389.22-0.30276-390.44l0.55406-2.0495 62.202-0.13723c55.869-0.12314 62.201 0.04873 62.763 1.3514 0.2812 0.83715 0.5781 8.9378 0.5986 18.156l0.0366 16.668 44.044-0.28304 43.95-0.37671 0.2415-17.227c0.1531-14.899 0.427-17.414 1.7283-18.441 1.1154-0.83997 7.26-1.1331 22.81-1.1671l21.23-0.047 3.7168-3.6395 3.7167-3.6402-0.1008-45.627-0.1004-45.534-4.1986-3.9015c-3.8252-3.5299-4.571-3.8074-9.4128-3.7968-4.4697 0.01015-6.2404-0.54496-12.86-4.2549-4.103-2.412-11.002-6.3078-15.198-8.6262-11.746-6.4925-11.466-6.214-11.486-15.432l-0.0178-7.9148-29.332 0.06435-7.3652-4.174c-4.1021-2.3182-7.551-4.1733-7.7373-4.1727-0.1863 2.3e-4 -1.865-1.0205-3.8225-2.1332-4.9422-3.1553-13.054-7.793-44.007-25.231-15.104-8.5339-30.207-17.067-33.564-19.015-11.934-6.9574-31.327-17.995-36.361-20.685-2.7966-1.4838-5.5005-3.061-6.0601-3.4318-0.4665-0.37134-2.7976-1.7633-5.1279-2.9688-14.637-8.0686-79.154-44.8-81.113-46.193-1.3053-0.83525-4.6694-6.1354-7.5679-11.623-2.806-5.5809-5.6097-10.23-6.1685-10.415-0.55894-0.1849-2.7865 3.2654-5.0116 7.6465zm-8.253 15.569c0.0016 0.65175-8.897 19.015-19.651 40.828l-19.747 39.618-0.19384 38.644c-0.1226 29.052-0.4734 38.737-1.3102 39.298-0.6511 0.374-2.9778 0.75205-5.3057 0.75694l-4.1903 0.00891-17.189 17.264c-9.4766 9.519-17.84 17.266-18.585 17.268-0.745 0.00184-7.4624-6.0356-14.928-13.47-10.546-10.591-13.997-13.47-15.953-13.466-1.3968 0.00306-3.0745-0.6454-3.7281-1.4819-1.2137-1.4871-25.424-1.5266-328.14-0.48697-216.68 0.75697-326.93 0.81391-327.12 0.16254-0.18738-0.46521 1.3006-1.3069 3.255-1.6835 1.9546-0.4696 10.424-2.2571 18.894-4.0457 8.4696-1.7877 22.244-4.7978 30.714-6.5855 8.4694-1.881 19.545-4.1407 24.664-5.1756 5.0262-0.94253 9.8661-1.9778 10.703-2.2587 0.8374-0.28124 8.5622-1.9744 17.218-3.7629 8.749-1.8811 21.872-4.7037 29.318-6.3032 7.4462-1.506 20.197-4.2344 28.387-5.9288 14.054-3.0113 23.454-4.9871 61.428-13.172 8.7493-1.7885 22.989-4.8922 31.645-6.6811 8.7486-1.8818 17.497-3.7633 19.545-4.2332 2.0474-0.47009 5.8636-1.2234 8.3767-1.6946 2.6062-0.5646 9.6794-2.0696 15.822-3.3868 6.1427-1.3175 15.171-3.2928 20.011-4.3278 4.8401-0.9415 15.729-3.2934 24.199-5.0814 8.4695-1.881 20.569-4.4225 26.991-5.7399 6.4219-1.4111 13.123-2.8227 14.892-3.1988 1.7681-0.3761 10.424-2.2577 19.079-4.1392 8.7493-1.7887 22.989-4.7997 31.645-6.681 8.7486-1.882 19.824-4.2341 24.664-5.1759 4.84-0.94153 11.728-2.4469 15.171-3.2925 3.5368-0.84597 12.379-2.7277 19.545-4.2333 7.2598-1.5056 20.383-4.2352 29.039-6.1164 8.7488-1.882 20.01-4.2347 25.13-5.2701 5.1189-1.0358 12.658-2.7283 16.753-3.6683 4.0947-1.0336 11.634-2.6333 16.753-3.6683 5.1192-1.0359 16.474-3.3887 25.13-5.2701 20.476-4.3285 41.511-8.8443 61.894-13.173 8.935-1.8821 17.963-3.8576 20.01-4.3275 2.0476-0.47024 5.8637-1.2237 8.3766-1.6947 2.6059-0.56424 6.5152-1.3179 8.8417-1.8817 47.002-10.067 65.43-14.018 66.827-14.115 0.55874-0.0946 1.1184 0.4629 1.1196 1.0216zm52.186 18.136c9.5094 5.3795 23.121 13.078 30.3 17.159 15.477 8.8119 41.955 23.838 55.008 31.259 5.1275 2.875 15.383 8.7188 22.843 12.986 7.4587 4.2669 15.01 8.5342 16.782 9.5544 1.7712 0.9271 7.4587 4.1739 12.586 7.1421 18.274 10.482 36.455 20.778 44.006 24.951 4.2883 2.3187 7.7383 4.5459 7.7393 4.9186 9e-4 0.46509-10.893 0.7688-24.115 0.79792-21.976 0.04834-24.117 0.23924-24.766 1.6372-0.2773 0.93174-0.5403 8.3816-0.4292 16.575 0.1111 8.1941 0.1277 15.643 0.1294 16.481-0.0896 1.583-3.7207 1.6841-62.384 1.8138l-62.294 0.1371-0.56385-2.3265c-0.37536-1.3029-0.6029-19.925-0.65014-41.435l0.00674-39.109-18.425-37.02c-10.194-20.277-18.613-37.299-18.893-37.67-0.56141-1.1166 3.0747 0.83106 23.12 12.147zm-23.223 25.471c7.9499 15.813 14.684 29.207 14.778 29.765 0.18725 0.46534-11.358 0.86294-29.982 0.90374-16.668 0.03675-30.356-0.21264-30.357-0.678-0.19066-1.7691 29.2-59.565 30.132-59.288 0.5591 0.27819 7.4789 13.392 15.429 29.298zm7.5556 48.125c0.0028 1.3037-57.882 58.977-58.721 58.42-0.8394-0.55713-1.1464-55.308-0.313-57.545 0.4626-1.3047 4.0007-1.4992 29.794-1.5558 16.109-0.0359 29.239 0.3083 29.24 0.68084zm13.13 42.525 0.0647 29.332-28.68 0.0626c-15.83 0.0354-29.052-0.21475-29.426-0.5868-0.65319-0.65017 55.928-58.134 57.232-58.137 0.46567-0.0011 0.77426 13.22 0.80966 29.33zm244.94 21.528c5.5937 3.154 10.256 6.1234 10.257 6.4958 5e-4 0.37267-5.0269 0.75623-11.08 0.76941-12.57 0.02771-12.197 0.30626-12.216-7.9808-0.0085-3.8183 0.3611-5.0296 1.3855-5.0319 0.7454-0.0016 5.9659 2.5942 11.652 5.7475zm-973.94 27.754c0.00268 1.1175-66.243 67.469-67.361 67.472-1.024 0.00232-67.655-66.057-67.657-67.081-0.00104-0.46546 30.355-0.81166 67.508-0.8938 37.153-0.08172 67.51 0.13044 67.51 0.50314zm178.78-0.30123c9.7e-4 0.37268-15.05 15.77-33.446 34.248l-33.448 33.596-5.6921-5.5747c-26.969-26.479-62.059-61.879-61.688-62.252 0.7433-0.74658 134.27-0.85504 134.27-0.01727zm178.78-0.3941c8e-4 0.37243-15.05 15.77-33.446 34.247l-33.448 33.596-33.596-33.448c-18.477-18.396-33.596-33.727-33.597-34.099-8.6e-4 -0.4657 30.168-0.81136 67.042-0.8928 36.874-0.08116 67.044 0.13137 67.045 0.59707zm178.78-0.39397c1e-3 0.37254-15.05 15.77-33.446 34.247l-33.448 33.596-33.596-33.448c-18.477-18.396-33.596-33.727-33.597-34.099-8.5e-4 -0.4659 30.168-0.81156 67.042-0.893 36.874-0.0813 67.044 0.1315 67.045 0.5972zm192.76 5.8141 0.0153 6.9838-13.223 0.02905-13.223 0.02895-6.3453-6.2251c-3.5459-3.4376-6.3469-6.5973-6.3477-6.9696-8.3e-4 -0.4657 8.8447-0.7647 19.553-0.7878l19.554-0.0432 0.0157 6.9839zm76.341-6.5934c0.0027 1.3036-26.387 26.503-27.04 25.853-0.3733-0.37173-0.845-3.2571-1.0384-6.3296l-0.2917-5.5863-30.73-0.86364-0.2915-5.4934c-0.19287-2.979-0.10654-6.0523 0.17126-6.7047 0.37-1.0252 5.9567-1.3169 29.887-1.3694 16.109-0.03589 29.332 0.2146 29.334 0.49415zm66.784 9.071c0.4072 15.642 0.9658 15.548-11.912 2.7266-6.0659-6.039-11.106-11.336-11.107-11.801-1e-3 -0.37293 5.1201-0.57031 11.452-0.49121l11.361 0.25454 0.2068 9.3111zm112-9.3724c-0.0893 1.5832-21.368 21.837-22.207 21.28-1.1187-0.64966-1.5349-20.203-0.4197-21.23 0.8362-0.93325 22.625-0.8881 22.627-0.04994zm-1106.6 39.035c18.384 18.304 33.317 33.635 33.038 33.915-0.27893 0.2799-30.821 0.4404-67.788 0.4288l-67.23-0.13115 33.633-33.876c18.489-18.571 33.913-33.783 34.192-33.783 0.27954-4.9e-4 15.677 15.05 34.155 33.446zm178.5-0.67266c18.384 18.303 33.41 33.541 33.41 33.914 0.00123 0.4657-30.168 0.81164-67.135 0.893-44.789 0.09875-67.044-0.1315-66.766-0.7838 0.46252-1.3977 65.127-66.908 66.244-67.097 0.46558-1e-3 15.956 14.864 34.247 33.074zm178.78-0.39423c18.385 18.304 33.41 33.541 33.411 33.914 1e-3 0.4657-30.168 0.81201-67.041 0.89316-36.874 0.0808-67.044-0.1315-67.045-0.50406-0.00171-0.83814 66.15-67.469 66.895-67.471 0.2793-3.4e-4 15.49 14.957 33.781 33.168zm178.78-0.39447c18.385 18.304 33.41 33.541 33.41 33.914 0.0011 0.4657-30.167 0.81152-67.041 0.89276-36.874 0.0814-67.044-0.1312-67.045-0.5038-0.00171-0.8381 66.15-67.469 66.895-67.471 0.27927-6.4e-4 15.49 14.958 33.781 33.168zm162.26-16.932 16.33 16.072-0.1473 17.413-0.24146 17.32-50.002 0.39014c-27.562 0.15366-50.097 0.01721-50.098-0.35524-0.0023-1.1174 66.337-67.469 67.082-67.285 0.3728 0.1854 8.1176 7.5243 17.076 16.444zm274.24 4.6094 21.93 21.834 0.0269 11.919 0.0259 11.826-47.023 0.10414-47.024 0.1037-0.2993-9.2176-0.3001-9.2185 24.435-24.637c13.379-13.531 24.808-24.544 25.367-24.545 0.5588-0.00124 10.823 9.8463 22.862 21.832zm147.41 44.65c-0.2771 0.932-4.4674 1.1274-18.249 0.9713l-17.785-0.24024-0.0261-11.919-0.0264-11.826 17.653-17.545 17.654-17.451 0.6216 28.399c0.3137 15.643 0.3433 28.958 0.1584 29.611zm-281.35 19.989c0.0033 1.4898-57.604 58.325-58.443 57.767-1.1188-0.64914-1.6141-56.518-0.49913-57.544 0.7429-0.8399 58.941-0.968 58.942-0.223zm13.213 79.957c0.08204 37.153-0.13026 67.51-0.50281 67.51-1.1172 0.00245-67.47-66.243-67.472-67.361-0.00232-1.0243 66.057-67.655 67.081-67.657 0.46557-0.0011 0.81189 30.354 0.8938 67.508zm-811.74-63.298c0.84278 2.2332 0.98828 152.43 0.05994 153.83-0.46338 0.83911-2.6045 1.1234-7.1676 0.94675l-6.4256-0.265-0.45167-78.031-0.35827-77.937 6.8905-0.01551c5.4008-0.01159 6.9845 0.26417 7.4528 1.4735zm807.29 154c-1.8548 3.3562-65.873 66.537-66.805 65.98-1.119-0.7425-1.7827-132.87-0.6682-134.09 0.37156-0.3733 15.862 14.491 34.432 32.98 26.411 26.294 33.691 34.007 33.041 35.126zm5.1296 88.262c0.2656 35.943 0.1455 65.926-0.2256 66.579-0.5569 0.8394-10.354-8.2646-34.431-32.236-18.478-18.396-33.596-33.914-33.598-34.379-0.00378-1.769 67.173-68.216 67.455-66.726 0.1881 0.744 0.5337 30.82 0.7991 66.762zm-37.403 55.766 34.062 33.912-33.912 34.062c-22.67 22.863-34.099 33.596-34.566 32.853-0.37391-0.5584-0.81297-30.913-0.89344-67.322-0.12243-55.497 0.13047-67.416 1.1546-67.418 0.09324-5e-4 15.398 15.237 34.155 33.912zm38.45 122.83c0.1052 47.861-0.1326 66.671-0.87674 67.138-1.1159 0.6541-68.213-65.497-67.843-66.709 0.64795-1.7703 66.987-67.842 67.733-67.379 0.4661 0.2783 0.90125 28.678 0.986 66.949zm-37.812 123.83c-18.675 18.757-34.192 33.876-34.658 33.598-0.83946-0.5569-1.3149-131.66-0.48204-133.99 0.46324-1.2114 8.4877 6.2197 34.804 32.42l34.156 34.006-33.819 33.969zm38.208 56.065c0.0802 36.408-0.226 66.485-0.59784 66.766-0.46509 0.2803-16.048-14.77-34.807-33.445l-33.969-33.82 33.912-34.062c22.577-22.677 34.099-33.596 34.567-32.853 0.37377 0.6508 0.81307 30.913 0.89387 67.414zm-37.907 122.81c-26.851 27.063-34.006 33.691-34.568 32.388-0.7496-2.0467-1.2196-130.83-0.47935-132.88 0.46265-1.2114 8.4873 6.22 34.804 32.421l34.155 34.005-33.912 34.062z"/> </g> </svg>